<?xml version="1.0" encoding="UTF-8" standalone="no"?>
<!-- Generator: Adobe Illustrator 16.2.1, SVG Export Plug-In . SVG Version: 6.00 Build 0)  -->

<svg
   xmlns:dc="http://purl.org/dc/elements/1.1/"
   xmlns:cc="http://creativecommons.org/ns#"
   xmlns:rdf="http://www.w3.org/1999/02/22-rdf-syntax-ns#"
   xmlns:svg="http://www.w3.org/2000/svg"
   xmlns="http://www.w3.org/2000/svg"
   xmlns:xlink="http://www.w3.org/1999/xlink"
   xmlns:sodipodi="http://sodipodi.sourceforge.net/DTD/sodipodi-0.dtd"
   xmlns:inkscape="http://www.inkscape.org/namespaces/inkscape"
   version="1.1"
   id="Layer_1"
   x="0px"
   y="0px"
   width="1060.3887"
   height="765.39844"
   viewBox="0 0 1060.3887 765.39844"
   enable-background="new 0 0 1100 800"
   xml:space="preserve"
   sodipodi:docname="Athens Dentistry.svg"
   inkscape:version="0.92.0 r15299"><metadata
     id="metadata4659"><rdf:RDF><cc:Work
         rdf:about=""><dc:format>image/svg+xml</dc:format><dc:type
           rdf:resource="http://purl.org/dc/dcmitype/StillImage" /><dc:title></dc:title></cc:Work></rdf:RDF></metadata><defs
     id="defs4657"><defs
       id="defs4559"><rect
         height="53.841"
         width="89.587997"
         y="472.08701"
         x="431.97699"
         id="SVGID_1_" /></defs><clipPath
       id="SVGID_2_"><use
         height="100%"
         width="100%"
         y="0"
         x="0"
         style="overflow:visible"
         id="use4561"
         overflow="visible"
         xlink:href="#SVGID_1_" /></clipPath><defs
       id="defs4573"><rect
         height="96.287003"
         width="64.992996"
         y="308.875"
         x="92.065002"
         id="SVGID_3_" /></defs><clipPath
       id="SVGID_4_"><use
         height="100%"
         width="100%"
         y="0"
         x="0"
         style="overflow:visible"
         id="use4575"
         overflow="visible"
         xlink:href="#SVGID_3_" /></clipPath></defs><sodipodi:namedview
     pagecolor="#ffffff"
     bordercolor="#666666"
     borderopacity="1"
     objecttolerance="10"
     gridtolerance="10"
     guidetolerance="10"
     inkscape:pageopacity="0"
     inkscape:pageshadow="2"
     inkscape:window-width="1920"
     inkscape:window-height="1017"
     id="namedview4655"
     showgrid="false"
     fit-margin-top="0"
     fit-margin-left="0"
     fit-margin-right="0"
     fit-margin-bottom="0"
     inkscape:zoom="1.06"
     inkscape:cx="523.19336"
     inkscape:cy="383.41211"
     inkscape:window-x="-8"
     inkscape:window-y="-8"
     inkscape:window-maximized="1"
     inkscape:current-layer="Layer_1" /><path
     style="fill:#000000;fill-opacity:1"
     d="m 310.98047,0 c 0,0 -348.441018,308.50908 5.75391,438.91602 l -45.53907,118.34179 -50.39257,-47.71484 c 1.02763,-1.23719 1.60742,-2.00188 1.60742,-2.00195 17.49285,-93.30408 -34.01715,-129.57646 -91.84766,-142.16992 -1.13734,4.75429 -2.66207,8.90988 -4.05664,12.11132 l -6.63867,12.25391 -1.71485,-0.70898 c -9.814,-4.159 -18.426431,-8.9591 -25.648431,-14.2461 -6.35821,-4.65208 -11.76331,-9.79489 -16.08203,-15.29883 -2.43915,-0.0459 -4.855343,-0.0686 -7.238286,-0.0664 C 30.551426,359.45232 0,365.44922 0,365.44922 c 14.468215,39.02019 29.00916,70.15182 43.349609,94.86719 3.000165,-1.28994 6.083141,-2.49041 9.21875,-3.51367 5.600752,-1.82773 11.365819,-3.13751 17.013672,-3.50196 5.647848,-0.36445 11.178648,0.2165 16.308598,2.17774 10.2599,3.92248 18.550541,13.46628 22.388671,30.86328 l 0.10156,0.45898 -0.12695,0.45508 c 0,0 -5.37805,19.95095 -20.845711,29.5 -0.33712,0.20813 -0.68613,0.40236 -1.0332,0.59961 57.302951,54.53473 106.133291,20.40514 126.205081,0.96875 10.76201,13.57475 21.54475,27.39499 31.73242,40.80273 l -15.54102,-3.04687 -2.80078,0.75391 c -0.89935,-0.76812 -8.23838,-6.79868 -18.91601,-8.34961 -5.693,-0.825 -12.316,-0.34583 -19.375,2.95117 -3.511,1.641 -7.13955,4.0047 -10.81055,7.2207 -3.674,3.235 -7.39289,7.37694 -11.08789,12.58594 0,0 1.91395,2.11162 5.25195,4.51562 3.326,2.429 8.08768,5.13524 13.76368,6.36524 5.692,1.23 12.2986,0.93151 19.3496,-2.64649 3.535,-1.8 7.17424,-4.42479 10.86524,-8.09179 2.32254,-2.32191 4.66959,-5.06895 7.02344,-8.28711 l 32.97851,10.27344 c 2.23615,3.00878 4.41907,5.97038 6.55664,8.89648 L 228.875,667.23047 h 173.0625 c 0,0 -13.42226,-40.44435 -23.77539,-96.83008 6.26289,-12.07378 14.3088,-25.53519 21.70898,-37.33789 0.76917,-1.22484 1.50759,-2.38083 2.25977,-3.5664 5.73872,-0.9567 14.83962,-2.56491 28.45898,-5.28321 l -7.30664,-7.34179 h -12.99804 c 2.20992,-3.36952 4.05051,-6.14271 5.66015,-8.55274 9.52314,3.33736 23.23397,5.95295 37.8086,1.46875 18.907,-5.823 34.04001,-21.96109 44.91601,-47.99609 l 1.50196,-3.61719 -3.48243,-1.78906 c -0.973,-0.5 -23.95506,-11.99153 -50.03906,-3.39453 -18.656,6.144 -33.86834,20.85423 -45.27734,43.74023 l -1.67774,3.375 2.61719,1.71094 -28.66406,41.49023 C 369.35769,514.3866 366.34644,482.70526 366.38867,450.875 440.85316,452.65191 729.89033,434.40186 310.98047,0 Z m 33.23633,153.16992 c 35.2431,44.52571 53.62516,80.7713 61.34961,110.11329 2.40766,9.14573 3.77015,17.61217 4.29297,25.45703 2.72896,40.94784 -17.64599,64.7383 -34.51368,77.25781 -2.48666,1.84562 -4.88653,3.43309 -7.13476,4.80859 -0.53146,0.32491 -1.04445,0.62591 -1.55664,0.92578 -0.84799,0.49683 -1.66806,0.96442 -2.45508,1.39453 -0.33857,0.1848 -0.67801,0.37025 -1.00391,0.54297 -0.80003,0.42449 -1.56404,0.81428 -2.27929,1.16797 -0.22228,0.10969 -0.45469,0.22904 -0.66797,0.33203 -0.72142,0.34901 -1.38056,0.65509 -1.99024,0.92969 -0.17266,0.0776 -0.36639,0.16851 -0.52929,0.24024 -0.59451,0.26231 -1.10942,0.47912 -1.56446,0.66601 -0.10065,0.0412 -0.23095,0.0972 -0.32422,0.13477 -1.01286,0.40828 -1.63665,0.62689 -1.63671,0.62695 -1.62863,-1.826 -3.22087,-3.63563 -4.78516,-5.43164 -0.13509,-0.1549 -0.2677,-0.30821 -0.40234,-0.46289 -1.51889,-1.74732 -3.01318,-3.48311 -4.47852,-5.20508 C 192.61816,188.14263 344.2168,153.16992 344.2168,153.16992 Z M 73.662109,293.45703 c -1.706,3.505 -6.353516,14.24794 -6.353516,28.21094 0,1.409 0.04925,2.85388 0.15625,4.29688 0.796,11.088 4.739588,21.31906 11.683596,30.41406 0.8458,1.1015 1.74999,2.18524 2.6875,3.25781 h -0.002 c 0.0226,0.0259 0.0477,0.0503 0.0703,0.0762 0.40021,0.45651 0.80805,0.91044 1.22461,1.36133 0.10413,0.11281 0.20931,0.22544 0.31445,0.33789 0.42087,0.44973 0.84619,0.89797 1.2832,1.3418 0.89366,0.9076 1.82313,1.802 2.78321,2.68359 0.14372,0.13219 0.28449,0.26491 0.42968,0.39649 0.33351,0.30174 0.67442,0.59994 1.01563,0.89843 0.32571,0.28537 0.6536,0.56924 0.98633,0.85157 0.29112,0.24667 0.58443,0.49202 0.88086,0.73632 0.40278,0.3324 0.812,0.66234 1.22461,0.99024 0.26471,0.21016 0.52624,0.42257 0.79492,0.63086 0.67904,0.52679 1.36771,1.0481 2.07226,1.5625 6.501001,4.772 14.472461,9.03648 23.232421,12.89648 1.546,-2.846 4.62696,-8.54883 4.62696,-8.54883 0.3259,-0.74658 0.65855,-1.55322 0.99219,-2.40234 0.001,-0.003 0.003,-0.005 0.004,-0.008 0.006,-0.0161 0.0132,-0.0346 0.0195,-0.0508 1.0002,-2.55205 1.98854,-5.54857 2.78321,-8.84961 0.96208,-3.99648 1.63476,-8.43358 1.63476,-13.11328 v -0.26368 c -0.037,-11.159 -3.79276,-21.3494 -11.13476,-30.3164 -4.408,-5.357 -10.15339,-10.3587 -17.150391,-14.84571 -7.279,-4.675 -16.17477,-8.85892 -26.25977,-12.54492 z m 564.994141,149.44336 -17.39844,4.85352 v 21.41601 h -9.88476 v 16.39649 h 9.88476 v 35.15234 c 0,16.901 8.3627,23.09781 26.26367,31.63281 l 7.69336,-13.71875 -9.35742,-5.36328 c -5.181,-3.011 -7.20117,-7.03051 -7.20117,-15.72851 v -31.97461 h 13.88672 v -16.39649 h -13.88672 z m -486.29101,1.86914 c 0.009,-7e-5 0.0183,7e-5 0.0273,0 l 0.0117,0.0117 c 0.14213,-10e-4 0.28719,8e-4 0.42968,0 -0.004,-0.004 -0.006,-0.007 -0.01,-0.0117 1.09091,-0.006 2.18833,-0.006 3.30078,0.008 33.79025,0.42044 76.45399,10.5546 63.70898,61.61523 0,0 -0.46086,0.47775 -1.14062,1.1543 -0.37778,0.37598 -0.84975,0.83341 -1.41211,1.35742 -1.12471,1.04802 -2.60973,2.36046 -4.41992,3.80078 -0.9051,0.72016 -1.89182,1.47195 -2.95508,2.24023 -19.65968,14.20564 -64.0354,32.09819 -91.13477,-67.17578 0,0 15.01197,-2.85142 33.59376,-3 z m 368.15039,0.29688 v 17.41015 h 24.10546 l -38.32812,87.69727 h 20.74805 l 8.02148,-19.75586 h 44.52734 l 8.0293,19.75586 h 20.91602 L 564.03711,445.06641 Z m 146.91796,0 v 105.10547 h 17.41797 V 504.8125 c 0,-13.218 8.68621,-20.41211 19.90821,-20.41211 11.557,0 19.25195,6.02191 19.25195,20.75391 v 45.01953 h 17.4043 v -48.87109 c 0,-20.08 -14.39466,-34.29493 -31.47266,-34.29493 -11.032,0 -19.89986,4.84772 -24.75586,12.38672 h -0.33594 V 445.06641 Z M 73.429689,457.00195 c -0.559037,-0.009 -1.12205,-0.007 -1.687502,0.006 -0.64623,0.0146 -1.29562,0.0436 -1.949219,0.0859 -5.228788,0.33905 -10.674533,1.54827 -16.050781,3.30274 -0.989752,0.32299 -1.969971,0.66827 -2.945312,1.02343 -0.359332,0.13001 -0.71689,0.2608 -1.074219,0.39453 -0.212354,0.08 -0.421211,0.16481 -0.632813,0.2461 -1.289104,0.49184 -2.561394,1.0046 -3.818359,1.53711 -15.237403,6.45524 -27.854796,15.51158 -31.291016,18.07226 17.613268,19.45698 32.148753,29.64506 43.75586,33.75 10.88019,3.84787 19.203891,2.64311 25.804691,-0.8164 0.005,-0.003 0.0102,-0.007 0.0156,-0.01 0.63534,-0.33348 1.26121,-0.67983 1.86524,-1.05273 13.27583,-8.19592 18.666251,-25.61447 19.041011,-26.86524 -3.69667,-16.24137 -10.997781,-24.25422 -19.921871,-27.66601 -3.45182,-1.31968 -7.19809,-1.94142 -11.11133,-2.00782 z m 729.242191,10.00586 c -28.291,0 -44.6875,21.24511 -44.6875,42.66211 0,21.429 16.3975,42.68164 44.6875,42.68164 14.556,-0.177 27.95457,-7.54686 37.64257,-19.75585 l -14.73242,-8.19532 c -6.021,8.038 -14.05497,12.55469 -23.41797,12.55469 -12.221,0 -23.76248,-8.87563 -24.77148,-21.26563 h 67.29297 v -3.18164 c 0,-31.617 -25.12467,-45.5 -42.01367,-45.5 z m 101.06445,0 c -11.033,0 -19.91586,4.84772 -24.75586,12.38672 h -0.33203 v -10.22461 h -17.40039 v 81.00391 h 17.40039 V 504.8125 c 0,-13.218 8.70029,-20.41211 19.9043,-20.41211 11.55398,0 19.24218,6.02191 19.24218,20.75391 v 45.01953 h 17.41406 v -48.87109 c 0,-20.08 -14.38665,-34.29493 -31.47265,-34.29493 z m 80.66403,0 c -20.25182,0 -31.80661,12.70869 -31.80661,26.43164 0,11.55401 6.37473,18.90852 29.14061,23.10352 l 9.8672,1.83789 c 6.348,1.156 10.52344,3.99819 10.52344,9.36719 0,4.516 -5.99954,10.21289 -16.06054,10.21289 -9.015,0 -19.22802,-5.18972 -25.41602,-11.88672 l -11.87891,12.04102 c 11.033,9.367 22.75371,14.23437 36.47653,14.23437 24.59604,0 34.30284,-15.39597 34.30284,-27.29297 0,-12.042 -7.0207,-18.90822 -21.43174,-21.57422 l -17.5625,-3.35351 c -6.69,-1.173 -10.5488,-3.66525 -10.5488,-8.5332 0,-6.51401 7.379,-10.20508 14.916,-10.20508 5.677,0 13.1927,1.83825 21.74034,9.03125 l 9.8691,-12.20899 c -11.041,-7.866 -20.91794,-11.20508 -32.13094,-11.20508 z m -426.89255,8.35938 15.21485,37.64844 h -30.61133 z m 242.81836,7.0293 c 11.041,0 20.24774,6.52925 23.92774,18.90625 h -46.86133 c 2.846,-12.041 11.87659,-18.90625 22.93359,-18.90625 z m -59.24609,77.73046 -17.39844,4.85157 v 21.41601 h -9.87109 -0.002 v 16.41407 h 9.87305 v 35.13085 c 0,16.91401 8.37453,23.0951 26.26953,31.6211 l 7.69727,-13.70703 -9.36328,-5.35547 c -5.196,-3.018 -7.20508,-7.02161 -7.20508,-15.72461 V 602.8086 h 13.88672 v -16.41407 h -13.88672 z m 37.83398,0 c -5.385,1e-5 -9.72461,4.36099 -9.72461,9.70899 0,5.348 4.33961,9.70703 9.72461,9.70703 5.356,0 9.69922,-4.35903 9.69922,-9.70703 0,-5.348 -4.34322,-9.70895 -9.69922,-9.70899 z m 126.82813,0 -17.39453,4.85157 v 21.41601 h -9.875 v 16.41407 h 9.875 v 35.13085 c 0,16.91401 8.38362,23.0951 26.26562,31.6211 l 7.69336,-13.70703 -9.35937,-5.35547 c -5.184,-3.018 -7.20508,-7.02161 -7.20508,-15.72461 V 602.8086 h 13.89062 v -16.41407 h -13.89062 z m -494.83399,2.17774 v 105.08984 h 44.34375 c 34.651,0 56.4043,-24.76785 56.4043,-52.54882 0,-27.77101 -20.9323,-52.54102 -56.4043,-52.54102 z m 19.40235,18.40234 H 455.25 c 22.59,0 36.98047,15.57463 36.98047,34.14063 0,18.582 -14.39047,34.15039 -36.98047,34.15039 h -24.93945 z m 137.05664,3.51953 c -28.282,0 -44.67578,21.25107 -44.67578,42.66407 0,21.425 16.39378,42.66992 44.67578,42.66992 14.576,-0.156 27.9542,-7.52147 37.6582,-19.73047 l -14.71875,-8.20313 c -6.034,8.03801 -14.06464,12.55469 -23.43164,12.55469 -12.231,0 -23.77967,-8.87572 -24.76367,-21.26172 h 67.26562 v -3.16601 c 0,-31.629 -25.10476,-45.52735 -42.00976,-45.52735 z m 101.09179,0 c -11.04498,0 -19.92039,4.85086 -24.77539,12.38086 h -0.33789 v -10.21289 h -17.40039 v 81 h 17.40039 v -45.34765 c 0,-13.227 8.7206,-20.41993 19.9336,-20.41993 11.524,0 19.23437,6.02972 19.23437,20.76172 v 45.00586 h 17.40625 V 618.5293 c 0,-20.076 -14.39892,-34.30274 -31.46094,-34.30274 z m 168.67188,0 c -20.227,0 -31.78906,12.70936 -31.78906,26.44336 0,11.546 6.35342,18.90694 29.10742,23.08594 l 9.875,1.85156 c 6.373,1.164 10.55664,4.00533 10.55664,9.36133 0,4.52 -6.02836,10.2168 -16.06836,10.2168 -9.039,0 -19.25127,-5.18786 -25.44726,-11.88086 l -11.88282,12.03906 c 11.056,9.38 22.77038,14.2168 36.48438,14.2168 24.608,0 34.3164,-15.37963 34.3164,-27.26563 0,-12.05 -7.02901,-18.91603 -21.41601,-21.58203 l -17.57813,-3.35742 c -6.689,-1.165 -10.53711,-3.67916 -10.53711,-8.53516 0,-6.52 7.36091,-10.20312 14.87891,-10.20312 5.697,0 13.23565,1.83806 21.76562,9.03906 l 9.87696,-12.23047 c -11.045,-7.858 -20.92158,-11.19922 -32.14258,-11.19922 z m 130.03516,0 c -7.039,0 -13.05858,4.35016 -15.89258,11.03516 h -0.33203 v -8.86719 h -16.4043 v 81.00196 h 17.40039 v -53.54297 c 0,-7.378 5.68892,-12.22461 12.04492,-12.22461 1.682,0 4.86411,1.00489 6.53711,2.33789 l 6.17773,-17.22656 c -2.321,-1.509 -5.66824,-2.51368 -9.53124,-2.51368 z m -196.95899,2.16797 v 81 h 17.38477 v -81 z m 216.21093,0 v 46.86524 c 0,22.758 14.73094,36.30078 32.79694,36.30078 11.213,0 17.5856,-3.33025 24.4316,-11.03125 h 0.3321 v 4.3418 c 0,14.228 -10.043,21.26562 -21.584,21.26562 -7.521,0 -13.0532,-3.18406 -18.5742,-8.53906 l -14.72864,9.03515 c 7.866,9.044 16.06654,15.9043 34.31254,15.9043 15.059,0 36.9844,-10.88134 36.9844,-35.65234 v -78.49024 h -17.3906 v 45.86914 c 0,12.541 -6.5447,20.90821 -20.0957,20.90821 -10.73,0 -19.084,-5.69119 -19.084,-19.24219 v -47.53516 z m -421.39257,13.22852 c 11.052,0 20.26345,6.52025 23.93945,18.90625 h -46.85351 c 2.826,-12.053 11.87706,-18.90625 22.91406,-18.90625 z m -138.88086,90.71484 c -21.561,0 -38.66797,16.41416 -38.66797,37.53516 0,21.125 17.10697,37.52539 38.66797,37.52539 11.488,0 22.74558,-4.69969 30.76758,-14.80469 l -10.7793,-7.80078 c -4.589,6.205 -11.81928,9.98242 -19.98828,9.98242 -12.948,0 -24.66601,-10.89634 -24.66601,-24.90234 0,-14.002 11.71801,-24.90625 24.66601,-24.90625 8.17,0 15.16567,3.78531 19.76367,10.44531 l 11.00391,-8.25976 c -8.023,-10.105 -19.28058,-14.81446 -30.76758,-14.81446 z m 448.46485,0 v 73.56836 h 13.30859 v -44.1875 l 46.48242,45.67969 v -73.56641 h -13.3125 v 44.18946 z m -404.02735,1.49414 v 28.79883 h -8.61719 v 12.63086 h 8.61719 v 30.64453 h 13.31641 v -30.64453 h 32.93359 v 30.64453 h 13.30274 v -72.07422 h -13.30274 v 28.79883 h -32.93359 v -28.79883 z m 77.58399,0 v 72.07422 h 13.31054 v -72.07422 z m 31.68164,0 v 72.07422 h 54.99218 v -29.83203 h -13.32812 v 17.2207 h -28.35547 v -59.46289 z m 68.98242,0 v 72.07422 h 30.4082 c 23.767,0 38.67774,-16.9712 38.67774,-36.0332 0,-19.051 -14.34474,-36.04102 -38.67774,-36.04102 z m 83.22266,0 v 36.73828 h -8.6211 v 12.62305 h 8.6211 v 22.71289 h 13.30078 v -22.71289 h 16.30273 l 15.0293,22.71289 h 16.76758 l -18.02539,-25.70508 c 9.64999,-2.977 16.87304,-11.24736 16.87304,-21.69336 0,-14.12 -9.87631,-24.67578 -25.94531,-24.67578 z m 74.36914,0 v 28.79883 h -8.60157 v 12.63086 h 8.60157 v 30.64453 h 55.32617 v -12.61133 h -42.00977 v -18.0332 H 849 v -12.63086 h -29.26172 v -16.18359 h 42.00977 v -12.61524 z m -144.28321,12.61524 h 17.09961 c 15.499,0 25.38281,10.67878 25.38281,23.42578 0,12.738 -9.88381,23.42187 -25.38281,23.42187 h -17.09961 z m 83.21485,0 h 19.96875 c 9.417,0 13.66992,5.63854 13.66992,12.06054 0,6.422 -4.25292,12.0625 -13.66992,12.0625 H 745.35352 Z M 284.25,715.39258 c -14.24,0 -25.50976,10.822 -25.50976,24.75 0,13.928 11.27076,24.74805 25.50976,24.74805 14.223,0 25.51758,-10.82005 25.51758,-24.74805 0,-13.928 -11.29458,-24.75 -25.51758,-24.75 z m -62.89844,0.96289 v 19.01563 h -5.70117 v 8.32812 h 5.70117 v 20.20703 h 8.75196 v -20.20703 h 19.31836 v -8.32812 h -19.31836 v -10.68165 h 27.73046 v -8.33398 z m 97.34375,0 v 24.24805 h -5.6875 v 8.30859 h 5.6875 v 14.99414 h 8.78711 v -14.99414 h 10.74219 l 9.91992,14.99414 h 11.0586 l -11.87696,-16.94726 c 6.341,-1.972 11.11914,-7.41441 11.11914,-14.31641 0,-9.306 -6.50561,-16.28711 -17.09961,-16.28711 z M 284.25,723.70899 c 8.555,0 16.28125,7.18959 16.28125,16.43359 0,9.236 -7.72625,16.42187 -16.28125,16.42187 -8.564,0 -16.27539,-7.18487 -16.27539,-16.42187 0,-9.245 7.71239,-16.43359 16.27539,-16.43359 z m 43.23438,0.98046 h 13.16406 c 6.217,1e-5 9.00781,3.71313 9.00781,7.95313 0,4.236 -2.78981,7.96094 -9.00781,7.96094 h -13.16406 z"
     id="path4550"
     inkscape:connector-curvature="0" /></svg>