<?xml version="1.0" encoding="UTF-8" standalone="no"?>
<!-- Creator: CorelDRAW X6 -->

<svg
   xmlns:dc="http://purl.org/dc/elements/1.1/"
   xmlns:cc="http://creativecommons.org/ns#"
   xmlns:rdf="http://www.w3.org/1999/02/22-rdf-syntax-ns#"
   xmlns:svg="http://www.w3.org/2000/svg"
   xmlns="http://www.w3.org/2000/svg"
   xmlns:sodipodi="http://sodipodi.sourceforge.net/DTD/sodipodi-0.dtd"
   xmlns:inkscape="http://www.inkscape.org/namespaces/inkscape"
   xml:space="preserve"
   width="300"
   height="216"
   version="1.1"
   style="clip-rule:evenodd;fill-rule:evenodd;image-rendering:optimizeQuality;shape-rendering:geometricPrecision;text-rendering:geometricPrecision"
   viewBox="0 0 3333.3333 2400"
   id="svg4136"
   inkscape:version="0.91 r13725"
   sodipodi:docname="Athens Dentistry.svg"><metadata
     id="metadata4230"><rdf:RDF><cc:Work
         rdf:about=""><dc:format>image/svg+xml</dc:format><dc:type
           rdf:resource="http://purl.org/dc/dcmitype/StillImage" /><dc:title></dc:title></cc:Work></rdf:RDF></metadata><sodipodi:namedview
     pagecolor="#aaaaaa"
     bordercolor="#666666"
     borderopacity="1"
     objecttolerance="10"
     gridtolerance="10"
     guidetolerance="10"
     inkscape:pageopacity="0"
     inkscape:pageshadow="2"
     inkscape:window-width="1280"
     inkscape:window-height="697"
     id="namedview4228"
     showgrid="false"
     inkscape:zoom="1.4142136"
     inkscape:cx="60.462005"
     inkscape:cy="80.259322"
     inkscape:window-x="-8"
     inkscape:window-y="-8"
     inkscape:window-maximized="1"
     inkscape:current-layer="svg4136"
     units="px" /><defs
     id="defs4138"><style
       type="text/css"
       id="style4140"><![CDATA[
    .str1 {stroke:#FEFEFE;stroke-width:28}
    .str0 {stroke:#FEFEFE;stroke-width:100}
    .fil0 {fill:#373435}
    .fil1 {fill:#FEFEFE}
   ]]></style></defs><g
     id="g5465"
     transform="matrix(1.00281,0,0,1.00281,-0.06118984,-8630.91)"><path
       sodipodi:nodetypes="ccccccccccccccccccccccccccccccccccccccccccccsccc"
       inkscape:connector-curvature="0"
       id="path4144"
       transform="scale(11.111111,11.111111)"
       d="m 89.439453,774.78906 c -4.86,1.98 -20.969531,21.78055 -25.019531,27.81055 -15.480001,23.04 -29.070626,51.65961 -6.390625,75.59961 7.47,7.83 20.609922,16.01883 32.669922,19.79883 l -12.419922,32.9414 c -2.79,-1.35 -9.989219,-9.62992 -13.949219,-12.41992 l 0.0039,-0.22559 -1.44336,0.0439 -0.271484,2.9707 c 2.52,3.51 6.030859,6.56993 7.380859,10.16993 l -3.426455,-0.19365 -1.110842,0.62845 -1.532282,1.77402 c 2.7,0.27 10.480126,1.4818 11.380126,4.1818 0.54,1.8 -8.100469,20.25016 -8.730469,24.66016 l 48.150389,-0.26953 c 0,-2.25 -4.86156,-18.72032 -5.85156,-24.57032 -0.63,-4.14 2.25093,-7.65125 3.96093,-10.53125 4.32,-7.11 3.96055,-2.24859 9.81055,-5.30859 -1.71,-2.7 -1.08133,-1.89063 -4.86133,-1.89063 1.8,-4.32 5.30977,0.17954 12.50977,-1.98046 4.95,-1.62 11.52054,-9.45008 12.06055,-14.58008 -7.11001,-5.58002 -18.44907,-1.07938 -23.03907,4.14062 -5.13,5.67 -4.04976,7.82946 -5.75976,10.43946 -1.98,3.15 -4.68047,6.20984 -6.48047,9.08984 -1.26,-7.92 -2.16031,-17.18891 -2.07031,-25.37891 19.17,-1.08 34.19953,-2.61047 43.01953,-15.48047 15.3,-22.14 -17.28008,-63.98945 -30.33008,-80.18945 -3.96,-4.95 -24.299765,-28.71047 -28.259764,-31.23047 z m 9.630859,42.75 c 12.509998,14.31 28.889848,43.65024 9.089848,59.49024 -0.81,0.63 -2.51977,1.88968 -3.50977,2.42968 -2.88,1.44 -3.06148,0.9893 -4.771484,-0.7207 -6.93,-7.11 -16.198593,-21.24031 -18.808594,-31.32031 -0.303571,-1.10748 -0.536702,-2.19017 -0.703124,-3.24805 -1.02e-4,-6.5e-4 1.01e-4,-0.001 0,-0.002 -0.08312,-0.52859 -0.150266,-1.05063 -0.201172,-1.56641 -6.5e-5,-6.5e-4 6.4e-5,-10e-4 0,-0.002 -0.0508,-0.51508 -0.08545,-1.02338 -0.105469,-1.52539 -5.3e-5,-10e-4 5.2e-5,-0.003 0,-0.004 -0.01992,-0.50128 -0.02506,-0.9964 -0.01563,-1.48437 1.3e-5,-6.6e-4 -1.3e-5,-10e-4 0,-0.002 0.0095,-0.48853 0.03471,-0.9704 0.07227,-1.44531 2.07e-4,-0.003 -2.09e-4,-0.005 0,-0.008 0.03754,-0.47288 0.0883,-0.9374 0.152343,-1.39648 1.612656,-11.55965 11.415942,-18.70299 18.800781,-19.19532 z"
       style="fill:#000000;fill-opacity:1" /><path
       sodipodi:nodetypes="cccccccccccccccccccccccc"
       class="fil0"
       d="m 698.77551,10203.764 c -31,11 -55,41 -101,45 -122,10 -192,-164 -201,-239 28,-17.0002 97,-17.0002 128,-15.0002 44,2 85,9.0002 117,24.0002 69,32 81.79547,109.036 58,185 z m -543,-152 0,0 c 52,-27 120.44444,-20.667 137.44444,-11.667 l 40.55556,32.667 c 55,68 -22,123 -54,149 16.07163,8.419 24,15 42,29 103,81 224,86 328,5 22,-16 29.34375,-28.783 46.34375,-18.783 l 3.65104,-32.392 15.00521,-0.825 c 8,-128 31,-208.0002 -40,-312.0002 -41,-59 -149,-138 -245,-142 -15,26 -18,50 -39,72 -27,-13 -52,-25 -76,-41 -73,-50 -28,-78 -293.000002,-35 9,73 122.000002,267.0002 133.000002,306.0002 z"
       id="path4146"
       inkscape:connector-curvature="0"
       style="fill:#000000;fill-opacity:1" /><path
       id="path4152"
       transform="scale(11.111111,11.111111)"
       d="m 157.85352,899.38086 c -1.85977,-0.0275 -4.65977,0.14844 -9.10352,0.14844 l -0.0898,4.85937 -0.0898,0 6.47852,0.17969 c -1.35,5.76 -8.99813,19.17031 -10.07813,24.57031 l 5.93946,0.0898 c 0.18,-2.16 0.99031,-3.87008 2.07031,-5.58008 l 12.24023,0 2.42969,5.66992 5.39844,0 c 0,-2.25 -7.19985,-18.35953 -9.08985,-22.76953 -2.475,-6.06376 -2.01398,-7.10754 -6.10546,-7.16797 z m 23.4707,0.10937 c -1.65498,-0.0234 -3.04336,0.41038 -4.22461,1.11915 l -0.0898,-0.0898 -0.17969,5.12891 c -0.18,0.09 -0.45117,-3.2e-4 -0.45117,0.17968 -0.36,0.81001 -2.33985,-0.53898 -2.33985,2.79102 0,3.51 0.45117,1.80055 2.70117,3.06055 0.72,9.72 -1.53007,15.56984 7.91993,18.08984 l 1.79882,-3.60156 c -2.34,-1.89 -3.86835,-1.70938 -4.31836,-4.85938 -0.36,-2.25 -0.18179,-7.19906 -0.0918,-9.53906 l 3.78125,-1.25976 0,-3.60157 -3.78125,-1.16992 0,-6.20898 c -0.2475,-0.0225 -0.48819,-0.0357 -0.72461,-0.0391 z m 13.5957,0.0391 -4.94922,0.17968 -0.0918,29.33985 5.04101,0.17969 c 0.09,-7.38 -2.07109,-17.90922 5.12891,-18.44922 8.37,-0.63 5.85156,11.24937 5.85156,18.35937 l 5.03906,0 c 0,-5.76 0.90102,-15.47929 -1.70898,-19.52929 -1.35,-2.16001 -3.87,-3.6911 -6.75,-3.8711 -4.77,-0.18 -4.8607,1.89133 -7.4707,2.61133 l -0.0899,-8.82031 z m 33.21094,6.13086 c -4.6261,-0.0689 -9.37805,2.49773 -11.70117,7.45898 -4.32,9.45 5.31047,19.43938 15.48047,16.10938 1.08,-0.36 2.51976,-1.17063 3.50976,-1.89063 2.92381,-1.9492 2.62567,-2.50553 2.95899,-3.4668 l -3.58985,-1.66211 c -2.52,1.71 -3.86929,3.78055 -8.27929,3.06055 -2.97,-0.54 -4.95071,-2.43008 -5.22071,-5.58008 l 18.63086,-0.17968 c -0.10125,-9.315 -5.84122,-13.76102 -11.78906,-13.84961 z m 10.24805,18.21093 0.10156,0.0469 -0.0898,-0.0898 c -0.006,0.0154 -0.006,0.0278 -0.0117,0.043 z m 40.60742,-18.18554 c -1.16578,0.0422 -2.36992,0.27843 -3.60742,0.77343 -4.14,1.62 -7.01813,7.38063 -3.32813,10.89063 2.97,2.79 11.60844,2.15875 12.14844,5.21875 0.45,2.79 -3.05859,3.24055 -5.3086,3.06055 -3.69,-0.27 -3.87031,-2.06922 -6.57031,-2.69922 l -0.0898,-0.0918 -2.70117,2.88086 c 4.23,5.22 15.39086,5.84984 18.63086,0.0898 6.03,-10.62 -9.3611,-9.18007 -12.8711,-12.33007 0.63,-6.66 7.47094,-2.1593 10.71094,-1.5293 l 2.33984,-3.15039 c -2.7,-1.62 -5.85617,-3.23985 -9.35351,-3.11328 z m -22.67383,0.0254 c -2.18057,0.0612 -4.37781,0.93976 -6.13281,2.72851 l -0.0898,0 c -1.35,-2.16 0.44938,-1.08062 -1.89062,-1.89062 -0.99,-0.36 -2.51961,-0.09 -3.59961,0 l -0.0898,22.5 5.31054,0.0898 c -0.63,-3.78 -0.35953,-7.82922 -0.26953,-11.69922 0.09,-3.96 1.16844,-6.57015 5.39844,-6.66015 8.55,-0.18 5.03992,12.59937 5.66992,18.35937 6.21,0.63 4.95133,-0.17898 4.86133,-6.20898 0,-3.33 0.44898,-8.28016 -0.54102,-11.16016 -1.40625,-3.99375 -4.99267,-6.16055 -8.62695,-6.05859 z m -97.48242,3.26758 c 0.0186,0.0161 0.0396,0.0443 0.0586,0.0625 0.01,-0.0167 0.022,-0.0465 0.0312,-0.0625 1.35,1.17 3.78063,7.9207 4.14063,9.7207 l -0.0899,-0.002 c 0,0 0,0.002 0,0.002 l -7.92187,-0.0898 0.0918,0 c 0.27002,-1.89002 2.69946,-7.92086 3.68946,-9.63086 z M 227.5,910.23828 c 3.69,0.09 5.66898,1.8907 6.20898,5.2207 L 221.4707,915.2793 c 0.54,-3.15 2.3393,-5.04102 6.0293,-5.04102 z m -6.45898,22.03906 c -2.3161,-0.0675 -3.32907,2.19344 -1.10157,4.96094 3.33,0.54 4.32125,-0.71883 3.78125,-4.04883 -0.99,-0.6075 -1.90765,-0.88961 -2.67968,-0.91211 z m -10.28125,0.0117 -4.76954,0.90039 -0.26953,5.84961 -1.89062,0.72071 c -0.09,0.09 -0.36117,0.17968 -0.45117,0.17968 -0.09,0.09 -0.26938,0.17969 -0.35938,0.17969 l -0.0898,2.96875 c 0.81,0.63 0.17976,0.1807 1.25976,0.7207 0.54,0.18 0.81125,0.18102 1.53125,0.54102 0.63,8.91 -1.98125,15.92984 7.46875,18.08984 4.86,-4.77 -0.45062,-3.87015 -1.89062,-6.66015 -0.99,-1.89 -0.62938,-8.99985 -0.35938,-11.33985 l 3.59961,-1.25976 0,-2.97071 c -0.18,-0.09 -0.35922,-0.35968 -0.44922,-0.17968 l -3.15039,-0.99024 -0.17968,-6.75 z m -86.51954,0.16992 c -2.30429,0.0171 -4.51054,0.12196 -6.45117,0.18946 l -0.17968,29.70117 c 9.81,0.09 28.34945,2.15844 28.43945,-14.85156 0,-13.52813 -11.82332,-15.11305 -21.8086,-15.03907 z m 133.04883,0.01 -4.85937,0.63086 -0.26953,5.93945 -2.25,0.99024 c -0.09,0.09 -0.36118,0.17968 -0.45118,0.17968 l -0.0898,2.97071 c 0.9,0.72 -0.0902,0.0888 1.25977,0.71875 0.45,0.18 0.99109,0.45086 1.62109,0.63086 0,9.18 -1.07977,16.47 7.74023,18 l 1.70899,-3.15039 c -1.35,-1.71 -0.89969,-0.90047 -2.42969,-1.98047 -1.8,-1.26 -1.53062,-0.62891 -1.89062,-2.87891 -0.36,-1.98 -0.17985,-7.20117 -0.0899,-9.45117 l 3.51172,-1.25977 0.0898,-4.14062 -3.60156,-0.44922 0,-6.75 z m -129.15429,5.18555 c 0.50057,-8.7e-4 0.98657,0.0154 1.45507,0.0469 11.77391,0.77466 13.478,11.38412 8.20899,16.56445 -0.63033,0.62127 -1.36258,1.16477 -2.18945,1.60352 -2.88002,1.53 -8.99977,1.35024 -12.50977,0.99024 l 0.0898,-18.72071 c 0.60188,-0.1102 1.18751,-0.19986 1.75586,-0.27148 0.56803,-0.0716 1.11937,-0.12318 1.6543,-0.15821 0.52804,-0.0346 1.039,-0.0538 1.53516,-0.0547 z m 61.20898,1.07617 c -2.0983,0.12182 -4.13273,0.99422 -5.58398,2.91797 l -0.0899,0.0898 -0.90039,-2.16016 -4.58984,0.0898 0,22.32031 5.04101,0.27149 c 0,-6.57 -2.34172,-18.27102 5.48828,-18.54102 4.5,-0.18 5.40024,2.34031 5.49024,6.57031 0.09,3.96 0,7.91891 0,11.87891 l 5.04101,0 c 0.27,-5.49 0.81024,-15.20992 -1.25976,-19.16992 -1.4625,-2.5875 -5.13955,-4.47061 -8.63672,-4.26758 z m -28.30469,0.0606 c -4.48383,0.0587 -8.94523,2.4382 -11.02929,7.44726 -5.67,13.59 13.86078,22.95 22.05078,11.25 l -3.60157,-2.33984 c -1.98,1.35 -3.69007,3.51039 -7.83007,3.15039 -3.42,-0.36 -5.22008,-2.24977 -5.58008,-5.75977 L 173.5,952.44922 c 0.69469,-8.87063 -5.90764,-13.74394 -12.46094,-13.6582 z m 76.91406,0.10742 c -0.5008,-0.0106 -1.01421,0.006 -1.54296,0.0508 -8.19,0.81 -11.16,10.71047 -2.25,13.23047 4.32,1.26 8.45914,-9.4e-4 8.36914,5.03906 -4.59,3.24 -7.82953,0.36039 -11.51953,-1.34961 -1.8,1.17 -1.80086,1.16891 -2.88086,2.87891 3.51,4.95 14.85101,6.12164 18.54101,0.18164 6.12,-9.99 -9.98945,-10.26086 -12.68945,-11.88086 0.18,-7.47 7.55992,-2.79063 10.16992,-1.89063 1.08,-1.08 1.79984,-1.52992 2.33984,-3.41992 -2.205,-1.4175 -5.0315,-2.76601 -8.53711,-2.83984 z m 35.67188,0.0508 c -1.46865,0.0905 -2.39609,0.73125 -3.46484,2.25 -0.36,-1.35 0.71898,-2.1611 -5.04102,-1.6211 l 0,22.68165 4.95117,0 c 0.36,-16.29001 -1.71008,-18.27149 5.66992,-18.27149 L 277,939.30859 c -1.4175,-0.27 -2.49381,-0.41369 -3.375,-0.35937 z m 22.27539,0.35937 c -0.36,7.38 2.2493,18.36055 -5.2207,18.81055 -8.01,0.54 -5.6693,-8.55101 -6.0293,-18.54102 l -4.77148,-0.0898 c -0.18,8.46 -2.69829,21.87055 8.01171,23.31055 4.14001,0.54 5.30961,-1.07985 8.09961,-2.33985 -0.18,4.05 -1.98046,6.66063 -6.48046,6.39063 -4.5,-0.36 -4.22899,-4.23047 -8.45899,0.26953 3.69,6.75 15.02922,5.30914 18.44922,-0.63086 3.24,-5.76 -8.6e-4,-19.34883 1.61914,-26.54883 l -5.21875,-0.63086 z m -74.39648,0.0684 c -0.57375,0 -1.11336,0.11266 -2.19336,0.47266 -1.08,3.15 -0.81016,19.07953 0.0898,22.76953 l 0.0898,0 4.23047,-0.35937 0.17969,-22.68165 c -1.215,-0.09 -1.82273,-0.20117 -2.39648,-0.20117 z m -60.17579,4.02735 c 2.90252,0.0675 5.78243,1.79898 6.23243,5.08398 l -12.60157,-0.17969 c 0.54,-3.375 3.46664,-4.97179 6.36914,-4.90429 z m -39.02148,25.26172 c -1.24875,-0.0225 -2.62625,0.18562 -4.15625,0.70312 -3.69,1.26 -6.93148,4.94875 -7.02148,9.71875 0,10.62 14.94156,14.85047 19.35156,6.48047 l -1.89063,-1.70898 -0.0898,0 c -2.79,0.63 -4.59047,3.33031 -8.73047,2.07031 -6.3,-1.89 -5.93984,-11.34047 -0.0898,-13.23047 4.14,-1.26 5.66945,1.08015 8.18945,2.16016 1.53,-0.99001 1.71102,-1.08063 2.79102,-1.89063 -2.025,-2.0925 -4.60727,-4.23523 -8.35352,-4.30273 z m 68.01953,0.18359 c -1.77952,-0.0179 -3.63008,0.0813 -5.48633,0.25 l -0.17968,20.25 0,0.0898 c 9.99,0.72 19.34914,-0.45039 19.61914,-9.90039 0.14625,-8.33625 -6.24187,-10.61176 -13.95313,-10.68945 z m 24.3125,0.125 c -2.21695,0.0127 -4.45234,0.20344 -6.30859,0.30469 l -0.0899,9.80859 -0.0898,0 c -2.52,1.26 -2.42984,-1.1682 -2.33984,2.3418 0.09,3.15 0.17984,0.71967 2.33984,2.42969 l 0.17969,5.75976 3.33008,0 0.35937,-6.30078 4.85938,-0.0898 c 0.54,1.17 1.71132,3.33 2.61132,4.5 1.62,2.34 2.34008,1.89109 5.58008,1.62109 -0.81,-2.34 -2.88062,-4.41016 -4.14062,-6.66016 0.36,-0.45 7.65101,-5.13031 2.79101,-11.07031 -1.74375,-2.19375 -5.38711,-2.66562 -9.08203,-2.64453 z m 14.66016,0.0352 -0.0899,7.55859 c -2.52,1.71 -2.42968,-1.08031 -2.42968,2.42969 0,3.96 -0.27016,0.62984 2.33984,2.33984 l 0.36133,8.01172 15.11914,-0.0898 -0.0898,-3.51172 -11.60938,-0.26953 0.17969,-4.76954 8.09961,-0.0898 0,-3.50976 -8.18946,-0.17969 0.17969,-4.5 0,0.26953 11.60938,-0.17969 -0.26953,-3.41992 -15.21094,-0.0898 z m -72.71875,0.0898 c -0.54,3.15 -0.26953,7.37914 -0.26953,10.61914 l 0.44922,9.26953 c 0.09,-0.09 0.17953,0.27117 0.26953,0.45117 l 2.33984,0 c 1.35,-2.25 0.90133,-17.72984 0.36133,-20.33984 l -3.15039,0 z m 91.98047,0 -0.27149,15.92969 c 0,0.54 0.0898,1.88984 0.0898,2.33984 l 0.36132,1.5293 c 0.09,-0.09 0.0897,0.36101 0.17969,0.54101 l 3.15039,0.0899 0.26953,-11.88086 c 3.78,2.34 9.53914,10.26117 12.86914,11.70117 l -0.35937,-20.25 -3.33008,0 -0.0898,11.96875 c -2.97,-1.53 -9.53914,-9.62875 -12.86914,-11.96875 z m -111.15039,0.0898 -2.42969,0.0899 c -0.9,2.07 -0.45102,4.6789 -0.54102,7.3789 -2.16,1.35 -2.42968,-0.27015 -2.42968,2.33985 0,2.61 0.35984,1.17164 2.33984,2.43164 l 0.35937,7.01953 c 0,0.09 0.0899,0.53922 0.0899,0.44922 0,-0.09 0.0916,0.27101 0.18164,0.54101 l 2.42969,0 0.81054,-8.46093 9.17969,-0.0898 c 0.18,2.88 -0.27109,6.66094 0.62891,8.46094 l 3.15039,0.0898 c 0.18,-3.42 0.0898,-6.93156 0.0898,-10.35156 l -0.17969,-8.2793 c 0,-0.18 -0.0897,-0.35906 -0.17968,-0.53906 l -2.88086,-1.08008 c -1.08,2.34 -0.35891,2.15977 -0.62891,8.00977 l -9.17969,-0.26953 c -0.09,-2.43 0.53946,-5.67024 -0.81054,-7.74024 z m 28.61914,0.0899 -0.35938,20.33984 15.11914,-0.0898 0.27149,-8.46094 -4.05078,0.17969 -0.0899,4.68164 -7.65039,-0.27149 c -0.45,-4.77 0.44945,-13.8589 -0.81055,-16.3789 l -2.42968,0 z m 50.37304,3.32422 c 2.63932,0.042 4.88672,0.59078 4.88672,3.42578 0,0.0154 -0.004,0.0277 -0.004,0.043 1.6e-4,0.0167 0.004,0.03 0.004,0.0469 0,4.23 -5.48937,3.51008 -9.35937,3.33008 l 0.004,-0.0898 c -0.001,-1e-4 -0.003,8e-5 -0.004,0 l 0.26953,-6.66016 c 0.9675,0 2.01914,-0.0626 3.05273,-0.0879 0.3876,-0.009 0.77335,-0.0138 1.15039,-0.008 z m -25.70312,0.26562 c 5.17166,0.0591 9.47469,0.8768 9.71094,6.31055 0.18,6.48 -5.85086,6.7482 -11.88086,6.6582 l -0.0899,-12.95898 c 0.765,-0.0113 1.52096,-0.0182 2.25977,-0.01 z m -107.863282,2.98242 c -0.21069,-0.01 -0.424516,-0.01 -0.642579,0.002 C 81.196504,975.9059 80.125,976.18555 79,976.74805 l 0,-0.0899 c -1.98,0.99 -2.699609,0.90039 -3.599609,3.15039 -2.52,5.94 3.149218,11.88118 9.449218,9.45118 7.40004,-2.89899 4.517694,-13.10642 -2.013671,-13.40821 z m 13.080078,0.0254 c -1.498711,0.019 -2.989219,0.20797 -4.136719,0.51172 -0.27,2.7 0.360781,3.95945 -0.449219,5.93945 l -1.169922,1.53126 -0.0293,0 c 0.139282,0.19909 0.335815,0.51267 0.658203,1.08007 0.301761,0.52122 0.410877,0.65786 0.449219,0.67774 0.02555,0.11068 0.0955,0.3456 0.271485,0.85156 0.99,3.24 -1.079063,1.62086 1.710937,2.88086 1.8,-1.17 0.899766,-1.44063 1.259766,-4.14063 6.390004,-0.18 1.979455,4.50079 8.189454,4.05079 l -2.51953,-4.5918 c 1.8,-1.44 4.49883,-3.86922 1.79883,-7.19922 -1.0125,-1.18125 -3.535356,-1.62344 -6.033207,-1.5918 z m -5.785157,7.98243 c -0.832787,-1.19043 1.096021,3.08417 -0.06055,0 l 0.06055,0 z m -16.90039,-7.94532 c -0.563203,0 -1.386563,0.11524 -2.601563,0.11524 -2.07,0 -3.869765,-0.18047 -5.759765,0.26953 -1.17,3.15 0.630234,2.3407 -1.259766,5.2207 -0.386468,0.561 -0.639221,0.89169 -0.808594,1.08399 0.894761,1.88042 -0.089,0.44643 1.708985,1.79492 0,4.14 -0.269454,3.42117 0.810546,4.95117 2.160001,-0.9 1.079141,1.52852 1.619141,-2.52149 0.09,-0.27 -0.08984,-2.24906 -0.08984,-2.78906 5.580001,-1.26 4.500078,1.08071 5.580079,-1.52929 -0.720001,-1.71 0.63,-0.72188 -2.25,-1.17188 -1.620001,-0.18 -1.800391,0.18109 -3.150391,-0.62891 l 0,-1.70898 c 2.636193,-1.35874 5.182548,0.23806 7.470703,-1.08203 -0.1125,-1.6875 -0.330859,-2.00391 -1.269531,-2.00391 z m -10.429688,6.68946 c -10e-4,-0.002 -9.43e-4,-0.002 -0.002,-0.004 1.473133,-3.56653 -1.051415,1.19985 0.002,0.004 z m 19.007813,-4.30469 c 2.893359,0.08 5.909375,2.58945 4.390625,6.18945 -2.34,5.31 -10.438985,2.70008 -8.458985,-3.41992 0.64125,-1.99125 2.332344,-2.81752 4.06836,-2.76953 z m 12.40039,0.25 5.761719,0.17969 c 0.0675,0.28125 0.118307,0.54389 0.156247,0.78906 0,0 0,0.002 0,0.002 0.0378,0.24438 0.0625,0.47273 0.0723,0.68359 0,0 0,0.002 0,0.002 0.01,0.21065 0.005,0.40445 -0.0117,0.58398 -0.217679,2.36895 -2.649308,2.20983 -5.796875,1.99024 l -0.181641,-4.23047 z"
       style="fill:#000000;fill-opacity:1"
       inkscape:connector-curvature="0" /><path
       sodipodi:nodetypes="cccccc"
       class="fil0 str0"
       d="m 59.775508,10108.764 c 13,25 61.000002,67 88.000002,86 35,24 82,42 134,27 32,-26 108,-81 54,-149 0,0 -20.59849,-29.625 -61.5165,-40.018 -73.70039,-4.261 -167.00149,21.988 -214.483502,76.018 z"
       id="path4156"
       inkscape:connector-curvature="0"
       style="fill:none;fill-opacity:1;stroke:#000000;stroke-width:11.11111069;stroke-miterlimit:4;stroke-dasharray:none;stroke-opacity:1" /><path
       class="fil0"
       d="m 392.77551,9803.7638 c 30,-55 44,-121 4,-183 -27,-41 -94,-87 -143,-96 -80,120 48,258 139,279 z"
       id="path4160"
       inkscape:connector-curvature="0"
       style="fill:#000000;fill-opacity:1" /><path
       sodipodi:nodetypes="ccccc"
       class="fil0 str1"
       d="m 718.1644,10369.458 24.51996,-15.844 c -35,-12 -67.90885,-42.85 -116.90885,-30.85 -34.30365,11.187 -75.18224,42.892 -81,72 75,76 138.38889,8.694 173.38889,-25.306 z"
       id="path4168"
       inkscape:connector-curvature="0"
       style="fill:none;fill-opacity:1;stroke:#000000;stroke-width:11.11111069;stroke-miterlimit:4;stroke-dasharray:none;stroke-opacity:1" /></g><g
     inkscape:groupmode="layer"
     id="layer2"
     inkscape:label="Layer 1"
     transform="translate(0,-8599.9997)" /></svg>