<?xml version="1.0" encoding="UTF-8"?>
<!DOCTYPE svg PUBLIC "-//W3C//DTD SVG 1.1//EN" "http://www.w3.org/Graphics/SVG/1.1/DTD/svg11.dtd">
<!-- Creator: CorelDRAW X6 -->
<svg xmlns="http://www.w3.org/2000/svg" xml:space="preserve" width="8.5in" height="11in" version="1.1" style="shape-rendering:geometricPrecision; text-rendering:geometricPrecision; image-rendering:optimizeQuality; fill-rule:evenodd; clip-rule:evenodd"
viewBox="0 0 8500 11000"
 xmlns:xlink="http://www.w3.org/1999/xlink">
 <defs>
  <style type="text/css">
   <![CDATA[
    .str1 {stroke:#FEFEFE;stroke-width:28}
    .str0 {stroke:#FEFEFE;stroke-width:100}
    .fil0 {fill:#373435}
    .fil1 {fill:#FEFEFE}
   ]]>
  </style>
 </defs>
 <g id="__x0023_Layer_x0020_1">
  <metadata id="CorelCorpID_0Corel-Layer"/>
  <path class="fil0" d="M4132 3800c139,159 321,485 101,661 -9,7 -28,21 -39,27 -32,16 -34,11 -53,-8 -77,-79 -180,-236 -209,-348 -54,-197 95,-324 200,-332zm-384 1120l0 0 -18 0 -3 33c28,39 67,73 82,113l-33 -4 -28 1 0 22c30,3 110,22 120,52 6,20 -90,225 -97,274l535 -3c0,-25 -54,-208 -65,-273 -7,-46 25,-85 44,-117 48,-79 44,-25 109,-59 -19,-30 -12,-21 -54,-21 20,-48 59,2 139,-22 55,-18 128,-105 134,-162 -79,-62 -205,-12 -256,46 -57,63 -45,87 -64,116 -22,35 -52,69 -72,101 -14,-88 -24,-191 -23,-282 213,-12 380,-29 478,-172 170,-246 -192,-711 -337,-891 -44,-55 -270,-319 -314,-347 -54,22 -233,242 -278,309 -172,256 -323,574 -71,840 83,87 229,178 363,220l-138 366c-31,-15 -111,-107 -155,-138z"/>
  <path class="fil0" d="M3730 4920c-31,11 -55,41 -101,45 -122,10 -192,-164 -201,-239 28,-17 97,-17 128,-15 44,2 85,9 117,24 69,32 98,111 58,185zm-543 -152l0 0c52,-27 126,-29 143,-20l35 41c55,68 -22,123 -54,149 20,4 24,15 42,29 103,81 224,86 328,5 22,-16 27,-29 44,-19l3 -33 18 0c8,-128 31,-208 -40,-312 -41,-59 -149,-138 -245,-142 -15,26 -18,50 -39,72 -27,-13 -52,-25 -76,-41 -73,-50 -28,-78 -293,-35 9,73 122,267 133,306z"/>
  <path class="fil1" d="M4132 3800c-105,7 -254,135 -200,332 30,112 132,269 209,348 19,19 21,24 53,8 11,-6 30,-21 39,-27 220,-176 38,-502 -101,-661z"/>
  <path class="fil1" d="M3730 4920c40,-74 11,-153 -58,-185 -32,-15 -72,-22 -117,-24 -31,-2 -100,-2 -128,15 9,75 79,249 201,239 46,-4 70,-35 101,-45z"/>
  <path class="fil0" d="M4755 4923c3,-21 30,-88 41,-107 15,13 42,88 46,108l-88 -1zm-73 -158l0 0 72 2c-15,64 -100,213 -112,273l66 1c2,-24 11,-43 23,-62l136 0 27 63 60 0c0,-25 -80,-204 -101,-253 -40,-98 -11,-78 -169,-78l-1 54z"/>
  <path class="fil0" d="M5492 4886c6,-35 26,-56 67,-56 41,1 63,21 69,58l-136 -2zm189 96l0 0 -41 -19c-28,19 -43,42 -92,34 -33,-6 -55,-27 -58,-62l207 -2c-2,-184 -202,-197 -261,-71 -48,105 59,216 172,179 12,-4 28,-13 39,-21 33,-22 29,-28 33,-39z"/>
  <path class="fil0 str0" d="M3188 4768c-33,12 -76,32 -97,57 13,25 61,67 88,86 35,24 82,42 134,27 32,-26 108,-81 54,-149l-35 -41c-18,-9 -92,-7 -143,20z"/>
  <path class="fil0" d="M5141 5039l56 2c1,-82 -23,-199 57,-205 93,-7 65,125 65,204l56 0c0,-64 10,-172 -19,-217 -15,-24 -43,-41 -75,-43 -53,-2 -54,21 -83,29l-1 -98 -55 2 -1 326z"/>
  <path class="fil0" d="M3424 4520c30,-55 44,-121 4,-183 -27,-41 -94,-87 -143,-96 -80,120 48,258 139,279z"/>
  <path class="fil0" d="M5810 4810c-15,-24 5,-12 -21,-21 -11,-4 -28,-1 -40,0l-1 250 59 1c-7,-42 -4,-87 -3,-130 1,-44 13,-73 60,-74 95,-2 56,140 63,204 69,7 55,-2 54,-69 0,-37 5,-92 -6,-124 -25,-71 -112,-90 -164,-37z"/>
  <path class="fil0" d="M6056 4970l-30 32c47,58 171,65 207,1 67,-118 -104,-102 -143,-137 7,-74 83,-24 119,-17l26 -35c-40,-24 -89,-48 -144,-26 -46,18 -78,82 -37,121 33,31 129,24 135,58 5,31 -34,36 -59,34 -41,-3 -43,-23 -73,-30z"/>
  <path class="fil0" d="M4998 4722l-2 57c-2,1 -5,0 -5,2 -4,9 -26,-6 -26,31 0,39 5,20 30,34 8,108 -17,173 88,201l20 -40c-26,-21 -43,-19 -48,-54 -4,-25 -2,-80 -1,-106l42 -14 0 -40 -42 -13 0 -69c-22,-2 -40,3 -55,12z"/>
  <path class="fil0 str1" d="M3748 5085l0 -22 28 -1c-35,-12 -70,-35 -119,-23 -17,3 -35,16 -47,26 -18,15 -30,24 -34,46 75,76 137,8 172,-26z"/>
  <path class="fil1" d="M5492 4886l136 2c-6,-37 -28,-57 -69,-58 -41,0 -61,21 -67,56z"/>
  <path class="fil1" d="M4755 4923l88 1c-4,-20 -31,-95 -46,-108 -11,19 -38,86 -41,107z"/>
  <path class="fil0" d="M5389 5524c43,0 101,-11 101,37 0,47 -61,40 -104,37l3 -74zm-45 71l0 0c-28,14 -27,-13 -26,26 1,35 2,8 26,27l2 64 37 0 4 -70 54 -1c6,13 19,37 29,50 18,26 26,21 62,18 -9,-26 -32,-49 -46,-74 4,-5 85,-57 31,-123 -31,-39 -116,-29 -171,-26l-1 109z"/>
  <path class="fil0" d="M5126 5670l-1 -144c68,-1 130,1 133,70 2,72 -65,75 -132,74zm-43 40l0 0c111,8 215,-5 218,-110 2,-114 -106,-126 -216,-116l-2 225z"/>
  <path class="fil0" d="M5622 5524l129 -2 -3 -38 -169 -1 -1 84c-28,19 -27,-12 -27,27 0,44 -3,7 26,26l4 89 168 -1 -1 -39 -129 -3 2 -53 90 -1 0 -39 -91 -2 2 -50z"/>
  <path class="fil0" d="M4669 5615c2,32 -3,74 7,94l35 1c2,-38 1,-77 1,-115l-2 -92c0,-2 -1,-4 -2,-6l-32 -12c-12,26 -4,24 -7,89l-102 -3c-1,-27 6,-63 -9,-86l-27 1c-10,23 -5,52 -6,82 -24,15 -27,-3 -27,26 0,29 4,13 26,27l4 78c0,1 1,6 1,5 0,-1 1,3 2,6l27 0 9 -94 102 -1z"/>
  <path class="fil0" d="M5835 5579c42,26 106,114 143,130l-4 -225 -37 0 -1 133c-33,-17 -106,-107 -143,-133l-3 177c0,6 1,21 1,26l4 17c1,-1 1,4 2,6l35 1 3 -132z"/>
  <path class="fil0" d="M4459 5648c-31,7 -51,37 -97,23 -70,-21 -66,-126 -1,-147 46,-14 63,12 91,24 17,-11 19,-12 31,-21 -30,-31 -71,-63 -139,-40 -41,14 -77,55 -78,108 0,118 166,165 215,72l-21 -19z"/>
  <path class="fil1" d="M5126 5670c67,1 134,-2 132,-74 -3,-69 -65,-71 -133,-70l1 144z"/>
  <path class="fil0" d="M4872 5712l168 -1 3 -94 -45 2 -1 52 -85 -3c-5,-53 5,-154 -9,-182l-27 0 -4 226z"/>
  <path class="fil0" d="M4080 5636l-2 -47 64 2c12,50 -19,48 -62,45zm-48 12l0 0c15,40 -17,-32 8,12 11,19 0,-6 8,17 11,36 -12,18 19,32 20,-13 10,-16 14,-46 71,-2 22,50 91,45l-28 -51c20,-16 50,-43 20,-80 -18,-21 -79,-21 -113,-12 -3,30 4,44 -5,66l-13 17z"/>
  <path class="fil0" d="M3989 5655c-26,59 -116,30 -94,-38 19,-59 121,-26 94,38zm-80 -87l0 0c-22,11 -30,10 -40,35 -28,66 35,132 105,105 97,-38 35,-189 -65,-139z"/>
  <path class="fil0" d="M4771 5484c-6,35 -3,82 -3,118l5 103c1,-1 2,3 3,5l26 0c15,-25 10,-197 4,-226l-35 0z"/>
  <path class="fil0" d="M3774 5595c30,-17 59,2 85,-13 -2,-30 -7,-21 -43,-21 -23,0 -43,-2 -64,3 -13,35 7,26 -14,58 -31,45 10,-34 -9,12 10,21 -1,5 19,20 0,46 -3,38 9,55 24,-10 12,17 18,-28 1,-3 -1,-25 -1,-31 62,-14 50,12 62,-17 -8,-19 7,-8 -25,-13 -18,-2 -20,2 -35,-7l0 -20z"/>
  <path class="fil1" d="M3989 5655c27,-64 -75,-97 -94,-38 -22,68 68,97 94,38z"/>
  <path class="fil1" d="M5386 5599c43,2 104,10 104,-37 0,-48 -58,-37 -101,-37l-3 74z"/>
  <path class="fil1" d="M4080 5636c43,2 74,5 62,-45l-64 -2 2 47z"/>
  <path class="fil0" d="M4399 5348l1 -208c214,-39 236,145 138,197 -32,17 -100,15 -139,11zm-61 61l0 0c109,1 315,24 316,-165 0,-185 -199,-169 -314,-165l-2 330z"/>
  <path class="fil0" d="M6320 5388c-2,45 -22,74 -72,71 -50,-4 -47,-47 -94,3 41,75 167,59 205,-7 36,-64 0,-215 18,-295l-58 -7c-4,82 25,204 -58,209 -89,6 -63,-95 -67,-206l-53 -1c-2,94 -30,243 89,259 46,6 59,-12 90,-26z"/>
  <path class="fil0" d="M4753 5253c12,-75 130,-71 140,2l-140 -2zm190 102l0 0 -40 -26c-22,15 -41,39 -87,35 -38,-4 -58,-25 -62,-64l205 -1c13,-166 -204,-206 -261,-69 -63,151 154,255 245,125z"/>
  <path class="fil1" d="M4399 5348c39,4 107,6 139,-11 98,-52 75,-236 -138,-197l-1 208z"/>
  <path class="fil0" d="M5072 5180l-10 -24 -51 1 0 248 56 3c0,-73 -26,-203 61,-206 50,-2 60,26 61,73 1,44 0,88 0,132l56 0c3,-61 9,-169 -14,-213 -26,-46 -115,-72 -158,-15z"/>
  <path class="fil0" d="M5726 5352c-51,36 -87,4 -128,-15 -20,13 -20,13 -32,32 39,55 165,68 206,2 68,-111 -111,-114 -141,-132 2,-83 84,-31 113,-21 12,-12 20,-17 26,-38 -28,-18 -65,-35 -112,-31 -91,9 -124,119 -25,147 48,14 94,0 93,56z"/>
  <path class="fil0" d="M5836 5084l-3 66 -25 11c-1,1 -4,2 -5,2l-1 33c10,8 -1,1 14,8 5,2 11,5 18,7 0,102 -12,183 86,200l19 -35c-15,-19 -10,-10 -27,-22 -20,-14 -17,-7 -21,-32 -4,-22 -2,-80 -1,-105l39 -14 1 -46 -40 -5 0 -75 -54 7z"/>
  <path class="fil0" d="M5320 5085l-3 65 -21 8c-1,1 -4,2 -5,2 -1,1 -3,2 -4,2l-1 33c9,7 2,2 14,8 6,2 9,2 17,6 7,99 -22,177 83,201 54,-53 -5,-43 -21,-74 -11,-21 -7,-100 -4,-126l40 -14 0 -33c-2,-1 -4,-4 -5,-2l-35 -11 -2 -75 -53 10z"/>
  <path class="fil0" d="M6033 5174c-4,-15 8,-24 -56,-18l0 252 55 0c4,-181 -19,-203 63,-203l14 -52c-42,-8 -57,-6 -76,21z"/>
  <path class="fil0" d="M5470 5412l47 -4 2 -252c-27,-2 -27,-5 -51,3 -12,35 -9,212 1,253z"/>
  <path class="fil1" d="M4753 5253l140 2c-10,-73 -128,-77 -140,-2z"/>
  <path class="fil0" d="M5475 5130c37,6 48,-8 42,-45 -44,-27 -75,4 -42,45z"/>
 </g>
</svg>
