<?xml version="1.0" encoding="UTF-8"?>
<!DOCTYPE svg PUBLIC "-//W3C//DTD SVG 1.1//EN" "http://www.w3.org/Graphics/SVG/1.1/DTD/svg11.dtd">
<!-- Creator: CorelDRAW X6 -->
<svg xmlns="http://www.w3.org/2000/svg" xml:space="preserve" width="11in" height="8.5in" version="1.1" style="shape-rendering:geometricPrecision; text-rendering:geometricPrecision; image-rendering:optimizeQuality; fill-rule:evenodd; clip-rule:evenodd"
viewBox="0 0 11000 8500"
 xmlns:xlink="http://www.w3.org/1999/xlink">
 <defs>
  <style type="text/css">
   <![CDATA[
    .str0 {stroke:#373435;stroke-width:6.94488}
    .fil0 {fill:#373435}
   ]]>
  </style>
 </defs>
 <g id="__x0023_Layer_x0020_1">
  <metadata id="CorelCorpID_0Corel-Layer"/>
  <path class="fil0" d="M4542 4570c0,-121 25,-227 77,-328 21,-41 57,-81 112,-92 60,-11 101,36 101,92 0,165 -168,264 -290,328zm-2229 -174l0 0c0,-88 52,-371 81,-460 103,-314 228,-221 228,-119 0,185 -228,525 -309,579zm-1795 -328l0 0c0,375 139,791 444,956 58,31 88,47 160,71 274,91 596,-5 822,-150l147 -104c0,49 -6,104 4,151 15,72 52,90 112,90 168,0 10,-415 198,-555 32,-24 69,-34 111,-34 52,0 42,72 35,121 -6,39 -15,124 -16,159 -5,246 199,315 372,197 53,-36 135,-131 150,-197 58,42 83,212 251,212 89,0 224,-89 241,-154 71,19 69,145 347,145 227,0 303,-154 376,-174 -13,27 -29,183 -29,232 0,72 60,77 116,77 77,0 123,-220 125,-309l31 46c153,240 433,298 623,67 21,-25 18,-20 34,-52 20,-39 99,-216 -13,-216 -83,0 -136,165 -226,208 -108,52 -229,-15 -256,-131 134,-31 347,-274 347,-483 0,-228 -179,-357 -370,-254 -36,19 -61,53 -93,61 12,-26 38,-224 39,-270 3,-113 24,-213 -97,-213 -118,0 -105,209 -114,301 -21,199 -18,425 -98,607 -123,277 -608,468 -608,29 0,-100 74,-347 193,-347 26,0 27,5 48,10 29,125 -48,135 -48,232 0,153 261,111 261,-193 0,-225 -249,-391 -485,-157 -259,257 -127,530 -214,655 -58,83 -140,103 -195,10 -58,-97 -34,-273 -2,-372 18,-56 47,-132 47,-194 0,-75 -147,-92 -200,12 -18,35 -30,93 -41,132 -37,132 -78,288 -135,406 -51,106 -184,172 -184,77 0,-186 73,-367 3,-437 -25,-25 -77,-41 -109,-26 9,-40 59,-109 81,-151 282,-553 -99,-719 -304,-565 -220,166 -260,621 -286,891 -10,101 11,91 -148,209 -24,18 -42,30 -68,48 -1014,673 -1508,-578 -871,-1633 60,-100 179,-280 274,-353 129,-98 240,-203 425,-203 357,0 352,498 266,797 -45,158 -101,285 -176,412 -37,61 -77,115 -126,164 -180,179 -389,111 -389,-89 0,-351 113,-340 158,-519 32,-128 -154,-194 -296,140 -93,219 -120,541 82,705 391,319 1011,-385 1011,-1175 0,-700 -630,-820 -1156,-336l-87 97c-288,296 -495,853 -495,1320z"/>
  <path class="fil0" d="M5797 4676c34,9 26,13 51,36 66,64 121,33 154,116 27,68 66,195 66,291 0,71 -36,131 -102,103 -135,-56 -168,-403 -168,-547zm1322 -357l0 0c0,-56 17,-150 26,-196 23,-113 97,-305 175,-385 21,-21 36,-28 78,-28 6,27 19,49 19,77 0,129 -56,295 -97,386 -48,106 -107,211 -183,299 -9,-38 -19,-108 -19,-154zm-1303 97l0 0c0,-179 110,-503 219,-649 63,-85 88,-113 167,-113 35,149 -78,352 -143,456 -35,57 -185,268 -243,307zm-203 135l0 0c-232,123 -120,289 0,232 0,184 117,647 357,647 81,0 135,-10 196,-93 79,-109 79,-291 47,-410 -13,-47 -30,-81 -40,-124 68,0 154,-34 199,-62 105,-64 99,-88 149,-122 6,70 43,137 82,179 110,120 281,87 399,12 25,-16 34,-24 70,-27 33,124 428,285 611,-45 28,-51 45,-95 45,-158 0,-19 -81,-146 -166,37 -99,212 -320,117 -346,21 44,-66 125,-97 238,-322 104,-207 129,-324 129,-547 0,-263 -311,-366 -534,36 -225,405 -74,728 -74,804 0,21 -299,224 -299,-164 0,-237 173,-483 -19,-483 -134,0 -156,224 -209,360 -149,381 -415,283 -476,200 36,-54 157,-140 264,-335 70,-128 250,-497 91,-657 -93,-94 -192,-80 -301,-25l-118 94c-112,143 -87,111 -158,257 -79,162 -135,451 -135,695z"/>
  <path class="fil0" d="M8548 4358l135 251c-112,26 -227,39 -367,39l232 -290zm0 -647l0 0c0,-74 23,-87 68,-87 92,0 3,259 -39,290 -20,-84 -29,-109 -29,-203zm-183 19l0 0c0,218 102,374 76,423 -10,18 -26,33 -38,50 -109,153 -161,213 -277,350 -31,37 -50,67 -90,94 -41,11 -251,-80 -251,77 0,52 44,86 87,97 -30,45 -69,68 -108,104 -25,22 -29,29 -57,49 -67,50 -139,90 -163,157 -23,65 7,124 106,124 100,0 381,-297 451,-369 59,-61 45,-46 157,-46 78,0 128,-5 202,-10l270 -39c29,-6 56,-16 88,-19 211,315 598,358 598,203 0,-111 -153,-109 -200,-128 -45,-18 -173,-93 -186,-142 89,-43 290,-104 290,-212 0,-80 -54,-87 -106,-87 -49,0 -176,112 -318,145 -38,-28 -222,-349 -222,-386 0,-60 164,-208 164,-492 0,-339 -473,-333 -473,58z"/>
  <path class="fil0" d="M2168 2273c0,70 -3,137 61,189 167,136 459,-8 599,-118 371,-289 201,-651 -14,-651 -122,0 -181,6 -292,75 -69,43 -104,75 -160,130 -73,73 -195,236 -195,374z"/>
  <path class="fil0" d="M1695 1897c0,386 271,462 431,161 99,-186 141,-499 -32,-599 -238,-137 -399,177 -399,438z"/>
  <path class="fil0" d="M1165 1800c0,175 58,319 185,414 165,123 269,13 269,-153 0,-182 -117,-434 -290,-434 -85,0 -164,85 -164,174z"/>
  <path class="fil0" d="M2323 3045c0,76 -27,293 -48,338 37,-10 66,-40 97,-58 35,-20 62,-35 102,-53 144,-65 258,-52 207,-149 -52,-100 -247,-213 -357,-213l0 135z"/>
  <path class="fil0" d="M865 2186c0,226 386,370 386,145 0,-103 -129,-270 -251,-270 -77,0 -135,34 -135,125z"/>
  <path class="fil0" d="M5131 4261c0,165 333,159 379,30 28,-78 -66,-137 -147,-137 -67,0 -232,-3 -232,106z"/>
  <path class="fil0" d="M7756 4261l0 29c0,110 376,153 376,-29 0,-144 -376,-144 -376,0z"/>
  <path class="fil0" d="M1705 3036c0,40 27,87 68,87 124,0 215,-290 87,-290 -83,0 -154,118 -154,203z"/>
  <path class="fil0" d="M3153 3904c0,146 232,159 232,0 0,-171 -232,-165 -232,0z"/>
  <path class="fil0" d="M6617 3760c0,75 35,135 97,135 161,0 162,-232 0,-232 -49,0 -97,48 -97,97z"/>
  <path class="fil0" d="M2537 5773l-215 674 -179 0 -122 -391 -129 391 -178 0 -201 -674 183 0 117 436 143 -436 140 0 132 436 127 -436 183 0zm541 476l0 0 -339 0c0,68 33,102 99,102 33,0 59,-14 77,-42l157 0c-12,41 -30,73 -56,95 -43,41 -102,62 -177,62 -94,0 -164,-28 -211,-86 -35,-42 -54,-95 -54,-157 0,-73 22,-132 67,-178 44,-45 107,-69 188,-69 99,0 170,36 213,109 23,40 35,89 35,143l0 21zm-152 -92l0 0c-11,-53 -41,-79 -91,-79 -27,0 -50,8 -67,25 -13,13 -21,31 -25,54l183 0zm617 135l0 0c0,49 -17,89 -53,119 -39,35 -94,53 -166,53 -63,0 -123,-17 -183,-53l59 -114c47,29 90,44 129,44 33,0 51,-12 51,-34 0,-12 -6,-22 -17,-28 -8,-4 -25,-9 -52,-15 -30,-7 -50,-12 -59,-15 -32,-13 -55,-33 -67,-61 -6,-14 -9,-32 -9,-53 0,-40 14,-76 41,-105 35,-38 89,-58 163,-58 51,0 101,10 149,29l-55 104c-30,-15 -59,-23 -87,-23 -32,0 -49,11 -49,34 0,10 7,19 20,25 5,3 23,7 52,13 42,9 74,23 94,42 25,24 37,56 37,94zm356 -171l0 0 -92 0 0 326 -163 0 0 -326 -54 0 0 -132 54 0 0 -138 163 0 0 138 92 0 0 132zm1170 326l0 0 -175 0 -50 -388 -163 388 -70 0 -155 -388 -58 388 -175 0 114 -674 174 0 136 360 144 -360 175 0 101 674zm268 -634l0 0c0,25 -9,47 -26,65 -17,17 -39,26 -65,26 -25,0 -47,-9 -65,-26 -17,-18 -26,-39 -26,-65 0,-25 9,-48 26,-65 18,-17 39,-26 65,-26 25,0 47,9 65,26 17,17 26,39 26,65zm-9 634l0 0 -163 0 0 -458 163 0 0 458zm627 0l0 0 -163 0 0 -51c-15,19 -31,33 -47,42 -27,15 -59,23 -94,23 -57,0 -107,-19 -152,-59 -53,-47 -79,-108 -79,-186 0,-78 27,-141 81,-187 43,-37 93,-56 149,-56 32,0 63,7 91,21 16,8 33,21 51,38l0 -329 163 0 0 741zm-158 -228l0 0c0,-29 -10,-54 -30,-74 -20,-20 -44,-30 -73,-30 -32,0 -59,12 -79,36 -17,20 -25,42 -25,68 0,25 8,48 25,68 20,24 47,36 79,36 28,0 54,-10 73,-30 20,-20 30,-44 30,-74zm542 -97l0 0 -92 0 0 326 -163 0 0 -326 -54 0 0 -132 54 0 0 -138 163 0 0 138 92 0 0 132zm593 96l0 0c0,64 -21,118 -63,164 -51,56 -121,83 -212,83 -92,0 -163,-27 -213,-83 -41,-45 -63,-101 -63,-168 0,-60 21,-112 64,-159 51,-56 123,-83 217,-83 86,0 156,27 207,83 41,45 63,100 63,163zm-169 0l0 0c0,-29 -10,-55 -31,-75 -20,-21 -45,-31 -75,-31 -33,0 -61,12 -82,37 -17,20 -25,43 -25,69 0,26 8,50 25,70 21,25 49,37 82,37 29,0 55,-10 76,-31 20,-20 30,-45 30,-76zm1123 -228l0 0 -240 458 -108 0 -115 -251 -109 251 -109 0 -236 -458 181 0 109 242 115 -242 102 0 114 248 115 -248 180 0zm538 458l0 0 -163 0 0 -232c0,-40 -4,-67 -13,-80 -13,-20 -33,-29 -60,-29 -24,0 -46,8 -62,24 -15,15 -22,38 -22,71l0 246 -163 0 0 -458 163 0 0 58c19,-22 36,-37 52,-47 25,-14 58,-21 96,-21 49,0 89,13 119,39 35,30 53,76 53,136l0 292z"/>
  <path class="fil0 str0" d="M9160 3375c20,0 39,5 57,15 19,10 33,24 44,43 10,19 16,38 16,59 0,20 -5,40 -15,58 -10,19 -25,33 -43,43 -19,10 -38,15 -58,15 -20,0 -40,-5 -58,-15 -19,-10 -33,-25 -43,-43 -10,-19 -16,-38 -16,-58 0,-20 5,-40 16,-59 11,-19 25,-33 44,-43 19,-10 38,-15 58,-15zm0 19l0 0c-16,0 -32,4 -48,13 -16,8 -28,20 -36,36 -9,16 -13,32 -13,49 0,17 4,33 13,48 9,15 21,28 36,36 16,9 32,13 49,13 17,0 33,-4 49,-13 16,-9 28,-21 36,-36 9,-15 13,-32 13,-48 0,-17 -4,-33 -13,-49 -9,-16 -21,-28 -36,-36 -16,-8 -32,-13 -48,-13zm-51 162l0 0 20 0 0 -53 12 0c7,0 13,1 16,4 5,4 13,14 21,29l11 20 25 0 -15 -25c-7,-12 -14,-20 -19,-25 -3,-3 -6,-5 -11,-7 11,-1 20,-5 26,-11 7,-7 10,-15 10,-24 0,-7 -2,-13 -6,-18 -4,-6 -9,-10 -16,-12 -7,-2 -17,-3 -32,-3l-43 0 0 126zm20 -71l0 0 25 0c12,0 20,-2 24,-5 4,-3 6,-8 6,-14 0,-4 -1,-7 -3,-10 -2,-3 -5,-5 -9,-7 -4,-1 -10,-2 -20,-2l-23 0 0 38z"/>
 </g>
</svg>
