<?xml version="1.0" encoding="UTF-8" standalone="no"?>
<!-- Creator: CorelDRAW X6 -->

<svg
   xmlns:dc="http://purl.org/dc/elements/1.1/"
   xmlns:cc="http://creativecommons.org/ns#"
   xmlns:rdf="http://www.w3.org/1999/02/22-rdf-syntax-ns#"
   xmlns:svg="http://www.w3.org/2000/svg"
   xmlns="http://www.w3.org/2000/svg"
   xmlns:sodipodi="http://sodipodi.sourceforge.net/DTD/sodipodi-0.dtd"
   xmlns:inkscape="http://www.inkscape.org/namespaces/inkscape"
   xml:space="preserve"
   width="800"
   height="360"
   version="1.1"
   style="clip-rule:evenodd;fill-rule:evenodd;image-rendering:optimizeQuality;shape-rendering:geometricPrecision;text-rendering:geometricPrecision"
   viewBox="0 0 8888.8889 4000"
   id="svg4232"
   inkscape:version="0.91 r13725"
   sodipodi:docname="Chick-Fil-A.svg"><metadata
     id="metadata4272"><rdf:RDF><cc:Work
         rdf:about=""><dc:format>image/svg+xml</dc:format><dc:type
           rdf:resource="http://purl.org/dc/dcmitype/StillImage" /><dc:title></dc:title></cc:Work></rdf:RDF></metadata><sodipodi:namedview
     pagecolor="#ffffff"
     bordercolor="#666666"
     borderopacity="1"
     objecttolerance="10"
     gridtolerance="10"
     guidetolerance="10"
     inkscape:pageopacity="0"
     inkscape:pageshadow="2"
     inkscape:window-width="1280"
     inkscape:window-height="697"
     id="namedview4270"
     showgrid="false"
     units="px"
     inkscape:zoom="0.58181818"
     inkscape:cx="450.95483"
     inkscape:cy="382.5"
     inkscape:window-x="-8"
     inkscape:window-y="-8"
     inkscape:window-maximized="1"
     inkscape:current-layer="svg4232" /><defs
     id="defs4234"><style
       type="text/css"
       id="style4236"><![CDATA[
    .str0 {stroke:#373435;stroke-width:6.94488}
    .fil0 {fill:#373435}
   ]]></style></defs><g
     id="g5503"
     transform="matrix(0.99886375,0,0,0.99886375,-516.41256,-1423.8303)"><path
       class="fil0"
       d="m 4542,4570 c 0,-121 25,-227 77,-328 21,-41 57,-81 112,-92 60,-11 101,36 101,92 0,165 -168,264 -290,328 z m -2229,-174 0,0 c 0,-88 52,-371 81,-460 103,-314 228,-221 228,-119 0,185 -228,525 -309,579 z m -1795,-328 0,0 c 0,375 139,791 444,956 58,31 88,47 160,71 274,91 596,-5 822,-150 l 147,-104 c 0,49 -6,104 4,151 15,72 52,90 112,90 168,0 10,-415 198,-555 32,-24 69,-34 111,-34 52,0 42,72 35,121 -6,39 -15,124 -16,159 -5,246 199,315 372,197 53,-36 135,-131 150,-197 58,42 83,212 251,212 89,0 224,-89 241,-154 71,19 69,145 347,145 227,0 303,-154 376,-174 -13,27 -29,183 -29,232 0,72 60,77 116,77 77,0 123,-220 125,-309 l 31,46 c 153,240 433,298 623,67 21,-25 18,-20 34,-52 20,-39 99,-216 -13,-216 -83,0 -136,165 -226,208 -108,52 -229,-15 -256,-131 134,-31 347,-274 347,-483 0,-228 -179,-357 -370,-254 -36,19 -61,53 -93,61 12,-26 38,-224 39,-270 3,-113 24,-213 -97,-213 -118,0 -105,209 -114,301 -21,199 -18,425 -98,607 -123,277 -608,468 -608,29 0,-100 74,-347 193,-347 26,0 27,5 48,10 29,125 -48,135 -48,232 0,153 261,111 261,-193 0,-225 -249,-391 -485,-157 -259,257 -127,530 -214,655 -58,83 -140,103 -195,10 -58,-97 -34,-273 -2,-372 18,-56 47,-132 47,-194 0,-75 -147,-92 -200,12 -18,35 -30,93 -41,132 -37,132 -78,288 -135,406 -51,106 -184,172 -184,77 0,-186 73,-367 3,-437 -25,-25 -77,-41 -109,-26 9,-40 59,-109 81,-151 282,-553 -99,-719 -304,-565 -220,166 -260,621 -286,891 -10,101 11,91 -148,209 -24,18 -42,30 -68,48 -1014,673 -1508,-578 -871,-1633 60,-100 179,-280 274,-353 129,-98 240,-203 425,-203 357,0 352,498 266,797 -45,158 -101,285 -176,412 -37,61 -77,115 -126,164 -180,179 -389,111 -389,-89 0,-351 113,-340 158,-519 32,-128 -154,-194 -296,140 -93,219 -120,541 82,705 391,319 1011,-385 1011,-1175 0,-700 -630,-820 -1156,-336 l -87,97 C 724,3045 517,3602 517,4069 Z"
       id="path4240"
       style="fill:#000000;fill-opacity:1"
       inkscape:connector-curvature="0" /><path
       class="fil0"
       d="m 5797,4676 c 34,9 26,13 51,36 66,64 121,33 154,116 27,68 66,195 66,291 0,71 -36,131 -102,103 -135,-56 -168,-403 -168,-547 z m 1322,-357 0,0 c 0,-56 17,-150 26,-196 23,-113 97,-305 175,-385 21,-21 36,-28 78,-28 6,27 19,49 19,77 0,129 -56,295 -97,386 -48,106 -107,211 -183,299 -9,-38 -19,-108 -19,-154 z m -1303,97 0,0 c 0,-179 110,-503 219,-649 63,-85 88,-113 167,-113 35,149 -78,352 -143,456 -35,57 -185,268 -243,307 z m -203,135 0,0 c -232,123 -120,289 0,232 0,184 117,647 357,647 81,0 135,-10 196,-93 79,-109 79,-291 47,-410 -13,-47 -30,-81 -40,-124 68,0 154,-34 199,-62 105,-64 99,-88 149,-122 6,70 43,137 82,179 110,120 281,87 399,12 25,-16 34,-24 70,-27 33,124 428,285 611,-45 28,-51 45,-95 45,-158 0,-19 -81,-146 -166,37 -99,212 -320,117 -346,21 44,-66 125,-97 238,-322 104,-207 129,-324 129,-547 0,-263 -311,-366 -534,36 -225,405 -74,728 -74,804 0,21 -299,224 -299,-164 0,-237 173,-483 -19,-483 -134,0 -156,224 -209,360 -149,381 -415,283 -476,200 36,-54 157,-140 264,-335 70,-128 250,-497 91,-657 -93,-94 -192,-80 -301,-25 l -118,94 c -112,143 -87,111 -158,257 -79,162 -135,451 -135,695 z"
       id="path4242"
       style="fill:#000000;fill-opacity:1"
       inkscape:connector-curvature="0" /><path
       class="fil0"
       d="m 8548,4358 135,251 c -112,26 -227,39 -367,39 l 232,-290 z m 0,-647 0,0 c 0,-74 23,-87 68,-87 92,0 3,259 -39,290 -20,-84 -29,-109 -29,-203 z m -183,19 0,0 c 0,218 102,374 76,423 -10,18 -26,33 -38,50 -109,153 -161,213 -277,350 -31,37 -50,67 -90,94 -41,11 -251,-80 -251,77 0,52 44,86 87,97 -30,45 -69,68 -108,104 -25,22 -29,29 -57,49 -67,50 -139,90 -163,157 -23,65 7,124 106,124 100,0 381,-297 451,-369 59,-61 45,-46 157,-46 78,0 128,-5 202,-10 l 270,-39 c 29,-6 56,-16 88,-19 211,315 598,358 598,203 0,-111 -153,-109 -200,-128 -45,-18 -173,-93 -186,-142 89,-43 290,-104 290,-212 0,-80 -54,-87 -106,-87 -49,0 -176,112 -318,145 -38,-28 -222,-349 -222,-386 0,-60 164,-208 164,-492 0,-339 -473,-333 -473,58 z"
       id="path4244"
       style="fill:#000000;fill-opacity:1"
       inkscape:connector-curvature="0" /><path
       class="fil0"
       d="m 2168,2273 c 0,70 -3,137 61,189 167,136 459,-8 599,-118 371,-289 201,-651 -14,-651 -122,0 -181,6 -292,75 -69,43 -104,75 -160,130 -73,73 -195,236 -195,374 z"
       id="path4246"
       style="fill:#000000;fill-opacity:1"
       inkscape:connector-curvature="0" /><path
       class="fil0"
       d="m 1695,1897 c 0,386 271,462 431,161 99,-186 141,-499 -32,-599 -238,-137 -399,177 -399,438 z"
       id="path4248"
       style="fill:#000000;fill-opacity:1"
       inkscape:connector-curvature="0" /><path
       class="fil0"
       d="m 1165,1800 c 0,175 58,319 185,414 165,123 269,13 269,-153 0,-182 -117,-434 -290,-434 -85,0 -164,85 -164,174 z"
       id="path4250"
       style="fill:#000000;fill-opacity:1"
       inkscape:connector-curvature="0" /><path
       class="fil0"
       d="m 2323,3045 c 0,76 -27,293 -48,338 37,-10 66,-40 97,-58 35,-20 62,-35 102,-53 144,-65 258,-52 207,-149 -52,-100 -247,-213 -357,-213 l 0,135 z"
       id="path4252"
       style="fill:#000000;fill-opacity:1"
       inkscape:connector-curvature="0" /><path
       class="fil0"
       d="m 865,2186 c 0,226 386,370 386,145 0,-103 -129,-270 -251,-270 -77,0 -135,34 -135,125 z"
       id="path4254"
       style="fill:#000000;fill-opacity:1"
       inkscape:connector-curvature="0" /><path
       class="fil0"
       d="m 5131,4261 c 0,165 333,159 379,30 28,-78 -66,-137 -147,-137 -67,0 -232,-3 -232,106 z"
       id="path4256"
       style="fill:#000000;fill-opacity:1"
       inkscape:connector-curvature="0" /><path
       class="fil0"
       d="m 7756,4261 0,29 c 0,110 376,153 376,-29 0,-144 -376,-144 -376,0 z"
       id="path4258"
       style="fill:#000000;fill-opacity:1"
       inkscape:connector-curvature="0" /><path
       class="fil0"
       d="m 1705,3036 c 0,40 27,87 68,87 124,0 215,-290 87,-290 -83,0 -154,118 -154,203 z"
       id="path4260"
       style="fill:#000000;fill-opacity:1"
       inkscape:connector-curvature="0" /><path
       class="fil0"
       d="m 3153,3904 c 0,146 232,159 232,0 0,-171 -232,-165 -232,0 z"
       id="path4262"
       style="fill:#000000;fill-opacity:1"
       inkscape:connector-curvature="0" /><path
       class="fil0"
       d="m 6617,3760 c 0,75 35,135 97,135 161,0 162,-232 0,-232 -49,0 -97,48 -97,97 z"
       id="path4264"
       style="fill:#000000;fill-opacity:1"
       inkscape:connector-curvature="0" /><path
       class="fil0 str0"
       d="m 9160,3375 c 20,0 39,5 57,15 19,10 33,24 44,43 10,19 16,38 16,59 0,20 -5,40 -15,58 -10,19 -25,33 -43,43 -19,10 -38,15 -58,15 -20,0 -40,-5 -58,-15 -19,-10 -33,-25 -43,-43 -10,-19 -16,-38 -16,-58 0,-20 5,-40 16,-59 11,-19 25,-33 44,-43 19,-10 38,-15 58,-15 z m 0,19 0,0 c -16,0 -32,4 -48,13 -16,8 -28,20 -36,36 -9,16 -13,32 -13,49 0,17 4,33 13,48 9,15 21,28 36,36 16,9 32,13 49,13 17,0 33,-4 49,-13 16,-9 28,-21 36,-36 9,-15 13,-32 13,-48 0,-17 -4,-33 -13,-49 -9,-16 -21,-28 -36,-36 -16,-8 -32,-13 -48,-13 z m -51,162 0,0 20,0 0,-53 12,0 c 7,0 13,1 16,4 5,4 13,14 21,29 l 11,20 25,0 -15,-25 c -7,-12 -14,-20 -19,-25 -3,-3 -6,-5 -11,-7 11,-1 20,-5 26,-11 7,-7 10,-15 10,-24 0,-7 -2,-13 -6,-18 -4,-6 -9,-10 -16,-12 -7,-2 -17,-3 -32,-3 l -43,0 0,126 z m 20,-71 0,0 25,0 c 12,0 20,-2 24,-5 4,-3 6,-8 6,-14 0,-4 -1,-7 -3,-10 -2,-3 -5,-5 -9,-7 -4,-1 -10,-2 -20,-2 l -23,0 0,38 z"
       id="path4268"
       style="fill:#000000;fill-opacity:1;stroke:#373435;stroke-width:6.94488001"
       inkscape:connector-curvature="0" /></g></svg>