<?xml version="1.0" encoding="UTF-8"?>
<!DOCTYPE svg PUBLIC "-//W3C//DTD SVG 1.1//EN" "http://www.w3.org/Graphics/SVG/1.1/DTD/svg11.dtd">
<!-- Creator: CorelDRAW X6 -->
<svg xmlns="http://www.w3.org/2000/svg" xml:space="preserve" width="11in" height="8.5in" version="1.1" style="shape-rendering:geometricPrecision; text-rendering:geometricPrecision; image-rendering:optimizeQuality; fill-rule:evenodd; clip-rule:evenodd"
viewBox="0 0 11000 8500"
 xmlns:xlink="http://www.w3.org/1999/xlink">
 <defs>
  <style type="text/css">
   <![CDATA[
    .fil0 {fill:#373435}
    .fil1 {fill:#373435}
    .fil2 {fill:#FEFEFE}
    .fil3 {fill:#DED7CC}
    .fil4 {fill:#F9CB21}
   ]]>
  </style>
 </defs>
 <g id="__x0023_Layer_x0020_1">
  <metadata id="CorelCorpID_0Corel-Layer"/>
  <path class="fil0" d="M7531 4036c-957,507 -1572,1220 -1375,1593 198,373 1133,264 2090,-243 957,-507 1572,-1220 1375,-1593 -198,-373 -1133,-264 -2090,243z"/>
  <path class="fil1" d="M2188 4728l0 218 -14 0c-5,-29 -14,-52 -25,-70 -11,-18 -28,-33 -49,-47 -21,-14 -44,-21 -67,-21 -26,0 -48,10 -65,29 -17,19 -26,41 -26,65 0,19 5,36 16,51 15,22 52,52 111,89 47,31 79,54 97,70 17,16 31,35 40,58 10,22 14,45 14,70 0,46 -15,86 -45,119 -30,34 -69,50 -116,50 -14,0 -28,-1 -41,-4 -8,-2 -24,-7 -48,-16 -24,-9 -40,-14 -47,-14 -7,0 -12,2 -15,7 -4,4 -6,26 -9,66l-13 0 0 -236 13 0c7,43 16,73 27,92 11,18 28,35 50,49 23,14 48,21 75,21 31,0 56,-10 75,-30 18,-20 28,-43 28,-70 0,-15 -4,-30 -11,-45 -7,-15 -18,-30 -32,-43 -10,-9 -37,-28 -80,-57 -44,-29 -75,-52 -93,-70 -18,-17 -32,-37 -42,-58 -10,-21 -14,-44 -14,-69 0,-44 14,-82 42,-113 28,-32 64,-47 108,-47 27,0 51,5 72,16 18,9 30,15 37,18 9,1 16,0 19,-3 3,-3 8,-28 14,-75l14 0z"/>
  <path class="fil1" d="M2289 5124l177 -51c-2,-23 -5,-40 -9,-49 -7,-15 -16,-27 -30,-35 -13,-9 -27,-13 -41,-13 -23,0 -43,9 -60,26 -18,17 -30,58 -37,123zm-2 37l0 0c4,20 11,44 21,72 33,57 76,83 127,78 24,0 45,-7 63,-20 18,-13 32,-36 44,-68l13 8c-6,37 -23,70 -49,100 -27,30 -61,45 -102,45 -55,-5 -101,-35 -138,-91 -23,-42 -32,-88 -28,-138 0,-63 16,-112 49,-147 32,-35 73,-53 122,-53 41,0 75,11 100,33 26,22 38,56 38,101l-259 80z"/>
  <path class="fil1" d="M2774 5246l0 -164c-41,16 -67,27 -78,35 -28,20 -46,38 -54,55 -8,17 -12,33 -12,49 4,19 12,34 24,47 12,13 25,19 40,19 20,0 47,-13 81,-40zm0 26l0 0c-38,29 -61,46 -71,51 -15,7 -30,10 -47,10 -25,0 -46,-9 -63,-26 -16,-18 -25,-40 -25,-68 -2,-29 4,-55 20,-78 15,-20 35,-38 61,-53 26,-15 67,-32 124,-50l0 -14c0,-21 -6,-38 -17,-52 -12,-14 -29,-21 -51,-21 -17,0 -30,5 -40,14 -10,9 -15,19 -15,31l1 23c0,12 -3,22 -9,28 -6,7 -15,10 -25,10 -10,0 -18,-4 -24,-11 -6,-7 -9,-17 -9,-29 0,-23 12,-44 35,-63 24,-19 57,-29 100,-29 32,0 59,5 80,16 16,8 28,21 35,40 5,12 7,35 7,70l0 125c0,35 1,57 2,65 1,8 3,13 7,16 3,3 7,4 11,4 4,0 8,-1 12,-3 5,-3 16,-13 32,-29l0 22c-30,40 -58,60 -86,60 -13,0 -24,-5 -31,-14 -8,-9 -12,-25 -12,-47z"/>
  <path class="fil1" d="M3051 5006l-1 408c-5,29 -11,49 -17,58 -13,14 -34,21 -63,21l-49 -6 0 -14 16 0c10,0 19,-1 25,-2 6,-1 11,-7 14,-16 4,-9 6,-23 8,-42l1 -408 -72 0 0 -27 72 0 0 -207c0,-35 6,-64 18,-89 12,-25 30,-44 54,-59 24,-15 51,-22 82,-22 29,0 55,9 78,26 15,12 23,24 23,39 0,8 -3,15 -10,22 -7,7 -14,10 -23,10 -6,0 -12,-2 -19,-7 -7,-4 -15,-13 -25,-27 -10,-14 -19,-23 -27,-29 -9,-5 -18,-7 -28,-7 -13,0 -23,3 -32,9 -9,6 -15,16 -19,30 -4,13 -6,47 -6,102l0 209 96 0 0 27 -96 0z"/>
  <path class="fil1" d="M3290 4999l0 6c0,12 8,21 24,27 9,-4 17,-7 22,-7 9,0 14,6 16,16 -1,8 -5,13 -13,15l-15 2c-24,-1 -39,-13 -47,-36l-2 -16 0 -4c-12,4 -23,13 -34,28 -16,33 -25,71 -25,112 0,64 18,114 55,149 19,14 38,21 57,21 37,0 68,-15 91,-45 22,-37 33,-76 33,-116l0 -5c-2,-48 -15,-90 -39,-126 -23,-24 -50,-38 -81,-41 -28,0 -42,5 -42,15l-2 7zm54 -43l0 0c47,0 85,13 112,40 40,48 59,93 59,135 0,46 -12,88 -37,126 -19,29 -52,51 -100,66 -18,4 -33,7 -46,7 -74,0 -129,-39 -165,-118 -8,-23 -12,-47 -12,-71l0 -6c0,-55 22,-101 66,-138 18,-12 38,-17 58,-16 16,-18 37,-26 63,-26z"/>
  <path class="fil1" d="M3661 4999l0 6c0,12 8,21 24,27 9,-4 17,-7 22,-7 9,0 14,6 16,16 -1,8 -5,13 -13,15l-15 2c-24,-1 -39,-13 -47,-36l-2 -16 0 -4c-12,4 -23,13 -34,28 -16,33 -25,71 -25,112 0,64 18,114 55,149 19,14 38,21 57,21 37,0 68,-15 91,-45 22,-37 33,-76 33,-116l0 -5c-2,-48 -15,-90 -39,-126 -23,-24 -50,-38 -81,-41 -28,0 -42,5 -42,15l-2 7zm54 -43l0 0c47,0 85,13 112,40 40,48 59,93 59,135 0,46 -12,88 -37,126 -19,29 -52,51 -100,66 -18,4 -33,7 -46,7 -74,0 -129,-39 -165,-118 -8,-23 -12,-47 -12,-71l0 -6c0,-55 22,-101 66,-138 18,-12 38,-17 58,-16 16,-18 37,-26 63,-26z"/>
  <path class="fil1" d="M4167 5260l0 -188c-2,-18 -6,-35 -14,-49 -8,-15 -19,-26 -32,-34 -13,-8 -26,-12 -39,-12 -24,0 -44,11 -63,32 -25,27 -37,68 -37,120 0,54 12,95 35,124 24,29 50,43 79,43 24,0 48,-12 71,-36zm0 28l0 0c-18,19 -36,32 -53,40 -17,8 -35,12 -55,12 -41,0 -76,-17 -106,-51 -30,-34 -45,-77 -45,-130 0,-53 16,-99 48,-140 32,-41 74,-61 126,-61 32,0 60,7 84,21l0 -226c0,-42 -1,-68 -3,-78 -2,-10 -5,-16 -9,-20 -4,-4 -10,-5 -16,-5 -7,0 -16,2 -27,7l-6 -14 110 -45 18 0 0 636c-1,31 4,54 12,69 10,9 26,16 47,21l0 16 -108 0 -18 0 0 -53z"/>
  <path class="fil1" d="M4926 4772l12 172 -12 0c-12,-43 -28,-75 -47,-97 -28,-31 -64,-47 -107,-47 -60,0 -105,27 -137,82 -26,47 -39,102 -39,166 0,52 9,100 26,142 17,43 40,74 68,94 28,20 57,30 86,30 17,0 34,-3 50,-8 16,-5 31,-13 46,-23l0 -157c0,-27 -2,-45 -5,-54 -4,-9 -9,-15 -16,-19 -7,-4 -20,-7 -39,-7l0 -15 180 0 0 15 -8 0c-18,0 -31,7 -38,21 -4,10 -6,29 -6,58l0 167 -1 167c-55,59 -116,60 -180,2l2 -12 69 24 7 2 9 1 7 -1 7 -3 5 -5 4 -6 2 -7 1 -8 1 -7 0 -6 -1 -69 0 -27 -24 1c-17,1 -41,2 -72,2 -91,0 -159,-34 -206,-101 -35,-51 -53,-109 -53,-175 0,-48 10,-94 30,-138 24,-52 56,-93 96,-121 34,-23 75,-35 122,-35 17,0 32,2 46,5 14,3 33,10 59,21 13,6 21,9 26,9 4,0 8,-2 11,-7 3,-5 5,-14 6,-28l12 0z"/>
  <path class="fil1" d="M5139 4951l0 82c31,-55 62,-82 95,-82 15,0 27,4 37,13 10,9 14,19 14,31 0,10 -3,19 -10,26 -7,7 -15,11 -25,11 -9,0 -20,-5 -32,-14 -12,-9 -20,-14 -26,-14 -5,0 -10,3 -16,8 -12,11 -24,29 -37,54l0 260c0,20 2,36 7,46 3,7 9,13 19,18 9,5 22,7 38,7l0 15 -189 0 0 -15c19,0 33,-3 42,-8 7,-4 11,-11 14,-21 1,-4 2,-18 2,-40l0 -226c0,-43 -1,-68 -2,-77 -2,-8 -5,-14 -9,-18 -5,-4 -11,-6 -18,-6 -8,0 -18,2 -28,7l-4 -15 111 -44 17 0z"/>
  <path class="fil1" d="M5410 4948l0 296c0,23 2,38 5,46 3,8 8,13 15,17 7,4 19,6 36,6l0 15 -179 0 0 -15c18,0 30,-2 36,-5 6,-4 11,-9 14,-17 4,-8 5,-23 5,-47l0 -142c0,-40 -1,-66 -3,-77 -2,-9 -5,-15 -9,-18 -4,-3 -9,-5 -16,-5 -8,0 -17,2 -27,6l0 -16 105 -43 17 0zm-40 -130l0 0c11,0 20,4 28,12 8,8 12,18 12,29 0,11 -4,21 -12,29 -8,8 -17,12 -28,12 -12,0 -21,-4 -29,-12 -8,-8 -12,-18 -12,-29 0,-12 4,-21 12,-29 8,-8 18,-12 29,-12z"/>
  <path class="fil1" d="M5574 4597l0 819c0,23 2,38 5,46 3,8 7,14 12,19 4,5 15,11 31,18l11 5c-80,5 -122,-24 -125,-88l0 -665c0,-41 -1,-67 -3,-76 -2,-10 -5,-16 -9,-20 -4,-4 -9,-5 -15,-5 -7,0 -16,2 -27,7l-7 -14 110 -45 18 0z"/>
  <path class="fil1" d="M5714 4597l0 819c0,23 2,38 5,46 3,8 7,14 12,19 4,5 15,11 31,18l11 5c-80,5 -122,-24 -125,-88l0 -665c0,-41 -1,-67 -3,-76 -2,-10 -5,-16 -9,-20 -4,-4 -9,-5 -15,-5 -7,0 -16,2 -27,7l-7 -14 110 -45 18 0z"/>
  <path class="fil1" d="M3843 3092c-82,71 -163,116 -241,136 -95,23 -187,27 -278,14 -97,-25 -174,-74 -229,-147 -52,-90 -41,-235 31,-435 77,-172 190,-313 339,-421 149,-108 295,-163 438,-163 107,0 181,25 221,76 40,51 53,106 39,164 -16,36 -39,66 -70,90 -31,25 -66,37 -105,37 -44,-2 -72,-21 -82,-57 -5,-29 2,-58 19,-88 13,-25 14,-46 3,-64 -34,-26 -73,-40 -115,-40 -70,0 -137,26 -201,78 -110,86 -201,197 -272,335 -82,163 -101,295 -57,396 54,84 135,125 242,123 100,2 198,-26 294,-83l24 48z"/>
  <path class="fil1" d="M4527 2366c87,0 145,25 174,76 33,88 32,170 -2,246 -37,83 -93,159 -168,228 -59,54 -138,94 -238,122 -36,8 -66,13 -90,13 -137,0 -205,-72 -206,-216 5,-42 17,-85 36,-129l4 -10c45,-102 123,-186 234,-253 46,-23 85,-33 118,-31 40,-30 86,-45 137,-45zm-114 98l0 0 -3 7c-5,10 -2,18 9,24 16,-7 30,-10 43,-10 26,0 36,16 28,48 -13,25 -34,41 -61,48l-31 3c-50,-2 -72,-28 -67,-78l10 -33 -9 21c2,-1 -8,9 -32,30 -50,53 -90,113 -120,181 -47,105 -53,184 -19,239 18,21 41,31 70,31 57,0 114,-23 170,-68 62,-60 107,-123 136,-188l4 -8c32,-78 41,-146 28,-204 -19,-37 -50,-57 -95,-62 -33,0 -51,2 -53,7l-8 11z"/>
  <path class="fil1" d="M5014 2974c-59,34 -99,55 -120,64 -34,13 -67,20 -99,20 -49,0 -82,-17 -99,-52 -17,-34 -14,-78 9,-131 20,-54 55,-103 104,-148 44,-37 95,-69 153,-95 58,-27 138,-55 241,-84l4 -8c14,-31 17,-56 9,-75 -8,-19 -27,-28 -60,-28 -24,0 -45,6 -63,18 -17,11 -29,24 -35,38l-16 40c-12,26 -28,48 -50,64 -22,16 -45,24 -69,24 -23,0 -38,-8 -46,-25 -8,-16 -6,-38 6,-64 21,-46 62,-88 123,-124 62,-37 132,-55 210,-55 59,0 104,10 133,31 25,16 37,42 36,78 -1,23 -15,65 -43,129l-96 215c-26,59 -41,94 -44,105 -3,10 -4,16 -3,18 1,1 2,2 3,2 4,0 7,-1 10,-3 11,-5 52,-32 124,-82l-43 96c-92,78 -166,117 -220,117 -29,0 -48,-10 -56,-30 -8,-20 -9,-37 -2,-52zm42 -98l0 0 107 -240c-57,19 -98,34 -121,47 -59,31 -101,59 -125,85 -24,25 -41,49 -50,72 -6,27 -4,50 4,68 9,18 22,27 41,27 30,0 78,-19 143,-58z"/>
  <path class="fil1" d="M6063 2321l-113 253 -58 0c2,-50 -4,-86 -18,-107 -14,-22 -40,-33 -77,-33 -26,0 -50,7 -72,21 -22,14 -36,28 -42,42 -9,21 -11,38 -6,52 5,18 29,61 70,129l80 110c38,48 39,113 3,194 -29,64 -76,116 -141,155 -65,39 -127,59 -186,59 -41,0 -83,-8 -128,-23 -12,-4 -22,-6 -30,-6 2,0 -6,14 -23,42l-62 0 116 -262 61 0c-14,60 -10,103 12,127 22,25 53,37 93,37 25,0 50,-8 72,-23 23,-15 39,-33 47,-52 11,-25 11,-48 0,-67 -12,-19 -31,-52 -58,-98 -27,-46 -55,-114 -84,-204 -11,-29 -6,-66 14,-112 26,-57 67,-106 125,-145 57,-39 117,-59 179,-59 26,0 56,6 89,17 19,6 32,8 37,8 3,0 4,0 4,0 0,0 11,-19 34,-57l62 0z"/>
  <path class="fil0" d="M6721 1700l-285 640 147 0 -44 99 -147 0 -312 701c-16,36 -22,58 -18,68 4,9 11,14 23,14 11,0 24,-4 38,-11 14,-7 31,-22 50,-45l71 0c-54,68 -103,114 -148,140 -45,25 -85,38 -121,38 -24,0 -46,-7 -64,-20 -18,-14 -27,-33 -27,-58 0,-25 9,-62 27,-111l319 -717 -99 0 44 -99 99 0 146 -328c41,-26 73,-52 97,-78 27,-24 96,-102 205,-235z"/>
  <path class="fil0" d="M6702 2974c-59,34 -99,55 -120,64 -34,13 -67,20 -99,20 -49,0 -82,-17 -99,-52 -17,-34 -14,-78 9,-131 20,-54 55,-103 104,-148 44,-37 95,-69 153,-95 58,-27 138,-55 241,-84l4 -8c14,-31 17,-56 9,-75 -8,-19 -27,-28 -60,-28 -24,0 -45,6 -63,18 -17,11 -29,24 -35,38l-16 40c-12,26 -28,48 -50,64 -22,16 -45,24 -69,24 -23,0 -38,-8 -46,-25 -8,-16 -6,-38 6,-64 21,-46 62,-88 123,-124 62,-37 132,-55 210,-55 59,0 104,10 133,31 25,16 37,42 36,78 -1,23 -15,65 -43,129l-96 215c-26,59 -41,94 -44,105 -3,10 -4,16 -3,18 1,1 2,2 3,2 4,0 7,-1 10,-3 11,-5 52,-32 124,-82l-43 96c-92,78 -166,117 -220,117 -29,0 -48,-10 -56,-30 -8,-20 -9,-37 -2,-52zm42 -98l0 0 107 -240c-57,19 -98,34 -121,47 -59,31 -101,59 -125,85 -24,25 -41,49 -50,72 -6,27 -4,50 4,68 9,18 22,27 41,27 30,0 78,-19 143,-58z"/>
  <path class="fil0" d="M7796 1751l-635 1426c-16,37 -25,61 -25,71 0,11 1,20 4,26 3,7 14,15 35,25l77 44c-214,13 -297,-42 -248,-167l508 -1141c31,-70 48,-111 52,-124 4,-13 4,-21 2,-24 -2,-3 -6,-4 -12,-4 -9,0 -31,6 -64,17l-2 -62 251 -88 57 0z"/>
  <path class="fil1" d="M2745 3687c16,4 34,23 54,56 31,47 31,105 0,175 -23,52 -62,101 -116,148 -54,47 -114,81 -180,103 -66,22 -155,32 -266,32l-479 0 31 -69 58 0c33,0 60,-9 82,-27 15,-14 33,-46 55,-94l275 -618c24,-54 34,-87 29,-98 -8,-15 -27,-23 -58,-23l-58 0 31 -69 319 0 -23 52c137,-46 247,-58 330,-35 68,17 112,50 132,97 20,47 16,102 -11,163 -23,52 -60,99 -112,141 -51,42 -83,64 -93,67zm-414 -52l0 0c3,1 21,-2 52,-8 31,-6 65,-11 101,-15 52,-2 99,-10 141,-23 42,-13 72,-28 88,-44 17,-16 32,-40 46,-71 22,-49 20,-91 -5,-126 -25,-35 -79,-42 -161,-23 -63,19 -111,33 -142,40l-120 270zm-204 458l0 0c38,10 83,14 135,14 81,0 149,-17 205,-51 56,-34 95,-76 117,-126 15,-35 26,-73 33,-114 6,-41 -9,-71 -47,-89 -38,-18 -77,-25 -118,-21 -47,3 -85,9 -115,17 -30,9 -47,13 -50,13l-159 357z"/>
  <path class="fil1" d="M3306 3494l-37 84c56,-56 116,-84 182,-84 32,0 54,10 67,29 13,19 13,43 0,71 -11,24 -28,45 -52,61 -24,17 -47,25 -70,25 -21,0 -38,-8 -52,-25 -13,-16 -23,-25 -27,-25 -3,0 -9,3 -17,9 -36,21 -68,49 -94,82l-202 453c-15,33 -21,57 -21,72 0,8 5,15 15,21 9,6 34,9 73,9l-31 69 -374 0 31 -69c43,0 73,-4 89,-12 10,-5 18,-11 24,-19l232 -521c17,-36 26,-59 29,-70 3,-11 3,-18 0,-22 -2,-3 -7,-5 -15,-5 -12,0 -36,6 -72,19l11 -68 255 -87 56 0z"/>
  <path class="fil1" d="M3616 3898c-6,22 -11,56 -14,103 15,90 66,132 156,124 39,0 78,-10 115,-30 37,-20 85,-65 144,-134l43 36c-48,78 -111,145 -190,202 -78,57 -159,85 -242,85 -105,-10 -171,-66 -196,-170 -9,-79 11,-164 59,-256 51,-116 124,-206 217,-272 93,-66 188,-99 283,-99 82,0 139,21 172,64 33,42 27,112 -16,209l-532 139zm52 -110l0 0 308 -75c10,-26 15,-47 15,-62 -2,-22 -10,-40 -24,-53 -14,-13 -33,-19 -55,-19 -35,0 -72,13 -112,40 -40,26 -84,83 -132,170z"/>
  <path class="fil1" d="M4396 3898c-6,22 -11,56 -14,103 15,90 66,132 156,124 39,0 78,-10 115,-30 37,-20 85,-65 144,-134l43 36c-48,78 -111,145 -190,202 -78,57 -159,85 -242,85 -105,-10 -171,-66 -196,-170 -9,-79 11,-164 59,-256 51,-116 124,-206 217,-272 93,-66 188,-99 283,-99 82,0 139,21 172,64 33,42 27,112 -16,209l-532 139zm52 -110l0 0 308 -75c10,-26 15,-47 15,-62 -2,-22 -10,-40 -24,-53 -14,-13 -33,-19 -55,-19 -35,0 -72,13 -112,40 -40,26 -84,83 -132,170z"/>
  <path class="fil1" d="M5555 3960l-107 241 -621 0 24 -55 648 -541 -124 0c-44,0 -80,2 -106,7 -27,5 -46,13 -57,23 -20,21 -42,54 -65,100l-69 0 98 -221 595 0 -32 55 -651 542 152 0c47,0 86,-4 117,-11 31,-7 53,-18 67,-32 11,-13 33,-48 65,-107l66 0z"/>
  <path class="fil2" d="M5847 3898c-6,22 -11,56 -14,103 15,90 66,132 156,124 39,0 78,-10 115,-30 37,-20 85,-65 144,-134l43 36c-48,78 -111,145 -190,202 -78,57 -159,85 -242,85 -105,-10 -171,-66 -196,-170 -9,-79 11,-164 59,-256 51,-116 124,-206 217,-272 93,-66 188,-99 283,-99 82,0 139,21 172,64 33,42 27,112 -16,209l-532 139zm52 -110l0 0 308 -75c10,-26 15,-47 15,-62 -2,-22 -10,-40 -24,-53 -14,-13 -33,-19 -55,-19 -35,0 -72,13 -112,40 -40,26 -84,83 -132,170z"/>
  <path class="fil0" d="M9105 4375c128,39 269,-121 269,-121 -11,-80 -195,-1370 -300,-1711 -5,-16 -99,48 -99,48 0,0 374,528 27,1771l103 14z"/>
  <path class="fil0" d="M8705 2549c-2,-34 28,-64 67,-67 39,-3 73,23 76,57 2,34 -28,64 -67,67 -39,3 -73,-23 -76,-57z"/>
  <path class="fil0" d="M8819 2636c-2,-34 24,-64 58,-66 34,-2 64,24 66,58 2,34 -24,64 -58,66 -34,2 -64,-24 -66,-58z"/>
  <path class="fil0" d="M9007 2589c-2,-32 22,-60 54,-62 32,-2 60,22 62,54 2,32 -22,60 -54,62 -32,2 -60,-22 -62,-54z"/>
  <path class="fil0" d="M8891 2632c-3,-43 29,-79 72,-82 43,-3 79,29 82,72 3,43 -29,79 -72,82 -43,3 -79,-29 -82,-72z"/>
  <path class="fil2" d="M8188 4865c0,0 23,44 27,53 4,10 217,315 217,315l-65 58c0,0 -82,-31 -88,-46 -6,-15 -198,-340 -198,-340l107 -40z"/>
  <path class="fil0" d="M8272 5138l0 1c3,6 10,9 16,7 6,-3 9,-10 7,-16 -2,-4 -142,-227 -145,-233 -4,-6 -11,-7 -17,-4 -6,4 -7,11 -4,17l143 228z"/>
  <path class="fil0" d="M8301 5183l35 49c4,5 11,7 17,3 5,-4 7,-11 3,-17l-35 -49c-4,-5 -11,-7 -17,-3 -5,4 -7,11 -3,17z"/>
  <path class="fil0" d="M8217 4921c-14,9 -33,21 -36,28 -4,9 -47,3 -74,0 -16,-26 -26,-43 -26,-43l107 -40c0,0 23,44 27,53 0,0 1,1 2,3z"/>
  <path class="fil0" d="M8231 4909l-27 -52c-4,-8 -14,-12 -22,-9l-107 40c-9,4 -14,14 -11,23 0,1 1,2 1,3l198 340c4,6 10,12 16,16 26,15 54,28 82,38 6,2 13,1 18,-3l65 -58c7,-6 8,-16 3,-24l-216 -314zm-52 -21l0 0 20 39 1 2 208 301 -45 40c-21,-8 -42,-18 -61,-29l-5 -4 -1 -1 -1 -2 -187 -320 72 -27z"/>
  <path class="fil2" d="M7807 4963c0,0 81,175 95,194 2,3 -3,8 -23,11 -20,3 -86,11 -88,6 -2,-5 -24,-43 -28,-51 -4,-8 -63,-146 -63,-146l108 -14z"/>
  <path class="fil0" d="M7745 4992l81 145c3,6 11,8 16,5 6,-3 8,-11 5,-16l-81 -145c-3,-6 -11,-8 -16,-5 -6,3 -8,11 -5,16z"/>
  <path class="fil0" d="M7835 5024c-16,0 -36,1 -51,4 -21,4 -45,8 -59,10 -7,-17 -14,-33 -19,-44l105 -22c5,11 14,30 24,52z"/>
  <path class="fil0" d="M7905 5126c-28,-56 -55,-113 -82,-171 -3,-7 -11,-11 -19,-10l-108 14c-10,1 -17,10 -16,20 0,2 1,3 1,5l63 146c0,0 28,52 29,53 5,8 13,11 22,11 18,0 96,-4 116,-19 2,-1 3,-3 5,-5 4,-6 5,-13 1,-19l-13 -24zm-109 -143l0 0c49,102 71,147 81,168l-2 0 -46 6 -28 1 -23 -43 -53 -123 71 -9z"/>
  <path class="fil2" d="M6738 5340c2,7 24,233 23,239 -1,6 -55,16 -74,27 -21,11 -67,-31 -67,-31 0,0 -13,-225 -7,-225 7,0 124,-10 124,-10z"/>
  <path class="fil0" d="M6693 5603l3 -130c0,-7 -5,-12 -12,-12 -7,0 -12,5 -12,12l-3 134c7,2 14,3 19,0 2,-1 3,-2 6,-3z"/>
  <path class="fil0" d="M6694 5426l-1 -57c0,-7 -6,-12 -12,-12 -7,0 -12,6 -12,12l1 57c0,7 6,12 12,12 7,0 12,-6 12,-12z"/>
  <path class="fil0" d="M6746 5416c-20,1 -50,3 -61,6 -18,5 -35,-9 -35,-9l-37 -6c-1,-32 -1,-57 1,-57 7,0 124,-10 124,-10 1,3 4,36 9,76z"/>
  <path class="fil0" d="M6694 5623l21 -9 46 -14c4,-1 8,-4 11,-6 3,-2 5,-6 6,-9 1,-4 -9,-122 -10,-130 0,0 -12,-116 -13,-116 -1,-10 -10,-17 -19,-16l-124 10 -16 12c-2,4 -3,19 -3,25 1,69 4,138 9,208 0,5 2,9 6,12 12,10 24,19 38,27 1,1 16,7 18,8 10,4 21,3 30,-1zm27 -263l0 0 18 173 3 35 -33 11c0,0 -27,11 -28,11l-1 1c0,0 -1,0 -1,0l-10 -3c-11,-6 -22,-12 -31,-20 -5,-66 -8,-132 -8,-197l0 -2 92 -7z"/>
  <path class="fil1" d="M6297 5279c0,0 11,186 10,195 -1,8 -36,21 -57,22 -21,1 -52,-22 -52,-22 0,0 0,-207 2,-214 2,-7 97,19 97,19z"/>
  <path class="fil1" d="M6234 5283l8 161c0,7 6,12 13,12 7,0 12,-6 12,-13l-8 -161c0,-7 -6,-12 -13,-12 -7,0 -12,6 -12,13z"/>
  <path class="fil1" d="M6300 5330c-21,-3 -49,-6 -55,-7 -7,-1 -31,-3 -46,-7 0,-20 0,-37 1,-47l97 14c0,8 1,25 3,46z"/>
  <path class="fil1" d="M6302 5261c-28,-8 -56,-14 -85,-19 0,0 -10,-1 -11,-1 -2,0 -6,0 -9,1l-5 2c-6,3 -10,10 -11,17l-2 214c0,6 3,11 7,15 12,9 26,17 41,22 6,2 15,4 22,3 2,0 28,-5 30,-6 16,-5 44,-14 44,-35 0,0 -10,-195 -10,-195 0,-8 -6,-15 -13,-17zm-22 32l0 0 9 173 -2 1 -13 5 -24 5 -7 -1c-9,-3 -17,-7 -25,-12 0,0 2,-185 2,-185 21,4 41,8 61,14z"/>
  <path class="fil2" d="M9078 3614c0,0 181,1 191,4 10,3 125,13 121,114 1,13 -3,60 -46,93 -40,33 -1043,1011 -1043,1011 0,0 -80,72 -256,101 -34,16 -814,190 -814,190 0,0 -367,90 -479,229 -14,14 -29,70 -151,20 3,-4 -354,-73 -383,-81 -29,-8 -120,-25 -77,-95 30,-27 33,-56 339,-183 110,-53 1079,-403 1079,-403l587 -238 121 -260 489 -424 321 -77z"/>
  <path class="fil0" d="M8133 4361l-580 236c-299,108 -597,218 -895,330 -62,23 -124,47 -184,74 -89,35 -176,76 -261,122 -35,20 -56,36 -83,65l-3 3c-6,9 -11,20 -13,31 -8,34 18,63 47,75 17,7 35,13 54,17 0,0 365,76 367,76l12 3c0,0 1,0 1,0 40,18 119,41 154,-3 52,-65 104,-99 177,-135 100,-46 203,-84 310,-111 218,-49 616,-139 814,-190 28,-5 57,-11 84,-19 55,-13 138,-48 180,-87 346,-338 693,-675 1042,-1010 33,-25 52,-65 52,-107 2,-40 -16,-79 -50,-101 -24,-15 -61,-29 -89,-31l-191 -4 -5 0 -321 77c-3,1 -5,2 -8,4 0,0 -489,424 -489,424 -4,3 -104,220 -123,260zm947 -729l0 0 187 4 36 8 25 10c11,6 21,14 29,23 13,17 16,33 16,54 0,31 -14,60 -38,79 -35,28 -1002,970 -1044,1012 -74,57 -157,80 -246,97 -2,0 -77,20 -80,21 -245,58 -490,114 -736,169 -115,27 -288,94 -377,145 -39,21 -96,64 -120,100 -4,7 -10,13 -16,17 -8,5 -18,7 -28,7 -27,-1 -53,-8 -77,-19 6,3 10,9 10,15l-12 -16c-12,-4 -351,-75 -385,-81l-41 -12c-11,-4 -20,-10 -28,-18 -3,-4 -5,-9 -5,-14 1,-8 3,-15 8,-21l24 -23c37,-30 68,-47 111,-67 106,-50 214,-97 323,-139 316,-119 634,-237 952,-352 1,0 587,-238 588,-239 8,-3 114,-232 129,-266l483 -418 314 -75z"/>
  <path class="fil2" d="M8921 3779l68 -17c0,0 -20,-229 -25,-249 -5,-19 -88,-180 -88,-180l-79 30 125 415z"/>
  <path class="fil2" d="M8861 3343c-2,5 135,-161 106,65 0,-2 51,36 51,36 0,0 108,-31 80,126 3,14 -36,169 -103,178 -9,3 -63,-294 -133,-404z"/>
  <path class="fil2" d="M8552 3427c0,0 -19,-239 94,-246 35,4 144,76 208,281 46,101 76,274 79,313 3,39 31,381 -222,197 -15,-8 -159,-545 -159,-545z"/>
  <path class="fil2" d="M7663 4299c0,0 149,-6 163,-7 14,-1 172,21 190,18 19,-4 136,-37 147,-82 11,-49 33,-191 92,-241 -5,0 95,-381 95,-381 0,0 23,-264 193,-176 28,5 71,26 71,26 0,0 64,-44 90,-39 30,7 154,40 48,343 2,2 43,118 -20,177 -52,58 -156,121 -237,85 -25,9 -180,139 -185,160 -6,21 -25,88 42,115 45,20 234,0 219,-80 -10,-16 -23,-23 -26,-33 -3,-9 -105,-19 -92,-105 11,-8 43,-44 43,-44 0,0 91,24 166,-37 -1,5 65,44 65,44l-30 37 120 38 -29 39 -1 20c0,0 126,50 110,86 5,8 -165,-33 -166,39 11,18 32,99 32,99l-168 -21 -20 107c0,0 -162,-61 -169,-35 -4,26 2,81 -19,85 -21,4 -122,-41 -132,-15 -10,26 -51,63 -64,46 -7,-7 -78,176 -228,214 -30,-5 -300,-482 -300,-482z"/>
  <path class="fil2" d="M8411 3947c-12,12 -82,-30 -337,114 -25,9 -315,77 -546,-107 -25,-11 -95,-139 -95,-139 0,0 -90,-35 -88,-126 5,-11 -31,-37 -31,-78 -3,-19 -80,-19 -43,-117 17,-33 192,-249 411,-260 56,-2 236,-20 526,285 55,48 187,90 250,84 40,5 236,53 181,232 3,17 -13,143 -227,112z"/>
  <path class="fil3" d="M7567 4297l-70 24 -90 -51 22 -81c0,0 43,42 50,45 7,3 87,63 87,63z"/>
  <path class="fil0" d="M7330 4835c6,3 205,140 232,111 10,-5 13,-75 -89,-150 2,1 -143,39 -143,39z"/>
  <path class="fil0" d="M7573 4960c34,-23 -10,-100 -24,-117 -19,-24 -41,-45 -66,-63l-15 -3 -143 39c-10,3 -15,13 -13,22 1,4 4,8 8,11 165,103 223,135 253,110zm-198 -119l0 0 94 -26c16,12 31,26 44,41 9,10 16,21 23,33l10 23 3 13 0 6 -9 -1 -26 -9 -50 -25 -89 -55z"/>
  <path class="fil0" d="M7167 4693c0,0 -96,-54 -60,-79 1,0 58,-16 64,-16 6,1 85,56 85,56l-89 39z"/>
  <path class="fil0" d="M7174 4710l89 -39c9,-4 13,-15 9,-24 -1,-3 -4,-6 -6,-8l-80 -54 -2 -1c-6,-3 -11,-5 -17,-4l-64 16c-29,9 -26,41 -11,59 13,16 61,64 83,54zm-6 -37l0 0c-16,-10 -30,-21 -43,-33 -3,-3 -5,-6 -7,-10l42 -11 8 -1 50 34 -50 22z"/>
  <path class="fil2" d="M7457 4829c0,0 -48,-69 -177,-109 -9,-5 -38,-53 -38,-53l-34 -15c0,0 -267,201 -401,212 -10,4 13,-91 16,-98 3,-7 15,-185 18,-192 3,-7 72,-136 72,-136 0,0 78,-156 36,-205 -5,9 -101,128 -125,117 -25,-14 -6,-112 -6,-112 0,0 -27,-135 -56,-140 -8,14 -29,218 -94,223 -25,10 -71,-99 -128,-96 -10,6 49,191 50,225 -2,42 0,203 2,213 2,10 14,111 13,122 -1,10 -41,131 -41,131 0,0 1,197 105,194 36,-4 85,12 147,-122 17,-7 120,-51 126,-54 7,-2 514,-106 514,-106z"/>
  <path class="fil2" d="M6588 4979c0,0 -76,57 -102,55 -26,-2 -56,-85 -56,-85 0,0 -5,-256 -21,-279 -15,-23 -62,-203 -62,-203 0,0 -76,-102 -119,-118 3,-11 64,-3 93,-3 29,0 74,0 67,-51 -6,-31 -23,-115 -23,-115 0,0 93,43 105,71 13,13 69,27 118,-20 47,-46 60,-82 60,-82l-16 176 -13 369 -33 284z"/>
  <path class="fil2" d="M7971 4805c0,0 -93,79 -181,87 -86,9 -232,52 -232,52 0,0 -60,-152 -281,-243 -15,-16 -88,-74 -160,-86 -12,-1 100,-55 181,-163 31,-28 138,-116 326,-166 -7,2 96,68 105,68 9,-1 128,156 135,162 8,6 66,146 72,162 6,15 34,127 34,127z"/>
  <path class="fil0" d="M7892 4741c3,-20 -8,-39 -24,-41 -16,-2 -31,12 -34,33 -3,20 8,39 24,41 16,2 31,-12 34,-33z"/>
  <path class="fil0" d="M7856 4772c7,-13 -2,-32 -21,-42 -19,-10 -40,-7 -47,6 -7,13 2,32 21,42 19,10 40,7 47,-6z"/>
  <path class="fil0" d="M7926 4786c2,-17 -13,-33 -34,-36 -21,-3 -41,8 -43,25 -2,17 13,33 34,36 21,3 41,-8 43,-25z"/>
  <path class="fil0" d="M7888 4815c-1,-19 -14,-34 -31,-33 -17,1 -29,16 -29,35 1,19 14,34 31,33 17,-1 29,-16 29,-35z"/>
  <path class="fil0" d="M7854 4791c-3,-15 -21,-24 -41,-20 -19,4 -33,19 -29,34 3,15 21,24 41,20 19,-4 32,-19 29,-34z"/>
  <path class="fil2" d="M7871 4777c2,-10 -6,-20 -16,-22 -10,-2 -20,6 -22,16 -1,10 6,20 16,22 10,2 20,-6 22,-16z"/>
  <path class="fil0" d="M7820 4504c3,-20 -8,-39 -24,-41 -16,-2 -31,12 -34,33 -3,20 8,39 24,41 16,2 31,-12 34,-33z"/>
  <path class="fil0" d="M7784 4534c7,-13 -2,-32 -21,-42 -19,-10 -40,-7 -47,6 -7,13 2,32 21,42 19,10 40,7 47,-6z"/>
  <path class="fil0" d="M7854 4549c2,-17 -13,-33 -34,-36 -21,-3 -41,8 -43,25 -2,17 13,33 34,36 21,3 41,-8 43,-25z"/>
  <path class="fil0" d="M7815 4578c-1,-19 -14,-34 -31,-33 -17,1 -29,16 -29,35 1,19 14,34 31,33 17,-1 29,-16 29,-35z"/>
  <path class="fil0" d="M7781 4553c-3,-15 -21,-24 -41,-20 -19,4 -33,19 -29,34 3,15 21,24 41,20 19,-4 33,-19 29,-34z"/>
  <path class="fil2" d="M7798 4539c1,-10 -6,-20 -16,-22 -10,-1 -20,6 -22,16 -2,10 6,20 16,22 10,2 20,-6 22,-16z"/>
  <path class="fil0" d="M7707 4677c3,-20 -8,-39 -24,-41 -16,-2 -31,12 -34,33 -3,20 8,39 24,41 16,2 31,-12 34,-33z"/>
  <path class="fil0" d="M7671 4708c7,-13 -2,-32 -21,-42 -19,-10 -40,-7 -47,6 -7,13 2,32 21,42 19,10 40,7 47,-6z"/>
  <path class="fil0" d="M7741 4722c2,-17 -13,-33 -34,-36 -21,-3 -41,8 -43,25 -2,17 13,33 34,36 21,3 41,-8 43,-25z"/>
  <path class="fil0" d="M7702 4751c-1,-19 -14,-34 -31,-33 -17,1 -29,16 -29,35 1,19 14,34 31,33 17,-1 29,-16 29,-35z"/>
  <path class="fil0" d="M7668 4727c-3,-15 -21,-24 -41,-20 -19,4 -32,19 -29,34 3,15 21,24 41,20 19,-4 33,-19 29,-34z"/>
  <path class="fil2" d="M7685 4713c2,-10 -6,-20 -16,-22 -10,-2 -20,6 -22,16 -2,10 6,20 16,22 10,2 20,-6 22,-16z"/>
  <path class="fil0" d="M7455 4709c3,-20 -8,-39 -24,-41 -16,-2 -31,12 -34,33 -3,20 8,39 24,41 16,2 31,-12 34,-33z"/>
  <path class="fil0" d="M7419 4740c7,-13 -2,-32 -21,-42 -19,-10 -40,-7 -47,6 -7,13 2,32 21,42 19,10 40,7 47,-6z"/>
  <path class="fil0" d="M7489 4755c2,-17 -13,-33 -34,-36 -21,-3 -41,8 -43,25 -2,17 13,33 34,36 21,3 41,-8 43,-25z"/>
  <path class="fil0" d="M7450 4783c-1,-19 -14,-34 -31,-33 -10,0 -18,6 -23,14 19,13 35,25 50,38 3,-5 4,-12 4,-19z"/>
  <path class="fil4" d="M7416 4759c-3,-15 -21,-24 -41,-20 -4,1 -8,2 -12,4 18,11 34,21 49,32 3,-5 5,-11 3,-17z"/>
  <path class="fil2" d="M7433 4745c2,-10 -6,-20 -16,-22 -10,-1 -20,6 -22,16 -2,10 6,20 16,22 10,2 20,-6 22,-16z"/>
  <path class="fil0" d="M7273 4580c3,-20 -8,-39 -24,-41 -16,-2 -31,12 -34,33 -3,20 8,39 24,41 16,2 31,-12 34,-33z"/>
  <path class="fil0" d="M7237 4611c7,-13 -2,-32 -21,-42 -10,-5 -21,-7 -29,-5 -6,5 -13,10 -18,14 -5,13 4,31 22,40 19,10 40,7 47,-6z"/>
  <path class="fil0" d="M7307 4625c2,-17 -13,-33 -34,-36 -21,-3 -41,8 -43,25 -2,17 13,33 34,36 21,3 41,-8 43,-25z"/>
  <path class="fil0" d="M7268 4654c-1,-19 -15,-34 -31,-33 -15,0 -27,13 -29,29 19,11 35,23 48,32 8,-6 12,-17 12,-28z"/>
  <path class="fil0" d="M7234 4630c-3,-15 -21,-24 -41,-20 -13,3 -23,10 -27,19 19,8 38,18 54,28 10,-7 16,-17 14,-28z"/>
  <path class="fil2" d="M7251 4616c2,-10 -6,-20 -16,-22 -10,-2 -20,6 -22,16 -2,10 6,20 16,22 10,1 20,-6 22,-16z"/>
  <path class="fil0" d="M7649 4389c3,-20 -8,-39 -24,-41 -16,-2 -31,12 -34,33 -3,20 8,39 24,41 16,2 31,-12 34,-33z"/>
  <path class="fil0" d="M7613 4419c7,-13 -2,-32 -21,-42 -19,-10 -40,-7 -47,6 -7,13 2,32 21,42 19,10 40,7 47,-6z"/>
  <path class="fil0" d="M7683 4434c2,-17 -13,-33 -34,-36 -21,-3 -41,8 -43,25 -2,17 13,33 34,36 21,3 41,-8 43,-25z"/>
  <path class="fil0" d="M7644 4463c-1,-19 -14,-34 -31,-33 -17,1 -29,16 -29,35 1,19 15,34 31,33 17,-1 29,-16 29,-35z"/>
  <path class="fil0" d="M7610 4438c-3,-15 -21,-24 -41,-20 -19,4 -32,19 -29,34 3,15 21,24 41,20 19,-4 33,-19 29,-34z"/>
  <path class="fil2" d="M7627 4424c1,-10 -6,-20 -16,-22 -10,-2 -20,6 -22,16 -2,10 6,20 16,22 10,2 20,-6 22,-16z"/>
  <path class="fil0" d="M7483 4480c3,-20 -8,-39 -24,-41 -16,-2 -31,12 -34,33 -3,21 8,39 24,41 16,2 31,-12 34,-33z"/>
  <path class="fil0" d="M7447 4511c7,-13 -2,-32 -21,-42 -19,-10 -40,-7 -47,6 -7,13 2,32 21,42 19,10 40,7 47,-6z"/>
  <path class="fil0" d="M7517 4525c2,-17 -13,-33 -34,-36 -21,-3 -41,8 -43,25 -2,17 13,33 34,36 21,3 41,-8 43,-25z"/>
  <path class="fil0" d="M7478 4554c-1,-19 -14,-34 -31,-33 -17,1 -29,16 -29,35 1,19 14,34 31,33 17,-1 29,-16 29,-35z"/>
  <path class="fil0" d="M7444 4530c-3,-15 -21,-24 -41,-20 -19,4 -32,19 -29,34 3,15 21,24 41,20 19,-4 33,-19 29,-34z"/>
  <path class="fil2" d="M7461 4516c1,-10 -6,-20 -16,-22 -10,-2 -20,6 -22,16 -2,10 6,20 16,22 10,2 20,-6 22,-16z"/>
  <path class="fil0" d="M7630 4851c3,-20 -8,-39 -24,-41 -16,-2 -31,12 -34,33 -3,20 8,39 23,41 16,2 31,-12 34,-33z"/>
  <path class="fil0" d="M7593 4882c7,-13 -2,-32 -21,-42 -19,-10 -40,-7 -47,6 -7,13 2,32 21,42 19,10 40,7 47,-6z"/>
  <path class="fil0" d="M7664 4896c2,-17 -13,-33 -34,-36 -21,-3 -41,8 -43,25 -2,17 13,33 34,36 21,3 41,-8 43,-25z"/>
  <path class="fil0" d="M7625 4925c-1,-19 -15,-34 -31,-33 -17,1 -29,16 -29,35 0,5 1,10 3,14 11,-3 32,-9 57,-15l0 0z"/>
  <path class="fil0" d="M7591 4900c-3,-15 -21,-24 -41,-20 -9,2 -16,6 -22,12 13,19 22,34 26,43 2,0 5,0 7,-1 19,-4 32,-19 29,-34z"/>
  <path class="fil2" d="M7608 4886c1,-10 -6,-20 -16,-22 -10,-2 -20,6 -22,16 -2,10 6,20 16,22 10,2 20,-6 22,-16z"/>
  <path class="fil0" d="M8807 3933c-4,-4 -26,-18 -7,-49 6,-10 52,-55 -3,-79 -5,-5 44,-71 -15,-203 0,0 -10,-10 -21,7 -13,29 -46,77 -77,94 -17,10 -75,34 -153,-32 -20,-13 -41,-58 -39,-99 -8,-4 -49,61 -122,5 -19,-14 -47,-45 -22,-106 -2,0 8,-9 -8,-16 -8,-6 8,-25 8,-25 0,0 87,5 163,40 5,-1 28,-24 64,13 6,1 105,-14 228,66 2,0 1,9 -3,16 3,4 101,124 66,299 -3,18 -28,87 -58,68z"/>
  <path class="fil0" d="M8541 3804c-2,12 -6,23 -11,33 -5,9 -2,20 7,25 9,5 20,2 25,-7 49,-86 -23,-151 -33,-160 -8,-6 -19,-5 -25,3 -6,8 -5,19 3,25 24,19 38,49 36,80z"/>
  <path class="fil0" d="M7302 3581c-31,-28 -27,-68 -2,-98 37,-47 78,-90 124,-128 28,-23 57,-43 89,-60 20,-10 40,-19 61,-26 39,-13 59,-14 102,-19 109,0 211,34 303,91 65,41 126,90 181,145 49,51 144,132 222,99 9,-4 14,-14 10,-24 -4,-9 -14,-14 -24,-10 -10,4 -22,6 -33,4l-18 -4 -28 -11c-14,-7 -28,-16 -41,-25 -24,-18 -41,-34 -62,-55 -88,-90 -193,-167 -312,-211 -64,-24 -151,-41 -218,-33 -158,12 -290,126 -383,244 -39,41 -38,112 7,149 31,25 71,35 111,29 26,-3 51,-8 75,-17 92,-26 201,-47 299,-42 169,19 318,75 468,149 70,35 164,68 239,74 30,3 61,-1 89,-12 9,-4 14,-14 10,-23 -4,-9 -14,-14 -23,-10 -23,9 -48,12 -72,10l-1 0c-22,-2 -44,-5 -65,-11 -55,-14 -109,-34 -160,-60 -61,-30 -123,-58 -187,-82 -94,-36 -193,-60 -294,-71 -35,-3 -90,0 -125,4 -49,6 -143,23 -190,39 -52,18 -107,29 -151,-6z"/>
  <path class="fil0" d="M8647 4019c60,-29 141,-90 138,-168 -3,-43 -21,-84 -52,-115 -7,-7 -19,-7 -26,0 -7,7 -7,19 0,26 24,24 39,56 41,90 0,11 -2,22 -6,32 -6,16 -16,32 -29,44 -24,24 -53,44 -84,59 -2,1 -3,2 -4,3l-17 8 -26 8 -21 3 -30 0c-12,-1 -24,-4 -35,-9 -16,-7 -30,-16 -42,-29 -7,-7 -18,-8 -26,-1 -7,7 -8,18 -1,26 81,85 198,37 218,22zm1 -1l0 0 7 -14c0,4 -1,8 -4,11 -1,1 -2,2 -3,3z"/>
  <path class="fil0" d="M8607 3467c2,2 4,4 6,5l19 -30c2,2 4,4 5,6l0 15 -1 1 1 -1 0 0 0 0 1 -1c17,-22 44,-34 72,-30l6 3 10 6 8 6 10 10 13 17c5,9 9,18 12,27 5,15 8,31 9,47 1,27 -1,55 -6,81 -10,48 -24,95 -44,139 -4,9 0,20 9,24 9,4 20,0 24,-9 87,-197 48,-295 26,-329 -14,-23 -43,-53 -71,-58 -32,-6 -76,8 -100,34 -28,-16 -62,-21 -94,-13 -10,3 -16,12 -13,22 3,10 12,16 22,13 26,-7 54,-1 76,15z"/>
  <path class="fil0" d="M8468 3420c8,-1 16,-1 24,1 15,4 30,10 43,20 8,6 19,4 25,-4 6,-8 4,-20 -4,-25 -104,-73 -159,14 -169,42 -3,9 2,20 11,23 9,3 20,-2 23,-11 8,-22 25,-38 47,-45z"/>
  <path class="fil0" d="M8238 3607c30,22 67,33 105,32 7,0 12,-6 12,-12 0,-7 -6,-12 -12,-12 -32,1 -64,-9 -90,-27 -5,-4 -13,-3 -17,3 -4,5 -3,13 3,17z"/>
  <path class="fil0" d="M8445 3681c-3,5 -6,9 -10,12 -5,4 -6,12 -2,17 4,5 12,6 17,2 41,-33 15,-72 11,-78 -4,-5 -12,-6 -17,-2 -5,4 -6,12 -2,17 7,9 9,22 3,33z"/>
  <path class="fil0" d="M8200 4583c35,2 63,-13 69,-52 0,0 0,0 0,0 1,0 1,-1 2,-1 24,-4 70,11 96,20 9,3 18,5 27,4 28,-3 27,-35 25,-55 -1,-10 -1,-20 1,-30 0,0 1,0 1,-1 39,-8 90,11 129,26 3,1 12,3 15,4 24,2 34,-23 36,-41l5 -60 5 -1 26 0 113 13c18,1 26,-13 27,-28 0,-13 -22,-58 -30,-76l-2 -7c1,-3 3,-6 6,-8 8,-5 16,-7 25,-8 28,-2 55,-1 83,3 0,0 39,3 40,3 7,0 14,-1 20,-6 17,-13 1,-43 -10,-56 -23,-25 -70,-47 -105,-59l-3 -1 28 -7 5 -2c5,-3 10,-9 12,-15 5,-17 -10,-29 -23,-36 -26,-12 -54,-22 -82,-29 0,0 1,0 1,0 3,-1 11,-5 14,-7 7,-5 11,-15 11,-24 -1,-15 -13,-21 -25,-25 -30,-8 -59,-20 -87,-34 -9,-5 -20,-1 -24,8 -5,9 -1,20 8,24 23,12 46,21 71,29 -7,2 -15,5 -22,8 -11,6 -25,19 -17,34 4,7 10,11 18,13 35,5 68,15 101,28l-15 4c-14,4 -24,10 -32,23 -15,25 36,39 49,43 24,8 46,19 68,31 7,4 15,10 22,17l-17 -1c-34,-5 -152,-20 -155,51 0,8 21,54 30,72l-97 -11c-18,-2 -46,-3 -61,10 -5,4 -8,11 -9,17l-5 66 -2 8 0 0c-28,-12 -57,-21 -87,-26 -16,-4 -82,-12 -91,21 -4,15 -5,31 -3,47l0 15 -5 -1c-25,-9 -51,-17 -77,-22 -26,-5 -65,-2 -69,31l-3 10 -3 6c-2,2 -4,3 -6,3 -9,2 -18,3 -27,1l-18 7c-2,2 -10,18 -12,21 -49,85 -122,154 -209,200 -9,5 -12,16 -8,24 5,9 16,12 24,8 93,-49 170,-123 223,-214 0,0 3,-5 5,-9z"/>
  <path class="fil0" d="M8435 4049c-14,11 -27,22 -41,33 0,0 -52,49 -53,49 -34,34 -82,94 -48,144 11,16 54,49 80,40 42,2 98,-2 139,-17 23,-8 35,-15 54,-28 12,-9 34,-31 35,-46 3,-34 -43,-57 -73,-68 -13,-4 -25,-11 -35,-20 -17,-18 -26,-42 -26,-67 15,-11 30,-22 45,-33 8,-6 10,-17 5,-25 -6,-8 -17,-10 -25,-5 -17,12 -34,24 -51,36 -2,1 -4,3 -6,5zm-2 47l0 0c5,26 17,52 35,68 12,11 32,22 48,27 15,5 29,12 42,21 2,2 4,4 6,6 -5,8 -12,16 -20,22l-16 11 -28 12c-15,5 -31,9 -47,11 -27,4 -55,5 -83,4 -2,0 -4,0 -6,1l-3 -1 -6 -2 -9 -3 -13 -7c-4,-3 -8,-7 -11,-12 -4,-6 -6,-13 -6,-21 0,-5 1,-10 3,-14l7 -13 13 -20 26 -31c0,0 51,-47 51,-47 5,-4 10,-9 15,-13z"/>
  <path class="fil0" d="M7880 4308c47,7 94,11 142,14 86,3 177,-71 183,-160 3,-66 32,-129 81,-174 7,-7 8,-18 1,-26 -7,-7 -18,-8 -26,-1 -56,51 -89,123 -93,198 -11,72 -73,126 -146,126 -46,-2 -93,-7 -139,-13 -2,0 -34,-1 -37,-1 -65,-4 -130,1 -193,15 -10,2 -16,12 -14,22 2,10 12,16 22,14 60,-13 122,-18 183,-14 1,0 32,1 35,1z"/>
  <path class="fil0" d="M7874 4067c-58,-5 -115,-16 -171,-34 -35,-12 -69,-27 -100,-46 -74,-44 -129,-104 -153,-186 -3,-10 -13,-15 -23,-12 -10,3 -15,13 -12,22 18,62 55,118 105,159 93,82 230,124 352,133 80,6 180,-14 254,-42 62,-23 123,-51 180,-84l43 -13 27 -4c13,-1 26,0 39,1 10,1 19,-5 21,-15 1,-10 -5,-19 -15,-21 -16,-2 -31,-3 -47,-2 -3,0 -31,4 -33,5l-46 14 -4 2c-57,32 -116,60 -177,82 -77,29 -157,42 -239,39z"/>
  <path class="fil0" d="M7508 3794c-27,0 -53,-4 -79,-11 -13,-4 -26,-10 -37,-18 -23,-17 -34,-46 -26,-74 3,-10 -3,-20 -13,-22 -10,-3 -20,3 -22,13 -18,64 26,118 88,136 29,8 59,13 88,13 10,0 18,-8 18,-18 0,-10 -8,-18 -18,-18z"/>
  <path class="fil0" d="M7578 3706c90,-30 166,-39 254,-21l1 0c84,15 180,53 262,90 64,29 128,60 191,92 37,20 75,36 115,48 61,18 144,18 203,-15 31,-17 56,-44 69,-77 4,-9 -1,-20 -10,-24 -9,-4 -20,1 -24,10 -15,37 -46,60 -85,72 -17,5 -35,8 -53,8 -30,1 -60,-3 -90,-10 -43,-13 -68,-25 -108,-46 -100,-51 -221,-108 -329,-149 -43,-17 -88,-29 -134,-36 -52,-11 -107,-13 -160,-5 -39,6 -93,18 -128,33l-19 6 -42 10 -35 3c-34,1 -66,-6 -92,-28 -20,-18 -34,-41 -40,-67 -2,-10 -12,-16 -22,-13 -10,2 -16,12 -13,22 8,33 26,64 52,86 18,15 42,26 64,31 55,12 122,1 173,-22z"/>
  <path class="fil0" d="M7835 4386l-5 -6c-1,-1 -1,-2 -1,-3 1,-3 2,-6 5,-8 5,-4 6,-12 2,-17 -4,-5 -12,-6 -17,-2 -22,17 -17,39 0,54 7,6 14,10 22,13 6,3 13,0 16,-6 3,-6 0,-13 -6,-16 -6,-2 -11,-5 -15,-9z"/>
  <path class="fil0" d="M6499 5013c-8,2 -16,1 -22,-3 -6,-4 -10,-9 -14,-15l-8 -17 -5 -20 0 -4 -6 -200c0,0 -4,-52 -4,-53 0,0 -3,-21 -3,-22 -1,-6 -3,-13 -7,-18 -30,-65 -35,-94 -59,-170 -5,-29 -18,-57 -38,-79 -20,-23 -41,-42 -65,-58l10 0 12 1c22,7 86,17 105,-2 14,-14 21,-33 19,-53 -1,-19 -4,-37 -11,-55 -5,-14 -10,-27 -16,-41l24 13 30 22 12 11 3 3c1,1 1,2 2,4 22,28 64,33 92,11 8,-6 9,-18 3,-25 -6,-8 -18,-9 -25,-3 -12,10 -30,8 -40,-4 -13,-22 -68,-56 -86,-65 -14,-7 -30,-11 -46,-11 -10,0 -18,8 -18,18 0,3 1,5 2,8l7 15c9,18 17,37 23,56 5,16 8,29 9,45 0,9 -1,16 -7,23l-2 1 -1 0 -11 2 -10 0 -18 -2 -30 -6 2 0c-27,-10 -61,-1 -87,9l-3 33 13 7c49,29 98,71 110,129 0,2 11,36 13,40 6,23 42,144 61,150 -3,-1 -6,-3 -8,-6l-1 -1 0 -1 0 0 0 -1 1 2 1 3 3 19 3 51 6 201c3,46 39,112 97,92 27,-10 51,-26 70,-48 7,-8 6,-19 -2,-26 -8,-7 -19,-6 -26,2 -15,17 -34,30 -55,37z"/>
  <path class="fil0" d="M6636 4195c-1,35 -5,69 -12,103 -2,10 4,19 14,22 10,2 19,-4 22,-14 10,-45 22,-138 4,-177 -4,-9 -15,-13 -24,-9 -4,2 -7,5 -9,8l-14 29 -25 38 -12 14c-3,3 -6,5 -10,7 -9,4 -13,15 -8,24 4,9 15,13 24,8 8,-4 15,-9 20,-15 2,-2 14,-17 15,-18 6,-9 11,-16 14,-21z"/>
  <path class="fil0" d="M6846 4716c6,-75 14,-141 51,-204 22,-36 41,-74 56,-114 25,-57 33,-120 24,-182 -2,-11 -6,-26 -20,-27 -8,-1 -15,3 -19,11 -7,17 -16,34 -26,49l-26 35 -34 38 -15 13c-1,0 -1,-1 -2,-1 -3,-4 -5,-8 -6,-13 -3,-15 -5,-31 -5,-47 4,-36 5,-86 -7,-122 -7,-22 -30,-72 -61,-72l-18 20 1 10 -5 33c-13,53 -29,106 -48,157 -3,6 -8,8 -14,9l-5 0c-17,-29 -43,-61 -70,-80 -16,-12 -56,-36 -77,-25 -9,5 -12,16 -7,25 51,111 73,233 66,354 -3,37 -4,116 5,153 4,15 5,30 4,45 -3,19 -9,37 -16,55l-1 3c-13,50 -20,128 -11,183 4,36 20,65 47,90 2,3 4,6 8,8 45,22 94,18 135,-8 34,-21 69,-60 86,-97 65,-61 366,-236 457,-287 9,-5 12,-16 7,-25 -5,-9 -16,-12 -25,-7 -139,78 -275,160 -408,247 -21,14 -41,30 -59,48 -3,3 -5,9 -7,13l-6 11 -18 25 -18 20c-20,19 -42,33 -68,37 -18,3 -37,0 -54,-7 -3,-3 -7,-7 -11,-10 -30,-31 -34,-82 -32,-123 2,-36 6,-73 14,-108 17,-41 26,-77 14,-121 -7,-50 -8,-91 -4,-142 7,-115 -11,-230 -54,-337l15 10c10,7 19,16 28,25 14,15 25,32 35,49 10,17 41,15 56,8 11,-5 21,-15 26,-27 20,-53 36,-108 50,-163 1,-4 2,-9 2,-14l2 3 9 23c4,13 6,26 7,39 2,23 1,46 -2,69l0 2c-1,29 3,96 48,100 2,0 7,0 10,-1 24,-7 85,-86 95,-102 1,-1 1,-2 2,-3 -2,81 -38,158 -78,227 -21,35 -35,74 -42,115 -4,20 -15,89 -14,109 3,47 -6,94 -26,137 -4,9 0,20 9,24 9,4 20,0 24,-9 22,-48 33,-100 30,-153z"/>
  <path class="fil0" d="M6874 4821c-29,12 -58,21 -89,27 -10,2 -16,11 -14,21 2,10 11,16 21,14 163,-32 408,-202 430,-218 8,-6 10,-17 4,-25 -6,-8 -17,-10 -25,-4 -103,73 -213,135 -328,186z"/>
  <path class="fil0" d="M6870 4982c200,-54 403,-100 607,-138 10,-2 16,-11 15,-21 -2,-10 -11,-16 -21,-15 -205,38 -408,84 -610,138 -10,3 -15,13 -13,22 3,10 13,15 22,13z"/>
  <path class="fil0" d="M7405 4609c-4,1 -8,4 -11,8 -5,9 -2,20 7,25 87,49 81,43 86,42l5 -2c4,-2 6,-5 8,-8 8,-14 -4,-26 -14,-33 -18,-14 -37,-26 -57,-38 -8,-5 -19,-2 -25,6z"/>
  <path class="fil0" d="M7408 4602l-3 8c-4,9 1,20 10,24 9,4 20,-1 24,-10 9,-23 11,-60 11,-72 0,-10 -8,-18 -18,-19 -10,0 -18,8 -19,18 0,17 -2,35 -5,52z"/>
  <path class="fil0" d="M7345 4680l73 -42 0 0c13,-2 27,-3 41,-2 55,5 110,17 162,38 9,4 20,-1 23,-10 4,-9 -1,-20 -10,-23 -60,-23 -166,-50 -224,-37 -3,1 -6,2 -9,3 -65,34 -75,42 -133,80 -8,5 -11,17 -5,25 5,8 17,11 25,5l57 -37z"/>
  <path class="fil0" d="M7399 4628l4 4c7,8 18,8 26,2 8,-7 8,-18 2,-26 -17,-19 -41,-24 -55,-25 -10,-1 -19,7 -20,17 -1,10 7,19 17,20 9,1 18,4 27,8z"/>
  <path class="fil0" d="M7381 4369c-49,33 -94,73 -131,118l-27 27 -62 48c-18,13 -38,24 -59,31 -3,1 -4,2 -6,4 -11,8 -8,25 3,31 3,2 12,5 17,6 55,14 120,34 153,85 3,5 15,10 22,13 71,29 137,71 193,124 28,28 51,61 67,97 7,16 27,11 38,6 52,-22 108,-37 165,-42 2,0 4,-1 5,-1l11 -2c80,-7 154,-42 211,-98l5 -17c-28,-147 -70,-242 -130,-330 -52,-76 -128,-149 -209,-194 -15,-9 -44,-3 -59,1 -74,18 -143,49 -206,93zm567 429l0 0c-48,45 -110,73 -175,80 -6,1 -17,2 -24,4 -58,5 -116,20 -170,42l-3 1c-50,-99 -161,-180 -264,-222l-18 -8c-16,-23 -37,-43 -62,-56 -24,-13 -50,-24 -76,-32 5,-3 10,-6 15,-9 32,-22 80,-57 106,-88 54,-64 112,-110 185,-148l63 -29 43 -15 46 -11 9 -1 5 0 0 0 1 0c69,40 129,93 177,157 65,87 111,187 134,293l8 40z"/>
  <path class="fil0" d="M6672 4875c12,9 21,21 26,35 2,6 9,10 15,8 6,-2 10,-9 8,-15 -6,-19 -19,-36 -36,-48 -17,-11 -40,-10 -57,0 -6,3 -8,11 -4,17 3,6 11,8 17,4 10,-6 21,-6 31,0z"/>
  <path class="fil0" d="M6675 4741l-8 58c-1,7 4,13 10,14 7,1 13,-4 14,-10 18,-127 15,-261 14,-311 0,-7 -6,-12 -12,-12 -7,0 -12,6 -12,12 3,83 1,166 -5,249z"/>
  <path class="fil0" d="M6691 4506c28,33 78,34 116,16 6,-3 9,-10 6,-16 -3,-6 -10,-9 -16,-6 -19,9 -41,11 -62,7 -6,-2 -11,-4 -16,-8 -7,-5 -13,-12 -17,-21 -3,-6 -10,-8 -16,-6 -2,1 -3,2 -5,4 -9,14 -15,22 -27,32 -2,2 -5,3 -8,4 -7,1 -11,7 -10,14 1,7 7,11 14,10 8,-1 15,-4 21,-9 8,-7 15,-14 21,-22z"/>
  <path class="fil0" d="M6539 4372c2,25 0,51 -5,76 -1,7 3,13 9,14 7,1 13,-3 14,-9 6,-27 8,-55 6,-83 -1,-7 -6,-12 -13,-11 -7,1 -12,6 -11,13z"/>
  <path class="fil0" d="M6468 4374c8,36 14,73 16,110 0,7 6,12 13,11 7,0 12,-6 11,-13 -2,-39 -8,-77 -17,-114 -2,-7 -8,-11 -14,-9 -7,2 -11,8 -9,14z"/>
  <path class="fil0" d="M6396 4432c16,36 31,72 43,109 2,6 9,10 15,7 6,-2 10,-9 7,-15 -14,-42 -36,-96 -56,-133 -3,-6 -11,-8 -16,-5 -6,3 -8,11 -5,16l11 20z"/>
  <path class="fil0" d="M7392 4288c32,18 65,35 98,51 9,4 20,1 24,-8 4,-9 1,-20 -8,-24 -32,-16 -64,-33 -96,-50 -9,-5 -20,-2 -25,7 -5,9 -2,20 7,25z"/>
  <path class="fil0" d="M7461 4187l-8 -9 -2 -3c-5,-9 -16,-12 -25,-6 -9,5 -12,16 -6,25 14,23 112,104 134,121 8,6 19,5 25,-3 6,-8 5,-19 -3,-25 -40,-32 -78,-65 -116,-100z"/>
  <path class="fil2" d="M7500 4390c-2,2 -63,127 -270,105 -7,2 38,-82 61,-98 -6,-8 -20,-38 -25,-59 -4,-8 -84,11 -125,-85 -22,-59 -87,-228 -87,-228 0,0 -74,-106 -167,-110 -5,-3 107,-104 150,-117 42,-13 256,-121 242,-84 -15,37 -27,154 -8,191 20,37 89,160 89,160 0,0 126,127 26,227 -3,7 19,28 17,75 5,0 83,-8 97,23z"/>
  <path class="fil2" d="M7212 3909l-26 -5c0,0 -69,-56 -70,-63 0,-7 -6,-58 -7,-75 -1,-17 28,-260 28,-260 0,0 81,-7 78,4 -3,10 -59,308 -59,308l10 27 46 65z"/>
  <path class="fil0" d="M7216 4479l-3 7c-4,5 -5,12 -3,18 3,6 9,11 15,11 60,5 121,-3 177,-26 41,-17 77,-43 106,-77l8 -10c5,-6 6,-15 2,-21 -24,-39 -104,-40 -151,-34 -10,1 -17,10 -16,20 1,10 10,17 20,16 28,-3 57,-3 85,1l21 7c0,0 0,0 0,0 -42,45 -82,70 -151,83 -24,4 -49,6 -73,6 14,-31 37,-57 66,-73 9,-5 12,-16 7,-25 -5,-9 -16,-12 -25,-7 -41,23 -72,60 -87,104z"/>
  <path class="fil0" d="M7411 4369c28,-59 -7,-85 -26,-91 -10,-3 -20,2 -23,12 -3,10 2,20 12,23 5,2 10,6 11,12 1,3 1,6 0,9 -1,7 -3,14 -6,20 -4,9 -1,20 8,24 9,4 20,1 24,-8z"/>
  <path class="fil0" d="M7296 4369c-5,-6 -6,-14 -3,-21 4,-9 0,-20 -10,-24 -9,-4 -20,0 -24,10 -9,21 -4,45 12,62 2,2 15,12 18,14 8,6 19,4 25,-4 6,-8 4,-19 -4,-25l-15 -11z"/>
  <path class="fil0" d="M7232 4322c-29,-7 -51,-27 -66,-52l-15 -28 -14 -36 -7 -29c-8,-51 -25,-101 -51,-146 -34,-63 -88,-106 -155,-128 46,-40 98,-72 153,-98l65 -28 81 -28 32 -8c-13,41 -15,85 -7,127 0,0 13,49 14,50 8,27 47,103 68,120l0 -1c30,29 44,51 66,87 33,55 16,126 -39,159 -2,1 -4,2 -6,3 -9,5 -12,16 -8,25 5,9 16,12 25,8 74,-39 103,-132 63,-206 -1,-3 -3,-5 -4,-8 -17,-31 -46,-72 -73,-95l-3 -3 -19 -27 -22 -40 -14 -33 -13 -47c-4,-20 -5,-40 -4,-60 2,-26 9,-52 21,-76 5,-9 1,-20 -8,-24 -3,-2 -7,-2 -11,-2 -86,13 -227,72 -307,122 -36,23 -70,49 -101,79l9 31 22 4c116,34 168,140 188,249 6,32 25,78 42,105 9,14 19,26 31,37 42,39 102,42 151,18 9,-4 13,-15 8,-24 -4,-9 -15,-13 -24,-8 -21,11 -46,14 -69,10z"/>
  <path class="fil0" d="M7422 4398l-8 5c-35,21 -73,35 -113,42 -7,1 -11,8 -10,14 1,7 8,11 14,10 37,-7 112,-30 136,-57 4,-5 4,-13 -1,-17 -5,-4 -13,-4 -17,1l-2 2z"/>
  <path class="fil2" d="M7237 3925l44 80 29 45c0,0 98,118 71,180 -9,16 -63,98 -159,52 -29,-21 -116,-228 -116,-228l-26 -57 95 -57 63 -16z"/>
  <path class="fil0" d="M6748 3684c51,18 101,40 148,66 116,64 210,143 278,255 3,6 11,8 17,4 6,-3 8,-11 4,-17 -48,-80 -113,-148 -189,-201 -75,-55 -161,-99 -250,-130 -6,-2 -13,1 -15,7 -2,6 1,13 7,15z"/>
  <path class="fil0" d="M7132 3839l-5 -8c-4,-11 -6,-23 -5,-35l28 -283c1,-7 -4,-13 -11,-13 -7,-1 -13,4 -13,11l-28 284c-1,14 1,34 7,46 6,13 84,81 100,95 5,4 13,4 17,-1 4,-5 4,-13 -1,-17l-89 -79z"/>
  <path class="fil0" d="M7172 3829l-4 -7 -2 -5 3 -26c16,-89 35,-177 57,-265 2,-6 -2,-13 -9,-15 -6,-2 -13,2 -15,9 -22,88 -41,177 -57,267l0 1 -4 29c0,8 5,19 9,26 22,32 46,62 73,90 5,5 12,5 17,0 5,-5 5,-12 0,-17 -26,-27 -49,-55 -70,-86z"/>
  <path class="fil0" d="M7321 4079l20 27c17,22 29,48 35,76 2,13 1,28 -5,40 -15,27 -31,34 -57,51 -17,8 -35,11 -54,10 -11,-1 -22,-5 -31,-11 -7,-5 -14,-11 -19,-17l-13 -18 -12 -26 -6 -21c-3,-12 -23,-61 -27,-73 -16,-43 -37,-84 -63,-123 -4,-6 -11,-7 -17,-3 -6,4 -7,11 -3,17 40,60 60,118 86,182 4,25 20,60 36,80 32,41 89,49 134,25 1,-1 13,-9 16,-10 84,-45 71,-127 20,-193l-20 -27 0 -1c-29,-35 -79,-103 -86,-144 -1,-7 -7,-11 -14,-10 -7,1 -11,7 -10,14 2,15 7,29 14,42 22,40 47,78 77,113z"/>
  <path class="fil0" d="M7058 4025c66,-47 140,-82 217,-105 6,-2 10,-9 8,-15 -2,-6 -9,-10 -15,-8 -80,24 -156,60 -224,108 -5,4 -7,11 -3,17 4,5 11,7 17,3z"/>
  <path class="fil0" d="M7224 3518c1,-12 -17,-24 -41,-26 -24,-3 -45,5 -46,17 -1,12 17,24 41,26 24,3 45,-5 46,-17z"/>
  <path class="fil0" d="M7233 3519c0,-7 -2,-13 -7,-18l0 0 -12 -9c-14,-8 -43,-12 -58,-7l-15 5 -8 6 -5 10c0,8 1,14 7,20 4,4 8,7 13,9 9,5 19,7 30,8 15,2 55,-2 56,-25zm-18 -1l0 0c0,1 -1,1 -2,2l-11 5c-14,3 -31,2 -44,-4l-9 -6 -2 -3 -1 -3c0,-1 1,-1 2,-2l11 -5c14,-3 31,-2 44,4l10 6 2 3 1 3z"/>
  <path class="fil2" d="M7499 4105c1,-10 -13,-90 -129,-78 -17,2 -117,24 -89,119 3,9 22,49 126,35 10,-2 95,-15 92,-77z"/>
  <path class="fil0" d="M7517 4104c-1,-23 -10,-44 -27,-60 -46,-48 -131,-44 -183,-13 -41,24 -61,77 -43,122 7,16 19,29 35,36 52,24 149,14 194,-27 16,-15 25,-37 23,-59zm-36 2l0 0c1,9 -3,19 -9,26 -5,6 -11,11 -19,15 -15,8 -32,14 -50,16 -18,3 -36,3 -53,2 -9,-1 -18,-2 -27,-5l-16 -8c-4,-3 -8,-7 -10,-12 -5,-16 -5,-33 1,-48 4,-10 11,-18 19,-24 16,-12 35,-20 55,-23 19,-2 38,-1 57,3 10,3 19,7 28,14 5,4 9,8 13,13l7 12 3 7 1 4 1 7z"/>
  <path class="fil0" d="M7378 4057c-4,-8 -16,-8 -23,-6 -40,13 -69,55 -42,95 4,6 11,7 17,3 6,-4 7,-11 3,-17 -6,-9 -7,-21 -3,-31 3,-7 8,-13 13,-17l13 -8 6 -2c2,2 3,5 4,8 5,15 7,31 7,46 0,7 5,12 12,12 7,0 12,-5 12,-12 0,-18 -3,-37 -8,-54 -2,-6 -6,-13 -10,-18z"/>
  <path class="fil2" d="M7149 4158c0,0 125,-17 127,72 -1,5 -2,40 -110,58 -16,4 -126,16 -75,-130l57 0z"/>
  <path class="fil0" d="M7148 4139l-56 0c-7,0 -14,4 -17,11 -11,27 -16,57 -14,86 4,58 60,78 109,68 36,-6 123,-26 125,-75 3,-79 -89,-97 -146,-91zm77 44l0 0c8,3 15,8 21,14 8,9 12,20 12,32 0,2 -1,4 -2,5l-10 9c-7,5 -15,9 -23,12 -29,10 -77,24 -108,10 -8,-5 -14,-13 -17,-22 -5,-20 -1,-45 6,-67l44 0c0,0 2,0 2,0 25,-3 50,0 74,8z"/>
  <path class="fil2" d="M7156 4187c0,1 -107,8 -109,-75 -1,-10 2,-69 106,-56 8,2 94,10 90,82 0,11 -11,41 -87,48z"/>
  <path class="fil0" d="M7235 4181c14,-9 24,-24 26,-41 3,-32 -13,-62 -40,-79 -18,-11 -38,-18 -59,-22 -23,-5 -46,-5 -69,-1 -37,7 -65,36 -64,73 0,69 70,96 128,93l14 -7c-3,4 -8,7 -13,7 17,-1 34,-5 50,-10 10,-3 19,-8 27,-14zm-81 -12l0 0 -2 0 -24 -1 -14 -3 -20 -7c-7,-3 -13,-8 -18,-14 -8,-10 -11,-20 -11,-33 -1,-39 54,-42 84,-37 15,3 31,8 45,14 8,4 14,9 20,15 8,9 11,21 10,34 -1,10 -14,18 -23,21 -15,6 -31,9 -47,11 0,0 -1,0 -1,0z"/>
  <path class="fil0" d="M9088 3656c23,-48 47,-123 32,-176 -5,-16 -14,-36 -30,-44 -10,-5 -20,-9 -30,-11 -27,-5 -56,6 -71,30 -6,8 -3,20 5,25 8,6 20,3 25,-5 15,-22 37,-16 55,-6 1,0 2,1 2,2l4 6 5 14c2,8 3,17 3,25 0,16 -2,32 -5,48 -7,28 -16,55 -29,80 0,1 -1,4 -2,6l0 0 0 -1 0 1 -6 17 -12 23 -12 16c-8,10 -21,21 -35,20 -10,-1 -19,7 -19,17 -1,10 7,19 17,19 15,1 30,-4 42,-12 9,-6 17,-14 23,-22 12,-16 33,-52 37,-72z"/>
  <path class="fil0" d="M8986 3397c9,-41 16,-110 -26,-125 -44,-16 -94,33 -118,69 -5,8 -3,20 5,25 8,5 20,3 25,-5 12,-19 28,-35 46,-48l17 -7c4,-1 8,-1 12,0l1 1 0 0 2 3 3 7 3 14 0 28c-2,16 -5,32 -10,48 -5,16 9,22 22,24l1 1 4 2 6 4 9 8 14 17c7,8 18,8 26,2 8,-7 8,-18 2,-26 -21,-24 -33,-34 -44,-39z"/>
  <path class="fil0" d="M8839 3355l0 0 13 17 27 45 20 42 25 65c10,31 19,63 25,96 8,43 14,86 15,130 -10,4 -20,7 -31,9 -10,3 -15,12 -13,22 3,10 12,15 22,13 63,-16 58,-27 58,-34 3,-65 -20,-181 -43,-247 -20,-59 -42,-107 -75,-160 -29,-46 -38,-45 -80,-20 -9,5 -11,16 -6,25 5,9 16,11 25,6 6,-3 11,-7 17,-9z"/>
  <path class="fil0" d="M8827 4052c71,-4 116,-65 125,-129 7,-39 8,-80 5,-119 -13,-165 -97,-447 -207,-575 -22,-28 -73,-70 -109,-65l0 0c-42,4 -74,39 -87,77 -20,62 -27,127 -23,192 1,10 9,18 19,17 10,-1 18,-9 17,-19 -4,-60 3,-121 21,-178 5,-13 12,-25 21,-35 9,-10 22,-17 36,-18l0 0 1 0 5 1 5 1c46,18 83,66 108,107 21,35 40,72 56,110 28,66 51,134 70,203l0 0 13 54c17,76 45,241 -18,315 -19,20 -52,32 -80,25l-19 -6c-9,-4 -17,-9 -25,-16 -13,-11 -23,-25 -31,-40 -4,-9 -15,-13 -24,-8 -9,4 -13,15 -8,24 43,85 117,84 129,83zm-181 -853l0 0 13 -28c2,3 3,7 3,11l-15 17 -1 0 0 0z"/>
  <path class="fil0" d="M7201 4223l-1 -2 10 -1 10 1c3,1 4,3 4,6 0,7 5,12 12,12 7,0 12,-5 12,-12 0,-37 -39,-31 -62,-28 -26,4 -1,49 2,57 3,6 10,9 16,6 6,-3 9,-10 6,-16l-10 -23z"/>
  <path class="fil0" d="M7165 4139l2 -14 2 -9 2 -5 0 0c14,5 30,15 23,31 -2,6 1,13 7,16 6,2 13,-1 16,-7 9,-21 -1,-46 -22,-56 -32,-18 -44,-11 -52,25 -3,13 -1,31 -1,45 0,7 6,12 13,11 7,0 12,-6 11,-13l-1 -24z"/>
  <path class="fil0" d="M8605 3369c10,2 17,9 20,19 1,7 8,11 14,9 7,-1 11,-8 9,-14 -4,-20 -20,-34 -40,-37 -1,0 -20,-1 -22,-1 -7,0 -12,5 -13,12 0,7 5,12 12,13l19 1z"/>
  <path class="fil0" d="M8776 3406c12,16 19,36 19,56 0,7 6,12 12,12 7,0 12,-6 12,-12 0,-26 -9,-51 -25,-71 -15,-19 -43,-25 -66,-17 -6,2 -10,9 -7,15 2,6 9,10 15,7 14,-5 29,-1 39,10z"/>
  <path class="fil2" d="M7068 3578c0,-2 -187,33 -278,103 -5,7 -30,164 28,282 7,-8 -9,-108 89,-119 3,-2 -14,-72 55,-86 7,-6 -35,-93 73,-95 3,-4 -22,-51 33,-85z"/>
  <path class="fil2" d="M7035 3616c-57,8 -195,30 -241,70 -5,2 67,92 113,140 0,10 1,16 0,17 -29,3 -48,15 -60,29 -17,-31 -43,-87 -62,-165 2,-15 4,-24 5,-25 90,-70 278,-105 278,-103 -19,12 -29,25 -33,38z"/>
  <path class="fil2" d="M6998 3669c-46,-5 -132,-10 -196,5 -4,3 -8,5 -11,8 26,8 106,26 169,43 0,-21 5,-45 38,-55z"/>
  <path class="fil0" d="M6854 3882c14,-16 33,-25 54,-26l11 -10c0,-2 1,-5 1,-7 -1,-17 3,-34 11,-49 8,-10 20,-17 33,-19 8,-1 12,-10 11,-17 -2,-14 -3,-27 -2,-41 1,-8 5,-15 10,-21 13,-11 34,-15 52,-15 14,0 13,-14 11,-23 -3,-12 -2,-26 3,-37 6,-11 15,-20 26,-26l-9 -22c-118,24 -159,42 -204,60 -28,12 -54,27 -78,45 -4,3 -5,8 -6,12l0 2c0,0 -3,16 -3,16 -8,55 -7,111 2,166 6,35 16,69 32,101 3,6 10,9 16,6 3,-1 5,-3 6,-6 1,-3 3,-16 4,-21 0,-23 8,-46 21,-65zm176 -284l0 0c0,0 0,0 0,0 -10,15 -13,35 -9,53 -51,3 -81,36 -72,89l1 9c-36,11 -57,46 -55,83l0 2c-44,8 -74,42 -83,83 -4,-11 -7,-23 -9,-34l-9 -62 -2 -45 3 -53 4 -29 1 -4c16,-12 34,-23 53,-32l53 -23 78 -25 45 -11z"/>
  <path class="fil0" d="M6200 5225l390 81c7,1 13,-3 14,-9 1,-7 -3,-13 -9,-14l-390 -81c-7,-1 -13,3 -14,9 -1,7 3,13 9,14z"/>
  <path class="fil0" d="M6874 5173l22 -17 30 -17 32 -13 6 -2c44,-5 143,-36 190,-52 6,-2 10,-9 8,-15 -2,-6 -9,-10 -15,-8 -52,17 -104,33 -157,47l-9 2c-46,5 -87,26 -122,55 -8,7 -15,17 -19,27 -1,3 -3,6 -5,8l-9 8 -20 13 -86 47c-16,9 -30,19 -43,32 -5,5 -5,12 0,17 5,5 12,5 17,0 11,-11 24,-20 37,-28l86 -47c15,-9 39,-25 46,-43 2,-6 6,-12 12,-17z"/>
  <path class="fil0" d="M8141 4865c38,-3 71,-29 95,-58l26 -25 208 -187c5,-4 5,-12 1,-17 -4,-5 -12,-5 -17,-1l-208 187c-1,1 -27,26 -28,27 -11,14 -24,26 -39,37 -12,8 -25,12 -40,13 -44,4 -88,10 -132,17 -7,1 -11,7 -10,14 1,7 7,11 14,10 43,-7 86,-13 130,-17z"/>
  <path class="fil0" d="M9171 3892c33,-30 56,-48 91,-76 13,-10 24,-23 33,-37 21,-33 13,-76 -18,-99 -5,-4 -13,-3 -17,3 -4,5 -3,13 3,17 21,16 26,45 12,67 -8,12 -17,22 -28,31 -68,53 -115,91 -165,162 -54,66 -113,128 -176,184 -5,4 -5,12 -1,17 4,5 12,5 17,1 65,-57 125,-120 179,-187 0,0 0,-1 0,-1 21,-29 44,-56 70,-81z"/>
  <path class="fil0" d="M8428 3245c6,26 144,-270 144,-270l8 -208 56 105 120 -181 13 -88 38 62 74 -80 157 -30 91 115 52 -60 -8 103 89 198 83 -55 -43 150 63 324c0,0 398,-593 -296,-878 -15,9 127,-73 127,-73l-51 -34 103 23 183 -35 -32 -77 84 66c0,0 265,-166 303,-153 8,-1 -247,-311 -767,150 -19,-2 -28,-21 -28,-21 0,0 80,-43 82,-62 3,-19 65,-163 65,-163l-87 -2c0,0 123,-23 122,-35 -1,-11 143,-161 187,-190 17,-24 -518,-78 -445,506 12,18 -383,-476 -765,78 -25,17 212,-37 259,-21 23,6 111,-87 172,-87 15,3 -55,72 -55,72 0,0 155,5 174,15 20,10 111,-30 111,-30l-38 59c0,0 91,9 91,9 0,0 -605,82 -437,799z"/>
 </g>
</svg>
