<?xml version="1.0" encoding="UTF-8" standalone="no"?>
<!-- Creator: CorelDRAW X6 -->

<svg
   xmlns:dc="http://purl.org/dc/elements/1.1/"
   xmlns:cc="http://creativecommons.org/ns#"
   xmlns:rdf="http://www.w3.org/1999/02/22-rdf-syntax-ns#"
   xmlns:svg="http://www.w3.org/2000/svg"
   xmlns="http://www.w3.org/2000/svg"
   xmlns:sodipodi="http://sodipodi.sourceforge.net/DTD/sodipodi-0.dtd"
   xmlns:inkscape="http://www.inkscape.org/namespaces/inkscape"
   xml:space="preserve"
   width="11in"
   height="8.5in"
   version="1.1"
   style="shape-rendering:geometricPrecision; text-rendering:geometricPrecision; image-rendering:optimizeQuality; fill-rule:evenodd; clip-rule:evenodd"
   viewBox="0 0 11000 8500"
   id="svg5327"
   sodipodi:docname="Fred Martin.svg"
   inkscape:version="0.92.0 r15299"><metadata
     id="metadata5331"><rdf:RDF><cc:Work
         rdf:about=""><dc:format>image/svg+xml</dc:format><dc:type
           rdf:resource="http://purl.org/dc/dcmitype/StillImage" /><dc:title></dc:title></cc:Work></rdf:RDF></metadata><sodipodi:namedview
     pagecolor="#ffffff"
     bordercolor="#666666"
     borderopacity="1"
     objecttolerance="10"
     gridtolerance="10"
     guidetolerance="10"
     inkscape:pageopacity="0"
     inkscape:pageshadow="2"
     inkscape:window-width="1920"
     inkscape:window-height="1137"
     id="namedview5329"
     showgrid="false"
     inkscape:zoom="1.93297"
     inkscape:cx="554.08626"
     inkscape:cy="381.76899"
     inkscape:window-x="1912"
     inkscape:window-y="-8"
     inkscape:window-maximized="1"
     inkscape:current-layer="svg5327" /><defs
     id="defs5187"><style
       type="text/css"
       id="style5185"><![CDATA[
    .str0 {stroke:#373435;stroke-width:41.6654}
    .fil2 {fill:#373435}
    .fil1 {fill:#282929}
    .fil3 {fill:#292829}
    .fil0 {fill:#FEFEFE}
   ]]></style></defs><path
     style="fill:#000000;stroke:none;fill-opacity:1"
     inkscape:connector-curvature="0"
     id="path5228"
     d="m 8146,3483 c -10,-18 -31,-24 -55,-26 -51,-3 -43,7 -62,40 l -58,100 c -14,29 -13,19 -22,27 13,17 33,21 37,24 -12,18 -19,40 -34,59 -9,-1 -201,-107 -205,-112 18,-14 10,-1 23,-24 6,-10 10,-20 18,-28 54,14 23,52 100,-84 10,-17 53,-90 56,-103 0,0 -43,-17 -52,-32 8,-6 8,-2 14,-11 6,-9 14,-30 24,-40 15,5 27,10 41,16 14,6 26,9 41,15 18,7 66,29 85,27 -8,51 -19,47 -23,54 8,16 14,11 35,10 80,-2 159,-4 174,91 1,7 1,14 2,19 2,13 -1,7 8,13 -9,6 -4,-2 -7,8 3,4 1,0 4,7 10,31 -71,152 -93,192 -13,23 -11,17 -21,23 9,17 42,26 43,27 -7,17 -26,47 -35,61 l -151,-81 c -18,-11 -33,-16 -49,-28 l 5,-5 c 24,-18 15,-27 34,-48 46,13 25,35 89,-80 13,-24 44,-70 45,-99 -13,-10 -2,5 -13,-13 z m -310,-142 v 0 l 38,25 c 11,5 9,1 15,7 -17,34 -35,68 -56,99 -9,13 -11,21 -17,35 -15,-2 -29,-12 -44,-18 l -54,94 c -15,31 -11,20 -22,28 8,14 69,45 89,54 16,7 20,15 31,21 l 194,103 c 13,9 13,13 30,19 44,15 138,85 164,84 23,-27 41,-62 58,-94 6,-11 9,-23 16,-34 -11,-5 -28,-11 -38,-20 -7,-7 0,5 -7,-9 28,-6 36,-44 51,-66 20,-30 36,-62 47,-95 21,-67 6,-42 2,-72 -12,-108 -66,-137 -159,-147 -32,-4 -33,3 -43,-8 28,-15 10,-23 7,-27 -25,-30 -44,-31 -91,-49 -22,-8 -47,-16 -69,-25 -18,-7 -48,-25 -66,-29 l -64,110 c -9,15 -9,2 -13,13 z"
     class="fil1" /><path
     style="fill:#000000;stroke-width:0.096;fill-opacity:1"
     d="M 555.7832 325.00586 C 552.0722 325.00786 548.61606 325.08006 545.66406 325.24805 L 545.37695 325.05664 L 523.77539 325.82422 C 510.14339 326.49622 496.51256 327.83947 482.97656 329.85547 C 478.08056 330.62347 472.99111 330.91216 468.28711 332.16016 C 466.94311 332.54416 464.92798 332.92714 463.58398 333.11914 C 461.85598 333.40714 460.41656 333.40897 458.97656 333.79297 C 455.80856 334.75297 448.32064 336.19128 445.05664 336.86328 L 436.03125 339.16797 C 432.95925 340.03197 429.69581 340.60895 427.00781 341.37695 L 418.56055 343.96875 C 415.96855 344.64075 412.89574 345.88766 410.01562 346.84766 C 407.42363 347.80766 404.44806 348.76822 401.66406 349.82422 C 400.32006 350.30422 398.87916 350.87908 397.53516 351.45508 L 393.50391 353.08789 C 391.00791 354.23989 388.12852 355.19956 385.72852 356.35156 C 384.38452 356.92756 383.13697 357.50408 381.79297 358.08008 L 378.04883 360 C 376.99283 360.672 375.55239 361.05652 374.40039 361.72852 C 373.72839 362.11252 373.24817 362.4952 372.57617 362.7832 C 369.02417 364.3192 359.42492 369.7923 356.54492 371.9043 L 353.18359 374.20703 C 349.43959 377.08703 345.31206 379.39284 341.66406 382.46484 C 340.70406 383.23284 341.28031 383.1363 340.32031 383.9043 C 336.76831 386.5923 331.58478 391.39195 328.80078 394.75195 C 328.32078 395.32795 328.03273 395.71277 327.55273 396.38477 C 325.72873 398.68877 322.6565 401.75986 321.3125 404.25586 C 320.6405 405.50386 319.87122 406.46489 319.19922 407.71289 C 318.23922 409.34489 314.88069 415.20003 314.30469 416.83203 C 314.01669 417.60003 313.92081 417.98336 313.63281 418.94336 C 312.48081 422.01536 311.99906 424.41598 311.03906 427.58398 C 308.92706 434.49598 309.59919 440.92802 310.36719 448.41602 C 311.42319 458.49602 316.41626 467.80709 321.98438 475.87109 L 323.61523 478.36719 C 325.34323 480.86319 329.95186 486.04845 332.25586 488.06445 C 333.69586 489.31245 334.84762 491.04081 338.01562 493.63281 C 341.18375 496.12881 344.06383 499.0088 347.42383 501.2168 C 348.57583 501.9848 349.4398 502.75153 350.5918 503.51953 L 360.86328 510.24023 C 363.16728 511.68023 365.66445 512.92719 368.06445 514.36719 C 371.80845 516.57519 375.26322 518.20755 379.19922 519.93555 C 380.54322 520.51155 381.88706 521.18377 383.03906 521.75977 C 393.31106 526.94377 404.54458 530.68764 415.39258 534.43164 C 416.25658 534.71964 416.7362 535.00722 417.4082 535.19922 C 418.2722 535.39122 418.84889 535.39169 419.71289 535.67969 L 450.91211 543.83984 C 453.88811 544.60784 457.24831 544.99177 460.32031 545.75977 C 465.98431 547.19977 473.37689 548.15944 479.71289 549.02344 C 482.88089 549.50344 486.1445 549.98484 489.3125 550.46484 C 492.6725 551.04084 496.12798 550.94353 499.58398 551.51953 L 509.85547 552.57617 C 520.51147 553.63217 531.16822 554.20839 541.82422 554.40039 C 548.73622 554.59239 568.31995 554.68733 574.75195 554.11133 C 578.30395 553.82333 582.23961 554.11233 585.59961 553.63281 C 590.68761 552.96081 596.06434 552.86311 601.15234 552.28711 C 602.88034 552.09511 604.51194 552.19201 606.33594 552 C 607.96794 551.808 609.60042 551.51983 611.23242 551.42383 C 612.48042 551.32783 615.55172 551.32703 616.51172 551.03906 C 621.11972 549.88706 626.40076 549.40773 631.29688 548.92773 C 636.09687 548.44773 640.80097 547.19994 645.79297 546.33594 C 647.52097 546.04794 648.76839 545.85666 650.40039 545.47266 C 651.93639 545.18466 653.47181 544.70402 655.00781 544.41602 C 661.15181 543.36002 667.39175 541.63141 673.34375 540.19141 C 674.97575 539.80741 676.41547 539.52072 677.85547 539.13672 C 686.49547 536.64072 694.75258 534.14456 703.39258 530.97656 C 704.83258 530.49656 706.07953 530.01545 707.51953 529.43945 C 710.49553 528.38345 713.08739 527.51919 715.77539 526.36719 L 729.4082 520.51172 C 730.1762 520.12772 730.46442 519.83938 731.23242 519.35938 L 738.62305 515.71289 C 743.99905 512.83289 751.39111 508.79975 756.28711 505.34375 L 766.17578 498.24023 C 768.86378 496.22423 771.07236 493.92089 773.56836 491.71289 L 777.88867 487.58398 C 782.78467 483.07198 789.40847 474.04741 792.48047 468.19141 C 797.76047 458.20741 801.40752 444.47906 799.10352 431.03906 C 798.33552 426.52706 797.27908 422.01637 795.45508 417.98438 C 794.11108 414.91226 791.52097 409.15136 789.79297 406.94336 C 787.39297 403.87136 785.3755 400.12805 782.6875 397.24805 L 771.55273 385.82422 C 770.49673 384.86422 769.53677 384.48025 768.38477 383.32812 C 768.00077 382.94412 767.42366 382.46408 766.84766 382.08008 L 762.04883 378.43164 C 761.56883 378.04764 761.18342 377.7593 760.60742 377.2793 C 756.76742 374.5913 752.83124 371.8085 748.70312 369.3125 C 746.49512 367.9685 743.9042 366.6233 741.4082 365.2793 C 738.6242 363.8393 736.70333 362.59205 734.11133 361.24805 L 702.43164 348 L 689.85547 343.87109 C 688.41547 343.29509 687.07145 343.2967 685.43945 342.7207 C 679.00745 340.5127 665.56855 337.05659 658.56055 335.80859 C 655.68055 335.23259 652.12805 334.65667 649.24805 333.88867 C 634.08005 330.24067 605.27975 327.16703 589.34375 326.20703 C 580.34375 325.63103 566.9162 325.00136 555.7832 325.00586 z M 552.36328 330.83008 C 570.20655 330.71261 588.03095 331.5182 605.37695 333.4082 C 607.68095 333.6962 611.04064 334.17578 613.05664 334.17578 L 613.43945 333.88867 C 617.75945 334.08067 622.94473 335.04089 627.55273 335.71289 C 632.16073 336.38489 636.96066 337.05562 641.47266 338.01562 C 662.59266 342.33575 672.47973 344.35286 692.92773 350.88086 C 700.79973 353.37686 709.43986 356.54489 716.25586 359.71289 L 717.3125 359.9043 C 719.6165 360.4803 722.87989 362.11197 725.08789 363.16797 C 727.58389 364.31997 729.98477 365.4727 732.38477 366.7207 C 745.24877 373.5367 757.248 380.92764 768 390.43164 C 769.056 391.29564 769.72856 392.15944 770.97656 393.02344 C 770.88826 393.08224 770.80855 393.10809 770.73242 393.12109 C 783.46459 403.36518 791.80859 420.30185 791.80859 439.48828 C 791.80859 460.87583 781.44729 479.47647 766.1875 489.11523 C 766.2559 489.17003 766.33971 489.25178 766.46484 489.4082 C 764.25684 492.5762 748.224 503.13681 744 505.63281 C 722.67343 517.277 722.3892 516.9254 706.08008 523.58398 C 695.04008 527.80798 686.30456 530.40036 674.97656 533.56836 C 673.15256 534.04836 669.79216 535.20058 668.16016 535.39258 C 668.15122 535.3598 668.1338 535.33725 668.12305 535.30664 C 668.26603 535.29871 668.41027 535.28835 668.54492 535.29688 C 668.25692 534.24076 667.00853 534.33547 666.14453 533.85547 C 664.22453 532.70347 658.94487 530.59247 655.29688 528.48047 L 652.41602 527.23242 C 651.64802 526.84842 651.2638 526.65548 650.5918 526.27148 L 648 525.02344 C 647.904 525.02344 647.90459 524.92773 647.80859 524.92773 L 643.19922 522.81641 C 642.23922 522.43241 642.33695 522.23977 641.37695 521.75977 C 640.60895 521.37577 639.93567 521.28019 639.26367 520.99219 L 626.6875 514.75195 C 623.9995 513.11995 620.44836 511.68083 617.56836 510.04883 C 617.47236 510.04883 617.47295 509.95117 617.37695 509.95117 C 616.99295 509.75917 617.37648 509.95177 616.89648 509.75977 L 612.19141 507.55273 C 611.07815 506.81056 610.86569 507.37342 610.76562 506.11523 C 617.25279 506.12664 623.65216 506.41215 630.04883 506.97656 C 631.68083 507.16856 630.71939 507.16873 631.77539 507.55273 C 632.83139 507.93673 649.63248 508.5113 652.89648 509.2793 C 654.43248 509.6633 656.16097 509.3764 657.79297 509.56836 L 676.80078 510.81641 C 680.06478 510.91241 683.2312 511.10352 686.7832 511.10352 C 686.77152 511.06555 686.74831 511.03783 686.73438 511.00195 C 686.88119 511.0026 687.01985 511.00781 687.16797 511.00781 C 686.78397 509.75981 685.1517 509.66389 684.0957 509.08789 C 684.0957 509.08789 683.71123 508.89678 683.61523 508.80078 C 683.42323 508.70478 681.3128 508.22461 681.2168 508.22461 L 673.53516 506.88086 C 671.90316 506.49686 670.46473 506.01681 668.64062 505.63281 L 656.16016 502.84766 C 654.91216 502.65566 654.91147 502.36808 653.85547 502.08008 C 652.89547 501.79208 652.12767 501.88761 651.26367 501.59961 C 650.39967 501.31161 649.91958 501.21573 648.76758 500.92773 L 634.46484 497.2793 C 632.06484 496.8953 629.28086 496.60784 626.88086 495.83984 C 626.01686 495.55184 625.15277 495.55167 624.38477 495.26367 C 623.90477 495.07167 624.09583 495.0712 623.42383 494.7832 C 621.21583 493.8232 614.7837 492.95941 612.0957 492.19141 C 611.4237 491.99941 610.55948 491.80706 610.27148 491.03906 C 610.55948 490.84706 610.65506 490.75255 611.03906 490.56055 C 611.48236 490.3389 611.9706 490.18219 612.48633 490.06445 C 612.99092 489.97933 613.50241 489.93144 614.01562 489.88867 C 617.56776 489.60067 620.63911 489.02433 624.28711 488.73633 C 627.64579 488.44844 631.00515 488.25571 634.07617 487.39258 C 634.0774 487.39226 634.07885 487.39289 634.08008 487.39258 C 635.52008 487.00858 637.63108 487.10381 639.45508 487.00781 C 640.64911 486.94497 641.60957 486.76143 642.6875 486.61328 C 642.8834 486.58625 643.12209 486.56248 643.32617 486.53516 C 643.70891 486.49243 644.10257 486.4527 644.54492 486.43164 C 645.21794 486.35686 647.25342 485.99518 648.4082 485.70117 C 648.9203 485.58103 649.35879 485.46514 649.53516 485.37695 C 649.7882 485.25043 649.93899 485.14578 650.14062 485.06445 C 650.37741 485.0227 650.67169 484.99219 651.16797 484.99219 L 683.42383 480.76758 C 684.29174 480.64359 685.59482 480.51749 686.59375 480.23828 C 687.30907 480.07486 687.93287 479.85295 688.22461 479.51953 C 687.07261 478.65553 680.73581 478.56055 679.00781 478.56055 C 667.58381 478.56055 655.29539 477.79131 643.77539 477.69531 C 641.85539 477.69531 640.80086 477.40791 638.88086 477.50391 L 618.7207 477.11914 C 617.6647 477.02314 609.4082 477.40786 609.4082 476.25586 C 609.4082 475.58386 612.57545 474.52853 613.43945 474.14453 L 629.56836 468.48047 C 629.82326 468.3955 629.92041 468.37558 630.09375 468.32617 C 630.37058 468.26544 630.61549 468.20716 630.92578 468.07812 C 631.175 468.00219 631.43799 467.90976 631.87109 467.71289 C 634.27109 466.46489 637.43984 466.17573 639.83984 464.92773 C 640.22384 464.73573 640.51248 464.63927 640.89648 464.44727 C 643.48283 463.61296 646.50337 462.2029 649.14062 461.46875 C 649.40434 461.40092 649.66922 461.33117 649.91992 461.2793 C 650.85895 461.08597 651.6379 460.89797 652.33984 460.71289 C 656.8206 459.57021 657.2982 458.58544 659.32812 457.82422 C 663.16824 456.38422 667.29536 455.51931 670.94336 453.69531 C 671.23265 453.55067 671.29391 453.4993 671.33203 453.4668 C 671.4471 453.45162 671.41313 453.45431 671.71289 453.4082 L 671.95703 453.33594 C 672.03556 453.3237 671.98451 453.33103 672.0957 453.3125 L 675.64844 452.25586 C 676.32044 451.87186 676.99177 451.68088 677.75977 451.29688 C 678.52777 451.00876 679.20075 450.71964 679.96875 450.43164 C 681.12075 450.04764 681.50497 450.24019 681.79297 448.99219 L 669.69531 450.33594 C 669.56912 450.36749 669.49793 450.39252 669.39648 450.42188 L 669.3125 450.43164 C 669.16466 450.47196 669.12621 450.49664 669.01367 450.5332 C 668.76702 450.61334 668.5273 450.68988 668.35742 450.75195 C 668.13717 450.81781 667.89675 450.87498 667.48828 450.91211 L 657.98438 452.44727 C 657.86134 452.47619 657.76151 452.50726 657.64258 452.53711 L 657.59961 452.54492 C 656.78361 452.73692 656.04073 452.95286 655.29688 453.14453 C 655.04942 453.20827 654.79882 453.26364 654.54883 453.32031 C 654.17694 453.39441 653.79231 453.45776 653.37695 453.50391 L 630.14453 457.72852 C 628.02874 458.02238 627.71699 458.11077 627.22266 458.28125 C 626.79477 458.38793 626.39634 458.53126 625.35742 458.82031 C 624.0249 459.16014 622.21732 459.18428 620.92773 459.55273 C 619.39173 459.93673 617.75925 460.12831 616.03125 460.32031 C 615.28764 460.36989 614.44662 460.49814 613.61719 460.64844 C 612.85695 460.76399 612.11206 460.91159 611.43945 461.08398 C 611.43477 461.08499 611.4285 461.08689 611.42383 461.08789 C 611.41634 461.08955 611.41364 461.09013 611.40625 461.0918 C 611.28596 461.1229 611.15296 461.15105 611.03906 461.18359 C 610.47926 461.30799 610.1853 461.43219 609.74609 461.55664 C 609.58738 461.59247 609.43177 461.62823 609.2168 461.66406 C 608.2568 461.85606 607.39164 461.75977 606.43164 461.75977 C 606.71964 460.60777 607.00875 460.70491 607.96875 460.12891 C 608.54475 459.84091 609.21667 459.36056 609.88867 458.97656 C 612.09667 457.63256 615.64866 454.84837 617.47266 453.98438 L 636.0957 442.56055 C 637.0557 441.50455 641.28011 439.39194 642.91211 438.33594 C 644.83211 436.99194 646.94417 436.22409 648.57617 434.49609 C 649.24817 433.72809 649.5358 433.82345 650.5918 433.43945 C 652.2238 432.76745 653.18364 431.90366 654.43164 430.84766 C 655.10364 430.36766 655.67927 430.27297 656.44727 429.79297 L 660.57617 427.48828 C 661.44017 427.00828 661.05639 426.72023 662.40039 426.24023 C 663.07239 425.95223 662.97673 426.14377 663.55273 425.75977 C 663.74473 425.66377 664.41512 425.27989 664.70312 425.08789 L 667.29688 423.07227 C 668.35287 422.20827 667.87245 423.36022 668.06445 421.82422 C 667.1385 421.82422 666.45649 421.91078 665.87305 422.05469 C 665.55617 422.10818 665.26198 422.17209 664.99219 422.25586 C 664.29649 422.47188 663.69686 422.78397 662.88086 423.16797 L 658.17773 425.03906 L 653.47266 426.91211 C 653.13666 427.05611 653.04126 427.10402 652.95703 427.16406 C 652.87283 427.22406 652.79972 427.29628 652.51172 427.48828 C 652.07972 427.77628 650.44699 428.47192 648.70703 429.17969 C 646.96706 429.88746 645.11986 430.60736 644.25586 430.94336 C 643.82386 431.08736 643.43984 431.20754 643.08008 431.33984 C 642.72033 431.47215 642.38483 431.61659 642.04883 431.80859 C 641.42483 432.19259 640.70482 432.48049 639.97266 432.74414 C 639.86657 432.78234 639.76063 432.81806 639.6543 432.85547 C 639.51701 432.90342 639.37982 432.95169 639.24414 433.00195 C 638.75595 433.17274 638.27311 433.34278 637.82422 433.53516 L 634.60938 434.83203 L 631.39258 436.12891 C 631.00858 436.32091 630.69668 436.51174 630.38477 436.69141 C 630.07287 436.87108 629.76095 437.03959 629.37695 437.18359 L 627.07227 437.90234 L 624.76758 438.62305 C 624.33558 438.76705 623.99941 438.91038 623.6875 439.05469 C 623.3756 439.19899 623.08795 439.34428 622.75195 439.48828 L 615.3125 442.56055 L 607.87109 445.63281 C 607.15109 445.92081 606.43248 446.18355 605.71289 446.44727 C 604.9933 446.71098 604.27273 446.97567 603.55273 447.26367 C 602.78473 447.59967 602.16119 447.96047 601.46484 448.23633 C 601.29076 448.3053 601.11224 448.369 600.92578 448.42578 C 600.8571 448.44208 600.7939 448.46226 600.72266 448.47656 L 600.7207 448.47656 C 600.31017 448.55884 599.85546 448.60742 599.32812 448.60742 C 599.42424 447.16742 600.09634 446.87933 601.15234 446.11133 L 608.44727 439.77539 C 608.83127 438.91139 609.12097 438.72083 609.79297 438.04883 L 610.73828 436.91406 C 612.05618 435.60082 613.39425 434.37526 614.71094 433.14062 C 615.49827 432.40243 616.27195 431.65101 617.0332 430.88281 C 617.65664 430.27182 618.26436 429.64128 618.85547 428.99023 L 640.51172 407.9043 C 640.6139 407.79283 640.77311 407.64427 640.89648 407.51953 C 641.05879 407.34247 641.29392 407.12065 641.50781 406.91211 C 642.69428 405.79369 644.36369 404.35384 645.91406 402.91016 C 648.1019 400.91203 650.1468 398.85382 650.40039 397.53516 C 648.38439 397.72716 647.13667 398.78444 645.88867 399.64844 C 645.31267 400.03244 644.73645 400.41648 644.06445 400.89648 C 643.77645 401.08848 643.48722 401.37636 643.19922 401.56836 L 640.32031 403.29688 C 638.30431 404.25688 636.76736 405.88872 634.94336 407.13672 L 632.92773 408.48047 C 632.54373 408.67247 632.35245 408.86434 632.06445 409.15234 C 631.20045 409.92034 630.3353 410.20827 629.2793 411.07227 C 628.4153 411.84027 627.7435 412.60789 626.6875 413.08789 C 626.3035 413.27989 626.49503 413.18495 626.20703 413.37695 L 624 415.00781 C 623.616 415.29581 623.52072 415.29569 623.13672 415.67969 L 618.24023 418.75195 C 617.37623 419.32795 617.27972 419.4237 616.51172 420.0957 L 612.96094 422.6875 C 611.71294 423.5515 610.27114 424.12819 609.11914 424.99219 C 608.35114 425.66419 608.25687 425.66423 607.29688 426.24023 C 606.43276 426.72023 606.14436 427.10398 605.56836 427.58398 C 604.89636 428.15998 604.32073 428.35173 603.55273 428.92773 L 599.9043 431.42383 C 597.9843 432.67183 598.46453 431.90456 594.14453 434.97656 C 592.89653 435.84056 591.83992 436.99219 589.91992 436.99219 C 590.01359 435.77452 590.33728 435.15455 590.7207 434.66797 C 590.80829 434.5688 590.89388 434.47203 590.98047 434.36523 L 590.98242 434.36328 C 591.31653 433.9908 591.66326 433.64012 591.93555 433.05664 C 593.47155 429.88864 598.07911 424.12817 600.28711 420.57617 L 613.34375 401.47266 C 614.20775 400.32066 614.88014 399.26374 615.74414 398.01562 C 617.18414 395.99962 617.08794 395.3285 618.33594 393.3125 L 619.10352 392.16016 L 619.19922 392.06445 L 619.29688 391.96875 L 619.96875 391.10352 C 620.16075 390.81552 620.25692 390.52853 620.54492 390.14453 L 623.61523 385.72852 C 624.09523 384.86452 624.19176 384.768 624.67188 384 C 625.63188 382.656 626.5915 381.79275 626.6875 379.96875 C 625.55135 380.17532 624.97384 380.61438 624.4707 381.17578 C 623.85205 381.71344 623.45266 382.42952 622.66992 383.2168 C 622.6645 383.22225 622.66171 383.22696 622.65625 383.23242 L 622.27148 383.61523 L 622.23242 383.65625 L 621.88867 384 L 608.35156 398.20703 L 607.96875 398.5918 L 607.58398 398.97656 L 601.72852 405.2168 C 600.28122 406.56428 598.60585 408.14565 596.98828 409.75781 C 595.35643 411.36959 593.76403 413.02457 592.51172 414.52734 L 583.68945 423.53711 C 583.47852 423.72705 583.31661 423.89064 583.18164 424.03906 C 582.69571 424.4963 582.45518 424.82343 582.03125 425.27734 C 581.90134 425.39227 581.78553 425.51356 581.6582 425.65039 C 581.46115 425.82491 581.2306 426.02617 581.08789 426.24023 C 580.70389 426.72023 580.60802 426.91122 580.41602 427.19922 C 580.26267 427.3909 580.08355 427.59635 579.90039 427.79883 C 579.22371 428.45571 578.40245 429.02344 577.43945 429.02344 C 577.43945 427.77544 578.0158 425.28061 578.5918 424.22461 L 581.47266 418.17578 C 581.95266 417.11978 581.66394 417.21616 582.33594 416.16016 C 583.00794 415.10416 583.10369 414.04878 583.67969 412.80078 C 583.87169 412.41678 583.96845 412.22355 584.06445 411.93555 C 584.44845 411.07155 584.54373 410.49652 584.92773 409.72852 C 585.31173 408.86452 585.50467 408.67123 585.88867 407.61523 C 586.27267 406.65523 586.55966 406.27191 586.84766 405.50391 C 587.90366 403.00791 587.03975 403.87167 589.34375 399.26367 C 590.39975 397.24767 590.97584 394.75233 591.83984 392.73633 C 592.70384 390.52833 593.75964 388.80069 594.43164 386.30469 C 594.71964 385.24869 595.67986 383.99948 596.25586 382.27148 L 599.61523 373.82422 C 600.47923 371.90422 601.24703 369.21628 602.20703 367.48828 L 604.32031 360.67188 C 603.90641 360.83744 603.48575 361.16362 603.07422 361.56445 C 601.8497 362.48844 600.71904 364.22598 600.0957 365.47266 L 592.32031 378.24023 C 591.74431 379.20023 591.93597 379.29645 591.16797 380.06445 C 590.11197 381.12045 589.63158 382.46459 588.76758 383.80859 L 587.42383 385.82422 C 586.84783 386.68822 586.55948 386.87984 586.27148 387.83984 C 585.59948 389.95184 583.8727 391.77697 582.7207 393.79297 L 581.47266 395.61523 C 579.55266 398.78323 577.63183 402.3368 575.42383 405.2168 C 573.40783 407.8088 573.50327 408.67103 572.44727 410.20703 L 568.89648 415.87109 C 568.03344 417.06609 567.2962 419.38594 566.13672 420.78125 C 565.71129 421.18668 565.23237 421.4679 564.67188 421.53516 C 564.57576 417.98316 566.11256 410.88042 566.97656 407.23242 C 567.16856 406.27242 567.16767 405.79273 567.26367 404.64062 C 567.45567 402.43263 568.51248 400.03133 568.89648 398.11133 C 569.18448 396.38333 569.18436 394.8485 569.56836 393.3125 C 569.95236 391.8725 570.43134 390.33524 570.52734 388.70312 C 570.71934 385.24712 571.68075 382.27211 571.96875 378.91211 C 572.06475 377.18411 572.54433 375.93639 572.73633 374.40039 C 573.31233 371.04039 574.36795 367.77695 574.75195 365.37695 C 574.94395 363.93695 575.42489 362.11187 575.71289 360.67188 L 577.24805 351.35938 C 577.53605 350.30327 577.72881 348.76753 577.63281 347.51953 C 577.53681 347.03953 577.53545 347.23166 577.43945 346.84766 C 577.43945 346.75166 577.34375 346.75225 577.34375 346.65625 C 577.34375 346.56025 577.24805 346.56084 577.24805 346.46484 C 577.09115 346.58251 576.97678 346.72331 576.87891 346.87695 C 576.87496 346.86602 576.86328 346.86249 576.86328 346.84766 C 576.09528 347.42366 576.19123 348.47916 575.61523 349.53516 L 575.32812 350.11133 L 573.59961 354.62305 C 573.50361 355.00705 573.3128 355.39139 573.2168 355.77539 C 572.1608 358.84739 571.29547 362.20878 569.85547 364.80078 C 569.08747 366.24078 568.12738 369.79153 567.35938 371.51953 C 565.82325 375.26353 566.20864 375.35964 565.05664 378.43164 C 564.48064 380.15964 563.90353 380.83106 563.51953 383.03906 L 559.48828 394.46484 C 559.20028 395.32884 559.20011 396.19294 558.91211 396.96094 L 555.55273 405.88867 C 555.1232 407.00547 552.16114 416.63003 550.78516 418.64648 C 550.77457 418.64864 550.76205 418.65625 550.75195 418.65625 C 549.31195 418.08025 549.88897 414.14431 549.79297 412.32031 C 548.68984 412.43063 548.155 412.89858 547.64648 413.45117 C 547.34522 413.7202 547.08645 414.02972 546.78906 414.34961 C 546.78664 414.35221 546.78368 414.35482 546.78125 414.35742 C 546.64604 414.48103 546.50036 414.60326 546.33594 414.7207 L 546.04883 414.91211 C 544.51283 416.06411 545.28027 415.96727 543.07227 416.44727 L 542.6875 416.83203 L 542.01562 417.02344 L 542.88086 416.25586 C 547.29686 413.08786 550.94328 410.20876 552.86328 404.64062 C 554.78328 398.88062 553.9198 398.59166 554.5918 394.84766 L 554.01562 384.19141 C 553.63162 382.46341 553.44034 381.02322 553.15234 379.19922 C 552.57634 375.55122 552.95923 376.70456 551.61523 374.97656 C 549.59923 372.28856 548.64019 369.79211 544.99219 366.91211 C 542.68819 364.99211 542.01603 362.97528 536.83203 360.86328 C 534.91203 360.09528 534.62436 360.19284 533.56836 358.46484 C 532.80036 357.31284 531.93508 355.87105 531.45508 354.62305 C 528.47908 346.17505 529.82323 350.87936 527.61523 346.94336 C 526.27123 344.35136 524.35117 342.62419 521.95117 340.99219 C 516.76717 337.63219 514.75295 338.20817 509.37695 336.57617 C 506.97695 335.80817 501.50488 336.38464 499.29688 337.05664 C 492.19275 339.07264 497.18366 337.34461 490.84766 340.22461 C 490.17566 340.51261 489.40833 340.79959 488.73633 341.18359 C 488.25633 341.47159 487.58381 341.85623 487.00781 342.24023 C 485.18381 343.39223 481.82358 345.69612 480.76758 347.32812 C 478.94358 349.92025 480.28847 350.88014 480.48047 351.74414 C 476.73647 354.04814 473.37609 348.28777 470.49609 353.75977 C 468.67209 353.47177 467.99961 353.1833 465.59961 353.2793 C 464.35161 353.2793 462.33606 353.85505 461.66406 354.62305 C 460.12806 356.54305 461.37669 356.06463 458.30469 356.64062 C 457.53669 356.83276 456.95941 356.83114 456.19141 357.11914 C 455.32741 357.40714 455.13519 357.60067 454.36719 357.88867 C 453.21519 357.40867 453.69645 356.92744 452.06445 357.02344 L 446.88086 357.79297 C 445.82486 358.08097 445.92017 358.27119 444.57617 358.36719 C 442.65617 358.55919 441.12028 358.56042 439.48828 359.23242 C 437.95228 359.90442 436.89656 360.38447 434.97656 360.48047 C 425.95256 361.05647 421.34477 363.45673 420.38477 363.55273 C 417.79277 363.64873 417.50458 363.84061 415.39258 364.22461 L 405.02344 365.66406 C 399.55144 366.33606 395.71194 367.48727 390.33594 368.44727 C 388.51194 368.73527 387.36052 369.31131 385.72852 369.69531 C 383.80852 370.17531 383.13697 369.02416 381.79297 368.16016 C 380.64097 367.48816 379.29623 367.00853 378.24023 366.14453 C 380.16023 364.22453 397.91917 357.21569 401.95117 355.67969 C 427.67917 346.07969 456.76789 339.07153 484.41602 335.51953 C 506.44802 332.65753 529.42193 330.98111 552.36328 330.83008 z M 474.52734 353.18359 C 480.76734 355.00759 481.92027 353.08866 483.07227 353.47266 C 485.28027 354.62466 484.9913 358.75145 485.2793 361.43945 C 485.7593 365.75945 486.23994 370.94328 486.33594 375.35938 C 486.43194 380.06338 487.87258 383.23189 487.39258 389.08789 L 487.19922 388.70312 C 487.17079 388.60361 487.17994 388.64837 487.1582 388.57422 C 487.22118 389.04721 486.80351 387.36432 487.1582 388.57422 C 487.14685 388.48893 487.15928 388.50346 487.10352 388.22461 L 487.10352 387.17773 C 487.02406 387.10527 486.89049 386.93547 486.62305 386.49609 C 486.04705 385.53609 486.43164 385.72728 486.43164 384.86328 C 486.33564 384.28728 485.85577 383.13548 485.75977 382.27148 C 485.66377 381.02348 485.76066 380.54487 485.47266 379.29688 C 484.99266 377.28077 483.9358 373.43941 482.5918 372.19141 C 479.3278 369.11941 481.63106 369.79178 479.03906 370.17578 C 478.46306 368.35178 477.02381 368.92848 475.00781 364.89648 C 475.77581 363.74448 474.91292 364.03155 476.54492 363.93555 C 477.88892 363.83955 477.69595 364.12708 478.75195 363.45508 C 478.84795 362.20708 477.98314 362.39992 477.11914 361.91992 L 475.87109 360.67188 C 475.87109 360.67177 476.44709 360.09506 475.87109 359.03906 C 475.39109 358.17506 475.19905 358.46438 474.62305 357.98438 L 472.60742 355.00781 C 474.23942 354.71981 474.24028 355.29539 475.48828 355.77539 L 475.29688 355.58398 L 474.52734 353.18359 z M 452.83008 359.07812 C 453.25702 359.08224 453.64808 359.17182 454.08008 359.42383 C 454.17608 359.42383 454.17548 359.51953 454.27148 359.51953 C 454.36748 359.51953 454.36888 359.61523 454.46484 359.61523 C 455.13684 360.09523 456.86464 363.93661 457.05664 364.22461 C 457.92064 366.24061 456.38469 366.91114 458.30469 369.11914 C 458.59269 369.40714 458.97567 369.69608 459.26367 370.08008 C 461.18367 372.86408 462.52739 373.63231 463.77539 376.32031 C 465.40739 379.96831 466.17541 380.35111 468.19141 384.28711 C 469.72741 387.26311 474.91189 399.74428 473.08789 403.48828 C 471.93589 402.24028 473.66342 401.37584 472.60742 399.83984 L 472.12891 400.03125 C 471.45691 401.08725 470.9755 404.83178 470.6875 406.17578 C 470.3035 408.28778 469.63264 410.11125 469.05664 412.03125 C 467.90464 415.87125 466.17527 419.32869 464.44727 422.30469 C 464.25527 421.92069 464.25586 422.30481 464.25586 421.63281 C 464.35186 421.05681 464.06462 421.63264 464.64062 421.05664 L 463.77539 420.28711 C 463.87139 420.19111 464.06416 419.71123 464.16016 419.61523 L 464.06445 418.94336 C 462.81645 415.10336 463.10369 417.69683 463.67969 414.04883 C 463.96769 412.03283 464.15909 408.57684 463.87109 406.46484 C 463.67909 405.31284 463.39122 404.06381 463.19922 403.00781 C 462.71922 401.08781 462.14406 402.24078 461.66406 400.80078 C 461.47206 400.32078 461.47266 399.64856 461.47266 398.97656 C 461.28066 397.24856 460.22414 395.80766 459.74414 394.84766 C 458.97614 395.71166 458.97656 395.99928 458.97656 396.86328 C 458.88056 398.78328 458.68775 402.43109 458.01562 403.87109 C 457.63162 403.29509 457.63116 402.43206 457.53516 401.66406 C 457.43916 400.89606 457.34405 400.22473 457.24805 399.55273 C 456.28805 393.50473 456.38306 395.71275 455.03906 391.96875 C 454.17506 389.56875 453.9845 389.85678 453.3125 388.80078 C 452.6405 387.74478 452.54369 386.78316 451.67969 385.53516 C 451.29569 384.95916 451.00705 384.48 450.62305 384 L 449.56836 382.75195 C 448.60836 381.59995 448.03167 381.60016 447.26367 380.16016 C 446.59167 378.72016 445.92064 378.72036 445.05664 377.56836 C 445.34464 376.41636 445.34316 377.47296 445.53516 376.12891 L 444.67188 375.16797 C 445.43987 373.63197 446.68755 373.72894 447.93555 372.96094 C 446.39955 372.76894 447.16852 373.63187 445.72852 372.67188 C 445.15252 372.28775 444.57659 371.80889 443.80859 371.71289 C 444.19259 372.76889 444.57694 372.28864 444.96094 373.05664 C 445.15294 373.53664 445.05694 373.24745 444.96094 373.43945 C 443.90494 373.63145 445.15224 372.95928 443.32812 372.86328 C 443.90424 373.63128 444.09677 373.24733 444.38477 374.11133 C 443.90477 373.91933 443.32706 373.63175 443.03906 373.34375 C 442.55906 372.86375 442.94416 372.09625 441.4082 371.32812 C 441.1202 371.13612 440.44845 371.03966 440.06445 370.84766 C 440.25645 370.36766 439.87262 370.94316 440.64062 370.36719 L 441.11914 370.08008 C 439.87114 369.60008 441.02384 369.79203 440.25586 368.83203 C 439.77586 369.02403 439.58398 369.50391 439.58398 369.50391 L 439.58398 369.59961 C 438.43198 368.92761 439.68068 369.59991 438.7207 369.50391 C 438.1447 369.40791 438.6245 369.6965 438.14453 369.3125 C 436.80053 368.4485 438.04823 368.73616 436.99219 368.16016 C 436.41619 367.87216 434.59252 367.77658 433.72852 367.39258 C 429.69652 365.76058 429.5993 366.04866 425.2793 365.47266 C 423.8393 365.28066 424.12755 364.99278 423.93555 364.80078 C 426.91155 363.74478 430.75269 362.88009 434.30469 362.49609 C 442.84869 361.72809 439.77617 360.76877 444.57617 360.38477 C 448.41617 360.09677 448.41683 359.61583 450.04883 359.42383 C 451.30883 359.30383 452.11852 359.07156 452.83008 359.07812 z M 547.39258 371.80859 C 548.44858 372.28859 548.8322 373.34469 549.4082 374.30469 C 552.2882 378.72069 551.13647 376.5117 552.48047 384.0957 C 553.15247 388.0317 553.34447 395.99984 552.48047 399.83984 C 551.42447 404.35184 549.4087 408.57627 546.7207 411.07227 C 544.8007 412.89627 539.90445 416.83191 536.06445 417.50391 C 536.06445 416.73591 536.06398 415.67922 535.58398 415.19922 L 522.14453 421.63281 L 522.62305 423.45508 L 521.2793 423.83984 L 521.18359 421.91992 C 522.43159 420.76792 531.07206 416.92739 533.66406 415.77539 C 537.79206 413.75939 537.02467 415.77606 537.88867 413.66406 C 536.54467 414.04806 537.69586 413.95223 536.25586 414.24023 C 533.85586 414.72023 529.44072 417.02378 527.13672 418.17578 C 525.40872 419.03978 523.77653 419.80817 522.14453 420.57617 L 517.34375 423.16797 C 517.43975 421.43997 517.82303 419.32761 518.20703 417.59961 C 519.45503 412.12761 519.83925 405.98461 520.03125 400.22461 C 520.99125 402.43261 519.26456 414.62455 518.97656 418.56055 C 518.88056 419.52055 518.68767 420.19158 519.26367 420.76758 C 519.74367 419.90358 519.36017 418.55991 519.74414 417.50391 C 519.93614 417.21591 520.12742 417.5048 520.60742 417.2168 C 521.08742 416.9288 520.70422 417.2158 520.99219 416.92773 L 521.08789 416.83203 C 523.58389 414.52803 525.40897 413.5673 525.79297 413.2793 C 527.80897 411.3593 526.84894 412.70427 528.96094 411.07227 C 531.93694 408.76827 530.88091 409.34422 532.12891 409.82422 C 531.93691 408.09622 534.72016 407.13625 536.16016 406.65625 L 539.80859 404.44727 C 540.48059 403.87127 539.90419 403.96739 540.57617 403.77539 C 541.44017 405.50339 542.0155 407.808 542.6875 408 C 543.0715 406.944 537.79161 396.86391 537.59961 393.50391 C 539.13561 395.23191 540.76763 397.82414 542.01562 399.74414 C 542.87975 401.08814 545.28023 405.88778 546.24023 406.17578 C 546.14423 405.11978 545.56819 404.54398 544.99219 403.58398 C 543.93619 401.75998 544.99172 402.24048 544.51172 400.89648 C 543.93572 399.07248 544.2232 402.23984 542.7832 399.83984 C 542.3032 399.07184 541.91945 398.39916 541.43945 397.53516 L 541.34375 397.53516 C 540.38375 395.71116 541.15205 395.04084 541.24805 394.46484 C 542.11205 390.33684 541.91997 392.35211 543.16797 390.91211 L 543.55273 390.24023 C 544.12873 389.18423 544.80006 389.27955 545.66406 387.93555 C 546.24006 388.89555 545.37564 388.41559 546.43164 389.18359 L 546.7207 387.16797 C 546.7207 387.07197 546.72042 387.07257 546.81641 386.97656 L 546.81641 386.7832 C 546.91241 385.1512 545.28041 385.6325 546.81641 381.3125 C 546.81641 381.2165 546.91211 381.2151 546.91211 381.11914 C 546.91211 381.02314 547.00781 381.02374 547.00781 380.92773 C 548.25581 377.56773 547.39258 375.64859 547.39258 371.80859 z M 486.90039 388.04883 C 486.90539 388.04083 486.97409 388.27282 487.0625 388.57422 C 487.1098 388.92938 486.88588 388.07423 486.90039 388.04883 z M 497.18359 399.55273 C 497.37559 400.03273 491.13566 420.95967 490.84766 423.26367 C 490.55966 425.27967 490.75286 424.70453 491.71289 426.14453 C 493.24889 426.24053 491.80749 426.14377 493.43945 425.75977 C 493.34345 426.81577 493.24881 426.62475 493.63281 427.29688 C 494.97681 427.20076 494.11244 426.81675 495.64844 427.29688 C 497.18444 427.77688 496.89683 427.87109 498.04883 427.87109 L 500.35156 428.44727 C 500.35156 428.35127 500.44896 428.54492 500.54492 428.54492 C 502.65692 427.39292 501.69617 427.77658 504.57617 427.39258 C 506.40017 427.10458 506.1112 427.10317 506.7832 425.95117 L 507.45508 425.08789 C 508.79908 425.27989 508.7033 425.28083 509.2793 426.04883 L 514.94336 422.7832 C 515.99936 422.3992 516.48094 422.59133 516.96094 422.11133 C 516.67294 425.66333 514.75144 428.92825 513.02344 430.65625 C 511.19944 432.48025 512.25619 430.27158 508.99219 432.76758 C 507.45619 433.91958 507.16864 434.11227 505.05664 435.07227 C 498.91264 437.85627 493.53589 433.15217 485.08789 432.57617 L 491.42383 416.25586 L 491.23242 416.25586 C 492.28842 413.47186 496.31959 400.60873 497.18359 399.55273 z M 436.22461 410.6875 C 437.85661 412.3195 435.64709 414.81652 439.87109 421.72852 C 441.79109 424.89652 442.46311 428.83289 444.28711 431.71289 C 445.05511 430.46489 443.90464 431.23225 445.05664 430.65625 C 444.96064 438.72025 440.16088 440.54348 439.29688 442.27148 C 437.85679 444.95948 439.00878 443.52039 436.80078 446.40039 C 435.26478 448.41639 433.05587 450.04833 432.67188 452.73633 C 433.15187 453.12033 438.04752 455.23259 439.10352 455.80859 C 438.52752 458.78459 437.08708 461.76075 435.45508 463.96875 C 434.78308 464.83275 433.82417 466.55936 432.57617 466.94336 C 430.75217 467.61536 429.79191 467.03914 429.50391 465.11914 C 427.19991 464.44714 426.04737 463.2007 423.35938 462.7207 C 422.11129 462.5287 422.97639 462.62394 422.40039 462.33594 L 421.53516 461.85547 C 420.19116 461.37547 419.52072 460.79955 419.13672 459.93555 C 419.04072 459.83955 419.03906 459.84014 419.03906 459.74414 L 418.84766 459.45508 C 418.84766 459.35908 418.65625 459.26397 418.65625 459.16797 C 418.27225 458.39997 417.88867 455.61655 417.88867 454.56055 C 417.12067 454.65655 417.12072 454.84855 416.64062 454.56055 C 417.21671 453.79255 418.46395 451.77641 418.75195 450.81641 C 416.83195 451.10441 417.79117 452.73511 413.95117 456.28711 C 413.18317 456.95911 412.79925 457.44094 412.03125 456.96094 C 412.22325 456.38494 412.60848 456.48021 412.89648 455.32812 C 410.30448 456.38421 409.44038 457.24894 405.98438 456.96094 C 405.69628 456.57694 405.31144 455.99953 405.02344 455.51953 C 406.84744 453.31153 409.92048 451.68041 412.89648 450.81641 C 414.24048 450.43241 415.29569 449.56866 415.67969 449.47266 C 417.21569 449.08866 417.02336 450.43117 418.94336 449.95117 C 420.19136 449.56717 420.96009 449.18495 422.49609 449.37695 C 423.55209 449.47295 424.5113 450.04705 425.2793 450.62305 C 426.3353 451.39105 426.91186 451.00858 428.25586 451.39258 C 427.58386 449.66458 425.37589 449.08708 425.08789 447.45508 C 426.43189 447.64708 427.87127 449.18483 428.44727 450.04883 C 429.02327 450.91283 428.92753 453.11956 431.51953 452.35156 C 432.86353 449.37556 432.19203 443.13561 428.83203 441.59961 L 424.12891 438.91211 C 422.49691 437.66411 419.51983 438.43261 419.42383 436.22461 C 421.63183 435.45661 424.70381 436.80036 427.00781 437.56836 C 429.11981 438.33636 431.23116 440.54441 433.53516 438.81641 C 434.11116 439.20041 434.11227 439.77688 435.07227 439.29688 C 434.88027 438.52879 435.2635 439.29534 434.6875 438.52734 C 434.3035 438.04734 434.59133 438.33683 434.11133 438.04883 L 429.98438 436.51172 C 428.73628 436.22372 427.48764 435.2635 426.43164 434.6875 C 424.51164 433.6315 422.112 433.92077 420 432.38477 C 418.56 431.42477 418.84773 431.42306 416.92773 431.03906 C 413.37573 430.36706 413.75975 429.79267 409.34375 429.88867 C 410.11175 431.23267 413.66322 433.82456 415.19922 434.97656 C 419.23122 438.04856 422.97581 441.69694 427.00781 444.96094 C 429.11981 446.68894 429.69612 449.18322 431.32812 451.19922 C 429.31212 451.10322 429.6007 447.07171 426.7207 446.01562 C 425.4727 445.53563 424.51197 445.15187 423.16797 444.67188 C 421.53597 444.09578 421.536 443.51936 420 442.94336 C 417.024 441.88736 414.81555 442.17697 411.93555 441.79297 C 409.72755 441.50497 406.27275 440.92875 403.96875 439.96875 C 404.16075 439.39275 404.25616 439.2967 404.16016 438.7207 C 405.12016 438.5287 405.69548 438.52883 406.27148 438.04883 C 407.03948 437.37683 406.9437 437.28066 408.0957 437.47266 C 409.5357 437.66466 411.07202 438.14334 412.41602 438.52734 C 414.52802 439.10334 418.46417 441.3128 420.57617 441.2168 C 419.71217 438.1448 412.32081 434.11153 409.63281 431.51953 L 408.67188 429.79297 L 404.64062 429.11914 C 405.31272 428.15914 405.79272 428.25586 407.13672 428.25586 C 410.30472 428.25586 415.87225 428.25509 418.65625 427.87109 C 419.90425 427.67909 419.90494 427.96709 420.96094 427.87109 C 422.49694 427.67909 424.12717 427.20011 425.95117 426.91211 C 427.87117 426.62411 427.00845 427.10478 428.06445 427.29688 C 428.83245 427.48888 428.92828 426.91241 429.98438 426.81641 C 433.24837 426.62441 437.18411 429.312 438.91211 432 C 439.48811 432.864 439.20045 433.15252 440.06445 433.72852 L 440.35156 433.05664 C 440.44756 433.05664 440.44727 432.95928 440.44727 432.86328 C 440.63927 432.09528 440.54314 431.51966 441.11914 430.84766 C 441.79114 432.38366 441.31272 434.49584 443.13672 435.83984 C 444.28872 435.07184 444.09553 434.30494 443.51953 432.96094 C 442.94353 431.42494 442.46361 430.07973 441.59961 428.92773 C 439.77561 426.62373 440.9273 427.39236 437.2793 425.56836 C 436.7033 425.28036 436.41555 425.27989 435.93555 425.08789 C 434.59155 424.51189 435.16834 424.22325 433.15234 424.03125 C 431.71234 423.83925 432.09608 423.55138 430.08008 423.35938 C 429.13232 423.27312 427.74782 423.2569 426.84375 423.11719 C 426.72336 423.15488 426.61284 423.19955 426.52734 423.26367 L 426.52734 423.07227 C 426.6159 423.09195 426.7405 423.10123 426.84375 423.11719 C 427.26408 422.9856 427.87329 422.99764 428.54492 423.07227 C 431.52092 423.26427 434.78495 422.78402 437.37695 424.41602 C 438.04895 424.80002 441.79144 428.16095 441.02344 425.37695 C 440.35144 422.88095 438.72095 420.67195 437.37695 418.75195 C 436.32095 417.31195 434.59261 412.5115 436.22461 410.6875 z M 559.67969 412.32031 C 559.67969 414.43231 557.95266 420.48086 557.47266 422.88086 C 556.89666 426.14486 556.03197 430.65652 555.16797 433.72852 L 550.46484 455.23242 C 554.68884 449.66442 558.04778 443.32806 562.17578 437.66406 L 573.02344 421.24805 C 573.21544 421.05605 573.40791 420.67217 573.50391 420.57617 C 573.98391 420.09617 573.50319 420.384 574.36719 420 C 573.98319 422.208 566.87945 436.89675 565.43945 439.96875 L 557.56836 457.05664 C 557.28036 457.63264 556.60772 458.78336 556.51172 459.35938 C 557.85572 458.49537 580.89645 435.35911 584.06445 432.28711 C 584.83245 431.51911 587.13511 428.92727 588.28711 428.44727 C 587.90311 429.98327 583.19947 435.74436 581.85547 437.56836 C 576.38347 445.15236 570.72005 452.44725 565.24805 460.03125 C 564.19205 461.47125 562.94467 463.00756 561.88867 464.35156 L 588.86328 447.16797 C 591.16728 445.72797 596.25684 441.8882 598.46484 441.4082 C 598.46484 441.5042 598.36719 441.59931 598.36719 441.69531 C 598.27119 441.98331 598.17608 442.07978 598.08008 442.17578 C 597.12008 443.42378 591.74439 447.84019 590.40039 448.99219 C 589.15239 450.04819 587.80884 451.19927 586.46484 452.44727 L 574.27148 463.19922 C 571.87148 465.40722 568.31903 468.19103 566.20703 470.20703 C 566.49503 470.11103 566.87997 470.01592 567.16797 469.91992 L 573.50391 467.51953 C 576.09591 466.46353 578.49589 465.88892 581.08789 464.54492 C 584.35189 462.91292 596.83116 459.07294 601.53516 456.96094 C 602.59116 456.48094 606.14322 455.23272 607.19922 455.13672 C 606.52722 456.38472 604.0312 457.24762 602.7832 458.01562 L 577.63281 472.22461 C 576.57681 472.80061 576.47953 473.08806 575.51953 473.66406 C 574.17553 474.43206 571.77581 475.29556 571.00781 476.35156 C 574.46381 476.15956 578.30495 475.48781 581.37695 475.00781 C 582.33695 474.91181 583.10475 474.9127 583.96875 474.7207 C 584.92875 474.5287 585.21519 474.33653 586.36719 474.14453 C 588.19119 473.85653 589.72873 473.66495 591.55273 473.37695 C 596.44873 472.60895 608.35186 470.49609 612.67188 470.49609 C 612.19186 471.07209 612.76741 470.59256 612.19141 470.97656 L 574.65625 482.88086 C 573.60025 483.26486 572.63986 483.16755 572.25586 483.93555 L 608.92773 486.24023 C 609.88773 486.24023 610.75289 486.23994 611.71289 486.33594 C 611.80889 486.33594 612.76728 486.43164 612.86328 486.43164 L 614.30469 487.10352 C 610.46469 488.06352 587.80853 489.50348 582.14453 490.27148 C 580.51253 490.46348 578.30328 490.75166 576.86328 490.84766 C 575.51928 490.94366 572.44798 491.04012 571.58398 491.32812 C 573.11998 492.00014 575.13586 491.99958 576.67188 492.76758 C 578.01587 493.43958 585.50413 495.26414 587.32812 495.74414 L 603.45508 500.16016 C 605.18308 500.54416 606.91263 501.11961 608.64062 501.59961 C 610.56063 502.17561 612.47903 502.46306 614.20703 503.03906 C 614.11103 503.03906 614.01563 503.04072 614.01562 503.13672 L 598.17578 501.50391 C 596.15978 501.31191 594.33602 501.31144 592.41602 501.02344 C 586.94402 500.15944 581.472 499.96722 576 499.19922 L 570.52734 498.62305 C 573.50334 500.35105 576.95984 501.79153 579.83984 503.51953 L 603.55273 515.80859 C 604.99273 516.48059 607.48727 517.2475 608.44727 518.6875 C 606.81527 518.4955 595.39219 514.65697 592.99219 513.79297 L 575.42383 507.93555 C 575.03983 507.74355 574.65548 507.64873 574.27148 507.55273 C 572.35148 506.97673 569.66384 505.63145 567.83984 505.43945 C 568.60784 506.11145 569.18317 506.40027 569.95117 507.07227 L 576.38477 512.44727 C 579.36077 515.03927 582.14344 517.15273 585.02344 519.55273 C 586.84744 520.99273 601.05503 532.51117 602.20703 533.95117 C 600.67103 533.66317 581.37592 521.95184 577.91992 519.83984 L 563.32812 511.29688 C 563.80814 511.96888 564.38494 512.5445 564.96094 513.3125 L 570.14453 519.74414 C 572.16053 522.43214 575.23264 525.79247 577.05664 528.48047 C 577.53664 529.15247 578.2072 529.9198 578.7832 530.5918 C 579.3592 531.2638 579.83972 531.93512 580.51172 532.70312 C 581.75972 534.04714 582.91245 535.67914 584.06445 537.11914 C 585.21645 538.75114 590.4952 544.70483 590.7832 546.04883 C 588.2872 544.51283 564.67216 522.43269 560.16016 518.30469 C 559.68016 517.82469 558.62453 516.67277 558.14453 516.38477 C 558.24053 517.05677 558.62411 517.63103 558.91211 518.20703 L 562.08008 524.54492 C 562.08008 524.64092 562.17578 524.64033 562.17578 524.73633 C 562.17578 524.83233 562.27148 524.83173 562.27148 524.92773 C 562.46348 525.40773 562.55995 525.60036 562.75195 525.98438 L 565.72852 531.93555 C 567.26452 534.81555 572.83191 545.47275 573.50391 547.96875 C 570.91191 548.16075 570.72006 546.91295 569.66406 545.37695 L 561.88867 534.43164 C 560.73667 532.89564 551.90489 520.89525 551.71289 520.03125 C 551.80889 522.81525 558.3367 543.55156 558.7207 548.35156 C 556.1287 548.35156 556.12767 548.8327 555.26367 546.7207 C 554.78367 545.4727 554.20852 544.60738 553.72852 543.35938 C 551.80852 538.27137 549.40887 533.37677 547.29688 528.38477 L 546.62305 526.75195 C 546.14305 525.69595 545.76048 524.16028 544.89648 523.48828 C 544.99248 531.84028 545.85577 539.80786 545.75977 548.25586 C 540.95977 548.73586 542.40005 546.91222 541.24805 541.82422 L 538.75195 529.34375 C 538.46395 527.51975 538.17591 524.92858 537.50391 523.39258 L 533.37695 547.77539 L 530.20703 547.67969 L 517.34375 547.19922 L 520.32031 533.47266 C 520.99231 530.59266 520.89547 530.11166 521.85547 526.84766 C 522.04747 526.07966 523.19952 520.89572 523.10352 520.51172 L 522.78906 520.98828 C 522.83083 520.65551 522.85168 520.39087 522.81641 520.32031 L 518.6875 526.56055 C 515.2315 531.84055 508.89533 540.96006 506.11133 545.66406 L 504.76758 545.85547 L 505.75586 545.94727 L 505.05664 546.04883 L 503.9043 545.66406 C 503.9043 545.66406 503.80889 545.56836 503.71289 545.56836 C 506.78489 538.27236 510.72036 530.40041 513.98438 522.81641 C 514.17638 522.14441 514.46395 521.56819 514.75195 520.99219 C 515.32795 519.93619 516.09677 518.68716 516.38477 517.53516 C 515.71277 517.82316 513.59973 520.03112 512.92773 520.70312 C 507.93573 525.21514 500.83273 532.80097 495.55273 537.79297 L 490.36719 542.88086 C 489.50319 543.74486 489.50339 544.12784 487.77539 543.83984 C 490.94339 538.36784 506.97564 518.88003 510.43164 512.83203 C 508.12764 513.50403 475.10495 535.48875 473.37695 535.96875 C 474.24095 534.52875 495.26347 516.38408 497.85547 514.08008 L 506.01562 506.6875 L 471.45508 519.45508 C 470.11108 519.93508 467.32837 521.08759 465.98438 521.18359 C 466.56037 520.03159 470.68784 518.01545 471.83984 517.43945 C 477.88784 514.27145 484.32008 510.04797 490.08008 507.16797 C 491.61608 506.39997 494.87959 506.39958 497.18359 504.76758 C 498.23959 503.99958 498.33628 502.94319 499.48828 502.36719 L 502.56055 500.64062 C 505.63255 498.81662 506.39973 501.31278 512.92773 496.80078 L 514.84766 495.16797 C 515.51966 494.59197 515.04059 494.9758 515.80859 494.5918 C 516.86459 495.0718 516.19294 494.68708 516.96094 495.45508 C 517.34494 495.74308 517.72763 496.03291 518.01562 496.12891 C 520.22364 496.80091 523.96719 494.88022 526.36719 493.82422 C 532.03119 491.42422 529.24834 486.14325 529.15234 484.03125 C 532.89634 483.93525 531.84095 485.9527 533.37695 486.7207 C 534.91295 487.8727 535.39263 489.6 536.64062 492 C 537.21664 493.152 537.11948 493.43916 538.27148 493.53516 C 538.84748 492.19116 536.92803 490.6565 536.83203 489.3125 C 538.27203 489.3125 538.17613 490.3688 539.32812 489.2168 L 539.42383 488.54492 C 539.42383 487.29692 538.84825 486.52747 538.65625 485.85547 L 539.23242 485.18359 C 539.80842 486.23959 540.38328 486.91245 540.86328 488.06445 C 541.15128 488.64045 541.34316 489.11931 541.53516 489.69531 C 541.91916 490.75131 541.82456 490.84706 542.97656 491.03906 C 543.26456 489.79106 541.92005 487.00717 541.24805 485.95117 C 539.32805 482.97517 541.72723 483.64817 539.61523 480.57617 L 535.96875 476.73633 C 535.00875 475.96833 532.0315 474.91105 530.6875 474.62305 C 528.7675 474.14305 526.36756 474.52841 524.35156 474.81641 C 520.31956 475.48841 520.99294 472.60873 516.96094 471.55273 C 515.61694 471.16873 513.40714 469.0557 513.11914 468.0957 C 512.83114 466.9437 512.83144 465.88833 513.02344 464.73633 C 510.04744 462.62433 509.66355 465.69578 507.93555 466.17578 C 507.07155 465.11978 506.68817 464.25692 504.57617 464.54492 C 504.28817 467.32892 505.82434 466.17642 505.15234 467.23242 C 504.96034 468.00042 503.80723 465.02327 503.61523 464.44727 C 503.51923 464.54327 503.42383 464.54462 503.42383 464.64062 L 502.46484 465.50391 C 500.44884 464.54391 497.37555 462.81559 495.93555 461.18359 C 497.37555 459.93559 498.52798 459.07205 499.58398 457.24805 C 499.48798 454.84805 498.43189 455.13684 497.08789 454.46484 L 496.51172 454.08008 C 495.93572 453.69608 496.32073 453.88731 495.55273 453.69531 C 495.16873 453.59931 494.88009 453.6002 494.49609 453.4082 C 493.63209 453.0242 494.11281 453.31203 493.63281 452.83203 C 494.88081 452.35203 497.66381 452.8325 499.00781 453.3125 C 500.25581 453.7925 500.83161 456.28728 501.59961 456.86328 C 502.84761 457.91928 503.99916 456.57627 505.53516 459.07227 C 506.39916 460.51227 506.78402 462.2407 508.41602 462.7207 C 510.33602 463.2007 511.19944 461.37577 513.02344 461.75977 C 515.13544 462.14377 514.17553 464.2565 515.51953 465.3125 C 515.99953 465.7925 516.96081 465.98378 517.63281 466.17578 C 521.85681 467.51978 522.62495 464.16011 521.37695 462.91211 C 520.12895 462.91211 518.87975 464.54352 517.34375 463.10352 L 511.96875 452.54492 C 510.91275 450.33692 505.24834 439.48823 505.15234 438.24023 C 508.32034 436.32023 508.22317 437.56709 509.95117 439.87109 L 521.18359 455.9043 C 521.95159 455.0403 521.56789 454.84803 521.08789 452.83203 L 518.7832 444.0957 C 518.3032 442.0797 517.82405 440.16053 517.24805 438.14453 L 516.19141 433.82422 C 516.19141 433.24822 516.19277 433.44064 516.38477 433.05664 L 516.76758 432.19141 L 517.24805 431.80859 L 517.15234 431.80859 C 518.20834 431.52059 517.72886 431.51983 518.88086 431.42383 C 520.22486 434.68783 527.42477 451.96803 528.38477 452.83203 L 527.42383 424.03125 L 527.9043 423.55273 C 528.0003 423.55273 528.28877 423.35967 528.38477 423.26367 C 528.96077 422.97567 528.96052 422.97686 529.72852 422.88086 L 535.77539 453.11914 L 537.4082 444.28711 C 537.7922 441.11911 538.46366 438.2392 538.84766 434.7832 L 540.48047 425.75977 C 540.67247 424.03177 540.86434 422.68894 541.15234 420.96094 C 541.44034 418.84894 541.24737 417.6968 543.35938 417.2168 C 543.64738 421.9208 542.59167 452.25531 543.26367 453.69531 L 545.08789 448.60742 C 545.56789 446.97542 546.52722 445.24753 547.19922 443.51953 C 549.21522 438.33553 551.13575 432.86339 553.34375 427.77539 C 554.01575 426.23939 554.78336 424.4155 555.35938 422.6875 C 555.93538 421.0555 558.71969 412.99231 559.67969 412.32031 z M 455.42383 451.10352 C 457.34383 451.10352 458.88091 451.87156 460.12891 452.35156 C 463.20091 453.59956 465.88834 454.17672 469.15234 455.13672 C 472.51234 456.19272 477.02366 456.67145 478.84766 457.43945 C 482.30366 458.87945 482.11152 460.41619 487.10352 460.99219 C 486.81552 461.56819 487.00823 461.08806 486.24023 461.66406 C 488.06423 462.81606 487.39139 462.43127 487.77539 464.44727 C 487.96739 465.88727 487.58483 466.94306 486.04883 467.03906 C 486.43283 467.51906 486.43241 467.5203 486.81641 467.9043 L 485.95117 468.38477 C 486.52717 469.15277 486.52811 468.67145 486.91211 469.43945 C 485.95211 469.91945 487.00836 469.82481 485.56836 469.63281 C 485.85636 470.40081 485.66483 470.0152 486.04883 470.7832 C 484.99283 470.4952 485.47278 470.49669 484.80078 470.30469 C 485.08878 470.88069 485.18478 470.11167 484.80078 471.26367 C 483.74478 471.35967 484.22473 471.45673 483.55273 471.55273 C 483.64873 471.36073 484.89609 470.78464 482.49609 469.05664 C 483.26409 468.57664 482.59129 469.24728 483.35938 468.86328 C 482.68729 467.90328 482.78469 468.76723 482.30469 467.61523 C 481.92069 466.84723 480.76894 464.25598 480.96094 463.58398 C 479.90494 464.06398 479.80706 462.81645 479.03906 464.06445 C 478.36706 465.12045 479.23212 464.63931 479.32812 465.69531 C 478.65613 465.50331 478.65531 465.02403 477.69531 464.83203 C 478.07931 465.50403 478.17684 465.31267 478.46484 465.88867 C 479.80884 468.48067 477.79225 471.83994 478.65625 474.33594 C 478.32025 474.55194 478.12889 474.64179 478.02539 474.67188 L 478.02344 474.67188 C 478.04889 474.72945 478.0534 474.85041 477.98438 475.10352 C 477.69629 476.15952 476.83139 476.06416 475.77539 476.16016 C 475.39139 474.52816 475.96722 475.58322 475.19922 475.19922 C 475.29522 474.23922 475.58428 475.20023 475.48828 474.24023 L 474.81641 472.03125 C 474.72041 472.03125 474.62305 471.84014 474.62305 471.74414 C 473.85505 471.93614 474.1433 472.12814 473.2793 471.74414 C 472.4153 471.36014 473.47261 471.64738 472.22461 471.35938 L 471.83984 471.26367 C 471.83984 471.26367 471.64873 471.16797 471.55273 471.16797 C 471.07273 471.07197 471.55227 471.07197 471.07227 471.16797 C 471.07227 471.26397 470.97656 471.26367 470.97656 471.26367 C 470.88056 471.26367 470.7832 471.35938 470.7832 471.35938 C 470.7832 471.35938 470.59209 471.55273 470.49609 471.55273 C 469.92009 471.84073 470.39971 471.55184 470.01562 471.83984 C 469.34362 471.07184 469.63145 470.59252 469.43945 469.72852 C 469.34345 469.63252 469.24805 469.34405 469.24805 469.24805 C 468.48005 467.42405 468.86434 469.43966 469.15234 466.84766 L 467.9043 465.88867 C 467.1363 466.75267 468.38472 465.69583 467.13672 467.42383 C 466.84872 467.03983 466.75106 465.98361 467.03906 465.59961 C 465.59906 466.27161 466.56008 466.17536 466.08008 466.94336 C 465.12008 466.75136 465.50433 466.65578 464.73633 466.17578 C 464.73633 467.99978 465.12071 466.94459 464.64062 467.80859 C 463.87263 469.05659 464.54339 467.90439 463.77539 470.40039 L 462.62305 467.13672 L 462.52734 467.03906 C 462.43134 467.03906 462.43164 466.94336 462.43164 466.94336 L 462.43164 466.84766 L 462.24023 466.27148 C 461.85623 465.50348 461.28019 465.50356 460.99219 464.35156 C 460.51219 462.62356 460.70461 458.59281 460.22461 457.63281 C 459.16861 455.23281 458.11225 452.54433 454.65625 452.73633 C 454.94425 452.16033 454.94442 452.25569 455.23242 451.67969 L 450.24023 452.16016 L 450.43164 452.06445 C 450.91164 451.48845 454.27183 451.10352 455.42383 451.10352 z M 443.74805 453.54297 C 445.22198 453.52857 445.54856 454.29672 446.97656 455.13672 C 448.32056 455.90472 449.85594 456.09652 450.33594 457.72852 C 451.00794 460.22452 450.24084 460.32002 453.2168 460.41602 C 453.6008 461.95202 451.20023 465.31131 450.24023 465.69531 C 450.52823 465.02331 450.91275 464.06458 451.29688 463.39258 C 451.87288 462.43258 452.35292 462.2393 452.54492 461.2793 C 451.29692 460.7993 449.66389 460.79984 449.08789 459.83984 C 448.70389 459.26384 449.08772 458.88052 448.51172 457.72852 L 448.22461 457.24805 C 448.22461 457.24805 448.12891 457.15265 448.12891 457.05664 C 447.84091 456.48064 447.45681 456.76758 445.63281 456.76758 C 445.92081 457.34358 446.4955 457.72763 446.6875 458.01562 C 447.5515 459.45574 446.0158 462.33628 446.5918 463.48828 C 447.1678 464.73628 448.89606 464.16097 449.66406 465.79297 L 448.32031 466.08008 C 448.22431 466.08008 448.22491 466.07978 448.12891 466.17578 C 447.16891 466.46378 447.26469 466.84825 446.30469 466.65625 C 441.60069 466.17625 444.86467 459.26486 441.88867 458.88086 C 441.31267 459.84086 441.21598 469.2478 439.58398 470.5918 C 439.10398 469.4398 440.83258 466.17569 439.39258 463.67969 C 438.62458 463.96769 438.71964 464.16003 438.43164 464.83203 C 437.27964 467.52003 435.07294 471.16848 432.96094 472.89648 L 432.86328 472.89648 C 432.95928 472.22448 433.5355 471.93503 434.6875 470.20703 C 436.6075 467.23103 435.74359 468.38391 437.18359 465.50391 C 438.14359 463.67991 438.04705 463.10419 438.62305 460.99219 C 440.63905 454.17619 439.87106 454.07961 443.03906 453.59961 C 443.30306 453.56361 443.53748 453.54497 443.74805 453.54297 z M 517.91992 475.29688 C 518.78392 475.48888 519.36091 475.87127 520.12891 476.44727 C 523.68091 478.94327 525.69577 474.43148 533.75977 478.27148 C 534.91177 478.84748 536.64003 480.48022 536.83203 481.82422 C 535.96803 481.53622 536.16087 481.44064 535.29688 481.05664 C 529.63276 478.56064 530.78494 479.71272 528.96094 479.13672 C 526.36894 478.27272 526.65509 478.94319 523.87109 478.36719 C 524.06309 479.80719 526.17519 480.86333 526.36719 482.11133 C 525.11919 481.82333 525.40816 480.86341 524.16016 480.19141 C 524.54416 481.63141 525.1208 482.11125 525.2168 484.03125 C 524.7368 483.16725 525.02386 483.16809 524.25586 482.49609 C 524.15986 484.22409 524.06322 486.62339 523.19922 487.77539 C 523.10322 486.04739 523.96798 486.72073 523.58398 483.55273 C 523.48798 482.49673 523.29505 481.63128 522.62305 480.86328 C 522.14305 480.19128 522.43283 480.57511 522.04883 480.28711 L 522.14453 482.20703 C 522.04853 483.83903 524.25594 485.47152 522.33594 487.10352 L 522.04883 486.24023 C 521.76083 485.47223 521.75977 486.14393 521.75977 485.08789 C 521.47177 481.05589 521.08802 483.55131 520.41602 477.69531 L 519.35938 478.17578 C 519.16725 479.42378 519.45688 479.61576 518.88086 480.67188 C 518.49686 481.34387 518.30375 481.53639 518.01562 482.40039 C 517.82362 482.20839 517.53534 482.20805 518.11133 481.24805 C 518.39933 480.76805 518.5915 480.48 518.6875 480 C 518.9755 478.752 518.40069 477.98344 518.30469 477.02344 L 519.35938 476.73633 L 519.26367 476.54492 C 518.59167 475.87292 518.39992 476.06488 517.91992 475.29688 z M 419.27539 494.10938 C 419.50133 494.10526 419.7123 494.13503 419.9043 494.20703 C 419.89055 494.23109 419.86994 494.24472 419.85547 494.26758 C 419.90344 494.28009 419.95418 494.28751 420 494.30469 C 419.616 494.97669 418.94378 495.16873 418.17578 495.55273 L 413.37695 498.43164 C 412.41695 499.00764 412.79972 498.43258 412.51172 499.39258 C 414.43172 500.44858 419.61562 501.21697 422.01562 501.79297 C 425.37575 502.65697 430.36728 501.79197 432.86328 502.84766 C 433.05528 502.55966 432.96068 502.75146 433.05664 502.27148 C 433.11704 502.05013 433.12867 501.97292 433.13477 501.91602 C 433.17486 501.93273 433.20466 501.93411 433.24219 501.94727 L 433.24414 501.94922 C 434.2922 502.31498 434.38776 501.35667 435.74414 502.08008 C 435.76437 502.10031 435.77607 502.13368 435.79492 502.15625 C 435.81146 502.16476 435.82291 502.16675 435.83984 502.17578 C 436.60784 502.94378 436.41587 505.4395 432.67188 506.6875 C 431.80781 506.9755 431.51995 507.26473 430.75195 507.55273 C 431.42395 510.14473 432.76842 511.39284 431.23242 514.46484 C 430.56042 516.09684 429.21556 519.26431 428.35156 520.32031 C 426.16386 520.41754 424.98695 520.09429 423.94531 519.56641 C 423.28055 519.24893 422.6693 518.83914 421.91992 518.38281 C 421.49652 518.13709 421.04093 517.88757 420.48047 517.63281 C 415.48847 515.42481 418.3673 517.05608 413.2793 514.08008 L 407.23242 509.56836 C 405.21642 508.03236 402.14444 507.84069 399.64844 506.30469 C 399.65777 506.29398 399.66258 506.28604 399.67188 506.27539 C 399.63269 506.25072 399.59159 506.23244 399.55273 506.20703 C 402.14473 503.23103 400.99148 502.56003 406.27148 500.83203 C 406.84748 500.64003 407.32859 500.63956 407.80859 500.35156 C 408.86459 499.77556 409.72733 499.29534 410.11133 498.52734 C 411.74333 495.45534 411.93653 497.47202 414.14453 496.41602 C 415.40453 495.82802 417.69383 494.13694 419.27539 494.10938 z M 433.05664 501.88867 C 433.06984 501.89467 433.0788 501.89469 433.0918 501.90039 C 433.0318 502.00839 432.96068 502.17665 433.05664 501.88867 z M 408.82227 503.77148 C 407.5105 503.83158 406.21416 504.23384 405.62695 505.48633 C 405.91455 505.88857 405.45111 505.75504 406.36719 506.30469 L 409.82422 507.26367 C 411.26422 507.83967 412.99109 510.71944 415.87109 513.02344 C 417.21509 514.07944 418.17511 514.56055 420.28711 514.56055 C 421.91911 514.65655 424.70423 514.75255 426.24023 514.56055 C 427.21058 514.42671 427.66045 514.22095 427.85547 514 C 427.97422 513.64011 427.54253 513.24043 427.48828 513.02344 L 427.48828 512.92773 L 427.48828 512.73633 C 427.00828 510.72033 426.62483 511.1047 426.04883 510.7207 L 423.74414 508.70312 C 421.54515 507.26901 422.38639 508.87075 420.78125 506.03906 C 419.95463 506.2949 419.41982 506.40427 419 506.40039 C 417.69242 506.44083 417.46865 505.44916 413.18359 504.28711 C 412.41559 504.09511 412.70325 504.1917 412.03125 504.0957 C 411.56325 504.0237 410.70338 503.84345 409.74609 503.7832 C 409.44483 503.76424 409.13379 503.75959 408.82227 503.77148 z M 605.47266 520.99219 C 607.87266 520.99219 614.59206 523.10309 617.66406 523.87109 C 618.14406 523.96709 617.95223 523.96845 618.24023 524.06445 C 618.81623 524.35245 618.33569 524.54403 619.67969 524.83203 C 620.15969 524.92803 620.8325 525.0248 621.3125 525.2168 L 626.6875 526.75195 C 628.1275 526.94395 628.89653 527.32889 630.14453 527.71289 L 638.88086 530.30469 C 639.45686 530.49669 640.22312 530.6872 640.70312 530.7832 L 642.24023 531.26367 C 644.73623 531.83967 646.75281 531.45648 649.63281 532.89648 C 650.20881 533.28048 650.68735 533.28066 651.35938 533.47266 C 652.51138 533.76066 653.85581 534.14364 655.00781 534.43164 L 658.65625 535.39258 C 660.09625 535.87258 660.7678 536.35156 662.5918 536.35156 C 662.0158 536.92756 661.82388 536.83144 660.67188 537.02344 C 657.59985 537.50344 650.88042 539.13659 647.23242 539.80859 L 639.45508 541.24805 C 637.65131 541.62779 632.76377 542.66063 631.35547 542.68359 C 631.36661 542.71937 631.38249 542.74537 631.39258 542.7832 L 631.29688 542.6875 C 631.31178 542.6875 631.33967 542.68385 631.35547 542.68359 C 630.94245 541.3579 629.81373 541.39994 628.22461 539.9043 L 618.33594 532.03125 C 617.95194 531.74325 618.04836 531.84073 617.56836 531.55273 C 616.60836 530.97673 617.27914 531.55286 616.70312 530.88086 C 615.93512 529.82486 616.5118 530.01587 614.5918 528.67188 L 610.75195 525.79297 C 609.02395 524.73697 609.69665 525.02445 608.64062 524.06445 C 608.16062 523.58445 608.35109 523.87228 607.87109 523.48828 C 607.77509 523.48828 607.67969 523.39258 607.67969 523.39258 C 607.58369 523.39258 607.48828 523.29688 607.48828 523.29688 C 607.39228 523.29688 607.29688 523.19922 607.29688 523.19922 C 605.56885 521.95122 605.66466 522.04819 605.47266 520.99219 z M 480.38477 525.59961 L 480.0957 526.65625 C 480.0957 526.65625 479.9043 526.84736 479.9043 526.94336 L 468.86328 537.69531 L 468.38477 538.17578 L 468.28711 538.27148 L 466.08008 540.38477 L 466.75195 540.86328 L 449.56836 537.3125 C 449.56836 536.4562 449.87528 535.14545 450.48633 534.39453 L 450.52734 534.14453 L 450.7207 534.14453 C 450.63775 534.21712 450.56032 534.3036 450.48633 534.39453 L 450.04883 537.02344 C 451.87283 537.02344 456.00022 534.91253 457.82422 534.14453 L 461.85547 532.70312 C 462.62347 532.51112 462.3367 532.51231 462.7207 532.32031 C 465.0247 531.16831 468.28805 530.30481 469.24805 529.63281 L 475.58398 527.03906 C 476.15998 526.84706 476.06327 526.84825 476.44727 526.65625 C 477.50327 526.17625 479.13677 525.59961 480.38477 525.59961 z "
     transform="scale(10.416667)"
     id="path5192" /><path
     style="fill:#000000;fill-opacity:1;stroke:none;stroke-opacity:1"
     d="m 8713,5802 c -106.6551,71.5312 -215.6277,147.5719 -241.1269,161.7613 C 8056.9066,6194.6751 7592.8782,6358.5378 7135,6457 6434.5854,6607.6172 5687.2034,6646.5737 4970.375,6559.75 4471.3115,6499.3024 3976.4082,6366.382 3511,6177 3313.4489,6096.6133 3148.1977,6027.654 2985.6152,5916.0332 2590.234,5644.5848 2216.5058,5323.288 2071,4851 c -173.0422,-561.6666 146.8636,-1137.3567 578.2429,-1484.3142 741.0925,-596.0593 1701.7855,-849.7917 2634.551,-916.3691 1186.0731,-84.6576 2451.2233,103.6441 3447.2217,788.8395 436.9479,300.5976 816.8165,783.9877 784.9532,1341.5469 C 9486.8426,5090.3671 9119.9188,5529.0884 8713,5802 Z M 2104,3925 c -198.5404,376.5248 -191.1688,865.8618 34.1719,1241.7344 414.7635,691.8335 1191.1045,1073.2087 1943.3904,1279.0264 1262.4375,345.3899 2646.7686,307.3487 3871.5611,-165.3014 C 8618.0727,6023.854 9308.0087,5583.2711 9531.375,4864.3027 9713.0242,4279.6128 9378.3345,3672.1981 8923.793,3313.623 8091.1652,2656.7863 7006.8028,2403.1969 5966.2123,2374.688 4858.6747,2344.345 3694.5456,2553.5654 2769.5628,3196.9919 2496.7057,3386.7938 2258.8921,3631.2526 2104,3925 Z"
     id="path5196"
     inkscape:connector-curvature="0"
     sodipodi:nodetypes="sssssssssssssssssssss" /><path
     style="fill:#000000;fill-opacity:1"
     inkscape:connector-curvature="0"
     id="path5206"
     d="m 5095,6144 c 9,-59 57,-113 106,-133 32,-14 64,-19 104,-19 19,0 86,5 99,24 -6,19 -6,-1 -7,21 -1,26 1,49 -2,80 l -43,1 c -3,-15 -3,-33 -5,-48 -10,-59 -164,-53 -163,136 l 4,1 c 3,1 1,0 4,2 5,33 10,52 29,73 17,19 41,32 74,29 l 7,-66 c 2,-7 1,-1 4,-7 4,-7 3,10 3,-9 -11,-6 -22,-7 -38,-8 6,-51 -3,-10 -8,-41 24,-1 140,9 160,14 -7,18 -8,0 -12,39 -16,1 -24,-1 -27,14 l -9,85 c 0,1 -2,7 -2,8 -8,21 -94,13 -117,10 -88,-13 -155,-62 -156,-154 0,-24 4,-35 5,-56 -11,6 8,-3 -5,4 -6,4 4,3 -3,1 z m -307,121 v 0 c -3,6 -3,11 -4,19 -13,0 -18,-4 -30,-6 l -63,-9 c -19,-3 -22,-10 -22,-10 l 2,-33 32,1 c 1,-25 6,-43 10,-66 3,-22 6,-44 9,-64 l 19,-127 -29,-4 c -1,-12 3,-37 6,-46 12,-1 93,11 102,15 10,7 85,181 92,196 10,21 21,57 33,63 l 22,-148 c 8,-63 12,-16 11,-43 -9,-5 -19,-5 -31,-9 -1,0 -1,-1 -2,-1 -9,-3 -5,-2 -11,2 l 6,-42 129,21 c -6,19 -9,-3 -14,38 h -23 c -16,23 -41,263 -56,300 l -51,-1 c -31,-40 -117,-224 -128,-240 -23,-1 -19,10 -22,32 -4,36 -21,102 -22,136 15,-2 37,1 47,8 -5,11 -5,4 -11,17 z m -187,-37 v 0 c 5,-13 4,-3 12,-16 -6,-3 -11,-5 -20,-7 l -24,-6 c 1,-11 4,-22 6,-31 3,-11 4,-22 7,-33 5,-20 10,-45 15,-65 9,-31 19,-106 31,-127 l 32,2 c 2,-6 3,-12 5,-19 3,-11 7,-9 12,-16 -6,-5 -8,-5 -19,-8 -6,-1 -13,-2 -20,-4 l -122,-25 -8,39 36,10 c -1,22 -2,-8 -10,28 l -48,231 -33,-5 c -1,3 -9,39 -9,43 7,-12 -2,-4 31,4 13,3 26,5 40,8 19,4 63,16 81,15 3,-6 2,-13 4,-19 z m -437,-89 v 0 l -103,-33 8,-35 32,5 c 12,-44 23,-85 37,-130 7,-22 12,-43 18,-65 l 14,-47 c 6,-9 6,-3 8,-10 -10,-6 -18,-7 -29,-11 l -7,-3 12,-38 c 23,1 86,22 110,28 76,20 156,53 174,139 5,23 -1,26 -2,31 -7,20 2,83 -63,144 -67,62 -127,46 -209,24 z m -164,-108 v 0 c -10,15 -18,27 -27,42 l -116,-44 c -20,-8 -37,-15 -58,-22 -21,-8 -46,-22 -56,-17 l 14,-41 32,8 83,-219 c 12,-30 13,-15 16,-26 -9,-7 -26,-12 -32,-16 l 12,-37 c 18,2 88,32 114,42 6,2 13,5 19,7 l 17,9 c -3,5 0,1 -5,5 l -3,3 c -5,5 -2,0 -5,8 -3,6 -5,13 -7,18 -15,-2 -20,-8 -35,-6 -6,7 -94,231 -97,243 1,0 1,1 2,1 113,52 75,6 122,-26 12,3 36,19 44,28 l -5,4 c 0,0 -1,1 -2,1 -10,8 -17,21 -26,35 z m -329,-126 v 0 c 10,-12 15,-22 27,-29 l 5,-3 c 0,0 1,-1 2,-1 -6,-8 -30,-28 -40,-32 -34,21 -29,58 -104,8 -3,-2 -3,-2 -6,-4 -1,0 -3,-2 -3,-2 0,0 -1,-1 -2,-1 l -3,-3 c 1,-6 46,-94 54,-96 12,1 22,9 31,14 15,9 19,6 25,23 -11,8 -12,1 -16,21 l 19,8 c 7,4 14,7 22,8 l 52,-85 c 0,0 1,-1 2,-1 -9,-10 -30,-21 -43,-24 -27,23 -7,29 -47,9 -8,-4 -21,-7 -28,-11 l 50,-93 c 15,-2 31,10 42,16 7,5 11,7 18,12 27,17 8,18 2,34 -2,7 -5,16 -6,23 0,0 1,0 1,0 2,8 -1,-1 6,2 0,0 1,0 2,1 l 35,13 29,-62 c 7,-16 6,-7 15,-16 -6,-7 -211,-117 -224,-119 l -21,36 31,16 c -3,9 -2,1 -10,12 l -86,163 c -7,13 -25,50 -32,58 l -29,-11 -18,36 c 5,3 7,0 27,12 9,5 18,10 28,15 l 164,87 c 8,-5 22,-24 30,-33 z m -424,-419 v 0 c -9,6 -16,10 -23,14 l -135,82 c -7,-4 -22,-17 -29,-23 -27,-24 -17,-13 -29,-21 22,-47 48,-96 73,-144 l 57,-106 c 13,-26 9,-19 23,-31 -7,-14 -21,-19 -21,-19 l -4,-2 c 7,-13 17,-25 28,-32 1,0 120,93 127,107 l -8,4 c -9,5 -14,14 -20,22 -11,-6 -18,-17 -32,-20 -12,9 -110,157 -125,186 2,2 -4,3 8,3 7,0 41,-26 47,-30 16,-11 154,-113 161,-112 14,8 43,32 52,43 l -11,12 c -2,3 -5,10 -7,14 l -43,86 c -8,17 -54,104 -56,115 18,-1 19,-4 29,-13 l 152,-131 c -13,-19 -28,-23 -33,-27 5,-8 20,-26 28,-32 10,3 46,34 54,42 15,12 37,30 50,44 -1,0 -1,1 -2,1 0,0 -1,1 -2,1 l -26,24 c -23,-9 -15,-18 -40,0 l -175,122 c -95,62 -54,56 -115,12 l -15,-9 c 13,-33 26,-65 40,-96 7,-16 13,-32 20,-47 7,-15 10,-28 18,-35 6,-6 4,0 6,-6 -9,-10 -14,-4 -24,2 z m 728,424 v 0 c -15,17 -18,37 -46,37 4,-18 8,-26 16,-42 11,-23 31,-95 45,-114 l 32,10 c 7,-12 17,-39 23,-53 6,-14 11,-47 27,-50 -6,-13 -99,-43 -127,-56 l -87,-34 c -14,-6 -26,-13 -39,-20 -33,-15 -71,-32 -100,-53 -10,-7 -7,-5 -20,-9 -29,-9 -96,-59 -120,-63 -19,-3 -9,6 -25,-7 l -49,-39 c -53,-38 -32,-56 -67,-33 -21,-15 -51,-45 -75,-55 -6,-3 -8,1 -10,-4 0,-1 -2,-1 -2,-1 4,-6 5,-9 10,-13 l 11,-8 c -23,-26 -61,-52 -88,-76 -16,-14 -21,-12 -53,-43 -57,-56 -51,-36 -85,4 l -45,51 c 11,10 23,11 30,27 -20,14 -13,13 -23,34 -6,11 -13,22 -19,35 l -28,54 c -5,10 -8,11 -11,16 -2,5 -5,13 -9,21 l -62,124 c 13,9 14,8 27,20 21,20 59,49 82,62 l 44,-25 c 14,-9 30,-22 47,-25 -4,27 -18,14 -25,49 -3,18 -10,34 -18,50 l 3,2 c 0,0 1,1 2,1 0,0 1,1 2,1 0,0 1,1 2,1 2,2 4,3 6,4 29,21 52,44 81,64 5,3 8,7 15,10 14,-6 25,-16 38,-24 l 216,-151 c 17,-13 27,-14 46,-6 -8,17 -21,16 -29,50 -33,-2 -15,-14 -32,-16 -4,7 5,-2 -3,3 8,38 25,26 4,68 l -33,60 c -18,0 -9,-8 -29,-7 -6,6 -55,96 -56,104 23,2 118,58 146,73 26,15 47,24 72,38 12,7 60,36 71,37 l 81,-94 c 12,-16 8,-17 28,-27 -6,-8 -13,-12 -21,-18 -4,-4 -7,-6 -11,-10 l -11,-9 c 13,-26 28,-49 40,-76 14,1 16,5 27,8 8,-13 15,-26 21,-40 10,0 13,2 21,6 0,1 0,2 -1,2 l -1,4 c -2,4 0,0 -3,5 -22,33 -43,133 -67,163 -15,-3 -7,-6 -25,-3 -14,28 -43,83 -48,111 29,0 150,55 192,69 31,10 83,39 113,42 8,-14 26,-46 38,-54 -1,9 -19,55 -24,65 0,0 1,1 2,1 l 13,5 c 4,1 8,2 14,4 11,3 22,6 32,9 42,13 83,26 125,35 30,6 41,8 71,9 55,2 86,-12 122,-38 27,-19 39,-35 58,-62 16,-23 2,-17 20,-22 0,19 -6,37 -9,56 l -27,-1 c -13,15 -13,35 -19,58 -4,18 -12,43 -14,60 15,0 39,6 54,10 l 156,34 c 22,4 24,8 52,12 l 164,26 c 3,-5 1,0 3,-7 1,-2 1,-3 1,-4 l 5,-32 c 2,-12 5,-30 8,-41 7,7 26,40 31,51 7,14 20,39 30,50 27,0 51,7 84,2 55,-8 34,-13 56,-126 3,-18 8,-63 13,-77 9,4 4,3 3,13 -5,39 2,85 21,117 l 33,47 c 38,44 113,64 172,67 61,3 85,-8 134,-22 6,-25 3,-68 9,-88 2,-7 -7,-6 9,-8 2,0 11,1 15,1 l 3,-16 10,-1 c -1,-24 4,-43 6,-62 4,-54 1,-35 -21,-45 v -29 l -6,-5 c 9,-7 11,0 10,-29 0,-12 -3,-26 -2,-37 2,-22 9,-53 -6,-65 -13,-10 -97,-36 -121,-35 -26,1 -49,2 -75,5 -42,5 -99,34 -128,64 -17,17 -11,9 -19,13 l -6,18 c -3,-8 11,-69 14,-85 2,-11 -1,-3 5,-11 9,-11 5,10 7,-12 -14,-8 -50,-11 -71,-12 -21,-1 -50,-7 -71,-11 -48,-8 -79,-26 -79,27 0,14 1,24 -8,34 -3,-9 -8,-18 -11,-26 -22,-51 -14,-53 -53,-59 -44,-7 -79,-11 -124,-23 -37,-9 -83,-12 -121,-26 -14,-5 -18,-3 -31,-6 -22,-6 -39,-14 -61,-12 -25,3 -1,-8 -25,-6 -5,10 -9,20 -10,31 13,7 9,8 27,7 -1,11 -2,27 -9,36 -22,-35 -25,-50 -57,-72 -24,-16 -54,-35 -84,-45 -32,-11 -169,-53 -202,-52 -11,26 -29,81 -35,109 l 16,7 c 5,2 14,4 20,6 -1,16 -8,10 -14,30 -3,10 -6,20 -9,31 l -17,58 c -3,4 -2,3 -4,6 -18,-6 -35,-27 -51,-36 -14,-8 -39,-27 -57,-27 z"
     class="fil1" /><path
     style="fill:#000000;fill-opacity:1"
     inkscape:connector-curvature="0"
     id="path5208"
     d="m 7477,3246 c 1,1 3,2 4,3 l 4,4 c 6,4 -3,8 22,-2 7,-3 8,-3 17,-5 -7,39 -33,79 -38,100 -3,12 -7,22 -10,35 -13,-2 -16,-4 -27,-8 l -18,-5 c -5,-3 -3,-1 -6,-5 8,-23 3,13 13,-35 -32,-2 -137,5 -142,-21 3,-22 2,1 8,-15 1,-3 3,-14 4,-18 10,-33 16,-38 24,-68 3,-12 6,-25 12,-33 10,2 18,7 28,9 13,3 20,3 33,6 12,3 48,15 62,14 l 11,14 c 0,0 1,1 2,2 l -1,28 z m 145,229 v 0 c 6,-14 1,17 20,-34 22,-58 93,-231 105,-270 -23,2 -114,-21 -144,-29 -17,-5 -29,-10 -49,-13 -5,12 -16,46 -26,54 l -7,6 c 1,1 1,1 2,1 15,11 47,19 57,25 -4,17 -78,206 -84,213 -17,3 -32,-9 -48,-10 -6,10 -9,20 -13,30 -10,25 -9,15 -19,26 l 8,6 c 3,2 5,2 8,3 42,16 201,78 215,80 l 25,-64 -27,-9 c -8,-4 -20,-7 -24,-15 z m 16,-452 v 0 c 3,-3 0,0 4,-3 3,-2 1,0 5,-3 1,-82 92,-85 128,-41 18,22 9,29 18,47 15,31 -33,73 -78,71 -42,-2 -73,-33 -77,-72 z m -758,28 v 0 c 11,7 18,5 27,-6 16,-21 43,-52 62,-66 30,-23 56,-24 96,-6 10,5 20,13 29,8 -1,30 -43,107 -66,117 -20,-6 -50,-25 -74,-18 -21,6 -42,30 -53,43 -43,49 -34,86 -47,121 -6,18 -6,1 -9,14 8,8 40,13 56,17 l 22,7 -13,62 -261,-48 c 7,-17 12,1 21,-62 14,-2 31,5 42,0 12,-7 22,-88 28,-113 4,-18 22,-108 22,-118 -21,1 -39,-7 -58,-10 6,-21 8,-1 13,-32 1,-8 5,-25 8,-32 l 171,7 -9,91 c -4,24 -11,4 -8,23 z m -657,-117 v 0 l 7,-3 c 5,-2 2,0 8,-3 l 46,-26 c 119,-57 264,-43 277,91 2,23 8,7 5,42 l -17,152 c -6,18 -7,-4 -8,15 7,12 30,9 45,10 3,3 1,-1 5,7 l 1,6 c 0,0 0,1 -1,1 -2,6 -6,1 -2,18 v 10 c 0,12 5,20 -9,25 l -40,4 c -140,5 -96,-9 -131,-46 -16,1 -50,16 -73,20 -25,5 -59,9 -84,1 -42,-15 -80,-51 -86,-101 0,0 1,-2 2,-1 l 4,-3 c 4,-5 2,0 3,-9 11,-57 58,-86 112,-100 62,-17 104,2 143,-2 6,-11 6,-20 5,-37 -3,-11 -3,7 -14,-18 -28,-64 -137,1 -162,9 -10,-16 -30,-45 -37,-63 z m 1101,107 v 0 c 2,-8 4,-1 10,-11 2,-3 4,-11 5,-16 l 28,-96 c -19,5 -48,7 -70,8 -70,4 -65,0 -75,27 -29,83 -14,49 -86,50 -3,10 -7,22 -10,33 -7,25 -5,12 -17,26 11,9 56,17 69,17 -1,13 -12,48 -17,65 l -48,180 c -3,10 -7,7 -7,12 4,24 24,51 36,61 23,18 36,20 66,27 37,9 136,22 172,12 l 7,-70 c -8,4 -1,3 -7,3 l -79,-11 c -28,-6 -51,-20 -49,-54 13,-4 9,-1 13,-18 13,-52 35,-122 44,-166 l 132,35 c 5,-25 19,-50 21,-76 -17,2 -59,-11 -73,-15 -25,-8 -58,-11 -66,-22 z M 5402,2662 v 0 h 208 l 17,44 c 6,16 10,30 16,46 15,41 89,259 98,276 l 16,1 c 14,-20 124,-351 134,-367 h 192 c 0,14 -2,50 2,60 3,10 5,4 5,13 -19,3 -41,0 -55,7 l 3,423 c 2,0 37,5 48,6 1,13 1,24 1,37 0,21 5,13 8,31 h -241 c 3,-21 9,-7 9,-31 0,-13 0,-24 1,-37 72,-9 50,23 52,-145 0,-22 4,-31 -6,-39 0,0 -1,-1 -2,-1 8,-7 6,-2 7,-16 1,-22 -3,-24 -3,-29 -1,-8 8,-10 0,-41 -2,-9 15,-41 -11,-46 l -104,266 c -9,23 -27,67 -38,85 -21,1 -58,4 -78,1 -17,-26 -133,-340 -133,-362 h -20 l -3,174 c 0,20 -1,12 7,18 l -8,5 -1,121 c 12,8 43,7 61,7 1,13 1,25 0,38 -1,27 4,11 8,30 l -209,1 c 3,-22 9,-5 9,-31 0,-13 0,-24 1,-37 17,-2 34,-1 46,-7 5,-14 8,-384 8,-425 l -58,-4 c 7,-28 7,19 10,-72 z m -7,117 v 0 c 1,16 3,30 2,45 -2,48 2,46 2,57 l -2,11 c -2,12 1,25 1,37 0,10 -2,10 -3,21 -3,31 1,61 1,91 0,15 0,31 -1,46 -2,33 6,23 7,40 l -56,6 c 1,12 2,5 3,8 0,0 0,1 0,2 0,0 0,1 0,1 0,12 -4,26 -3,42 l -2,15 c -5,22 -5,65 6,79 49,1 93,2 139,1 151,-4 149,27 150,-65 9,12 2,22 13,30 l 9,3 c 4,0 9,0 13,-1 24,-2 55,0 77,1 61,1 36,-17 59,-46 l 3,74 c 17,8 134,6 158,4 27,-2 58,-1 85,-1 21,0 64,7 77,-3 l 3,-64 c 16,11 28,61 96,85 30,10 51,7 83,7 25,0 49,-13 75,-16 5,4 5,4 10,11 10,14 14,20 35,23 36,6 79,2 116,2 16,0 46,15 61,21 8,4 21,3 25,11 4,-6 0,-11 0,-21 38,5 96,20 114,21 12,1 25,4 38,7 l 150,30 c 11,-19 12,-46 17,-70 6,-26 15,-46 15,-74 -18,-5 -67,-14 -78,-21 9,-16 9,1 15,-28 6,-28 38,-75 58,-79 15,-2 51,21 67,21 5,0 8,-3 13,-6 3,-2 4,-2 7,-3 l 9,-5 c 8,-7 11,-18 21,-25 15,-1 23,10 41,4 -11,62 -38,125 -52,192 l -6,13 c -8,12 -14,9 -14,26 l -13,1 c 9,12 19,-7 33,28 11,27 28,51 52,68 l 41,20 c 66,17 143,34 213,19 -1,18 -5,14 -14,22 4,8 6,7 15,10 10,4 10,4 18,9 l 97,37 c 21,4 39,13 60,19 18,5 25,13 38,17 14,5 24,7 40,13 10,4 30,13 39,12 10,-13 10,-22 17,-38 12,-28 29,9 25,-17 -3,-24 -15,-4 -2,-40 5,-14 10,-27 15,-42 l -39,-15 c -14,-6 -8,-2 -13,-12 18,-5 24,-38 35,-66 13,-32 44,-120 59,-148 12,-24 27,-50 27,-78 -12,-7 -3,1 -13,-9 -5,-5 -4,-5 -12,-9 -10,-5 -24,-9 -32,-13 27,-4 29,1 50,-12 34,-21 60,-62 51,-104 -1,-6 -1,4 -1,-5 v -8 c -7,0 0,1 -6,-1 -10,-35 -17,-50 -44,-66 -24,-14 -50,-28 -86,-27 -47,2 -81,31 -95,70 -2,7 -5,14 -6,21 -1,4 -1,8 -3,11 -1,2 -23,19 12,72 9,14 10,3 14,21 -30,-1 -67,-19 -96,-23 -7,21 -20,44 -27,64 -6,16 -16,57 -29,66 -4,-6 -4,-12 -1,-21 3,-7 5,-12 8,-19 2,-7 4,-12 7,-18 3,-8 6,-11 9,-18 l 20,-81 c -36,-1 -106,-26 -142,-33 6,-19 12,-4 23,-46 4,-16 12,-37 13,-53 -3,-5 -2,-2 -4,-4 -4,-5 1,2 -4,-5 -2,-4 -3,-7 -5,-11 -4,-7 -11,-12 -19,-16 -24,-10 -166,5 -180,14 -14,18 -13,47 -27,66 -66,-5 -70,-28 -117,-39 -52,-13 -89,3 -119,25 4,-16 10,-12 2,-26 -6,-10 -10,-17 -18,-22 -15,-9 -51,-7 -70,-9 -24,-2 -52,-3 -76,-4 -24,-1 -58,-5 -80,-4 -4,23 -22,112 -32,128 -5,8 -2,-4 -5,9 9,11 15,7 32,10 6,1 11,3 16,4 13,3 -12,-2 5,0 5,1 3,-1 6,2 l -30,148 c -3,8 -1,3 -3,6 l -43,-4 c 0,-7 2,-10 1,-13 l -52,-3 c 1,-18 5,-8 9,-17 8,-16 8,-88 14,-113 10,-43 4,-37 -4,-61 -21,-61 -33,-100 -96,-132 -55,-28 -131,-25 -191,-6 -52,16 -84,44 -112,56 l -39,19 c 6,19 22,35 28,52 6,17 -14,43 -17,61 21,0 29,-25 47,-12 -8,17 -80,37 -89,112 l -58,-8 c 3,-21 6,-3 9,-19 1,-6 0,-22 0,-29 2,-27 5,-25 0,-54 -2,-12 0,-44 0,-59 0,-10 1,-20 1,-30 0,-16 4,-20 -9,-21 6,-23 -7,17 3,-6 7,-16 2,-41 3,-59 2,-25 -1,-45 1,-71 56,0 45,-5 47,-58 1,-33 5,-66 1,-100 -29,-4 -245,-4 -277,-2 l -55,151 c -9,24 -18,50 -27,77 l -28,76 -53,-153 c -20,-51 -35,-102 -55,-151 l -291,-1 c 2,42 -1,25 -2,48 l 2,51 c 2,10 -7,35 -2,50 3,9 10,8 20,9 11,1 17,2 26,2 z"
     class="fil1" /><path
     style="fill:#000000;fill-opacity:1"
     inkscape:connector-curvature="0"
     id="path5210"
     d="m 6412,6128 c 1,-101 85,-172 189,-173 60,-1 99,24 125,57 20,26 35,62 39,97 7,59 -3,10 -8,55 -1,7 -1,13 -2,20 -26,145 -209,168 -278,101 -8,-8 -14,-13 -20,-22 -19,-28 -33,-62 -37,-100 -5,-53 -7,-9 -8,-34 z m -344,24 v 0 c 3,-32 24,-69 44,-93 47,-56 131,-76 206,-68 16,2 15,3 17,17 l 12,90 -23,7 c -9,2 -16,4 -25,4 -11,-18 -9,-49 -26,-60 -43,-27 -122,27 -118,124 l 2,11 c 0,1 1,1 1,2 8,19 8,32 16,53 34,100 150,45 180,40 l 10,43 c 0,0 -1,0 -1,0 l -44,16 c -17,6 -30,10 -53,13 -75,11 -149,-14 -179,-84 -19,-44 -12,-69 -10,-117 -6,-3 -1,3 -7,0 z m 992,-48 v 0 c 6,-11 26,-230 28,-235 5,-10 117,-31 125,-30 l 8,47 c -7,-7 -25,1 -33,6 5,13 2,-3 9,13 8,19 48,229 56,237 4,3 1,1 7,2 l 22,-2 8,42 c -13,-6 -50,8 -66,11 -20,4 -44,11 -67,14 -7,-33 -7,-19 -16,-32 l 6,-5 c 9,-6 22,-6 32,-6 -1,-19 -39,-171 -46,-188 -16,-2 -18,2 -20,16 -3,30 -2,32 -10,60 -3,10 -1,22 -3,33 l -21,117 c -8,4 -23,8 -35,8 l -104,-155 c -23,-36 -19,-45 -40,-35 2,8 5,3 10,20 2,8 3,15 5,24 7,34 22,122 31,145 h 19 c 8,-1 10,-2 19,-2 l 7,35 c -15,8 -104,26 -113,27 -3,-7 -3,-14 -6,-20 -3,-7 -7,-7 -11,-12 8,-8 25,-10 37,-9 -1,-16 -54,-248 -60,-259 l -29,2 c -6,-43 -10,-25 -16,-41 22,-6 45,-10 69,-15 14,-3 49,-15 67,-13 24,44 67,106 95,152 7,11 24,43 34,47 z m 215,-288 v 0 c 7,17 6,1 12,17 3,8 2,11 8,19 13,-1 14,-5 29,-2 l 87,252 c -15,0 -25,2 -33,10 3,5 9,6 13,14 3,6 3,13 6,19 11,-4 24,-9 36,-13 l 114,-39 -11,-35 -48,12 c -9,-14 -13,-40 -20,-57 l -5,-8 c -6,-8 -2,4 -5,-8 7,-8 39,-14 63,-29 67,-42 56,-89 60,-102 5,-19 7,8 7,-17 1,-24 -21,-52 -32,-63 -72,-71 -171,-4 -281,29 z m 352,95 v 0 c 1,-27 8,-27 2,-62 -5,-27 -3,-28 -14,-52 -21,-45 -16,-29 -47,-54 -8,-6 -9,-9 -18,-14 -68,-36 -149,-3 -215,22 -31,11 -64,23 -97,36 -34,13 -71,18 -107,26 -19,4 -35,9 -53,14 -30,7 -31,-1 -32,34 l -15,120 -38,-62 c -15,-21 -27,-42 -41,-61 -53,5 -104,25 -156,35 -14,3 -39,4 -47,14 3,11 6,-4 11,22 6,28 15,58 17,86 l -8,-15 c -4,-9 -9,-15 -15,-22 -16,-18 -28,-28 -55,-42 -41,-20 -85,-23 -131,-20 -14,1 -20,5 -33,8 -10,3 -19,6 -28,9 -55,22 -93,59 -119,114 -7,-9 -6,-27 -8,-38 -8,-41 3,-44 -34,-54 -12,-3 -23,-7 -35,-6 -70,2 -92,-2 -149,24 -78,36 -136,118 -142,204 6,4 5,-2 9,0 0,80 15,127 72,175 53,45 123,48 192,36 56,-10 100,-41 124,-37 -5,-24 -12,-42 -14,-68 0,-7 -3,-8 -6,-13 -8,-14 -11,-34 -16,-48 -16,0 -59,23 -80,30 -7,2 -39,4 -48,3 -33,-3 -41,-35 -44,-63 -1,-11 -2,-10 0,-23 2,-19 -2,-10 -4,-21 -2,-10 6,-65 43,-66 1,15 15,57 20,71 20,-3 92,-20 108,-20 -4,17 -6,9 -9,21 l 10,5 c 3,38 18,91 42,119 9,11 14,17 24,27 96,99 290,51 343,-73 3,-7 13,-37 15,-39 l 5,-4 c 0,0 4,-7 4,-8 5,-18 -1,-28 19,-19 4,2 10,4 12,6 6,6 7,20 8,30 -13,-4 -25,1 -34,11 0,0 1,1 1,1 8,6 9,13 11,23 6,31 10,54 19,86 42,-9 160,-42 192,-42 -1,-8 -3,-13 -3,-23 10,-3 78,-20 85,-20 l 3,20 c 14,-1 44,-10 57,-13 18,-5 35,-7 55,-12 24,-6 86,-23 109,-21 -1,-12 -5,-18 -8,-30 -3,-12 -1,-16 -4,-29 l -10,-44 c -5,-20 -14,-13 -34,-13 l -37,-162 c -7,-14 -6,2 -13,-18 29,-5 18,-6 27,-12 4,-3 23,-7 31,-7 7,26 57,161 61,182 -12,-3 -20,3 -28,9 1,7 1,2 4,6 12,18 18,51 28,75 2,6 5,22 8,29 39,-5 197,-74 236,-75 -10,-27 -27,-99 -40,-115 -11,0 -20,5 -29,9 -7,3 -13,7 -19,6 -8,-1 0,2 -6,-2 41,-22 74,-39 97,-79 5,-8 5,-11 9,-21 4,-10 6,-7 12,-9 z"
     class="fil1" /><path
     style="fill:#000000;fill-opacity:1"
     inkscape:connector-curvature="0"
     id="path5212"
     d="m 4047,3234 c -23,8 -53,5 -71,22 -16,15 -19,45 -27,69 -5,14 -19,15 1,76 33,97 14,68 96,48 5,13 13,43 23,52 l 7,8 c -45,12 -196,80 -245,94 -3,-3 -1,1 -5,-7 -1,-1 -2,-5 -3,-7 l -17,-48 c 7,-4 37,-12 46,-24 -5,-13 1,4 -9,-9 l -16,-40 c -7,-19 -14,-36 -21,-54 -13,-34 -33,-79 -42,-111 -16,1 -34,11 -48,14 -9,-8 -20,-40 -25,-62 1,0 2,-2 2,-1 2,4 137,-78 152,-80 11,18 34,76 48,99 h 16 c 22,-39 -1,-125 65,-152 17,-7 41,-12 61,-13 5,28 9,35 11,69 l 2,13 c 0,1 0,1 1,2 0,0 0,1 1,2 v 4 c 0,0 0,1 0,1 0,7 9,14 -1,37 z m 216,43 v 0 c 49,134 201,13 231,6 4,11 10,21 16,31 16,31 10,12 20,25 -25,27 -98,65 -141,81 -58,22 -135,22 -188,-6 -39,-20 -80,-75 -86,-139 -2,-25 2,-9 5,-18 0,-1 0,-20 0,-25 2,-108 73,-187 183,-209 65,-13 118,16 152,68 14,23 18,34 26,57 7,20 10,2 10,19 0,9 -15,31 -19,38 -10,16 -11,16 -33,23 -30,10 -162,43 -175,49 z m 404,-545 v 0 c 10,4 86,-22 100,-27 17,-5 90,-24 99,-30 17,123 47,279 70,408 4,22 8,46 12,69 17,93 12,57 62,55 2,10 5,25 6,35 3,22 2,15 10,24 l 2,3 c -14,10 -129,51 -151,42 -17,-7 -21,-25 -37,-31 -18,8 -41,30 -79,50 -32,16 -73,19 -109,7 -57,-18 -107,-77 -117,-146 -2,-17 -1,-20 1,-30 4,-24 3,-54 9,-79 9,-33 26,-69 42,-89 16,-20 46,-44 78,-54 32,-10 56,-10 89,-8 13,1 19,1 23,-11 -6,-13 -6,16 -20,-59 -3,-14 -9,-61 -14,-70 l -66,9 -11,-69 z m -49,-28 v 0 c 0,23 20,123 28,141 18,4 44,-5 64,-5 10,18 -4,7 16,42 l 2,4 c -25,9 -55,4 -88,18 -24,10 -52,28 -67,41 -33,28 -44,59 -58,99 -5,13 -8,34 -14,41 l -36,-50 c -53,-66 -176,-72 -255,-24 -12,7 -15,9 -26,17 -10,8 -28,18 -36,28 -5,6 -4,6 -9,13 -14,16 -24,31 -35,51 -11,22 -1,23 -18,33 -6,-33 -10,-57 -21,-88 -101,0 -145,15 -176,94 -16,-11 -13,-42 -60,-28 -11,3 -19,12 -31,18 -11,6 -23,12 -33,17 -42,22 -79,45 -123,64 l -6,3 c 11,27 45,122 54,136 23,2 27,-12 49,-14 l 28,72 c 6,16 16,49 26,62 0,1 2,3 2,3 4,7 0,-5 3,6 -10,10 -31,17 -46,18 2,20 17,51 26,72 40,96 8,72 112,39 18,-6 24,-10 39,-18 l 81,-32 c 9,-4 10,-3 21,-5 11,-2 10,-5 20,-10 19,-9 67,-21 75,-35 -13,-4 -6,7 -18,-26 -5,-13 -8,-24 -12,-36 l -25,-69 c -27,6 -46,20 -73,24 -2,-21 -15,-36 -16,-64 2,-8 8,-2 12,-30 5,-43 6,-44 76,-53 4,49 33,116 68,144 40,33 77,59 150,60 l 72,-4 c 5,-1 12,-5 21,-8 77,-24 113,-45 175,-92 14,-10 16,-12 27,-26 6,8 41,24 56,30 46,17 99,11 144,-10 20,-9 34,-25 56,-33 21,13 23,23 56,21 18,-1 49,-11 67,-16 33,-10 97,-27 113,-50 -3,-13 -7,4 -13,-27 -2,-12 -4,-24 -6,-36 -3,-16 -10,-55 -15,-68 -16,-1 -33,10 -49,6 -2,-26 -13,-74 -17,-103 l -52,-314 c -24,-133 -2,-136 -211,-70 l -95,29 z"
     class="fil1" /><path
     style="fill:#0c0d0d;fill-opacity:1"
     inkscape:connector-curvature="0"
     id="path5214"
     d="m 7671,5670 c 12,-9 56,-30 72,-31 l 205,226 c 22,24 11,11 40,8 l 17,35 c -1,0 -2,0 -2,1 0,1 -1,1 -2,1 -23,7 -116,49 -127,56 -4,-5 -6,-12 -9,-16 -8,-15 -4,-5 -15,-15 11,-12 22,-9 32,-16 -3,-9 -22,-30 -30,-35 -10,-3 -67,24 -81,31 l -24,18 c 12,18 6,13 11,38 l 29,-9 16,38 c -3,2 -11,1 -29,10 -9,4 -17,8 -28,12 -11,5 -17,8 -28,12 -8,3 -18,9 -27,12 -12,-18 -1,-14 -20,-30 0,0 -1,-1 -2,-1 12,-12 21,-9 31,-16 l -20,-314 -9,-16 z m 513,-238 v 0 c 3,-4 5,-7 10,-10 l 12,-7 c 0,-1 1,-1 3,-2 l -19,-33 c -18,2 -81,50 -111,66 l 27,33 29,-16 c 12,4 24,27 32,39 l 56,83 c 7,11 23,32 27,43 l -4,1 c -14,1 12,1 -4,0 -7,0 -170,-75 -176,-77 -106,-47 -82,-42 -137,-7 -14,9 -27,16 -38,27 3,4 9,6 14,13 4,5 7,11 10,17 13,-5 13,-10 28,-12 7,1 146,212 149,223 -1,0 -2,1 -2,1 -12,6 -20,6 -27,18 20,13 5,-5 25,29 28,-21 51,-33 77,-50 l 21,-11 c 5,-2 2,3 4,-1 0,-1 1,0 2,-1 l -22,-36 c -15,5 -21,16 -37,19 l -80,-127 c -4,-5 -3,-3 -7,-6 -6,-5 -4,1 -5,-5 2,-9 14,-6 22,-2 84,34 138,52 222,83 14,5 15,6 25,-1 1,0 2,-2 3,-3 26,-22 17,-19 38,-28 -3,-10 -70,-112 -82,-132 -14,-22 -27,-42 -41,-66 -7,-12 -14,-22 -21,-33 -17,-25 -3,-12 -23,-27 z m 184,-233 v 0 c 4,-10 76,-87 83,-91 10,4 27,22 33,30 -1,0 -2,1 -2,1 l -10,6 c -4,3 -5,6 -8,11 l 3,2 c 13,12 48,155 54,178 6,23 4,16 18,28 11,11 35,37 48,45 12,-4 20,-18 30,-26 l 31,32 c -1,0 -1,1 -2,1 l -16,10 c -5,5 -9,9 -14,15 -5,5 -9,9 -14,15 l -68,73 c -19,-17 -13,-21 -31,-21 2,-5 9,-13 12,-16 5,-5 3,-4 9,-7 l 9,-5 c -3,-10 -36,-37 -52,-51 -13,-13 -13,-12 -34,-17 -15,-3 -27,-7 -41,-10 -26,-7 -53,-13 -81,-21 -77,-21 -44,-17 -73,-4 -9,-5 -8,-6 -15,-12 -9,-8 -9,-4 -16,-10 8,-11 19,-20 28,-31 13,-16 75,-84 84,-89 10,4 12,8 18,15 6,7 9,9 13,16 -6,4 -12,-1 -25,24 22,9 125,44 141,46 -3,-21 -43,-119 -53,-131 -15,0 -17,9 -27,16 -17,-9 -4,-9 -32,-22 z m 143,-40 v 0 c 10,-5 7,-7 12,-14 10,-13 2,-4 17,-8 -3,-6 -79,-86 -89,-86 -13,0 -42,42 -50,52 l -76,77 c -5,6 -8,8 -13,14 -11,15 -23,24 -37,38 -23,24 -49,58 -72,81 -24,25 -62,43 -90,63 -10,7 -21,13 -31,20 -12,9 -15,14 -31,20 -18,8 -17,8 -28,21 6,5 4,0 10,7 l 19,30 c 8,15 19,27 24,43 -12,-5 -7,-5 -16,-11 -15,-11 -31,-14 -48,-22 -56,-24 -34,-11 -81,7 l -97,66 c 4,8 3,1 10,11 13,15 49,85 59,88 4,-6 16,-12 24,-14 9,7 91,133 104,158 l -9,4 c -19,7 -25,19 -49,25 -11,-13 -28,-26 -41,-41 -9,-10 -10,-14 -18,-22 -33,-34 -61,-71 -95,-105 -15,-15 -27,-25 -40,-43 -13,-17 -23,-35 -47,-24 -10,4 -18,7 -28,12 -10,4 -15,10 -26,15 -12,5 -16,8 -26,15 -9,5 -18,9 -26,13 l 4,6 c 0,0 1,1 1,2 4,8 23,297 21,321 -13,4 -27,9 -37,19 2,5 8,5 16,27 7,19 19,36 26,55 4,10 4,22 14,23 3,-3 0,0 5,-4 l 19,-8 c 88,-38 176,-81 265,-118 23,-10 77,-39 100,-38 -4,-20 -15,-38 -24,-56 -6,-13 -24,-41 -26,-54 11,6 26,36 33,47 10,16 18,30 30,45 16,-3 109,-70 132,-83 10,-6 21,-17 33,-20 l 11,-4 c -9,-18 -18,-42 -34,-53 -3,-2 -8,-5 -10,-6 -8,-9 -3,0 -6,-13 19,1 46,14 65,20 19,6 38,18 55,6 24,-16 46,-34 63,-57 2,-3 5,-7 8,-11 l 12,-7 -80,-127 c -11,-16 -60,-100 -71,-111 l -9,-7 c 0,0 -1,-1 -1,-2 0,0 -1,-1 -1,-2 0,-1 -1,-1 -1,-2 9,-7 3,-3 11,-6 9,-4 2,1 10,-5 6,-5 11,-11 15,-17 26,0 83,20 110,28 26,7 55,9 74,27 7,7 12,8 16,18 l -16,10 c -4,4 -7,9 -10,14 7,11 -11,-8 4,3 l 19,19 c 8,9 14,13 22,21 8,8 35,37 46,39 l 102,-111 c 15,-15 43,-49 60,-58 l 6,-3 c -7,-9 -13,-15 -21,-23 -8,-8 -12,-15 -20,-23 -61,-65 -52,-27 -78,-17 -27,-17 -25,-41 -34,-69 l -37,-113 c -4,-6 -4,0 -6,-11 z"
     class="fil1" /><path
     style="fill:#000000;fill-opacity:1"
     inkscape:connector-curvature="0"
     id="path5224"
     d="m 3467,3325 c 18,16 -8,-14 5,5 -10,10 -13,8 -25,11 l 16,42 c 4,6 0,0 5,5 5,4 1,0 4,4 -10,8 -19,15 -32,18 -4,-12 -19,-36 -28,-52 -9,-17 -19,-34 -28,-49 4,-5 8,-3 22,-10 9,-4 14,-8 24,-9 6,7 12,14 19,21 l 17,14 z m -345,3 v 0 c 4,15 26,54 35,62 l 43,-22 c 8,7 80,133 96,162 l 95,165 c 19,36 14,30 32,43 -4,9 -28,23 -38,29 l -7,4 c 7,13 23,49 35,60 13,-3 49,-27 64,-36 57,-32 116,-69 175,-101 15,-8 12,-6 16,-14 -17,-8 -13,-7 -22,-23 -6,-11 -12,-20 -15,-30 -21,4 -75,43 -87,39 -7,-5 -75,-125 -81,-139 10,-4 11,-2 24,-9 9,-5 14,-9 22,-13 11,-6 38,-21 51,-21 16,9 21,31 35,41 15,-5 61,-33 71,-43 -15,-13 -6,5 -28,-35 -7,-12 -14,-25 -22,-39 -14,-24 -29,-56 -45,-78 -10,2 -25,11 -34,16 l -34,18 c 9,33 11,31 21,37 -2,20 -34,34 -59,48 -41,23 -34,29 -58,-14 -13,-24 -27,-45 -40,-70 -10,-18 -34,-54 -39,-72 1,0 2,-2 2,-1 l 22,-11 c 9,-5 15,-8 24,-13 87,-45 59,-26 127,38 3,-1 63,-40 70,-54 -22,-8 -28,-30 -50,-60 -14,-20 -33,-45 -44,-65 -14,3 -152,87 -178,102 -30,17 -58,34 -88,51 -15,9 -29,17 -44,26 -14,9 -34,22 -48,22 z m -59,-16 v 0 l 48,89 c 29,51 21,52 72,25 8,12 13,26 22,37 10,13 16,23 24,38 12,22 35,52 43,77 4,12 12,17 23,36 9,15 54,97 63,105 l 8,8 c 0,1 1,2 2,2 l -48,25 58,102 c 9,18 3,23 21,32 13,2 147,-92 182,-105 26,-9 29,-20 60,-37 14,-8 27,-15 41,-23 14,-8 31,-14 41,-22 -3,-9 -4,-3 -11,-13 -3,-4 -6,-12 -10,-17 -8,-14 -11,-22 -18,-36 -10,-21 -30,-44 -38,-66 l -74,39 c -14,6 0,2 -15,5 -7,-24 -32,-48 -38,-74 12,1 9,1 20,7 0,0 12,6 16,7 30,14 12,30 45,18 l 102,-64 c 9,-5 13,-4 19,-11 -2,-6 -1,-2 -9,-10 -3,-4 -6,-8 -9,-12 l -102,-190 c 11,-4 18,-6 28,-20 0,0 -1,-1 -2,-1 -2,5 -30,-41 -34,-46 -15,-20 -91,-139 -104,-147 -9,4 -16,10 -24,15 l -81,45 c -8,5 -16,12 -24,16 -10,6 -18,10 -27,15 -5,3 -9,6 -13,8 l -147,83 c -24,14 -62,40 -93,55 -8,4 -10,2 -16,5 z"
     class="fil1" /><path
     style="fill:none;stroke:#000000;stroke-width:41.66540146;stroke-opacity:1"
     inkscape:connector-curvature="0"
     id="path5284"
     d="m 4181,6101 c 1,0 2,0 2,1 l 23,11 c 72,17 110,-38 129,-98 4,-14 4,-18 11,-23 l 3,-2 c 2,-34 9,-77 -24,-115 -11,-13 -23,-22 -44,-29 -30,-10 -28,6 -35,30 -7,26 -64,207 -66,223 z"
     class="fil0 str0" /><path
     style="fill:#000000;fill-opacity:1"
     inkscape:connector-curvature="0"
     id="path5288"
     d="m 4674,3124 c 9,56 22,115 75,123 29,5 83,-28 76,-40 -5,-8 -4,6 -9,-15 -3,-14 -4,-26 -7,-41 -5,-30 -10,-57 -15,-87 -9,-55 3,-58 -41,-59 -35,-1 -56,12 -65,36 -5,14 -3,16 -11,29 -9,15 -6,31 -3,54 z"
     class="fil3" /><path
     style="fill:#fefefe"
     inkscape:connector-curvature="0"
     id="path5290"
     d="m 7478,3217 c 0,0 -1,-1 -2,-2 l -11,-14 c -14,1 -50,-11 -62,-14 -13,-4 -20,-4 -33,-6 -10,-2 -18,-6 -28,-9 -6,8 -9,21 -12,33 -8,29 -15,34 -24,68 -1,4 -3,15 -4,18 -5,16 -4,-8 -8,15 5,26 110,19 142,21 -10,49 -5,12 -13,35 3,3 1,2 6,5 l 18,5 c 11,3 14,6 27,8 4,-13 7,-23 10,-35 5,-21 31,-61 38,-100 -8,2 -9,2 -17,5 -24,10 -16,6 -22,2 l -4,-4 c -1,-1 -3,-2 -4,-3 l 1,-28 z"
     class="fil0" /><path
     style="fill:#282929"
     inkscape:connector-curvature="0"
     id="path5292"
     d="m 6612,6236 c -31,2 -29,-7 -39,-29 -8,-19 -10,-32 -15,-54 -4,-18 2,-47 -4,-65 0,0 -8,-9 -1,-28 8,-19 33,-39 55,8 7,15 24,65 18,83 -4,12 -3,-6 -4,12 0,6 12,41 -10,73 z m 63,-24 v 0 c 2,-75 -9,-138 -43,-186 -54,-75 -139,8 -128,66 3,17 1,-4 4,12 1,4 1,8 1,12 12,197 121,177 146,130 13,-24 2,-25 20,-36 z"
     class="fil1" /><path
     style="fill:#fefefe"
     inkscape:connector-curvature="0"
     id="path5310"
     d="m 6612,6236 c 22,-32 10,-67 10,-73 0,-18 0,1 4,-12 6,-18 -11,-68 -18,-83 -22,-48 -47,-28 -55,-8 -7,18 1,28 1,28 6,19 0,47 4,65 5,22 7,36 15,54 10,22 8,31 39,29 z"
     class="fil0" /><path
     style="fill:#000000;fill-opacity:1"
     inkscape:connector-curvature="0"
     id="path5312"
     d="m 7396,5818 c 5,13 4,-6 16,29 l 35,105 c 15,0 29,-6 38,-14 7,-6 7,-5 12,-15 7,-12 5,-7 13,-13 6,-68 -53,-135 -114,-94 z"
     class="fil1" /><path
     style="fill:#282929"
     inkscape:connector-curvature="0"
     id="path5314"
     d="m 4235,3151 c -1,21 2,44 12,58 10,2 115,-22 114,-37 0,-12 -2,2 -10,-16 -3,-6 -5,-14 -7,-19 -25,-58 -74,-46 -90,-19 -14,24 2,18 -19,33 z"
     class="fil1" /><path
     style="fill:#000000;fill-opacity:1"
     inkscape:connector-curvature="0"
     id="path5316"
     d="m 6304,3145 c 1,68 111,47 118,20 3,-13 5,-46 7,-60 -34,-1 -87,-20 -113,28 -6,11 -3,6 -12,12 z"
     class="fil1" /><path
     style="fill:#000000;fill-opacity:1"
     inkscape:connector-curvature="0"
     id="path5320"
     d="m 7723,5750 c 1,20 3,-6 8,29 l 11,94 c 3,14 8,9 40,-6 32,-14 14,-7 40,-14 l -67,-86 c -6,-6 -19,-27 -31,-18 z"
     class="fil1" /><path
     style="fill:#fefefe"
     inkscape:connector-curvature="0"
     id="path5322"
     d="m 3384,3309 c 9,16 19,32 28,49 9,16 24,39 28,52 13,-3 22,-10 32,-18 -3,-4 1,1 -4,-4 -6,-5 -1,0 -5,-5 l -16,-42 c 12,-3 15,0 25,-11 -13,-19 13,10 -5,-5 l -17,-14 c -7,-7 -13,-14 -19,-21 -10,2 -15,5 -24,9 -14,7 -18,5 -22,10 z"
     class="fil0" /><circle
     style="fill:none;fill-opacity:1;stroke:#000000;stroke-width:38.19445038;stroke-linecap:round;stroke-linejoin:round;stroke-miterlimit:4;stroke-dasharray:none;stroke-opacity:1"
     id="path5961"
     cx="5735.4917"
     cy="6229.1855"
     r="95.486107" /></svg>