<?xml version="1.0" encoding="UTF-8"?>
<!DOCTYPE svg PUBLIC "-//W3C//DTD SVG 1.1//EN" "http://www.w3.org/Graphics/SVG/1.1/DTD/svg11.dtd">
<!-- Creator: CorelDRAW X6 -->
<svg xmlns="http://www.w3.org/2000/svg" xml:space="preserve" width="8.5in" height="11in" version="1.1" style="shape-rendering:geometricPrecision; text-rendering:geometricPrecision; image-rendering:optimizeQuality; fill-rule:evenodd; clip-rule:evenodd"
viewBox="0 0 8500 11000"
 xmlns:xlink="http://www.w3.org/1999/xlink">
 <defs>
  <style type="text/css">
   <![CDATA[
    .str0 {stroke:#282929;stroke-width:27.7795}
    .str1 {stroke:#282929;stroke-width:28}
    .str2 {stroke:#373435;stroke-width:28}
    .fil0 {fill:#373435}
    .fil1 {fill:#FEFEFE}
   ]]>
  </style>
 </defs>
 <g id="__x0023_Layer_x0020_1">
  <metadata id="CorelCorpID_0Corel-Layer"/>
  <path class="fil0" d="M3298 5395l37 -44c55,50 108,75 181,75 71,0 118,-38 118,-90l0 -2c0,-49 -26,-77 -137,-100 -121,-26 -177,-66 -177,-152l0 -2c0,-83 73,-144 173,-144 77,0 132,22 185,65l-35 46c-49,-40 -98,-57 -152,-57 -69,0 -112,38 -112,85l0 2c0,50 27,78 143,103 118,26 172,69 172,149l0 2c0,90 -75,149 -180,149 -84,0 -152,-28 -216,-84z"/>
  <path class="fil0" d="M4268 5210l0 -2c0,-120 -87,-218 -208,-218 -121,0 -207,96 -207,216l0 1c0,120 87,218 208,218 121,0 207,-96 207,-216zm-476 0l0 0 0 -2c0,-145 109,-273 270,-273 161,0 268,126 268,271l0 1c0,145 -109,273 -270,273 -161,0 -268,-126 -268,-271z"/>
  <polygon class="fil0" points="4456,4945 4515,4945 4515,5417 4812,5417 4812,5472 4456,5472 "/>
  <path class="fil0" d="M4899 5251l0 -307 60 0 0 303c0,114 60,178 161,178 97,0 159,-59 159,-174l0 -307 60 0 0 302c0,154 -88,234 -220,234 -130,0 -219,-80 -219,-229z"/>
  <polygon class="fil0" points="5619,5000 5442,5000 5442,4945 5856,4945 5856,5000 5679,5000 5679,5472 5619,5472 "/>
  <polygon class="fil0" points="5973,4945 6032,4945 6032,5472 5973,5472 "/>
  <path class="fil0" d="M6640 5210l0 -2c0,-120 -87,-218 -208,-218 -121,0 -206,96 -206,216l0 1c0,120 87,218 208,218 121,0 207,-96 207,-216zm-476 0l0 0 0 -2c0,-145 109,-273 270,-273 161,0 268,126 268,271l0 1c0,145 -109,273 -270,273 -161,0 -268,-126 -268,-271z"/>
  <polygon class="fil0" points="6828,4945 6883,4945 7216,5368 7216,4945 7274,4945 7274,5472 7226,5472 6886,5040 6886,5472 6828,5472 "/>
  <path class="fil0" d="M7388 5395l37 -44c55,50 108,75 181,75 71,0 118,-38 118,-90l0 -2c0,-49 -26,-77 -137,-100 -121,-26 -177,-66 -177,-152l0 -2c0,-83 73,-144 173,-144 77,0 132,22 185,65l-35 46c-49,-40 -98,-57 -152,-57 -69,0 -112,38 -112,85l0 2c0,50 27,78 143,103 118,26 172,69 172,149l0 2c0,90 -75,149 -180,149 -84,0 -152,-28 -216,-84z"/>
  <path class="fil0" d="M3291 4361l0 -2c0,-180 141,-321 332,-321 108,0 185,33 250,90l-100 121c-44,-37 -88,-58 -149,-58 -89,0 -158,75 -158,169l0 2c0,100 70,171 167,171 41,0 73,-9 99,-26l0 -75 -122 0 0 -125 284 0 0 278c-65,54 -156,95 -268,95 -192,0 -336,-132 -336,-319z"/>
  <polygon class="fil0" points="3990,4051 4487,4051 4487,4196 4160,4196 4160,4290 4456,4290 4456,4425 4160,4425 4160,4522 4491,4522 4491,4668 3990,4668 "/>
  <path class="fil0" d="M4941 4425l-69 -175 -70 175 138 0zm-150 -378l0 0 165 0 263 621 -183 0 -45 -110 -238 0 -44 110 -180 0 263 -621z"/>
  <path class="fil0" d="M5563 4347c58,0 92,-28 92,-73l0 -2c0,-48 -35,-73 -93,-73l-112 0 0 148 113 0zm-284 -296l0 0 292 0c94,0 160,25 201,67 36,35 55,83 55,144l0 2c0,94 -50,157 -127,189l147 215 -197 0 -124 -187 -75 0 0 187 -171 0 0 -617z"/>
  <path class="fil0" d="M6211 4530c52,0 82,-20 82,-56l0 -2c0,-33 -26,-56 -84,-56l-130 0 0 114 132 0zm-25 -234l0 0c52,0 81,-18 81,-54l0 -2c0,-33 -26,-53 -78,-53l-111 0 0 108 108 0zm-274 -246l0 0 316 0c78,0 132,19 168,56 25,25 40,57 40,100l0 2c0,71 -41,114 -95,137 75,25 123,67 123,151l0 2c0,106 -86,170 -234,170l-318 0 0 -617z"/>
  <path class="fil0" d="M7011 4361l0 -2c0,-89 -64,-167 -159,-167 -93,0 -156,76 -156,165l0 2c0,89 64,167 158,167 94,0 157,-76 157,-165zm-490 0l0 0 0 -2c0,-177 143,-321 333,-321 190,0 331,142 331,319l0 2c0,177 -143,321 -333,321 -190,0 -331,-142 -331,-319z"/>
  <polygon class="fil0" points="7395,4354 7192,4051 7389,4051 7498,4225 7608,4051 7800,4051 7598,4352 7809,4668 7613,4668 7494,4482 7375,4668 7183,4668 "/>
  <polygon class="fil1 str0" points="3024,5253 2295,5253 2295,4331 3024,4331 "/>
  <polygon class="fil1 str1" points="1216,5252 2125,4567 2125,3658 1216,4343 "/>
  <polygon class="fil1 str2" points="2125,5938 1216,5253 1216,4343 2125,5028 "/>
  <polygon class="fil1 str1" points="2115,5938 3024,5253 3024,4343 2115,5028 "/>
 </g>
</svg>
