<?xml version="1.0" encoding="UTF-8" standalone="no"?>
<!-- Creator: CorelDRAW X6 -->

<svg
   xmlns:dc="http://purl.org/dc/elements/1.1/"
   xmlns:cc="http://creativecommons.org/ns#"
   xmlns:rdf="http://www.w3.org/1999/02/22-rdf-syntax-ns#"
   xmlns:svg="http://www.w3.org/2000/svg"
   xmlns="http://www.w3.org/2000/svg"
   xmlns:sodipodi="http://sodipodi.sourceforge.net/DTD/sodipodi-0.dtd"
   xmlns:inkscape="http://www.inkscape.org/namespaces/inkscape"
   xml:space="preserve"
   width="6.6069999in"
   height="2.3079948in"
   version="1.1"
   style="clip-rule:evenodd;fill-rule:evenodd;image-rendering:optimizeQuality;shape-rendering:geometricPrecision;text-rendering:geometricPrecision"
   viewBox="0 0 6606.9999 2307.9948"
   id="svg4608"
   sodipodi:docname="Gearbox.svg"
   inkscape:version="0.92.0 r15299"><metadata
     id="metadata4612"><rdf:RDF><cc:Work
         rdf:about=""><dc:format>image/svg+xml</dc:format><dc:type
           rdf:resource="http://purl.org/dc/dcmitype/StillImage" /><dc:title></dc:title></cc:Work></rdf:RDF></metadata><sodipodi:namedview
     pagecolor="#ffffff"
     bordercolor="#666666"
     borderopacity="1"
     objecttolerance="10"
     gridtolerance="10"
     guidetolerance="10"
     inkscape:pageopacity="0"
     inkscape:pageshadow="2"
     inkscape:window-width="1920"
     inkscape:window-height="1137"
     id="namedview4610"
     showgrid="false"
     inkscape:zoom="1.2963624"
     inkscape:cx="283.7511"
     inkscape:cy="51.612542"
     inkscape:window-x="-8"
     inkscape:window-y="-8"
     inkscape:window-maximized="1"
     inkscape:current-layer="svg4608"
     inkscape:snap-bbox="true"
     inkscape:object-paths="true"
     inkscape:snap-intersection-paths="true"
     inkscape:snap-smooth-nodes="true"
     inkscape:snap-midpoints="true"
     fit-margin-top="0"
     fit-margin-left="0"
     fit-margin-right="0"
     fit-margin-bottom="0" /><defs
     id="defs4564"><style
       type="text/css"
       id="style4562"><![CDATA[
    .str0 {stroke:#282929;stroke-width:27.7795}
    .str1 {stroke:#282929;stroke-width:28}
    .str2 {stroke:#373435;stroke-width:28}
    .fil0 {fill:#373435}
    .fil1 {fill:#FEFEFE}
   ]]></style></defs><path
     style="fill:#000000;fill-opacity:1"
     inkscape:connector-curvature="0"
     id="path4567"
     d="m 2096,1750.9962 37,-44 c 55,50 108,75 181,75 71,0 118,-38 118,-90 v -2 c 0,-49 -26,-77 -137,-100 -121,-26 -177,-66 -177,-152 v -2 c 0,-83 73,-144 173,-144 77,0 132,22 185,65 l -35,46 c -49,-40 -98,-57 -152,-57 -69,0 -112,38 -112,85 v 2 c 0,50 27,78 143,103 118,26 172,69 172,149 v 2 c 0,90 -75,149 -180,149 -84,0 -152,-28 -216,-84 z"
     class="fil0" /><path
     style="fill:#000000;fill-opacity:1"
     inkscape:connector-curvature="0"
     id="path4569"
     d="m 3066,1565.9962 v -2 c 0,-120 -87,-218 -208,-218 -121,0 -207,96 -207,216 v 1 c 0,120 87,218 208,218 121,0 207,-96 207,-216 z m -476,0 v 0 -2 c 0,-145 109,-273 270,-273 161,0 268,126 268,271 v 1 c 0,145 -109,273 -270,273 -161,0 -268,-126 -268,-271 z"
     class="fil0" /><polygon
     style="fill:#000000;fill-opacity:1"
     id="polygon4571"
     points="4812,5472 4456,5472 4456,4945 4515,4945 4515,5417 4812,5417 "
     class="fil0"
     transform="translate(-1202,-3644.0038)" /><path
     style="fill:#000000;fill-opacity:1"
     inkscape:connector-curvature="0"
     id="path4573"
     d="m 3697,1606.9962 v -307 h 60 v 303 c 0,114 60,178 161,178 97,0 159,-59 159,-174 v -307 h 60 v 302 c 0,154 -88,234 -220,234 -130,0 -219,-80 -219,-229 z"
     class="fil0" /><polygon
     style="fill:#000000;fill-opacity:1"
     id="polygon4575"
     points="5856,5000 5679,5000 5679,5472 5619,5472 5619,5000 5442,5000 5442,4945 5856,4945 "
     class="fil0"
     transform="translate(-1202,-3644.0038)" /><polygon
     style="fill:#000000;fill-opacity:1"
     id="polygon4577"
     points="5973,4945 6032,4945 6032,5472 5973,5472 "
     class="fil0"
     transform="translate(-1202,-3644.0038)" /><path
     style="fill:#000000;fill-opacity:1"
     inkscape:connector-curvature="0"
     id="path4579"
     d="m 5438,1565.9962 v -2 c 0,-120 -87,-218 -208,-218 -121,0 -206,96 -206,216 v 1 c 0,120 87,218 208,218 121,0 207,-96 207,-216 z m -476,0 v 0 -2 c 0,-145 109,-273 270,-273 161,0 268,126 268,271 v 1 c 0,145 -109,273 -270,273 -161,0 -268,-126 -268,-271 z"
     class="fil0" /><polygon
     style="fill:#000000;fill-opacity:1"
     id="polygon4581"
     points="7274,4945 7274,5472 7226,5472 6886,5040 6886,5472 6828,5472 6828,4945 6883,4945 7216,5368 7216,4945 "
     class="fil0"
     transform="translate(-1202,-3644.0038)" /><path
     style="fill:#000000;fill-opacity:1"
     inkscape:connector-curvature="0"
     id="path4583"
     d="m 6186,1750.9962 37,-44 c 55,50 108,75 181,75 71,0 118,-38 118,-90 v -2 c 0,-49 -26,-77 -137,-100 -121,-26 -177,-66 -177,-152 v -2 c 0,-83 73,-144 173,-144 77,0 132,22 185,65 l -35,46 c -49,-40 -98,-57 -152,-57 -69,0 -112,38 -112,85 v 2 c 0,50 27,78 143,103 118,26 172,69 172,149 v 2 c 0,90 -75,149 -180,149 -84,0 -152,-28 -216,-84 z"
     class="fil0" /><path
     style="fill:#000000;fill-opacity:1"
     inkscape:connector-curvature="0"
     id="path4585"
     d="m 2089,716.99619 v -2 c 0,-180 141,-321 332,-321 108,0 185,33 250,90 l -100,121 c -44,-37 -88,-58 -149,-58 -89,0 -158,75 -158,169 v 2 c 0,100 70,171 167,171 41,0 73,-9 99,-26 v -75 h -122 v -125 h 284 v 278 c -65,54 -156,95.00001 -268,95.00001 -192,0 -336,-132.00001 -336,-319.00001 z"
     class="fil0" /><polygon
     style="fill:#000000;fill-opacity:1"
     id="polygon4587"
     points="4160,4290 4456,4290 4456,4425 4160,4425 4160,4522 4491,4522 4491,4668 3990,4668 3990,4051 4487,4051 4487,4196 4160,4196 "
     class="fil0"
     transform="translate(-1202,-3644.0038)" /><path
     style="fill:#000000;fill-opacity:1"
     inkscape:connector-curvature="0"
     id="path4589"
     d="m 3739,780.99619 -69,-175 -70,175 h 138 z m -150,-378 v 0 h 165 l 263,621.00001 h -183 l -45,-110.00001 h -238 l -44,110.00001 h -180 l 263,-621.00001 z"
     class="fil0" /><path
     style="fill:#000000;fill-opacity:1"
     inkscape:connector-curvature="0"
     id="path4591"
     d="m 4361,702.99619 c 58,0 92,-28 92,-73 v -2 c 0,-48 -35,-73 -93,-73 h -112 v 148 z m -284,-296 v 0 h 292 c 94,0 160,25 201,67 36,35 55,83 55,144 v 2 c 0,94 -50,157 -127,189 l 147,215.00001 H 4448 L 4324,836.99619 h -75 V 1023.9962 H 4078 V 406.99619 Z"
     class="fil0" /><path
     style="fill:#000000;fill-opacity:1"
     inkscape:connector-curvature="0"
     id="path4593"
     d="m 5009,885.99619 c 52,0 82,-20 82,-56 v -2 c 0,-33 -26,-56 -84,-56 h -130 v 114 z m -25,-234 v 0 c 52,0 81,-18 81,-54 v -2 c 0,-33 -26,-53 -78,-53 h -111 v 108 h 108 z m -274,-246 v 0 h 316 c 78,0 132,19 168,56 25,25 40,57 40,100 v 2 c 0,71 -41,114 -95,137 75,25 123,67 123,151 v 2 c 0,106 -86,170.00001 -234,170.00001 H 4710 V 406.99619 Z"
     class="fil0" /><path
     style="fill:#000000;fill-opacity:1"
     inkscape:connector-curvature="0"
     id="path4595"
     d="m 5809,716.99619 v -2 c 0,-89 -64,-167 -159,-167 -93,0 -156,76 -156,165 v 2 c 0,89 64,167 158,167 94,0 157,-76 157,-165 z m -490,0 v 0 -2 c 0,-177 143,-321 333,-321 190,0 331,142 331,319 v 2 c 0,177 -143,321.00001 -333,321.00001 -190,0 -331,-142.00001 -331,-319.00001 z"
     class="fil0" /><polygon
     style="fill:#000000;fill-opacity:1"
     id="polygon4597"
     points="7608,4051 7800,4051 7598,4352 7809,4668 7613,4668 7494,4482 7375,4668 7183,4668 7395,4354 7192,4051 7389,4051 7498,4225 "
     class="fil0"
     transform="translate(-1202,-3644.0038)" /><path
     style="fill:none;stroke:#000000;stroke-width:27.77950096;stroke-linecap:round;stroke-linejoin:round;stroke-opacity:1"
     d="M 1103,698.99619 V 1248.3556 L 1832,698.99619 Z"
     id="polygon4599"
     inkscape:connector-curvature="0"
     sodipodi:nodetypes="cccc" /><polygon
     style="fill:none;stroke:#000000;stroke-width:28;stroke-linecap:round;stroke-linejoin:round;stroke-opacity:1"
     id="polygon4603"
     points="2125,5938 1216,5253 1216,4343 2125,5028 "
     class="fil1 str2"
     transform="translate(-1202,-3644.0038)" /><path
     style="fill:none;stroke:#121313;stroke-width:28;stroke-linecap:round;stroke-linejoin:round;stroke-opacity:1"
     d="m 923,1383.9962 v 910 l 909,-685 V 698.99619 Z"
     id="polygon4605"
     inkscape:connector-curvature="0" /><path
     style="fill:none;stroke:#000000;stroke-width:28;stroke-linecap:round;stroke-linejoin:round;stroke-opacity:1"
     d="M 922.9966,13.998593 14,698.99619 617.1291,1153.4843 922.9966,922.99519 Z"
     id="polygon4601"
     inkscape:connector-curvature="0" /></svg>