<?xml version="1.0" encoding="UTF-8" standalone="no"?>
<!-- Creator: CorelDRAW X6 -->

<svg
   xmlns:dc="http://purl.org/dc/elements/1.1/"
   xmlns:cc="http://creativecommons.org/ns#"
   xmlns:rdf="http://www.w3.org/1999/02/22-rdf-syntax-ns#"
   xmlns:svg="http://www.w3.org/2000/svg"
   xmlns="http://www.w3.org/2000/svg"
   xmlns:sodipodi="http://sodipodi.sourceforge.net/DTD/sodipodi-0.dtd"
   xmlns:inkscape="http://www.inkscape.org/namespaces/inkscape"
   xml:space="preserve"
   width="4.8190002in"
   height="3.043in"
   version="1.1"
   style="clip-rule:evenodd;fill-rule:evenodd;image-rendering:optimizeQuality;shape-rendering:geometricPrecision;text-rendering:geometricPrecision"
   viewBox="0 0 4819.0002 3042.9999"
   id="svg1064"
   sodipodi:docname="JEDCO.svg"
   inkscape:version="0.92.0 r15299"><metadata
     id="metadata1068"><rdf:RDF><cc:Work
         rdf:about=""><dc:format>image/svg+xml</dc:format><dc:type
           rdf:resource="http://purl.org/dc/dcmitype/StillImage" /><dc:title></dc:title></cc:Work></rdf:RDF></metadata><sodipodi:namedview
     pagecolor="#ffffff"
     bordercolor="#666666"
     borderopacity="1"
     objecttolerance="10"
     gridtolerance="10"
     guidetolerance="10"
     inkscape:pageopacity="0"
     inkscape:pageshadow="2"
     inkscape:window-width="1920"
     inkscape:window-height="1137"
     id="namedview1066"
     showgrid="false"
     fit-margin-top="0"
     fit-margin-left="0"
     fit-margin-right="0"
     fit-margin-bottom="0"
     inkscape:zoom="1.2963624"
     inkscape:cx="108.5259"
     inkscape:cy="133.46148"
     inkscape:window-x="1912"
     inkscape:window-y="-8"
     inkscape:window-maximized="1"
     inkscape:current-layer="svg1064" /><defs
     id="defs1046"><style
       type="text/css"
       id="style1044"><![CDATA[
    .fil0 {fill:#373435}
    .fil1 {fill:#FEFEFE}
   ]]></style></defs><path
     style="fill:#000000;stroke-width:0.096;fill-opacity:1"
     d="M 236.25586 0 L 67.488281 156.57617 C 102.52828 133.34417 165.02386 117.88867 236.25586 117.88867 C 307.58386 117.88867 370.07944 133.34417 405.02344 156.57617 L 236.25586 0 z M 236.16016 20.447266 L 338.7832 107.51953 C 317.4712 94.655532 279.45616 86.015625 236.16016 86.015625 C 192.76815 86.015625 154.84716 94.559532 133.53516 107.51953 L 236.16016 20.447266 z M 326.11133 179.80859 C 319.77533 179.80859 314.11114 180.86486 309.11914 182.88086 C 304.12714 184.99286 299.61628 188.06341 295.48828 192.19141 C 290.68828 196.99141 287.61548 202.55912 286.27148 208.70312 C 285.02348 214.84713 284.35156 222.72061 284.35156 232.22461 L 284.35156 239.61523 C 284.35156 249.11923 284.92748 256.99272 286.27148 263.13672 C 287.51948 269.28072 290.68828 274.84844 295.48828 279.64844 C 303.64828 287.90444 313.82333 292.03125 326.11133 292.03125 C 331.29533 292.03125 336.28848 291.26422 340.89648 289.82422 C 345.50448 288.38422 349.63295 286.17522 353.37695 283.19922 C 357.12095 280.22322 360.1915 276.38339 362.6875 271.77539 C 365.1835 267.16739 366.91109 261.88725 367.87109 256.03125 L 367.96875 255.83984 L 340.41602 255.83984 C 339.45602 259.48784 337.92089 262.36847 335.71289 264.48047 C 333.50489 266.68847 330.43269 267.74414 326.30469 267.74414 C 321.60069 267.74414 318.04844 266.20706 315.64844 263.03906 C 314.20844 261.02306 313.15247 258.2398 312.48047 254.5918 C 311.80847 250.9438 311.51953 244.70339 311.51953 235.77539 C 311.51953 229.05539 311.712 223.96772 312 220.51172 C 312.288 217.05572 312.76775 214.56003 313.34375 212.83203 C 313.91975 211.20003 314.68844 209.75972 315.64844 208.51172 C 316.70444 207.07172 318.24045 206.01634 320.06445 205.15234 C 321.88845 204.28834 324.00069 203.9043 326.30469 203.9043 C 330.52869 203.9043 333.69659 205.05597 335.80859 207.16797 C 338.01659 209.37597 339.55172 212.25659 340.51172 215.80859 L 368.06445 215.80859 C 367.10445 209.85659 365.37686 204.57675 362.88086 199.96875 C 360.38486 195.36075 357.31206 191.61663 353.66406 188.64062 C 350.01606 185.76062 345.8873 183.55163 341.2793 182.01562 C 336.6713 180.57562 331.58333 179.80859 326.11133 179.80859 z M 420.57617 179.80859 C 414.04817 179.80859 408.28858 180.86486 403.39258 182.88086 C 398.59258 184.89686 394.07947 187.96741 389.85547 192.19141 C 385.05547 196.99141 381.98463 202.55912 380.64062 208.70312 C 379.29662 214.84713 378.62305 222.72061 378.62305 232.22461 L 378.62305 239.61523 C 378.62305 249.11923 379.29662 256.99272 380.64062 263.13672 C 381.88863 269.28072 385.05547 274.84844 389.85547 279.64844 C 392.54347 282.43244 395.42409 284.73655 398.49609 286.56055 C 401.56809 288.38455 404.83247 289.7275 408.48047 290.6875 C 412.03247 291.6475 416.06417 292.12891 420.57617 292.12891 C 427.20017 292.12891 433.05517 291.07294 437.95117 288.96094 C 442.94317 286.84894 447.36028 283.77644 451.48828 279.64844 C 454.75228 276.28844 457.24886 272.54402 458.88086 268.41602 C 460.51286 264.28802 461.56717 259.96873 461.95117 255.55273 C 462.43117 251.04073 462.62305 245.75923 462.62305 239.61523 L 462.62305 236.06445 L 462.62305 232.32031 C 462.62305 226.17631 462.33517 220.80077 461.95117 216.38477 C 461.47117 211.87277 460.51286 207.55183 458.88086 203.42383 C 457.24886 199.29583 454.84828 195.55141 451.48828 192.19141 C 447.36028 188.06341 442.84717 184.89686 437.95117 182.88086 C 433.05517 180.86486 427.20017 179.80859 420.57617 179.80859 z M 44.544922 180.38477 L 44.544922 252.38477 C 44.544922 257.47277 43.199422 261.21659 40.607422 263.80859 C 38.015422 266.40059 34.464531 267.64844 30.144531 267.64844 C 27.360531 267.64844 25.151531 267.26439 23.519531 266.40039 C 21.887531 265.63239 20.063469 264.19208 17.855469 262.08008 L 0 279.83984 C 3.072 283.00784 6.0477344 285.31106 8.9277344 287.03906 C 11.807734 288.76706 14.975344 290.0152 18.527344 290.7832 C 21.983344 291.5512 25.824828 291.93555 30.048828 291.93555 C 37.248828 291.93555 44.064391 290.49523 50.400391 287.61523 C 56.736391 284.73523 61.823766 280.32084 65.759766 274.46484 C 69.695766 268.60884 71.615234 261.50434 71.615234 253.15234 L 71.712891 252.96094 L 71.712891 180.38477 L 44.544922 180.38477 z M 186.7207 180.57617 L 186.7207 291.07227 L 227.71289 291.07227 C 240.38489 291.07227 250.27266 287.42461 257.47266 280.22461 C 260.83266 276.86461 263.42464 273.31206 265.05664 269.66406 C 266.68864 266.01606 267.74461 262.27134 268.22461 258.52734 C 268.70461 254.78334 268.99219 250.27248 268.99219 244.89648 L 268.99219 235.87109 L 268.99219 235.77539 L 268.99219 226.75195 C 268.99219 221.47195 268.70461 216.86314 268.22461 213.11914 C 267.74461 209.37514 266.68864 205.63238 265.05664 201.98438 C 263.32864 198.33637 260.83266 194.78383 257.47266 191.42383 C 250.27266 184.22383 240.28889 180.57617 227.71289 180.57617 L 186.7207 180.57617 z M 92.447266 180.67188 L 92.447266 291.07227 L 167.51953 291.07227 L 167.51953 266.88086 L 119.51953 266.88086 L 119.51953 247.48828 L 160.51172 247.48828 L 160.51172 223.29688 L 119.51953 223.29688 L 119.51953 204.76758 L 167.51953 204.76758 L 167.51953 180.67188 L 92.447266 180.67188 z M 420.57617 204 C 422.97617 204 425.18352 204.47975 427.10352 205.34375 C 429.02352 206.20775 430.46353 207.36078 431.51953 208.80078 C 432.95953 210.62478 433.9198 213.21587 434.5918 216.67188 C 435.2638 220.03188 435.55273 226.46309 435.55273 235.87109 L 435.64844 236.16016 C 435.64844 245.47216 435.3595 251.90397 434.6875 255.16797 C 434.0155 258.43197 433.05523 261.02306 431.61523 263.03906 C 429.02323 266.39906 425.37588 268.03125 420.67188 268.03125 C 415.96787 268.03125 412.41622 266.39906 409.82422 263.03906 C 408.96022 261.88706 408.19123 260.44841 407.61523 258.81641 C 407.03923 257.18441 406.55948 254.59106 406.27148 251.03906 C 405.98348 247.48706 405.79297 242.49645 405.79297 236.06445 C 405.79297 229.53645 405.98348 224.54419 406.27148 220.99219 C 406.55948 217.53619 407.03923 214.9448 407.61523 213.2168 C 408.19123 211.4888 408.96022 210.04848 409.82422 208.89648 C 410.97622 207.36048 412.51194 206.20775 414.33594 205.34375 C 416.15994 204.47975 418.27217 204 420.57617 204 z M 213.88867 204.86328 L 225.88867 204.86328 C 231.84067 204.86328 236.15936 206.97552 238.94336 211.10352 C 240.09536 212.73552 240.86405 215.03992 241.24805 217.91992 C 241.63205 220.79992 241.82422 226.75109 241.82422 235.87109 C 241.82422 242.30309 241.72716 247.00778 241.53516 250.17578 C 241.34316 253.34378 241.05558 255.55278 240.76758 256.80078 C 240.38358 258.14478 239.80736 259.39233 238.94336 260.73633 C 236.15936 264.86433 231.84067 266.97656 225.88867 266.97656 L 213.88867 266.97656 L 213.88867 204.86328 z "
     transform="scale(10.416667)"
     id="path1049" /></svg>