<?xml version="1.0" encoding="UTF-8"?>
<!DOCTYPE svg PUBLIC "-//W3C//DTD SVG 1.1//EN" "http://www.w3.org/Graphics/SVG/1.1/DTD/svg11.dtd">
<!-- Creator: CorelDRAW X6 -->
<svg xmlns="http://www.w3.org/2000/svg" xml:space="preserve" width="8.5in" height="11in" version="1.1" style="shape-rendering:geometricPrecision; text-rendering:geometricPrecision; image-rendering:optimizeQuality; fill-rule:evenodd; clip-rule:evenodd"
viewBox="0 0 8500 11000"
 xmlns:xlink="http://www.w3.org/1999/xlink">
 <defs>
  <style type="text/css">
   <![CDATA[
    .fil0 {fill:#373435}
    .fil1 {fill:#FEFEFE}
   ]]>
  </style>
 </defs>
 <g id="__x0023_Layer_x0020_1">
  <metadata id="CorelCorpID_0Corel-Layer"/>
  <path class="fil0" d="M5027 5561l-1758 -1631 -1758 1631c365,-242 1016,-403 1758,-403 743,0 1394,161 1758,403z"/>
  <path class="fil0" d="M1554 6567c0,87 -20,161 -61,222 -41,61 -94,107 -160,137 -66,30 -137,45 -212,45 -44,0 -84,-4 -120,-12 -37,-8 -70,-21 -100,-39 -30,-18 -61,-42 -93,-75l186 -185c23,22 42,37 59,45 17,9 40,13 69,13 45,0 82,-13 109,-40 27,-27 41,-66 41,-119l0 -750 283 0 0 756z"/>
  <polygon class="fil0" points="2553,6962 1771,6962 1771,5812 2553,5812 2553,6063 2053,6063 2053,6256 2480,6256 2480,6508 2053,6508 2053,6710 2553,6710 "/>
  <path class="fil0" d="M3327 6387c0,-95 -2,-157 -6,-187 -4,-30 -12,-54 -24,-71 -29,-43 -74,-65 -136,-65l-125 0 0 647 125 0c62,0 107,-22 136,-65 9,-14 15,-27 19,-41 3,-13 6,-36 8,-69 2,-33 3,-82 3,-149zm283 0l0 0 0 94c0,56 -3,103 -8,142 -5,39 -16,78 -33,116 -17,38 -44,75 -79,110 -75,75 -178,113 -310,113l-427 0 0 -1151 427 0c131,0 235,38 310,113 35,35 61,72 79,110 17,38 28,77 33,116 5,39 8,87 8,142l0 94z"/>
  <path class="fil0" d="M4640 6597c-10,61 -28,116 -54,164 -26,48 -58,88 -97,119 -39,31 -82,54 -130,69 -48,15 -100,23 -154,23 -128,0 -234,-43 -319,-129 -50,-50 -83,-108 -96,-172 -14,-64 -20,-146 -20,-245l0 -77c0,-99 7,-181 20,-245 14,-64 46,-122 96,-172 43,-43 90,-75 142,-97 52,-21 111,-32 177,-32 57,0 110,8 158,23 48,16 91,39 129,69 38,31 70,70 96,118 26,48 44,103 54,165l-287 0c-10,-37 -26,-67 -49,-90 -22,-22 -55,-34 -99,-34 -24,0 -46,4 -65,13 -19,9 -35,20 -46,35 -10,13 -18,28 -24,45 -6,18 -11,44 -14,80 -3,36 -5,89 -5,159 0,93 3,158 10,196 7,38 18,67 33,88 25,33 62,49 111,49 43,0 75,-11 98,-34 23,-22 39,-52 49,-90l287 0z"/>
  <path class="fil0" d="M5345 6387c0,-98 -3,-165 -10,-200 -7,-36 -17,-63 -32,-82 -11,-15 -26,-27 -46,-36 -20,-9 -43,-14 -68,-14 -24,0 -46,5 -65,14 -19,9 -35,21 -47,37 -9,12 -17,27 -23,45 -6,18 -11,45 -14,81 -3,37 -5,89 -5,157 0,67 2,119 5,156 3,37 8,64 14,81 6,17 14,32 23,44 27,35 64,52 113,52 49,0 87,-17 114,-52 15,-21 25,-48 32,-82 7,-34 10,-101 10,-198zm282 0l0 0 0 39c0,64 -2,119 -7,166 -4,46 -15,91 -32,134 -17,43 -43,82 -77,117 -43,43 -89,75 -141,97 -51,22 -112,33 -181,33 -47,0 -89,-5 -126,-15 -38,-10 -72,-24 -104,-43 -32,-19 -62,-43 -90,-72 -50,-50 -83,-108 -96,-172 -14,-64 -21,-146 -21,-245l0 -77c0,-99 7,-181 21,-245 14,-64 46,-122 96,-172 44,-44 91,-76 141,-97 51,-21 111,-32 179,-32 69,0 130,11 181,32 51,21 98,54 141,97 35,35 60,74 77,117 17,43 27,88 32,135 4,46 7,102 7,166l0 39z"/>
  <path class="fil1" d="M4337 5050l-1069 -907 -1069 907c222,-135 617,-224 1069,-224 451,0 847,90 1069,224z"/>
 </g>
</svg>
