<?xml version="1.0" encoding="UTF-8"?>
<!DOCTYPE svg PUBLIC "-//W3C//DTD SVG 1.1//EN" "http://www.w3.org/Graphics/SVG/1.1/DTD/svg11.dtd">
<!-- Creator: CorelDRAW X6 -->
<svg xmlns="http://www.w3.org/2000/svg" xml:space="preserve" width="11in" height="8.5in" version="1.1" style="shape-rendering:geometricPrecision; text-rendering:geometricPrecision; image-rendering:optimizeQuality; fill-rule:evenodd; clip-rule:evenodd"
viewBox="0 0 11000 8500"
 xmlns:xlink="http://www.w3.org/1999/xlink">
 <defs>
  <style type="text/css">
   <![CDATA[
    .fil0 {fill:#373435}
   ]]>
  </style>
 </defs>
 <g id="__x0023_Layer_x0020_1">
  <metadata id="CorelCorpID_0Corel-Layer"/>
  <path class="fil0" d="M1098 4963l0 25 1630 0c44,0 17,-51 16,-98l-770 0c-241,0 -455,8 -696,8 143,-214 426,-300 688,-311 544,-23 812,-152 1286,-385 118,-58 348,-149 467,-196 196,-78 623,-247 806,-357 134,-80 460,-249 594,-249 138,0 142,17 276,77 194,86 196,77 401,188 358,195 674,553 1127,466 38,-7 78,-10 96,-35 -173,0 -129,46 -421,-70 -50,-20 -81,-38 -123,-66 -44,-29 -85,-51 -95,-94 44,-46 222,-140 287,-172 361,-178 636,-102 957,100l264 170c61,36 113,73 176,110l181 106c66,33 121,64 188,98 69,34 134,58 202,93 366,184 294,124 609,251 317,127 201,106 361,212 157,105 327,20 404,170 19,37 64,177 65,230 15,-11 25,-9 25,-82 0,-170 -66,-379 -197,-409 -249,-58 -157,3 -410,-188 -119,-89 -266,-122 -418,-172 -87,-29 -477,-212 -613,-280 -168,-84 -584,-331 -749,-439 -485,-319 -816,-311 -1309,-13 -74,45 -195,114 -283,49 -20,-15 -32,-23 -53,-37 -39,-26 -71,-50 -111,-77 -40,-27 -74,-47 -115,-74 -157,-101 -166,-92 -307,-152 -226,-96 -161,-125 -464,-125 -93,0 -211,44 -276,76l-350 183c-42,23 -73,44 -115,66 -44,24 -78,36 -123,57 -44,21 -77,37 -124,57l-623 262c-44,17 -87,35 -127,53 -81,36 -163,83 -245,116 -76,31 -160,78 -239,113 -84,37 -167,68 -257,103 -454,176 -793,57 -1162,263 -80,45 -138,90 -200,152 -46,46 -133,143 -133,227z"/>
  <path class="fil0" d="M4104 4078l25 0c0,42 8,45 8,90l0 303c0,45 -8,49 -8,90l-66 8 0 41 270 0 0 -41c-95,0 -74,3 -74,-229 40,3 104,95 132,130l90 107c38,50 27,34 196,34l0 -41c-60,-1 -112,-75 -159,-136 -22,-29 -128,-139 -136,-167 16,-23 34,-38 55,-59 25,-26 41,-34 66,-57 63,-58 78,-73 158,-80l0 -41 -164 0c0,66 -33,78 -104,149 -36,36 -96,104 -133,129 0,-75 -6,-167 8,-229 39,0 34,-6 66,-8l0 -41 -270 0c0,40 1,49 41,49z"/>
  <path class="fil0" d="M5128 4766c46,199 -51,400 69,488 27,20 81,39 140,44l68 0c87,-9 170,-53 188,-167l11 -366c24,-6 25,-8 57,-8 -2,-68 -24,-34 -106,-34 -26,0 -42,-7 -82,-7l0 41c30,1 66,3 66,33l0 311c0,164 -278,166 -278,8l0 -319c0,-32 33,-33 66,-33l0 -41c-50,0 -79,6 -115,8l-139 -8c0,51 7,49 57,49z"/>
  <path class="fil0" d="M3359 4988c0,78 -57,106 -131,106 -54,0 -86,-30 -123,-49 0,-45 -8,-49 -8,-90 -50,1 -42,7 -41,57 0,49 -8,57 -8,99 65,15 150,58 264,26 122,-35 154,-105 154,-214 0,-201 -311,-74 -311,-229 0,-27 18,-52 33,-65 41,-36 125,-29 167,-4 33,20 29,53 29,94 47,-1 39,-3 42,-48 2,-34 7,-52 7,-91 -83,-19 -141,-44 -241,-20 -139,34 -173,188 -113,267 53,70 128,57 210,85 36,12 70,34 70,77z"/>
  <path class="fil0" d="M7167 4209c15,56 37,-13 56,84l50 228c10,50 5,98 50,98 25,0 17,-6 26,-23 1,-2 12,-31 13,-36 10,-27 19,-48 31,-75 12,-27 21,-47 32,-74 7,-17 7,-19 14,-35l22 -35c10,44 35,100 53,144 35,88 36,135 78,135 26,0 23,-14 29,-37 5,-21 8,-35 12,-53l57 -213c19,-68 16,-78 57,-82l0 -33 -131 0 0 33 41 0c0,68 -34,166 -49,229l-79 -191c-10,-25 -21,-47 -27,-71 -47,1 -37,5 -53,45 -19,50 -84,185 -86,217 -26,-19 -11,-4 -20,-45 -14,-63 -29,-115 -29,-184l41 0 0 -33c-26,0 -176,-6 -188,8z"/>
  <path class="fil0" d="M7208 4758c25,1 30,4 49,8l0 328c-20,11 -15,8 -49,8l0 33 188 0 0 -33c-74,0 -49,8 -49,-336 52,0 106,-6 106,74 0,20 -13,49 -23,59 -17,16 -36,15 -67,15 7,29 19,38 32,58 121,184 57,163 205,163l0 -33c-42,-11 -118,-139 -139,-180 58,-31 82,-44 82,-115 0,-120 -203,-71 -254,-73 -49,-2 -82,-29 -82,24z"/>
  <path class="fil0" d="M5578 4234c73,0 49,-11 49,319 0,54 -43,-11 -49,57 46,0 115,8 147,-8 -7,-27 -1,-25 -49,-25 0,-53 -9,-74 -8,-131 0,-46 0,-93 0,-139l139 164c13,16 21,24 34,40 15,18 16,22 34,40 57,57 32,68 113,68l0 -360c0,-29 16,-25 49,-25l0 -33 -147 0 0 33c65,0 26,-3 49,8l8 246c-30,-20 -42,-39 -64,-67 -20,-24 -39,-45 -60,-71 -22,-27 -38,-45 -59,-72 -18,-23 -46,-50 -54,-77l-131 0 0 33z"/>
  <path class="fil0" d="M5071 4234c73,0 49,-11 49,319 0,54 -43,-11 -49,57 46,0 115,8 147,-8 -7,-27 -1,-25 -49,-25 0,-48 -9,-74 -8,-131 0,-46 0,-93 0,-139l207 244c57,57 32,68 113,68l0 -360c0,-29 16,-25 49,-25l0 -33 -147 0 0 33c65,0 26,-3 49,8l8 246c-30,-20 -42,-39 -64,-67 -32,-40 -163,-183 -173,-220l-131 0 0 33z"/>
  <path class="fil0" d="M5693 4758c25,1 30,4 49,8l0 328c-20,11 -15,8 -49,8l0 33 123 0c31,0 3,3 25,-8 -11,-42 -10,-14 -49,-33 0,-52 -9,-68 -8,-123 0,-46 0,-93 0,-139 16,12 49,56 64,75 22,27 46,52 68,80 23,28 40,48 63,76 69,85 54,73 116,73l0 -344c0,-29 19,-32 49,-33 -4,-49 1,-25 -82,-25 -28,0 -32,-6 -57,-8l0 33c74,2 49,72 49,246 -40,-27 -200,-222 -238,-278 -33,3 -20,8 -74,8 -32,0 -49,-24 -49,25z"/>
  <path class="fil0" d="M4702 4234c28,0 49,-5 49,25l0 303c0,40 -20,2 -33,49l303 0 8 -106 -33 0c-2,82 -16,66 -156,66l0 -147 106 0c0,48 -3,46 33,49l0 -131 -33 0 0 41 -106 0 8 -139 123 8c11,23 8,16 8,49l25 0c6,-24 27,-98 -16,-98l-262 0c-23,0 -25,9 -25,33z"/>
  <path class="fil0" d="M6078 4234c28,0 49,-5 49,25l0 303c0,40 -20,2 -33,49l303 0c0,-50 8,-66 8,-106l-33 0c-2,81 -17,66 -131,66 -38,0 -25,-50 -25,-147l106 0c1,25 4,30 8,49l25 0 0 -131c-35,3 -32,5 -33,41l-106 0 8 -139 123 8c11,23 8,16 8,49 41,-3 33,0 33,-98l-287 0c-23,0 -25,9 -25,33z"/>
  <path class="fil0" d="M6872 4734l0 25c25,1 30,4 49,8l-2 317c-10,32 -7,6 -21,30 -8,14 -18,21 15,21 316,0 278,25 278,-106 -90,7 55,66 -156,66 -38,0 -25,-50 -25,-147l106 0c0,48 -2,42 25,49 16,-28 8,-81 8,-115 0,-31 3,-3 -8,-25 -85,23 71,49 -131,49 0,-159 -17,-144 131,-129l0 48 33 0c0,-69 5,-50 8,-90 -61,-14 -91,-8 -149,-1 -46,5 -114,1 -163,1z"/>
  <path class="fil0" d="M4579 4734l0 25 49 9 0 293c-8,68 -28,18 -32,74 68,0 137,-1 205,0 73,1 95,25 98,-107l-33 0c-1,36 -6,26 -8,57l-139 8 0 -147 98 0c4,19 8,24 8,49l25 0 0 -139 -25 0 -9 49 -97 0 0 -131c40,-11 47,-12 100,-1 40,8 31,4 31,50l25 0c26,-111 1,-110 -125,-92 -48,7 -119,2 -170,2z"/>
  <path class="fil0" d="M6946 4324l16 0c6,28 36,99 49,123l-106 0c9,-38 38,-84 41,-123zm-180 287l0 0 139 0c-3,-35 -5,-32 -41,-33 0,-111 38,-90 147,-90 29,0 41,54 49,90 -41,0 -46,-8 -49,33l197 0c-4,-45 -7,-21 -36,-38 -19,-11 -22,-26 -29,-45 -15,-39 -30,-70 -47,-109 -17,-41 -30,-70 -47,-109 -16,-37 -30,-76 -47,-109l-49 0c-11,49 -127,353 -159,373 -13,8 -4,-2 -16,8 -18,15 -10,-9 -13,28z"/>
  <path class="fil0" d="M6463 4324c0,169 213,88 213,172 0,47 -12,90 -82,90 -68,0 -98,-33 -98,-98 -54,5 -20,17 -41,106 62,14 85,43 186,23 127,-26 175,-211 29,-246 -41,-10 -133,-11 -133,-63 0,-93 126,-82 148,-50 25,37 -20,53 40,58 1,-58 52,-123 -98,-123 -82,0 -164,35 -164,131z"/>
  <path class="fil0" d="M3989 4840c1,2 3,2 3,5 0,3 2,4 3,5l51 121 -106 0c10,-44 39,-87 49,-131zm-188 287l0 0c29,16 103,8 139,8l0 -33 -41 0c0,-28 2,-36 9,-56 17,-44 3,-34 138,-34 33,0 25,32 49,82 -39,19 -38,-9 -49,33 30,17 147,8 188,8l0 -33c-46,-1 -40,-8 -69,-78l-111 -258c-13,-31 -5,-40 -42,-40 -33,0 -43,64 -55,92 -18,42 -99,251 -116,269 -33,35 -30,-8 -42,40z"/>
  <path class="fil0" d="M7642 4848c0,173 213,67 213,188 0,94 -144,72 -165,34 -23,-42 21,-62 -40,-67 0,47 -8,62 -8,115 49,11 60,25 123,25 189,0 224,-202 103,-242 -33,-11 -104,-17 -125,-31 -36,-24 -29,-77 4,-97 18,-11 41,-14 63,-11 45,7 30,12 62,21 0,47 -11,54 33,57l10 -98c-89,-20 -28,-17 -141,-17 -69,0 -131,56 -131,123z"/>
  <path class="fil0" d="M6397 4758c11,3 17,3 26,7 35,17 71,133 86,168 16,35 25,63 41,98 16,36 27,72 44,104l49 0c10,-44 25,-72 40,-108 16,-38 91,-237 113,-255 30,-24 30,5 35,-39 -48,-23 -15,6 -57,0l-82 -10 0 34c19,4 19,6 41,8 -1,44 -27,96 -41,131 -11,28 -37,108 -57,123 -4,-49 -89,-195 -90,-254 19,-4 19,-6 41,-8l0 -25c-48,-23 -54,7 -106,0l-82 -10 0 34z"/>
  <path class="fil0" d="M8183 4750c0,62 5,46 8,82l25 0c3,-32 7,-21 8,-57l98 0 0 303c0,29 -16,25 -49,25l0 33c39,0 59,-4 84,-6 36,-4 44,6 88,6 31,0 3,3 25,-8 -16,-59 -57,14 -57,-66l0 -287c118,0 106,-11 106,57l33 0c0,-137 3,-98 -33,-98l-303 0c-20,0 -33,-18 -33,16z"/>
  <path class="fil0" d="M4170 4750c0,82 -6,79 33,82 3,-32 7,-21 8,-57l98 0 0 303c0,29 -16,25 -49,25l0 33c41,0 65,-5 91,-7 27,-2 56,7 97,7l0 -33c-73,0 -49,9 -49,-328 118,0 106,-11 106,57l33 0c0,-137 3,-98 -33,-98l-303 0c-20,0 -33,-18 -33,16z"/>
  <path class="fil0" d="M8584 4742c3,33 -6,16 28,38 32,20 41,33 62,69 76,128 66,87 66,229 0,29 -16,25 -49,25l0 33c177,0 192,17 197,-33 -70,0 -57,-10 -57,-131 0,-27 14,-46 26,-64 15,-22 24,-38 38,-60 12,-19 23,-35 36,-54 22,-31 30,-25 31,-67 -65,0 -61,27 -124,138 -17,29 -10,34 -40,42 -8,-33 -49,-110 -69,-136 -55,-74 -61,-35 -144,-28z"/>
  <path class="fil0" d="M3490 4832l33 0 0 -57 106 0 0 287c0,79 -42,7 -57,66 23,19 66,-1 105,1 27,2 50,7 91,7l0 -33c-73,0 -49,9 -49,-328l98 0c0,56 -4,54 33,57 0,-30 1,-44 4,-72 6,-53 3,-27 -29,-27l-311 0c-31,0 -3,3 -25,-8l0 106z"/>
  <path class="fil0" d="M6225 4766c2,26 8,29 8,57l0 197c0,41 -7,37 -8,74 -22,10 -9,7 -41,8l0 33c172,0 184,16 188,-33 -33,0 -26,3 -49,-8l0 -328 49 -9c-4,-50 4,-23 -131,-23 -28,0 -32,-6 -57,-8 1,39 5,38 41,41z"/>
  <path class="fil0" d="M7970 4758l49 9 0 326c-20,11 -15,8 -49,8l0 33 188 0 0 -33c-72,0 -49,12 -49,-311 0,-27 23,-31 49,-33 -4,-51 5,-25 -139,-25 -32,0 -49,-24 -49,25z"/>
  <path class="fil0" d="M10222 5168l0 -33c39,-35 28,-33 66,-33 60,0 81,72 44,109 -40,40 -109,17 -109,-44zm90 -49l0 0 -66 0c12,22 8,28 8,66 0,31 3,3 -8,25 53,-1 28,6 25,-41 41,27 8,37 57,41 -50,-75 0,-20 -16,-90zm-16 8l0 0c-30,8 -22,1 -25,33l25 0 0 -33zm-90 33l0 0c0,128 156,104 156,16l0 -49c-34,-22 -28,-41 -82,-41 -40,0 -74,33 -74,74z"/>
 </g>
</svg>
