<?xml version="1.0" encoding="UTF-8" standalone="no"?>
<!-- Creator: CorelDRAW X6 -->

<svg
   xmlns:dc="http://purl.org/dc/elements/1.1/"
   xmlns:cc="http://creativecommons.org/ns#"
   xmlns:rdf="http://www.w3.org/1999/02/22-rdf-syntax-ns#"
   xmlns:svg="http://www.w3.org/2000/svg"
   xmlns="http://www.w3.org/2000/svg"
   xmlns:sodipodi="http://sodipodi.sourceforge.net/DTD/sodipodi-0.dtd"
   xmlns:inkscape="http://www.inkscape.org/namespaces/inkscape"
   xml:space="preserve"
   width="3.76389in"
   height="0.833331in"
   version="1.1"
   style="shape-rendering:geometricPrecision; text-rendering:geometricPrecision; image-rendering:optimizeQuality; fill-rule:evenodd; clip-rule:evenodd"
   viewBox="0 0 3764 833"
   id="svg58"
   sodipodi:docname="Kennesaw.svg"
   inkscape:version="0.92.0 r15299"><metadata
     id="metadata62"><rdf:RDF><cc:Work
         rdf:about=""><dc:format>image/svg+xml</dc:format><dc:type
           rdf:resource="http://purl.org/dc/dcmitype/StillImage" /><dc:title></dc:title></cc:Work></rdf:RDF></metadata><sodipodi:namedview
     pagecolor="#ffffff"
     bordercolor="#666666"
     borderopacity="1"
     objecttolerance="10"
     gridtolerance="10"
     guidetolerance="10"
     inkscape:pageopacity="0"
     inkscape:pageshadow="2"
     inkscape:window-width="1920"
     inkscape:window-height="1137"
     id="namedview60"
     showgrid="false"
     inkscape:zoom="3.9132829"
     inkscape:cx="180.66672"
     inkscape:cy="39.999887"
     inkscape:window-x="-8"
     inkscape:window-y="-8"
     inkscape:window-maximized="1"
     inkscape:current-layer="svg58" /><defs
     id="defs4"><style
       type="text/css"
       id="style2"><![CDATA[
    .fil0 {fill:#333436;fill-rule:nonzero}
   ]]></style></defs><path
     style="fill:#131414;fill-rule:nonzero;stroke-width:0.09599719;fill-opacity:1"
     d="M 156.66797 -0.55859375 C 152.63609 -0.46259656 148.50805 0.59295116 145.24414 2.1289062 C 139.29231 5.1048192 133.72497 7.887851 127.86914 11.34375 C 121.14934 15.279635 94.3657 26.032488 87.837891 28.816406 C 81.406079 31.600325 72.285139 36.399381 65.277344 39.279297 C 48.765827 45.903103 47.32723 45.327032 31.679688 46.958984 C 29.18376 47.246976 20.54375 47.824552 12 52.816406 C 7.1041431 55.600325 -0.19170032 62.126887 -0.095703125 67.886719 L 64.222656 67.791016 L 64.222656 64.335938 L 6.8164062 64.431641 C 11.424272 58.28782 16.895453 55.600114 21.695312 54.160156 C 26.399175 52.720198 33.599249 52.048051 39.455078 51.664062 C 49.150795 50.992082 56.542925 48.878823 60.382812 47.630859 C 71.614484 43.982966 78.141608 39.950922 86.109375 36.207031 C 91.677212 33.51911 116.63753 23.728055 122.10938 21.328125 C 127.48522 18.928195 131.99643 16.623762 136.98828 13.839844 C 143.0361 10.479942 146.77965 8.847867 149.85156 7.5039062 C 154.74742 5.391968 159.54683 4.9126755 163.38672 6.640625 C 174.61839 11.632479 170.01167 9.4246883 173.85156 11.056641 C 183.35528 14.992526 194.77814 23.056974 202.16992 28.048828 C 209.8497 33.328674 217.24164 34.575584 222.52148 34.767578 C 226.07338 34.863575 230.96953 33.616411 231.35352 33.232422 C 231.64151 32.94443 227.22581 33.90352 224.92188 33.519531 C 213.30621 31.119601 208.69777 26.895813 207.25781 25.839844 L 207.16211 25.744141 C 206.10614 24.304183 206.48906 24.113093 206.87305 23.537109 C 210.71293 21.13718 219.0663 15.376093 228.66602 13.744141 C 240.47367 11.824197 249.30428 17.488992 259 23.632812 C 267.73574 29.296647 277.91212 36.496405 293.84766 43.408203 C 297.87954 45.136153 301.8143 47.63172 306.32617 49.263672 C 311.03003 50.991621 324.94966 55.118509 329.26953 59.150391 C 336.08533 65.582203 337.71721 62.991871 343.95703 65.007812 C 348.4689 66.44777 349.1409 69.806553 350.96484 77.486328 C 352.69279 72.494474 350.10085 59.822476 343.95703 58.478516 C 338.77318 57.422547 337.90932 57.998951 334.35742 55.791016 C 331.95749 54.351058 329.9426 52.528437 327.63867 50.896484 C 322.07083 47.056597 317.46189 46.383129 311.41406 44.367188 C 306.32621 42.639238 300.27867 39.279907 295.38281 37.167969 C 284.24714 32.272112 274.16732 26.128112 262.26367 18.736328 C 252.08797 12.400513 241.33628 5.3925561 228.47266 7.3125 C 222.80882 8.1764747 218.2018 9.9056399 214.16992 12.017578 C 208.60208 14.897494 207.73814 15.761109 203.32227 17.873047 C 200.44235 19.217008 197.4665 18.640625 197.5625 18.640625 C 197.4665 18.640625 197.36943 18.544922 197.27344 18.544922 C 189.11368 12.689093 179.99381 6.6414238 175.00195 5.1054688 C 172.12204 4.241494 168.37943 1.7457163 165.01953 0.59375 C 163.00359 -0.078230352 160.79612 -0.46259656 158.49219 -0.55859375 L 156.66797 -0.55859375 z M 64.222656 64.335938 L 64.318359 64.335938 L 64.222656 64.238281 L 64.222656 64.335938 z M 116.06055 30.640625 L 116.06055 32.080078 C 117.21251 32.176075 117.97988 32.175487 118.17188 32.271484 C 118.26787 32.367482 118.36494 32.368847 118.46094 32.464844 C 118.55693 32.560841 118.55635 32.751365 118.65234 32.943359 C 118.74834 33.327348 118.84375 34.095786 118.84375 35.34375 L 118.94141 40.335938 L 118.94141 46.191406 C 118.94141 46.959384 118.84404 48.112482 118.74805 49.648438 C 118.74805 50.320418 118.74834 50.70449 118.65234 50.896484 C 118.65234 51.088479 118.55693 51.279003 118.46094 51.375 C 118.36494 51.470997 118.26787 51.568359 118.17188 51.568359 C 117.88388 51.664357 117.21251 51.663768 116.06055 51.759766 L 116.06055 53.199219 C 117.40451 53.103222 118.94002 53.103516 120.66797 53.103516 C 122.58791 53.103516 124.50838 53.103222 126.23633 53.199219 L 126.23633 51.759766 C 125.08436 51.663768 124.31699 51.664357 124.125 51.568359 C 123.83701 51.472362 123.74053 51.375294 123.64453 51.279297 C 123.54853 51.087302 123.45312 50.608115 123.45312 49.744141 L 123.45312 46.576172 L 123.45312 42.927734 L 123.45312 42.542969 C 123.45312 42.542969 123.45283 42.447266 123.54883 42.447266 C 123.54883 42.351268 123.64424 42.351562 123.74023 42.351562 C 123.83623 42.351563 123.93301 42.351268 124.125 42.447266 C 124.41299 42.63926 124.7 42.832514 125.08398 43.3125 C 125.17998 43.504494 126.4282 44.944597 128.82812 47.728516 L 131.99609 51.375 C 132.57208 52.04698 132.95615 52.623236 133.24414 53.199219 C 134.01212 53.103222 134.87626 53.103516 135.74023 53.103516 C 136.8922 53.103516 138.23553 53.199219 139.77148 53.199219 L 139.77148 51.759766 C 139.1955 51.759766 138.71573 51.664357 138.42773 51.568359 C 138.13974 51.472362 137.75567 51.087702 137.17969 50.511719 C 136.50771 49.935736 135.45226 48.687522 133.82031 46.767578 L 130.26758 42.640625 C 129.21161 41.392661 128.44483 40.527449 127.96484 39.855469 L 131.03711 36.783203 C 133.14905 34.959256 134.49208 33.712408 135.16406 33.232422 C 135.74005 32.752436 136.31689 32.367482 136.79688 32.271484 C 137.27686 32.175487 138.04393 32.080078 139.00391 32.080078 L 139.00391 30.640625 L 135.25977 30.640625 L 133.05273 30.640625 C 133.14873 31.216608 133.14844 31.696677 133.14844 31.888672 L 131.70898 33.519531 C 131.42099 33.807523 130.93985 34.384366 130.17188 35.152344 L 127.86914 37.455078 C 126.14119 39.279025 124.7962 40.624601 123.74023 41.392578 L 123.45312 41.294922 L 123.45312 36.880859 C 123.45313 34.960916 123.54853 33.61534 123.64453 32.943359 C 123.74053 32.655368 123.8373 32.463185 124.0293 32.367188 C 124.31729 32.175193 125.08407 32.080078 126.33203 32.080078 L 126.33203 30.640625 C 124.60408 30.736622 122.68362 30.736328 120.76367 30.736328 C 118.93973 30.736328 117.40451 30.736622 116.06055 30.640625 z M 229.04883 37.072266 L 228.08984 39.664062 L 225.11328 46.958984 C 224.5373 48.398942 224.15293 49.264155 223.96094 49.744141 C 223.57695 50.704113 223.28936 51.278709 223.19336 51.470703 C 223.09736 51.662698 223.00225 51.759472 222.90625 51.855469 C 222.81025 51.951466 222.71318 52.046875 222.61719 52.046875 C 222.52119 52.046875 222.13653 52.142578 221.56055 52.142578 L 221.56055 52.912109 L 224.1543 52.816406 L 226.74609 52.912109 L 226.74609 51.951172 C 225.78612 51.951172 225.30528 51.855763 225.11328 51.759766 C 225.01728 51.663768 224.92188 51.566994 224.92188 51.375 C 224.92188 51.087008 225.11406 50.511047 225.49805 49.455078 L 225.97656 48.111328 L 231.73633 48.111328 L 232.69727 50.607422 C 232.88926 51.087408 232.98438 51.376365 232.98438 51.568359 C 232.98438 51.664357 232.88897 51.759472 232.79297 51.855469 C 232.69697 51.951466 232.12179 52.046875 231.25781 52.046875 L 231.25781 53.007812 L 235.19336 52.912109 L 238.36133 53.007812 L 238.36133 52.046875 C 238.16933 51.950878 237.97686 51.951172 237.88086 51.951172 C 237.49687 51.951172 237.30498 51.855469 237.20898 51.855469 C 237.20898 51.855469 237.11358 51.855763 237.01758 51.759766 C 237.01758 51.663768 236.92022 51.5667 236.82422 51.470703 L 236.3457 50.416016 L 235.67383 48.878906 L 230.68164 37.072266 L 229.04883 37.072266 z M 237.40039 37.167969 L 237.40039 38.128906 C 237.97637 38.224903 238.36074 38.224315 238.55273 38.320312 C 238.74473 38.41631 238.8415 38.511131 238.9375 38.703125 C 239.0335 38.991117 239.22568 39.759555 239.51367 41.103516 L 242.10547 53.103516 L 243.73633 53.103516 L 244.98438 50.126953 L 248.44141 42.064453 L 251.51172 49.935547 L 252.75977 53.199219 L 254.48828 53.199219 C 254.58428 52.719233 255.06405 50.896129 255.83203 47.824219 C 256.60001 44.752309 257.27226 42.447476 257.65625 41.103516 C 258.04024 39.759555 258.32783 38.992776 258.42383 38.800781 L 258.71289 38.511719 C 258.80889 38.511719 259.09619 38.416016 259.57617 38.416016 L 259.86523 38.416016 L 259.86523 37.455078 L 257.17578 37.552734 C 256.88779 37.552734 256.1213 37.551075 254.77734 37.455078 L 254.77734 38.416016 C 255.64132 38.416016 256.1208 38.511719 256.2168 38.511719 C 256.31279 38.511719 256.40791 38.607128 256.50391 38.703125 C 256.5999 38.799122 256.59961 38.895896 256.59961 39.087891 L 256.59961 39.472656 C 256.50361 39.856645 256.21631 41.1032 255.73633 43.119141 L 254.39258 48.207031 L 253.04883 44.847656 C 252.85683 44.271673 252.08947 42.448569 250.9375 39.472656 C 250.64951 38.800676 250.36026 38.031649 250.07227 37.263672 L 249.01758 37.263672 L 248.88281 37.263672 C 248.69082 37.647661 248.7291 37.647261 248.53711 38.03125 L 246.71289 42.351562 L 245.27344 45.615234 C 244.69745 46.959195 244.4085 47.727927 244.3125 47.919922 L 243.35352 43.408203 C 243.25752 42.83222 243.06534 41.775895 242.77734 40.335938 C 242.68135 39.56796 242.58398 39.088185 242.58398 38.992188 L 242.58398 38.703125 C 242.58398 38.511131 242.58564 38.41631 242.68164 38.320312 C 242.77764 38.224315 242.96816 38.128906 243.16016 38.128906 L 244.2168 38.128906 L 244.2168 37.167969 L 240.56836 37.263672 L 237.40039 37.167969 z M 215.70508 37.263672 C 214.9371 37.263672 214.26602 37.36074 213.49805 37.552734 C 212.82607 37.744729 212.15411 38.032027 211.57812 38.416016 C 211.00214 38.800004 210.52266 39.376848 210.13867 40.048828 C 209.75468 40.720808 209.5625 41.487588 209.5625 42.351562 C 209.5625 43.023543 209.65761 43.600092 209.84961 44.080078 C 210.0416 44.656061 210.3289 45.039839 210.71289 45.423828 C 211.09688 45.807817 211.57802 46.095115 212.25 46.287109 C 212.72999 46.383107 213.59354 46.57529 214.9375 46.863281 C 215.89747 47.151273 216.56914 47.343162 216.95312 47.535156 C 217.33711 47.727151 217.62636 47.918746 217.81836 48.302734 C 218.01035 48.686723 218.10547 49.070795 218.10547 49.550781 C 218.10547 50.126764 218.00869 50.607905 217.7207 51.087891 C 217.43271 51.567877 217.05059 51.854587 216.47461 52.142578 C 215.89863 52.43057 215.22667 52.527344 214.55469 52.527344 C 213.69071 52.527344 212.92198 52.335161 212.25 51.951172 C 211.57802 51.567183 211.09854 51.183111 210.81055 50.703125 C 210.71455 49.935147 210.71289 49.263483 210.71289 48.6875 L 209.75391 48.6875 C 209.75391 50.415449 209.56114 51.759072 209.36914 52.623047 C 210.23312 53.007036 211.00155 53.296287 211.76953 53.488281 C 212.53751 53.680276 213.30565 53.775391 214.26562 53.775391 C 215.51359 53.775391 216.66532 53.583208 217.5293 53.199219 C 218.10528 52.911227 218.58613 52.622564 219.16211 52.142578 C 219.73809 51.662592 220.12216 51.183405 220.41016 50.607422 C 220.79415 49.935442 220.98633 49.0713 220.98633 48.111328 C 220.98633 47.631342 220.88897 47.151861 220.79297 46.671875 C 220.60097 46.287886 220.40879 45.903226 220.2168 45.615234 C 220.0248 45.327243 219.7375 45.039651 219.35352 44.847656 C 218.96953 44.655662 218.49005 44.463479 217.91406 44.271484 C 217.62607 44.175487 217.14493 44.080372 216.37695 43.984375 C 215.60898 43.792381 215.03467 43.695607 214.55469 43.599609 C 214.0747 43.503612 213.59463 43.311135 213.30664 43.119141 C 213.01865 42.927146 212.82481 42.639554 212.63281 42.351562 C 212.44082 41.967574 212.3457 41.583502 212.3457 41.103516 C 212.3457 40.431535 212.633 39.759283 213.20898 39.279297 C 213.78497 38.799311 214.55341 38.511719 215.60938 38.511719 C 216.28136 38.511719 216.95331 38.608493 217.5293 38.896484 C 218.10528 39.184476 218.58535 39.471774 218.77734 39.759766 C 218.77734 40.047757 218.87305 40.72001 218.87305 41.583984 L 219.73828 41.583984 C 219.73828 40.816007 219.73799 40.239752 219.83398 39.759766 C 219.83398 39.27978 219.92939 38.800298 220.02539 38.320312 L 219.92969 38.03125 C 219.4497 37.839256 218.77774 37.551075 218.00977 37.455078 C 217.24179 37.359081 216.47306 37.263672 215.70508 37.263672 z M 155.13086 37.359375 L 155.13086 38.320312 C 155.89884 38.41631 156.38027 38.511719 156.57227 38.511719 C 156.76426 38.607716 156.85908 38.607128 156.95508 38.703125 C 157.05108 38.799122 157.14648 38.895896 157.14648 39.087891 C 157.24248 39.279885 157.24414 39.568548 157.24414 40.144531 L 157.33984 43.408203 L 157.33984 47.056641 L 157.33984 49.455078 C 157.24385 50.607044 157.14648 51.280368 157.14648 51.568359 C 157.14648 51.760354 157.14678 51.855175 157.05078 51.951172 C 157.05078 52.047169 156.95537 52.142578 156.85938 52.142578 C 156.76338 52.142578 156.18819 52.240234 155.32422 52.240234 L 155.32422 52.431641 L 155.32422 53.390625 C 156.57218 53.294628 157.53085 53.294922 158.29883 53.294922 L 160.69922 53.294922 L 160.69922 52.335938 L 160.50781 52.335938 C 160.31582 52.335938 159.93116 52.336232 159.45117 52.240234 C 159.25918 52.240234 159.1624 52.238575 159.06641 52.142578 C 158.97041 52.142578 158.875 52.047169 158.875 51.951172 C 158.875 51.759177 158.7793 51.184287 158.7793 50.320312 C 158.6833 49.072349 158.68359 47.823841 158.68359 46.671875 L 158.68359 41.103516 C 163.09946 46.479358 166.55515 50.607 168.95508 53.294922 C 169.62706 53.390919 170.20302 53.487987 170.875 53.583984 L 171.06641 53.488281 C 170.97041 52.432312 170.875 49.359042 170.875 44.367188 C 170.875 43.695207 170.9707 42.736539 170.9707 41.392578 C 170.9707 40.048617 171.06611 39.18477 171.16211 38.800781 C 171.16211 38.704784 171.16377 38.607422 171.25977 38.607422 C 171.45176 38.511425 171.93065 38.416016 172.89062 38.416016 L 172.89062 37.455078 C 171.73866 37.551075 170.7797 37.552734 170.01172 37.552734 C 169.24374 37.552734 168.4756 37.551075 167.51562 37.455078 L 167.51562 38.416016 C 168.4756 38.416016 169.05019 38.511425 169.24219 38.607422 C 169.33818 38.703419 169.43555 38.895602 169.43555 39.183594 C 169.53154 39.855574 169.53125 42.255227 169.53125 46.287109 L 169.53125 48.878906 C 168.47528 47.822937 167.22766 46.382834 165.5957 44.462891 C 163.38777 41.774969 161.4676 39.471019 159.93164 37.455078 L 158.875 37.455078 L 157.24414 37.455078 C 156.76415 37.455078 156.09083 37.455372 155.13086 37.359375 z M 174.90625 37.359375 L 174.90625 38.320312 C 175.67423 38.41631 176.15566 38.511719 176.34766 38.511719 C 176.53965 38.607716 176.63447 38.607128 176.73047 38.703125 C 176.82647 38.799122 176.92188 38.895896 176.92188 39.087891 C 177.01787 39.279885 177.01953 39.568548 177.01953 40.144531 L 177.11523 43.408203 L 177.11523 47.056641 L 177.11523 49.455078 C 177.01924 50.607044 176.92188 51.280368 176.92188 51.568359 C 176.92187 51.760354 176.92217 51.855175 176.82617 51.951172 C 176.82617 52.047169 176.73076 52.142578 176.63477 52.142578 C 176.53877 52.142578 175.96358 52.240234 175.09961 52.240234 L 175.09961 52.431641 L 175.09961 53.390625 C 176.34757 53.294628 177.30624 53.294922 178.07422 53.294922 L 180.47461 53.294922 L 180.47461 52.335938 L 180.2832 52.335938 C 180.09121 52.335938 179.70655 52.336232 179.22656 52.240234 C 179.03457 52.240234 178.93779 52.238575 178.8418 52.142578 C 178.7458 52.142578 178.65039 52.047169 178.65039 51.951172 C 178.65039 51.759177 178.55469 51.184287 178.55469 50.320312 C 178.45869 49.072349 178.45898 47.823841 178.45898 46.671875 L 178.45898 41.103516 C 182.87486 46.479358 186.33054 50.607 188.73047 53.294922 C 189.40245 53.390919 189.97841 53.487987 190.65039 53.583984 L 190.8418 53.488281 C 190.7458 52.432312 190.65039 49.359042 190.65039 44.367188 C 190.65039 43.695207 190.74609 42.736539 190.74609 41.392578 C 190.74609 40.048617 190.8415 39.18477 190.9375 38.800781 C 190.9375 38.704784 190.93916 38.607422 191.03516 38.607422 C 191.22715 38.511425 191.70604 38.416016 192.66602 38.416016 L 192.66602 37.455078 C 191.51405 37.551075 190.55509 37.552734 189.78711 37.552734 C 189.01913 37.552734 188.25099 37.551075 187.29102 37.455078 L 187.29102 38.416016 C 188.25099 38.416016 188.82558 38.511425 189.01758 38.607422 C 189.11358 38.703419 189.21094 38.895602 189.21094 39.183594 C 189.21094 39.855574 189.30664 42.255227 189.30664 46.287109 L 189.30664 48.878906 C 188.25067 47.822937 187.00305 46.382834 185.37109 44.462891 C 183.16316 41.774969 181.24299 39.471019 179.70703 37.455078 L 178.65039 37.455078 L 177.01953 37.455078 C 176.53955 37.455078 175.86622 37.455372 174.90625 37.359375 z M 150.9082 37.455078 L 148.60352 37.552734 L 145.14844 37.552734 L 143.61133 37.552734 L 141.01953 37.552734 L 141.01953 38.416016 C 141.88351 38.416016 142.46035 38.511425 142.65234 38.607422 C 142.74834 38.703419 142.84375 38.704784 142.84375 38.800781 C 142.93975 38.992776 143.03516 39.471963 143.03516 40.335938 L 143.03516 42.542969 L 143.03516 47.630859 C 143.03516 48.206843 143.03545 49.168052 142.93945 50.416016 C 142.93945 51.087996 142.84375 51.66318 142.84375 51.951172 C 142.55576 52.239163 142.17139 52.431052 141.69141 52.623047 L 141.69141 53.199219 L 141.88477 53.679688 C 144.1887 53.58369 145.43496 53.583984 145.62695 53.583984 L 149.27539 53.583984 L 151.09961 53.583984 C 151.96358 53.583984 152.63525 53.584278 153.11523 53.488281 L 153.30664 53.294922 C 153.30664 52.33495 153.40371 51.088395 153.5957 49.648438 L 152.63477 49.648438 C 152.53877 50.608409 152.34795 51.280074 152.25195 51.664062 C 152.15596 51.76006 152.15459 51.855469 152.05859 51.855469 C 151.9626 51.951466 151.48448 51.950878 150.8125 52.046875 C 150.14052 52.142872 149.37149 52.142578 148.60352 52.142578 C 147.73954 52.142578 146.97247 52.142872 146.39648 52.046875 L 146.39648 50.703125 L 146.39648 46 C 146.87647 45.904003 147.45077 45.904297 148.21875 45.904297 C 149.08272 45.904297 149.75634 45.904003 150.23633 46 C 150.42832 46 150.61885 46.095115 150.71484 46.287109 C 150.81084 46.479104 150.9082 47.055947 150.9082 47.919922 L 151.86719 47.919922 L 151.77148 45.423828 L 151.86719 42.927734 L 150.9082 42.927734 C 150.81221 43.599715 150.81084 44.079196 150.71484 44.367188 C 150.61885 44.463185 150.61943 44.560547 150.52344 44.560547 C 150.52344 44.656544 150.23555 44.65625 149.85156 44.65625 L 148.02734 44.65625 C 147.45136 44.65625 146.87647 44.560547 146.39648 44.560547 L 146.39648 42.255859 C 146.39648 40.911899 146.49189 39.856162 146.58789 38.992188 C 147.25987 38.89619 147.93154 38.896484 148.60352 38.896484 C 149.37149 38.896484 150.04452 38.89619 150.8125 38.992188 C 151.29249 39.088185 151.57978 39.087597 151.67578 39.183594 C 151.67578 39.183594 151.77148 39.279003 151.77148 39.375 C 151.77148 39.566994 151.86719 40.143838 151.86719 41.007812 L 152.73242 41.007812 C 152.82842 40.047841 152.82812 39.470997 152.82812 39.375 L 153.01953 37.744141 L 152.92383 37.552734 C 152.73183 37.456737 152.63506 37.455078 152.53906 37.455078 L 150.9082 37.455078 z M 204.57031 37.455078 L 202.26562 37.552734 L 198.81055 37.552734 L 197.37109 37.552734 L 194.77734 37.552734 L 194.77734 38.416016 C 195.64132 38.416016 196.21816 38.511425 196.41016 38.607422 C 196.50615 38.703419 196.60156 38.704784 196.60156 38.800781 C 196.69756 38.992776 196.79492 39.471963 196.79492 40.335938 L 196.79492 42.542969 L 196.79492 47.630859 C 196.79492 48.206843 196.79522 49.168052 196.69922 50.416016 C 196.69922 51.087996 196.60156 51.66318 196.60156 51.951172 C 196.31357 52.239163 195.93116 52.431052 195.45117 52.623047 L 195.45117 53.199219 L 195.45117 53.679688 C 197.7551 53.58369 199.00136 53.583984 199.19336 53.583984 L 202.8418 53.583984 L 204.66602 53.583984 C 205.52999 53.583984 206.20165 53.584278 206.68164 53.488281 L 206.87305 53.294922 C 206.87305 52.33495 206.97011 51.088395 207.16211 49.648438 L 206.20117 49.648438 C 206.10517 50.608409 205.91436 51.280074 205.81836 51.664062 C 205.72236 51.76006 205.72295 51.855469 205.62695 51.855469 C 205.53096 51.951466 205.05089 51.950878 204.37891 52.046875 C 203.70693 52.142872 202.9379 52.142578 202.16992 52.142578 C 201.40194 52.142578 200.63458 52.142872 200.05859 52.046875 L 200.05859 50.703125 L 200.05859 46 C 200.53858 45.904003 201.11483 45.904297 201.88281 45.904297 C 202.74679 45.904297 203.41845 45.904003 203.89844 46 C 204.09043 46 204.28291 46.095115 204.37891 46.287109 C 204.4749 46.479104 204.57031 47.055947 204.57031 47.919922 L 205.43359 47.919922 L 205.33789 45.423828 L 205.43359 42.927734 L 204.57031 42.927734 C 204.47432 43.599715 204.4749 44.079196 204.37891 44.367188 C 204.28291 44.463185 204.28154 44.560547 204.18555 44.560547 C 204.18555 44.656544 203.89766 44.65625 203.51367 44.65625 L 201.68945 44.65625 C 201.11347 44.65625 200.53858 44.560547 200.05859 44.560547 L 200.05859 42.255859 C 200.05859 40.911899 200.154 39.856162 200.25 38.992188 C 200.92198 38.89619 201.59364 38.896484 202.26562 38.896484 C 203.0336 38.896484 203.70663 38.89619 204.47461 38.992188 C 204.9546 39.088185 205.24189 39.087597 205.33789 39.183594 C 205.33789 39.183594 205.43359 39.279003 205.43359 39.375 C 205.43359 39.566994 205.5293 40.143838 205.5293 41.007812 L 206.39453 41.007812 C 206.49053 40.047841 206.49023 39.470997 206.49023 39.375 L 206.68164 37.744141 L 206.58594 37.552734 C 206.39394 37.456737 206.29717 37.455078 206.20117 37.455078 L 204.57031 37.455078 z M 228.85742 41.199219 L 231.25781 47.056641 L 228.95312 47.056641 L 226.55273 47.056641 L 228.85742 41.199219 z M 85.246094 50.992188 C 84.190125 50.992188 83.134094 51.183006 82.078125 51.375 C 81.022156 51.566994 80.060946 51.951361 79.292969 52.527344 C 78.524991 53.103327 77.853033 53.872059 77.373047 54.832031 C 76.893061 55.792003 76.605469 56.943737 76.605469 58.095703 C 76.605469 58.959678 76.702243 59.728116 76.990234 60.496094 C 77.278226 61.264071 77.662298 61.93603 78.238281 62.416016 C 78.814264 62.896002 79.581338 63.278415 80.445312 63.566406 C 81.021296 63.758401 82.269509 64.047652 84.189453 64.431641 C 85.533414 64.719632 86.49267 65.00693 86.972656 65.294922 C 87.452642 65.582913 87.837008 65.96728 88.125 66.447266 C 88.412992 66.927252 88.509766 67.503801 88.509766 68.175781 C 88.509766 68.943759 88.317583 69.711126 87.933594 70.287109 C 87.549605 70.863093 86.973056 71.342574 86.205078 71.726562 C 85.437101 72.110551 84.47755 72.302734 83.517578 72.302734 C 82.365612 72.302734 81.309581 72.015142 80.349609 71.535156 C 79.389637 71.05517 78.717973 70.478621 78.333984 69.806641 C 78.14199 68.654674 78.142578 67.695712 78.142578 66.927734 L 76.796875 66.927734 C 76.796875 69.327664 76.606351 71.150474 76.318359 72.398438 C 77.566323 72.974421 78.621765 73.358493 79.677734 73.646484 C 80.637706 73.934476 81.788852 74.03125 83.132812 74.03125 C 84.860762 74.03125 86.396568 73.743658 87.644531 73.263672 C 88.412509 72.97568 89.181241 72.494246 89.949219 71.822266 C 90.717196 71.150285 91.293746 70.478915 91.677734 69.710938 C 92.253718 68.654968 92.541016 67.502164 92.541016 66.158203 C 92.541016 65.390226 92.445901 64.622858 92.253906 64.046875 C 92.061912 63.470892 91.772367 62.895708 91.484375 62.511719 C 91.196383 62.12773 90.718267 61.74307 90.238281 61.455078 C 89.662298 61.167087 88.988975 60.879494 88.125 60.6875 C 87.837008 60.591503 87.069641 60.494729 86.013672 60.302734 C 84.861706 60.11074 83.997858 59.920216 83.421875 59.824219 C 82.653897 59.632224 81.981645 59.438382 81.597656 59.150391 C 81.213667 58.862399 80.828713 58.575689 80.636719 58.095703 C 80.348727 57.615717 80.253906 57.039168 80.253906 56.367188 C 80.253906 55.311218 80.638272 54.543368 81.40625 53.775391 C 82.270225 53.10341 83.325667 52.71875 84.765625 52.71875 C 85.725597 52.71875 86.685147 52.910933 87.453125 53.294922 C 88.3171 53.678911 88.893649 54.062983 89.181641 54.542969 C 89.277638 55.022955 89.373047 55.886802 89.373047 57.134766 L 90.716797 57.134766 L 90.8125 57.134766 C 90.908497 56.078797 90.909862 55.214949 91.005859 54.542969 C 91.005859 53.870988 91.100974 53.199324 91.292969 52.527344 L 91.197266 52.142578 C 90.429288 51.758589 89.565735 51.471291 88.509766 51.279297 C 87.453797 51.087302 86.39806 50.992188 85.246094 50.992188 z M 155.22656 57.615234 L 155.22656 58.958984 L 155.32422 59.150391 L 157.33984 59.34375 C 157.53184 59.439747 157.62666 59.630565 157.72266 59.726562 C 157.81865 59.918557 157.91602 60.207514 157.91602 60.6875 C 158.01201 61.839466 158.01172 63.183089 158.01172 64.623047 L 158.01172 68.558594 L 158.01172 71.535156 C 158.01172 73.263106 158.01142 74.223433 158.10742 74.607422 C 158.20342 75.279402 158.3956 75.855363 158.68359 76.527344 C 159.06758 77.103327 159.54706 77.77392 160.12305 78.253906 C 160.69903 78.733892 161.56347 79.213962 162.52344 79.501953 C 163.8674 79.981939 165.30779 80.173828 166.84375 80.173828 C 168.18771 80.173828 169.33856 79.983304 170.39453 79.695312 C 171.3545 79.311324 172.21835 78.927546 172.98633 78.351562 C 173.75431 77.775579 174.33085 77.103621 174.71484 76.431641 C 175.09883 75.663663 175.38642 74.799816 175.48242 73.839844 C 175.57842 72.879872 175.67578 71.918956 175.67578 70.958984 L 175.67578 67.310547 C 175.67578 66.254578 175.67549 64.814475 175.77148 62.894531 C 175.77148 60.974587 175.86689 59.918557 175.96289 59.726562 C 176.05889 59.534568 176.154 59.344044 176.25 59.248047 C 176.53799 59.15205 177.11425 59.054688 178.07422 59.054688 L 178.07422 57.710938 L 174.71484 57.806641 L 174.33008 57.806641 C 174.04209 57.806641 172.89035 57.806935 171.06641 57.710938 L 171.06641 59.054688 C 172.21837 59.054687 172.9874 59.151756 173.27539 59.34375 C 173.46739 59.439747 173.56221 59.534568 173.6582 59.726562 C 173.7542 60.014554 173.85156 60.782992 173.85156 62.126953 L 173.85156 67.119141 L 173.85156 70.287109 C 173.85156 72.495045 173.65938 74.030851 173.27539 74.798828 C 172.8914 75.566806 172.31515 76.238764 171.45117 76.71875 C 170.68319 77.198736 169.53175 77.486328 168.0918 77.486328 C 166.84383 77.486328 165.78751 77.294145 165.01953 76.910156 C 164.15556 76.526167 163.5793 76.046686 163.19531 75.470703 C 162.81132 74.798723 162.61943 74.030284 162.52344 73.070312 C 162.42744 72.590327 162.42773 71.439475 162.42773 69.519531 L 162.42773 67.695312 L 162.42773 64.046875 C 162.42773 61.934937 162.42715 60.496199 162.61914 59.824219 C 162.61914 59.536227 162.71621 59.344044 162.9082 59.248047 C 163.19619 59.056052 163.96356 58.958984 165.01953 58.958984 L 165.01953 57.615234 L 164.44336 57.615234 L 162.33203 57.710938 L 160.21875 57.710938 L 155.22656 57.615234 z M 261.97656 57.615234 C 261.20858 57.615234 260.43956 57.712302 259.76758 57.904297 C 259.0956 58.096291 258.42364 58.383589 257.84766 58.767578 C 257.27167 59.151567 256.8879 59.726457 256.50391 60.398438 C 256.21591 61.070418 256.02539 61.83915 256.02539 62.703125 C 256.02539 63.279108 256.12051 63.855952 256.3125 64.335938 C 256.50449 64.911921 256.79179 65.295699 257.17578 65.679688 C 257.55977 66.063676 258.04091 66.350974 258.71289 66.542969 C 259.09688 66.638966 259.96073 66.831149 261.30469 67.119141 C 262.16866 67.311135 262.84062 67.503318 263.22461 67.695312 C 263.5126 67.887307 263.80019 68.174899 263.99219 68.462891 C 264.18418 68.750882 264.2793 69.135248 264.2793 69.615234 C 264.2793 70.09522 264.18448 70.574702 263.89648 71.054688 C 263.70449 71.534673 263.32012 71.823337 262.74414 72.111328 C 262.16816 72.39932 261.4962 72.494141 260.82422 72.494141 C 260.05624 72.494141 259.28917 72.399614 258.61719 72.015625 C 257.94521 71.631636 257.46377 71.247564 257.17578 70.767578 C 257.07978 69.903603 257.08008 69.327936 257.08008 68.751953 L 256.12109 68.751953 C 256.12109 70.479903 255.92832 71.727822 255.73633 72.591797 C 256.50431 72.975786 257.36904 73.263084 258.04102 73.455078 C 258.713 73.647073 259.57548 73.742188 260.43945 73.742188 C 261.68742 73.742188 262.74345 73.550004 263.60742 73.166016 C 264.18341 72.974021 264.76025 72.687017 265.24023 72.207031 C 265.81622 71.823042 266.20029 71.343561 266.48828 70.767578 C 266.87227 70.095598 267.06445 69.231456 267.06445 68.271484 C 267.06445 67.791498 266.96904 67.312017 266.87305 66.832031 C 266.68105 66.448042 266.48887 66.063382 266.29688 65.775391 C 266.10488 65.487399 265.81563 65.199807 265.43164 65.007812 C 265.04765 64.815818 264.56817 64.623635 263.99219 64.431641 C 263.80019 64.335643 263.32071 64.238575 262.55273 64.142578 C 261.78476 64.046581 261.1125 63.951466 260.72852 63.855469 C 260.15253 63.759472 259.76846 63.566994 259.48047 63.375 C 259.19248 63.279003 259.00059 62.991117 258.80859 62.703125 C 258.6166 62.415133 258.51953 62.030767 258.51953 61.550781 C 258.51953 60.782804 258.80878 60.206548 259.38477 59.726562 C 259.86475 59.246577 260.72753 58.958984 261.6875 58.958984 C 262.45548 58.958984 263.03144 59.055758 263.60742 59.34375 C 264.08741 59.631742 264.56777 59.91904 264.75977 60.207031 C 264.75977 60.59102 264.85547 61.167275 264.85547 62.03125 L 265.81641 62.03125 L 266.00781 61.935547 C 266.00781 61.167569 266.10352 60.591314 266.10352 60.111328 C 266.10352 59.631342 266.20088 59.151861 266.29688 58.671875 L 266.20117 58.382812 C 265.62519 58.190818 265.04727 57.902638 264.2793 57.806641 C 263.51132 57.710643 262.74454 57.615234 261.97656 57.615234 z M 296.15039 57.710938 C 295.6704 57.806935 295.28829 57.904003 294.9043 58 L 292.59961 58.478516 L 292.59961 59.34375 C 293.17559 59.34375 293.4626 59.439453 293.55859 59.439453 C 293.65459 59.439453 293.94414 59.727339 294.32812 60.111328 C 294.90411 60.687311 295.47841 61.551747 296.15039 62.511719 C 296.91837 63.759682 297.68739 65.007896 298.35938 66.255859 C 298.64737 66.831843 298.74414 67.118552 298.74414 67.310547 L 298.74414 69.423828 C 298.74414 69.999811 298.64648 70.671182 298.64648 71.535156 C 298.64648 71.919145 298.64678 72.111034 298.55078 72.207031 C 298.55078 72.303028 298.45567 72.398438 298.26367 72.398438 C 298.16767 72.398438 297.68819 72.494141 296.82422 72.494141 L 296.82422 73.455078 C 297.97619 73.359081 299.03163 73.359375 300.18359 73.359375 C 301.33556 73.359375 302.58348 73.359081 304.02344 73.455078 L 304.02344 72.494141 C 303.25546 72.494141 302.77598 72.398438 302.58398 72.398438 C 302.48799 72.398438 302.39092 72.303028 302.29492 72.207031 C 302.19892 72.111034 302.19951 71.823442 302.10352 71.439453 C 302.00752 71.055464 302.00781 70.3838 302.00781 69.423828 L 302.00781 67.599609 C 302.00781 67.215621 302.10352 66.926369 302.10352 66.734375 C 302.10352 66.446383 302.19863 66.159085 302.39062 65.871094 C 302.67862 65.391108 303.25458 64.335077 304.31055 62.703125 C 305.36652 61.071173 306.32743 59.726479 307.19141 58.478516 L 307.19141 58 L 305.46289 58 C 305.36689 58.191994 305.0793 58.67177 304.69531 59.34375 C 303.54335 61.455688 302.77598 62.703902 302.58398 63.087891 L 301.14258 65.294922 C 300.95058 64.910933 300.4714 63.854609 299.60742 62.222656 C 299.03144 61.166687 298.55059 60.207431 297.97461 59.439453 C 297.59062 58.959467 297.30332 58.574807 297.11133 58.382812 C 296.91933 58.190818 296.63038 57.998929 296.15039 57.710938 z M 145.62695 57.806641 L 143.41992 57.904297 L 140.06055 57.904297 L 138.61914 57.904297 L 136.02734 57.904297 L 136.02734 58.767578 C 136.89132 58.767578 137.46816 58.862987 137.66016 58.958984 C 137.75615 59.054982 137.85156 59.054393 137.85156 59.150391 C 137.94756 59.342385 138.04492 59.823525 138.04492 60.6875 L 138.04492 62.894531 L 138.04492 67.886719 C 138.04492 68.462702 138.04326 69.423911 137.94727 70.671875 C 137.94727 71.439853 137.85156 71.91904 137.85156 72.207031 C 137.56357 72.495023 137.27686 72.686912 136.79688 72.878906 L 136.79688 73.455078 L 136.41211 73.646484 C 138.71604 73.550487 139.96426 73.550781 140.15625 73.550781 L 143.80469 73.550781 L 145.62695 73.550781 C 146.49093 73.550781 147.16455 73.551075 147.64453 73.455078 L 147.83594 73.263672 C 147.83594 72.3037 147.93105 71.055192 148.12305 69.615234 L 147.25977 69.615234 C 147.16377 70.575206 146.971 71.246871 146.875 71.630859 C 146.779 71.726857 146.77959 71.822266 146.68359 71.822266 C 146.4916 71.918263 146.10753 71.919628 145.43555 72.015625 C 144.76357 72.111622 143.99649 72.111328 143.22852 72.111328 C 142.46054 72.111328 141.69122 72.111622 141.11523 72.015625 L 141.11523 70.671875 L 141.11523 66.0625 C 141.59522 65.966503 142.17148 65.966797 142.93945 65.966797 C 143.80343 65.966797 144.47509 65.966503 144.95508 66.0625 C 145.14707 66.158497 145.33955 66.159568 145.43555 66.351562 C 145.53154 66.543557 145.62695 67.022744 145.62695 67.886719 L 146.49219 67.886719 L 146.39648 65.486328 L 146.49219 63.087891 L 145.62695 63.087891 C 145.53096 63.759871 145.53154 64.239352 145.43555 64.527344 C 145.33955 64.623341 145.34014 64.71875 145.24414 64.71875 C 145.24414 64.814747 144.95625 64.814453 144.57227 64.814453 L 142.74805 64.814453 C 142.26806 64.814453 141.69092 64.71875 141.21094 64.71875 L 141.21094 62.416016 C 141.21094 61.168052 141.3083 60.112022 141.4043 59.248047 C 142.07628 59.15205 142.74794 59.150391 143.41992 59.150391 C 144.0919 59.150391 144.76327 59.15205 145.53125 59.248047 C 146.01124 59.344044 146.30049 59.343456 146.39648 59.439453 C 146.39648 59.439453 146.49219 59.534862 146.49219 59.630859 C 146.58818 59.822854 146.58789 60.399697 146.58789 61.263672 L 147.45117 61.263672 C 147.54717 60.3037 147.54688 59.726857 147.54688 59.630859 L 147.74023 58 L 147.64453 57.904297 C 147.45254 57.8083 147.35576 57.806641 147.25977 57.806641 L 145.62695 57.806641 z M 235.38477 57.806641 L 233.17773 57.904297 L 229.81641 57.904297 L 228.37695 57.904297 L 225.78516 57.904297 L 225.78516 58.767578 C 226.64913 58.767578 227.22597 58.862987 227.41797 58.958984 C 227.51397 59.054982 227.60938 59.054393 227.60938 59.150391 C 227.70537 59.342385 227.80078 59.823525 227.80078 60.6875 L 227.80078 62.894531 L 227.80078 67.886719 C 227.80078 68.462702 227.80108 69.423911 227.70508 70.671875 C 227.70508 71.439853 227.60938 71.91904 227.60938 72.207031 C 227.32138 72.495023 227.03272 72.686912 226.55273 72.878906 L 226.55273 73.455078 L 226.16992 73.646484 C 228.47385 73.550487 229.72207 73.550781 229.91406 73.550781 L 233.56055 73.550781 L 235.38477 73.550781 C 236.24874 73.550781 236.9204 73.551075 237.40039 73.455078 L 237.59375 73.263672 C 237.59375 72.3037 237.68886 71.055192 237.88086 69.615234 L 237.01758 69.615234 C 236.92158 70.575206 236.72881 71.246871 236.63281 71.630859 C 236.53682 71.726857 236.5374 71.822266 236.44141 71.822266 C 236.24941 71.918263 235.86534 71.919628 235.19336 72.015625 C 234.52138 72.111622 233.75235 72.111328 232.98438 72.111328 C 232.2164 72.111328 231.44903 72.111622 230.87305 72.015625 L 230.87305 70.671875 L 230.87305 66.0625 C 231.35303 65.966503 231.92929 65.966797 232.69727 65.966797 C 233.56124 65.966797 234.2329 65.966503 234.71289 66.0625 C 234.90489 66.158497 235.09736 66.159568 235.19336 66.351562 C 235.28936 66.543557 235.38477 67.022744 235.38477 67.886719 L 236.25 67.886719 L 236.15234 65.486328 L 236.25 63.087891 L 235.38477 63.087891 C 235.28877 63.759871 235.28936 64.239352 235.19336 64.527344 C 235.09736 64.623341 235.09795 64.71875 235.00195 64.71875 C 235.00195 64.814747 234.71407 64.814453 234.33008 64.814453 L 232.50586 64.814453 C 232.02587 64.814453 231.44874 64.71875 230.96875 64.71875 L 230.96875 62.416016 C 230.96875 61.168052 231.06611 60.112022 231.16211 59.248047 C 231.83409 59.15205 232.50575 59.150391 233.17773 59.150391 C 233.84971 59.150391 234.52108 59.15205 235.28906 59.248047 C 235.76905 59.344044 236.05635 59.343456 236.15234 59.439453 C 236.15234 59.439453 236.25 59.534862 236.25 59.630859 C 236.25 59.822854 236.3457 60.399697 236.3457 61.263672 L 237.20898 61.263672 C 237.30498 60.3037 237.30469 59.726857 237.30469 59.630859 L 237.49609 58 L 237.40039 57.904297 C 237.2084 57.8083 237.11358 57.806641 237.01758 57.806641 L 235.38477 57.806641 z M 93.597656 57.904297 L 93.501953 58 C 93.501953 58.383989 93.597656 58.766696 93.597656 59.054688 C 93.597656 59.246682 93.693359 60.110529 93.693359 61.646484 L 94.652344 61.646484 C 94.652344 60.974504 94.749706 60.399908 94.845703 59.919922 C 94.845703 59.727927 94.845409 59.535156 94.941406 59.535156 C 94.941406 59.535156 95.03818 59.439453 95.326172 59.439453 C 95.902155 59.343456 96.669522 59.34375 97.4375 59.34375 L 98.972656 59.34375 L 98.972656 62.416016 L 98.972656 69.039062 C 98.972656 70.671015 98.97295 71.63193 98.876953 71.919922 C 98.780956 72.207913 98.684182 72.30244 98.492188 72.398438 C 98.39619 72.494435 97.821006 72.591797 96.957031 72.591797 L 96.957031 73.259766 C 98.348445 73.170599 99.47946 73.166016 100.50977 73.166016 C 101.56573 73.166016 102.71629 73.167675 104.15625 73.263672 L 104.15625 72.398438 C 103.29228 72.398438 102.81309 72.303028 102.62109 72.207031 C 102.5251 72.111034 102.42998 72.01426 102.33398 71.822266 C 102.23799 71.534274 102.23633 70.575312 102.23633 68.943359 L 102.23633 62.318359 L 102.23633 59.248047 L 103.77344 59.248047 C 104.63741 59.248047 105.40449 59.247753 105.98047 59.34375 C 106.17246 59.34375 106.36523 59.439453 106.36523 59.439453 C 106.46123 59.53545 106.55664 59.63193 106.55664 59.919922 C 106.65264 60.399908 106.74805 60.974798 106.74805 61.550781 L 107.70898 61.550781 L 107.70898 59.150391 C 107.70898 58.862399 107.70869 58.479986 107.80469 58 L 107.70898 57.904297 C 107.325 58.000294 107.03633 58 106.65234 58 L 102.9082 58 L 98.396484 58 L 94.75 58 C 94.270014 58 93.981645 57.904297 93.597656 57.904297 z M 96.957031 73.259766 C 96.922372 73.261987 96.896324 73.261339 96.861328 73.263672 L 96.957031 73.455078 L 96.957031 73.259766 z M 113.27734 57.904297 L 112.31641 60.398438 L 109.4375 67.503906 C 108.86152 68.847867 108.47715 69.71142 108.28516 70.191406 C 107.90117 71.247375 107.61358 71.727927 107.51758 71.919922 L 107.22852 72.207031 C 107.13252 72.303028 107.0374 72.398438 106.94141 72.398438 C 106.84541 72.398438 106.46075 72.494141 105.88477 72.494141 L 105.88477 73.455078 L 105.98047 73.646484 L 108.47656 73.550781 L 111.06836 73.646484 L 111.06836 72.6875 C 110.20438 72.6875 109.7252 72.590138 109.5332 72.494141 C 109.43721 72.398143 109.33984 72.303323 109.33984 72.111328 C 109.33984 71.823337 109.53203 71.247375 109.91602 70.191406 L 110.39648 68.847656 L 116.06055 68.847656 L 117.02148 71.246094 C 117.21348 71.630083 117.30859 71.919334 117.30859 72.111328 C 117.30859 72.207325 117.21318 72.30244 117.11719 72.398438 C 117.02119 72.494435 116.44405 72.591797 115.58008 72.591797 L 115.58008 73.550781 L 119.41992 73.455078 L 122.49219 73.550781 L 122.49219 72.591797 C 122.30019 72.4958 122.10772 72.494141 122.01172 72.494141 C 121.62773 72.494141 121.43584 72.398438 121.33984 72.398438 C 121.24385 72.398438 121.24443 72.398732 121.14844 72.302734 C 121.05244 72.206737 121.05303 72.111622 120.95703 72.015625 L 120.47656 70.958984 L 119.80469 69.423828 L 114.8125 57.904297 L 113.27734 57.904297 z M 120.28516 57.904297 L 120.18945 58 C 120.18945 58.383989 120.28516 58.766696 120.28516 59.054688 C 120.38115 59.246682 120.38086 60.110529 120.38086 61.646484 L 121.33984 61.646484 C 121.33984 60.974504 121.43721 60.399908 121.5332 59.919922 C 121.5332 59.727927 121.53291 59.535156 121.62891 59.535156 C 121.62891 59.535156 121.72373 59.439453 122.01172 59.439453 C 122.5877 59.343456 123.35702 59.34375 124.125 59.34375 L 125.66016 59.34375 L 125.66016 62.416016 L 125.66016 69.039062 C 125.66016 70.671015 125.66045 71.63193 125.56445 71.919922 C 125.46846 72.207913 125.37168 72.30244 125.17969 72.398438 C 125.08369 72.494435 124.50851 72.591797 123.64453 72.591797 L 123.64453 73.263672 C 125.08449 73.167675 126.237 73.166016 127.29297 73.166016 C 128.34894 73.166016 129.4995 73.167675 130.93945 73.263672 L 130.93945 72.398438 C 129.97948 72.398438 129.50059 72.303028 129.30859 72.207031 C 129.2126 72.111034 129.11553 72.01426 129.01953 71.822266 C 128.92353 71.534274 128.92383 70.575312 128.92383 68.943359 L 128.92383 62.318359 L 128.92383 59.248047 L 130.55664 59.248047 C 131.42062 59.248047 132.18769 59.247753 132.76367 59.34375 C 132.95567 59.34375 133.14844 59.439453 133.14844 59.439453 C 133.24443 59.53545 133.33984 59.63193 133.33984 59.919922 C 133.33984 60.399908 133.43555 60.974798 133.43555 61.550781 L 134.39648 61.550781 L 134.39648 59.150391 C 134.39648 58.862399 134.39619 58.479986 134.49219 58 L 134.39648 57.904297 C 134.0125 58.000294 133.72383 58 133.33984 58 L 129.5957 58 L 125.08398 58 L 121.43555 58 C 120.95556 58 120.66915 57.904297 120.28516 57.904297 z M 179.51562 57.904297 L 179.51562 58.863281 C 180.2836 58.959278 180.76308 59.054688 180.95508 59.054688 C 181.14707 59.150685 181.24189 59.15205 181.33789 59.248047 C 181.43389 59.344044 181.53125 59.438865 181.53125 59.630859 C 181.62725 59.822854 181.62695 60.111517 181.62695 60.6875 L 181.72266 63.951172 L 181.72266 67.503906 L 181.72266 69.902344 C 181.62666 70.958313 181.53125 71.63193 181.53125 71.919922 C 181.53125 72.111916 181.53154 72.206737 181.43555 72.302734 C 181.43555 72.302734 181.33818 72.398438 181.24219 72.398438 C 181.05019 72.398438 180.57101 72.494141 179.70703 72.494141 L 179.61133 72.398438 L 179.61133 73.359375 C 180.76329 73.263378 181.81825 73.263672 182.49023 73.263672 L 184.89062 73.263672 L 184.89062 72.398438 L 184.69922 72.398438 C 184.50722 72.398438 184.12256 72.398732 183.64258 72.302734 C 183.45058 72.302734 183.35381 72.303028 183.25781 72.207031 C 183.16182 72.207031 183.06641 72.111622 183.06641 72.015625 C 183.06641 71.823631 182.9707 71.34249 182.9707 70.478516 C 182.87471 69.230552 182.875 68.079701 182.875 66.927734 L 182.875 61.455078 C 187.29087 66.830921 190.65085 70.767157 193.05078 73.455078 C 193.72276 73.551075 194.39472 73.64619 194.9707 73.742188 L 195.16211 73.646484 C 195.06611 72.590515 194.9707 69.614607 194.9707 64.71875 C 194.9707 64.142767 195.06641 63.183804 195.06641 61.839844 C 195.06641 60.59188 195.16182 59.727739 195.25781 59.34375 C 195.25781 59.247753 195.25752 59.150391 195.35352 59.150391 C 195.54551 59.054393 196.12235 58.958984 196.98633 58.958984 L 196.98633 58 C 195.83436 58.095997 194.9711 58.095703 194.20312 58.095703 C 193.43515 58.095703 192.57101 58.095997 191.70703 58 L 191.70703 58.958984 C 192.667 58.958984 193.2416 59.054393 193.43359 59.150391 C 193.52959 59.246388 193.62695 59.438571 193.62695 59.726562 C 193.72295 60.398543 193.72266 62.79849 193.72266 66.734375 L 193.72266 69.326172 C 192.76268 68.270203 191.41877 66.736056 189.88281 64.912109 C 187.67488 62.320185 185.85041 60.015941 184.31445 58 L 183.25781 58 L 181.62695 58 C 181.14697 58 180.4756 58.000294 179.51562 57.904297 z M 199.00195 57.904297 L 199.00195 58.863281 C 199.86593 58.863281 200.34541 58.958984 200.44141 58.958984 C 200.6334 58.958984 200.63447 58.95869 200.73047 59.054688 C 200.73047 59.054687 200.82617 59.15205 200.82617 59.248047 C 200.82617 59.440041 200.92188 60.014637 200.92188 60.974609 L 200.92188 63.855469 L 200.92188 68.462891 C 200.92187 69.230868 200.92217 70.09501 200.82617 70.958984 C 200.82617 71.534968 200.73047 71.919628 200.73047 72.015625 C 200.73047 72.111622 200.73076 72.111034 200.63477 72.207031 C 200.63477 72.207031 200.5377 72.302734 200.3457 72.302734 C 200.24971 72.302734 199.76993 72.398438 199.00195 72.398438 L 199.00195 73.359375 C 199.96193 73.263378 201.01796 73.263672 202.16992 73.263672 C 203.51388 73.263672 204.7618 73.263378 206.00977 73.359375 L 206.00977 72.398438 C 205.24179 72.398438 204.85801 72.302734 204.66602 72.302734 C 204.47402 72.302734 204.37725 72.303028 204.28125 72.207031 C 204.18525 72.207031 204.08984 72.111622 204.08984 72.015625 C 203.99385 71.823631 203.99414 71.342196 203.99414 70.574219 L 203.99414 68.558594 L 203.99414 64.046875 L 203.99414 61.070312 L 203.99414 60.015625 C 203.99414 59.727633 203.99385 59.439747 204.08984 59.34375 C 204.08984 59.247753 204.08955 59.150391 204.18555 59.150391 C 204.18555 59.150391 204.37861 59.054688 204.47461 59.054688 C 204.6666 59.054687 205.05038 58.958984 205.81836 58.958984 L 205.81836 58 L 206.00977 57.904297 C 204.7618 58.000294 203.51388 58 202.16992 58 C 201.01796 58 199.96193 58.000294 199.00195 57.904297 z M 218.49023 57.904297 L 218.49023 58.863281 C 218.87422 58.863281 219.2583 58.958984 219.73828 58.958984 C 219.93028 59.054982 220.0251 59.054688 220.12109 59.054688 C 220.21709 59.054688 220.31445 59.054393 220.31445 59.150391 C 220.41045 59.246388 220.41016 59.343456 220.41016 59.439453 L 220.41016 59.726562 C 220.41016 60.110551 220.12198 60.686807 219.83398 61.550781 C 219.354 62.798745 219.1624 63.568065 219.06641 63.664062 L 216.57031 69.710938 L 213.78516 62.894531 C 213.68916 62.798534 213.68945 62.799122 213.68945 62.703125 C 213.59346 62.703125 213.49698 62.318465 213.20898 61.646484 C 212.729 60.494518 212.44141 59.727151 212.44141 59.535156 C 212.44141 59.439159 212.44111 59.344044 212.53711 59.248047 C 212.63311 59.15205 212.72988 59.054688 212.92188 59.054688 C 213.20987 58.95869 213.68964 58.958984 214.26562 58.958984 L 214.26562 58 L 210.33008 58.095703 C 209.94609 58.095703 208.79436 58.095997 207.06641 58 L 207.06641 58.958984 C 207.73839 58.958984 208.21816 59.054393 208.41016 59.150391 C 208.60215 59.246388 208.79404 59.535345 209.08203 60.111328 C 209.37002 60.687311 210.13876 62.414712 211.38672 65.390625 L 212.92188 69.134766 C 213.47334 70.513417 214.0303 71.896473 214.66602 73.359375 L 216.28125 73.359375 C 216.76124 72.111411 217.62508 69.999645 218.87305 66.927734 L 220.41016 63.375 L 221.17773 61.550781 C 221.84971 60.014826 222.23379 59.246682 222.42578 59.054688 C 222.52178 59.054687 223.00185 58.959278 223.67383 58.863281 L 223.67383 57.904297 L 221.27344 58 L 218.49023 57.904297 z M 214.66602 73.359375 L 214.55469 73.359375 L 214.74609 73.550781 C 214.71748 73.485388 214.69428 73.424428 214.66602 73.359375 z M 268.79297 57.904297 L 268.79297 58.863281 C 269.65694 58.863281 270.13642 58.958984 270.23242 58.958984 C 270.42442 58.958984 270.51953 58.95869 270.51953 59.054688 C 270.51953 59.054687 270.61523 59.15205 270.61523 59.248047 C 270.61523 59.440041 270.71289 60.014637 270.71289 60.974609 L 270.71289 63.855469 L 270.71289 68.462891 C 270.71289 69.230868 270.71123 70.09501 270.61523 70.958984 C 270.61523 71.534968 270.51953 71.919628 270.51953 72.015625 C 270.51953 72.111622 270.51983 72.111034 270.42383 72.207031 C 270.42383 72.207031 270.32871 72.302734 270.13672 72.302734 C 270.04072 72.302734 269.56095 72.398438 268.79297 72.398438 L 268.79297 73.359375 C 269.75294 73.263378 270.80897 73.263672 271.96094 73.263672 C 273.3049 73.263672 274.55282 73.263378 275.80078 73.359375 L 275.80078 72.398438 C 275.0328 72.398438 274.64707 72.302734 274.45508 72.302734 C 274.35908 72.302734 274.26397 72.303028 274.16797 72.207031 C 274.07197 72.207031 273.97656 72.111622 273.97656 72.015625 C 273.88057 71.823631 273.88086 71.342196 273.88086 70.574219 L 273.88086 68.558594 L 273.88086 64.046875 L 273.88086 61.070312 L 273.88086 60.015625 C 273.88086 59.727633 273.88057 59.439747 273.97656 59.34375 C 273.97656 59.247753 273.97627 59.150391 274.07227 59.150391 C 274.07227 59.150391 274.26338 59.054688 274.35938 59.054688 C 274.55137 59.054687 274.93515 58.958984 275.70312 58.958984 L 275.70312 58 L 275.80078 57.904297 C 274.55282 58.000294 273.3049 58 271.96094 58 C 270.80897 58 269.75294 58.000294 268.79297 57.904297 z M 276.95117 57.904297 L 276.85547 58 C 276.85547 58.383989 276.95117 58.766696 276.95117 59.054688 C 276.95117 59.246682 277.04883 60.110529 277.04883 61.646484 L 278.00781 61.646484 C 278.00781 60.974504 278.10322 60.399908 278.19922 59.919922 C 278.19922 59.727927 278.19892 59.535156 278.29492 59.535156 C 278.29492 59.535156 278.3917 59.439453 278.67969 59.439453 C 279.25567 59.343456 280.02304 59.34375 280.79102 59.34375 L 282.42383 59.34375 L 282.42383 62.416016 L 282.42383 69.039062 C 282.42383 70.671015 282.42412 71.63193 282.32812 71.919922 C 282.23213 72.207913 282.13535 72.30244 281.94336 72.398438 C 281.84736 72.494435 281.27218 72.591797 280.4082 72.591797 L 280.4082 73.263672 C 281.84816 73.167675 283.00067 73.166016 284.05664 73.166016 C 285.11261 73.166016 286.26317 73.167675 287.70312 73.263672 L 287.70312 72.398438 C 286.74315 72.398438 286.26426 72.303028 286.07227 72.207031 C 285.97627 72.111034 285.8792 72.01426 285.7832 71.822266 C 285.68721 71.534274 285.6875 70.575312 285.6875 68.943359 L 285.6875 62.318359 L 285.6875 59.248047 L 287.22266 59.248047 C 288.08663 59.248047 288.85566 59.247753 289.43164 59.34375 C 289.62364 59.34375 289.81641 59.439453 289.81641 59.439453 C 289.81641 59.53545 289.91211 59.63193 289.91211 59.919922 C 290.00811 60.399908 290.10352 60.974798 290.10352 61.550781 L 291.06445 61.550781 L 291.06445 59.150391 C 291.06445 58.862399 291.06416 58.479986 291.16016 58 L 291.06445 57.904297 C 290.68046 58.000294 290.3918 58 290.00781 58 L 286.26367 58 L 281.75195 58 L 278.10352 58 C 277.62353 58 277.33516 57.904297 276.95117 57.904297 z M 238.9375 58 L 238.9375 58.863281 L 238.74414 58.958984 C 239.60812 58.958984 240.18496 59.054393 240.37695 59.150391 C 240.47295 59.246388 240.56836 59.247753 240.56836 59.34375 C 240.56836 59.535744 240.66406 60.014637 240.66406 60.974609 L 240.76172 63.279297 L 240.76172 67.40625 L 240.66406 70.671875 C 240.66406 71.247858 240.66436 71.727633 240.56836 72.015625 C 240.56836 72.111622 240.47266 72.206737 240.47266 72.302734 C 240.47266 72.302734 240.37725 72.398438 240.28125 72.398438 C 240.08926 72.398438 239.60812 72.494141 238.74414 72.494141 L 238.74414 73.455078 C 239.70411 73.359081 240.76014 73.359375 241.91211 73.359375 C 243.25607 73.359375 244.50399 73.359081 245.75195 73.455078 L 245.75195 72.494141 C 245.07997 72.494141 244.6959 72.398438 244.50391 72.398438 C 244.40791 72.398438 244.31279 72.302734 244.2168 72.302734 C 244.1208 72.206737 244.02539 72.207325 244.02539 72.111328 C 244.02539 72.015331 243.92969 71.727739 243.92969 71.34375 C 243.92969 71.151756 243.83203 70.287908 243.83203 68.751953 L 243.83203 65.199219 C 243.83203 64.431241 243.92969 63.086548 243.92969 60.974609 C 244.02568 60.014637 244.02539 59.438382 244.02539 59.150391 C 244.40938 59.054393 244.69609 59.054688 245.08008 59.054688 C 245.84806 59.054687 246.4249 59.15205 246.71289 59.248047 C 247.19288 59.440041 247.67295 59.727045 247.96094 60.207031 C 248.24893 60.687017 248.44141 61.263567 248.44141 61.935547 C 248.44141 62.607527 248.24893 63.183782 247.96094 63.759766 C 247.67295 64.335749 247.28858 64.720115 246.80859 64.912109 C 246.32861 65.104104 245.65694 65.199219 244.79297 65.199219 L 244.69727 65.583984 C 244.88926 65.775979 245.17715 66.063571 245.36914 66.351562 C 245.84913 67.023543 246.42568 67.887096 247.09766 69.039062 L 249.49609 72.974609 C 249.68809 73.262601 249.78516 73.45449 249.78516 73.646484 L 251.51172 73.646484 L 254.00781 73.646484 L 254.00781 72.6875 C 253.71982 72.6875 253.43193 72.687794 253.33594 72.591797 C 253.23994 72.4958 253.04912 72.398732 252.95312 72.302734 C 252.76113 72.11074 252.47247 71.726962 251.89648 70.958984 C 251.80049 70.958984 251.60889 70.574324 251.12891 69.902344 L 249.40039 67.310547 C 249.40039 67.21455 249.30469 67.215138 249.30469 67.119141 C 249.30469 67.023143 249.11192 66.831254 248.91992 66.447266 C 248.63193 66.063277 248.44004 65.678617 248.24805 65.390625 C 249.40001 65.006636 250.26386 64.43204 250.83984 63.664062 C 251.41583 62.992082 251.70508 62.127647 251.70508 61.263672 C 251.70508 60.495694 251.5129 59.823736 251.12891 59.34375 C 250.74492 58.767767 250.26544 58.479104 249.68945 58.287109 C 249.11347 58.095115 248.24962 58 247.09766 58 C 246.42568 58 245.75294 58.095703 244.79297 58.095703 L 242.77734 58.095703 L 240.66406 58.095703 C 239.70409 57.999706 239.12949 58 238.9375 58 z M 113.08398 61.744141 L 115.48438 67.503906 L 113.18164 67.503906 L 110.78125 67.503906 L 113.08398 61.744141 z "
     transform="matrix(10.416971,0,0,10.416971,0,-0.17765736)"
     id="path7" /></svg>