<?xml version="1.0" encoding="UTF-8"?>
<!DOCTYPE svg PUBLIC "-//W3C//DTD SVG 1.1//EN" "http://www.w3.org/Graphics/SVG/1.1/DTD/svg11.dtd">
<!-- Creator: CorelDRAW X6 -->
<svg xmlns="http://www.w3.org/2000/svg" xml:space="preserve" width="8.5in" height="11in" version="1.1" style="shape-rendering:geometricPrecision; text-rendering:geometricPrecision; image-rendering:optimizeQuality; fill-rule:evenodd; clip-rule:evenodd"
viewBox="0 0 8500 11000"
 xmlns:xlink="http://www.w3.org/1999/xlink">
 <defs>
  <style type="text/css">
   <![CDATA[
    .fil0 {fill:#373435}
   ]]>
  </style>
 </defs>
 <g id="__x0023_Layer_x0020_1">
  <metadata id="CorelCorpID_0Corel-Layer"/>
  <path class="fil0" d="M5161 3856l0 1046c-37,29 -68,60 -97,93l0 -1139 -1159 0 0 952 -96 0 0 -952 -1159 0 0 954 -96 0 0 -954 -1159 0 0 1087 -296 986 260 0 131 -437 38 0 216 437 314 0 -209 -437 475 0 -132 437 284 0 130 -435 62 0 0 -1 89 0 7 0 536 0 -125 435 286 0 122 -435 129 0 3 435 240 0 276 -435 181 0 -93 435 282 0 91 -435 163 0c-6,135 28,257 118,340 109,100 277,120 401,120 170,0 346,-24 524,-64l98 -395 322 0 0 -1636 -1159 0zm-2647 1009l0 0 -17 56 -154 512 -6 18 -507 0 -40 -83 546 -558 -351 0 -427 460 138 -460 -259 0 0 -913 1075 0 0 968zm299 433l0 0 0 0c-10,1 -21,1 -33,1 -16,0 -28,1 -40,1l-69 -1 32 -118 15 -58 36 -137c16,0 32,-1 47,-1 18,0 36,0 53,0 91,0 149,5 170,34 16,22 14,60 -5,118 -32,100 -74,150 -206,160l0 0zm783 153l0 0 113 -402 4 402 -117 0zm172 -643l0 0 -269 0 -185 643 -286 0c146,-54 234,-157 262,-309 23,-119 12,-197 -36,-255 -72,-87 -218,-79 -347,-79 -23,0 -214,0 -214,0l0 -911 1075 0 0 911zm653 643l0 0 -162 0 245 -386 -83 386zm601 -625l0 0 -1 223c-75,104 -122,217 -143,308 -8,32 -14,63 -17,94l-158 0 135 -642 -455 0 -407 642 -30 0 0 -1554 1076 0 0 929zm620 888l0 0c-61,11 -123,19 -181,19 -155,0 -263,-72 -265,-240l502 0 -55 222zm635 -263l0 0 -271 0 45 -179 -543 0 -45 179 -262 0 0 -37c4,-20 8,-41 13,-64 48,-193 175,-384 394,-384 87,0 173,33 161,153l323 0c13,-56 34,-152 -27,-239 -69,-95 -208,-134 -388,-134 -128,0 -315,20 -477,126l0 -975 1077 0 0 1554z"/>
 </g>
</svg>
