<?xml version="1.0" encoding="UTF-8" standalone="no"?>
<!-- Creator: CorelDRAW X6 -->

<svg
   xmlns:dc="http://purl.org/dc/elements/1.1/"
   xmlns:cc="http://creativecommons.org/ns#"
   xmlns:rdf="http://www.w3.org/1999/02/22-rdf-syntax-ns#"
   xmlns:svg="http://www.w3.org/2000/svg"
   xmlns="http://www.w3.org/2000/svg"
   xmlns:sodipodi="http://sodipodi.sourceforge.net/DTD/sodipodi-0.dtd"
   xmlns:inkscape="http://www.inkscape.org/namespaces/inkscape"
   xml:space="preserve"
   width="5.2189999in"
   height="2.0969999in"
   version="1.1"
   style="clip-rule:evenodd;fill-rule:evenodd;image-rendering:optimizeQuality;shape-rendering:geometricPrecision;text-rendering:geometricPrecision"
   viewBox="0 0 5218.9999 2096.9999"
   id="svg4581"
   sodipodi:docname="KPMG.svg"
   inkscape:version="0.92.0 r15299"><metadata
     id="metadata4585"><rdf:RDF><cc:Work
         rdf:about=""><dc:format>image/svg+xml</dc:format><dc:type
           rdf:resource="http://purl.org/dc/dcmitype/StillImage" /><dc:title></dc:title></cc:Work></rdf:RDF></metadata><sodipodi:namedview
     pagecolor="#ffffff"
     bordercolor="#666666"
     borderopacity="1"
     objecttolerance="10"
     gridtolerance="10"
     guidetolerance="10"
     inkscape:pageopacity="0"
     inkscape:pageshadow="2"
     inkscape:window-width="1920"
     inkscape:window-height="1137"
     id="namedview4583"
     showgrid="false"
     fit-margin-top="0"
     fit-margin-left="0"
     fit-margin-right="0"
     fit-margin-bottom="0"
     inkscape:zoom="1.2963624"
     inkscape:cx="259.64811"
     inkscape:cy="159.7893"
     inkscape:window-x="1912"
     inkscape:window-y="-8"
     inkscape:window-maximized="1"
     inkscape:current-layer="svg4581" /><defs
     id="defs4575"><style
       type="text/css"
       id="style4573"><![CDATA[
    .fil0 {fill:#373435}
   ]]></style></defs><path
     style="fill:#000000;fill-opacity:1"
     inkscape:connector-curvature="0"
     id="path4578"
     d="m 4062,0 v 1046 c -37,29 -68,60 -97,93 V 0 H 2806 v 952 h -96 V 0 H 1551 v 954 h -96 V 0 H 296 V 1087 L 0,2073 h 260 l 131,-437 h 38 l 216,437 H 959 L 750,1636 h 475 l -132,437 h 284 l 130,-435 h 62 v -1 h 89 7 536 l -125,435 h 286 l 122,-435 h 129 l 3,435 h 240 l 276,-435 h 181 l -93,435 h 282 l 91,-435 h 163 c -6,135 28,257 118,340 109,100 277,120 401,120 170,0 346,-24 524,-64 l 98,-395 h 322 V 2 H 4060 Z M 1415,1009 v 0 l -17,56 -154,512 -6,18 H 731 l -40,-83 546,-558 H 886 L 459,1414 597,954 H 338 V 41 h 1075 v 968 z m 299,433 v 0 0 c -10,1 -21,1 -33,1 -16,0 -28,1 -40,1 l -69,-1 32,-118 15,-58 36,-137 c 16,0 32,-1 47,-1 18,0 36,0 53,0 91,0 149,5 170,34 16,22 14,60 -5,118 -32,100 -74,150 -206,160 v 0 z m 783,153 v 0 l 113,-402 4,402 z m 172,-643 v 0 h -269 l -185,643 h -286 c 146,-54 234,-157 262,-309 23,-119 12,-197 -36,-255 -72,-87 -218,-79 -347,-79 -23,0 -214,0 -214,0 V 41 h 1075 z m 653,643 v 0 h -162 l 245,-386 z m 601,-625 v 0 l -1,223 c -75,104 -122,217 -143,308 -8,32 -14,63 -17,94 h -158 l 135,-642 h -455 l -407,642 h -30 V 41 h 1076 z m 620,888 v 0 c -61,11 -123,19 -181,19 -155,0 -263,-72 -265,-240 h 502 l -55,222 z m 635,-263 v 0 h -271 l 45,-179 h -543 l -45,179 h -262 v -37 c 4,-20 8,-41 13,-64 48,-193 175,-384 394,-384 87,0 173,33 161,153 h 323 c 13,-56 34,-152 -27,-239 -69,-95 -208,-134 -388,-134 -128,0 -315,20 -477,126 V 41 h 1077 z"
     class="fil0" /></svg>