<?xml version="1.0" encoding="UTF-8" standalone="no"?>
<!-- Creator: CorelDRAW X6 -->

<svg
   xmlns:dc="http://purl.org/dc/elements/1.1/"
   xmlns:cc="http://creativecommons.org/ns#"
   xmlns:rdf="http://www.w3.org/1999/02/22-rdf-syntax-ns#"
   xmlns:svg="http://www.w3.org/2000/svg"
   xmlns="http://www.w3.org/2000/svg"
   xmlns:sodipodi="http://sodipodi.sourceforge.net/DTD/sodipodi-0.dtd"
   xmlns:inkscape="http://www.inkscape.org/namespaces/inkscape"
   xml:space="preserve"
   width="5.3869834in"
   height="2.3186259in"
   version="1.1"
   style="clip-rule:evenodd;fill-rule:evenodd;image-rendering:optimizeQuality;shape-rendering:geometricPrecision;text-rendering:geometricPrecision"
   viewBox="0 0 5386.9834 2318.6259"
   id="svg4684"
   sodipodi:docname="Lost World.svg"
   inkscape:version="0.92.0 r15299"><metadata
     id="metadata4688"><rdf:RDF><cc:Work
         rdf:about=""><dc:format>image/svg+xml</dc:format><dc:type
           rdf:resource="http://purl.org/dc/dcmitype/StillImage" /><dc:title></dc:title></cc:Work></rdf:RDF></metadata><sodipodi:namedview
     pagecolor="#ffffff"
     bordercolor="#666666"
     borderopacity="1"
     objecttolerance="10"
     gridtolerance="10"
     guidetolerance="10"
     inkscape:pageopacity="0"
     inkscape:pageshadow="2"
     inkscape:window-width="1920"
     inkscape:window-height="1137"
     id="namedview4686"
     showgrid="false"
     fit-margin-top="0"
     fit-margin-left="0"
     fit-margin-right="0"
     fit-margin-bottom="0"
     inkscape:zoom="2.7342142"
     inkscape:cx="258.5752"
     inkscape:cy="111.29405"
     inkscape:window-x="1912"
     inkscape:window-y="-8"
     inkscape:window-maximized="1"
     inkscape:current-layer="svg4684" /><defs
     id="defs4598"><style
       type="text/css"
       id="style4596"><![CDATA[
    .str1 {stroke:#373435;stroke-width:10}
    .str0 {stroke:#FEFEFE;stroke-width:31.252}
    .fil2 {fill:none}
    .fil0 {fill:#373435}
    .fil1 {fill:#FEFEFE}
   ]]></style></defs><path
     style="fill:#000000;fill-opacity:1;stroke-width:1"
     d="m 1564.9821,0 c -444,0 -914.99833,630.99096 -914.99833,1048.991 0,174 -11.98615,79.0061 35.01386,123.0061 l 41.99218,26.0011 c 4.00001,2 10.99428,4.0017 14.99428,6.0017 l 87.01583,23.9868 c -50,75 -132.00167,129.9994 -210.00167,190.9994 -174.00001,136 -453.01137,330.0061 -595.011374,498.0061 L 0,1944.987 l 532.9997,-344.991 -1.0177,0.9969 c 60,-50 92.01792,-97.0009 185.01792,-105.0009 0,122 -37.00292,189.0046 0.99687,288.0045 151.00001,395.0004 745.99461,449.9999 1106.99461,328.9999 89,-30 130.0047,-63.0109 209.0047,-82.0109 24,90 1.0042,0.01 25.0041,64.0055 2,5 3.9814,11.0116 5.9814,16.0116 140,365 683.0038,185.9962 683.0038,-58.0038 0,-340 -390.9871,-308.9946 -490.9871,-356.9946 135,-256 62.9949,-530.0174 -176.0051,-672.0174 -501,-298.00001 -935.9919,30.0008 -824.9919,-144.99917 50,-79 232.9951,-210.00115 369.9951,-572.00116 38,-99.00001 89.9852,-306.98657416667 -61.0148,-306.98657416667 z m 462.0159,16.988126 v 21.016459 h 10.9863 c 10,0 17.0102,3.983229 23.0102,11.983229 5,8 9.0067,16.997917 11.0067,26.997918 2,11 2.9907,36.002918 2.9907,78.002918 V 685.9945 c 0,40 -0.9906,64.99188 -2.9907,74.99188 -2,14 -6.0098,23.01208 -10.0098,29.01208 -6,9 -14.0071,13.00042 -24.0071,13.00042 h -10.9863 v 20.99615 h 308.0037 l 12.9801,-282.00283 h -10.9863 c -8,63.00001 -16.0041,111.00543 -25.0041,143.00543 -9,32 -20.0027,56.00427 -32.0027,71.00417 -12,14.0002 -28.0002,21.99302 -46.0002,21.99302 h -28.9917 c -16,0 -27.0058,-2.0049 -31.0058,-5.0049 -6,-5 -10.0036,-14.00406 -12.0036,-25.00406 -2,-12 -2.9908,-37.9998 -2.9908,-78.9998 V 154.98865 c 0,-40 0.9907,-64.991876 2.9908,-74.991877 3,-14 7.0066,-22.991667 11.0066,-28.991667 6,-9 14.0072,-13.000521 24.0072,-13.000521 h 14.9943 V 16.988126 Z m 1109.9853,1.017708 v 20.996042 c 11,3 18.0103,10.983751 23.0103,24.983751 4,14 12.0071,54.012393 24.0071,121.012403 l 114.9903,657.99971 h 8.9925 l 95.0114,-525.00408 85.9985,525.00408 h 8.9925 l 109.0089,-664.99846 c 10,-56.00001 14.9911,-87.000319 15.9911,-92.000319 4,-15 8.0037,-25.996563 12.0037,-33.996564 4,-8 10.0115,-12.000521 16.0116,-13.000521 V 19.002709 h -87.0159 v 20.996146 c 13,1 21.9979,5.994271 26.9979,14.994272 5,10 6.9987,23.001459 6.9987,39.001459 0,11.000004 -0.9938,23.010734 -1.9939,36.010734 -1,14 -4.9862,37.995 -10.9862,73.995 l -57.0069,344.99105 -63.0086,-381.99876 c -7,-48 -10.9863,-76.001565 -10.9863,-85.001566 0,-8 0.9906,-14.993021 2.9907,-21.993021 1.9999,-6 3.9956,-10.997396 7.9956,-13.997397 5,-4 13.004,-6.99875 25.004,-6.99875 V 18.005834 h -166.9922 v 20.996042 c 10,0 17.9869,2.98948 23.9869,9.98948 6,7 11.0146,17.996563 15.0146,33.996563 4,16.000001 9.9851,47.014481 17.9851,94.014481 l 13.9974,82.9875 -54.9927,309.00064 -67.9931,-390.99126 c -9,-50.00001 -13.0006,-82.005214 -13.0006,-97.005215 0,-12 2.0018,-20.991667 6.0018,-28.991668 4,-8 11.9869,-12.000521 23.9869,-13.000521 V 18.005834 Z m 514.0179,0.996875 h 2.9906 l -2.9906,-0.996875 z m 480.9977,-0.996875 v 20.996042 c 11,2 18.9899,8.002292 22.9899,19.002293 4,11 6.0017,35.988751 6.0017,75.988751 v 575.01231 c 0,39 -1.0052,63.99802 -5.0048,72.99802 -5,14 -12.9868,20.99303 -23.9868,21.99303 v 20.99604 h 131.0018 v -20.99604 c -11,-2 -19.0104,-8.0023 -23.0104,-19.0023 -4,-11 -6.0017,-35.98875 -6.0017,-75.98875 V 18.005834 h -0.9969 z m 386.9832,0 v 0.996875 h 2.0142 z m 0,0.996875 h -104.9805 v 26.001042 c 11,0 18.9899,2.995521 22.9899,7.995522 4,5 6.9925,14.004062 8.9925,25.004063 1,9 2.0142,33.988854 2.0142,75.988854 v 169.00636 c -10,-26 -19.0151,-43.99583 -28.0151,-53.99583 -8,-10 -18.9887,-15.01459 -29.9887,-15.01459 -18,0 -35.0081,12.01073 -50.0081,36.01073 -15,24 -26.9904,59.99459 -35.9903,106.99459 -9.0002,47 -13.0006,99.99355 -13.0006,159.99355 0,75 6.9961,138.00552 20.9961,189.00552 17,63.00001 42.0011,95.01136 72.0011,95.01136 12,0 23.0029,-6.00531 32.0029,-18.00531 9,-13 20.0027,-36.0074 32.0027,-70.0074 v 88.01271 l 100.9929,-45.00323 V 775.0045 c -9,-2 -15.9993,-6.00354 -19.9993,-12.00354 -4,-6 -6.9955,-16.01208 -7.9955,-29.01208 -1,-8 -2.0142,-32.98875 -2.0142,-75.98875 z M 1531.779,48.910002 h 12.3698 l 2.828,12.084896 c 11.5147,49.314372 7.2793,57.046982 10.5184,76.416042 3.24,19.36896 3.2827,30.58511 0.042,40.12042 -3.242,9.53531 -6.595,12.57604 -10.1929,23.39688 -3.5979,10.82073 -7.8441,29.83479 -10.7828,66.32479 l -31.0466,0.91562 -19.043,-135.07073 c -61.5671,28.86938 -89.8446,40.0999 -105.6315,52.36813 -17.4835,13.58646 -27.9616,33.60396 -65.6331,92.87521 l -0.021,0.0417 c -16.397,25.98083 -27.1084,41.28843 -35.3393,51.31021 -8.2366,10.02864 -15.0369,15.31843 -20.3044,18.35125 -5.2675,3.03281 -6.6248,3.14906 -11.5153,7.54802 -2.8316,2.54698 -6.9273,6.91739 -12.3291,13.44812 1.8979,0.27917 4.1602,0.71667 5.6356,0.83438 2.7073,0.21562 4.8714,0.19166 7.9346,0.48854 3.0632,0.29687 8.018,1.19458 12.4308,4.47594 8.8257,6.56271 9.502,13.52812 12.4511,23.21364 2.9492,9.68563 7.0118,24.02605 14.6688,46.99709 l 0.021,0.0417 v 0.0417 c 20.6829,63.13719 5.3522,125.46157 -4.6183,169.33178 l -0.1625,0.75312 -0.2438,0.73229 c 0.1594,-0.47604 -0.4968,2.11834 -0.9968,4.61834 -0.5,2.5 -0.8354,4.88531 -1.9938,8.36187 l 0.3865,-1.36312 c -33.9084,144.10813 -176.9763,248.0473 -286.51941,321.41115 l -16.11333,10.78282 -7.12073,-18.02573 c -10.32104,-26.10584 -9.44969,-53.95219 -16.43885,-72.28594 -3.49448,-9.16677 -7.91782,-15.65771 -16.03188,-20.77229 -8.11406,-5.11469 -20.94552,-9.05355 -41.99219,-9.05355 -34.97833,0 -54.58104,5.91605 -66.93521,13.73292 -12.35427,7.81688 -18.97229,18.23448 -26.55031,32.30792 -15.15594,28.14667 -15.80365,69.29052 -84.67615,87.44302 l -1.95313,0.50834 h -22.705 l 4.45552,-19.16501 C 757.21336,702.64742 976.22701,432.66408 1150.7788,253.09636 l 0.083,-0.0625 0.083,-0.0833 c 3.0791,-3.07938 17.2852,-18.49396 19.8567,-21.70823 l 0.2646,-0.34583 0.2844,-0.325 c 54.9912,-61.37407 98.8494,-86.97813 144.2668,-123.39272 45.4174,-36.414581 101.4837,-58.268228 216.1661,-58.268228 z m 1405.2124,14.07875 c -12,48.999998 -24.9983,92.001778 -39.9983,131.001778 -15,39 -32.9927,76.0026 -54.9927,111.0026 v 20.99615 h 31.9824 v 300.00814 c 0,59 1.0115,94.98844 3.0111,108.98844 3,24 8.9992,46.01969 19.9992,66.01969 11,19 24.0015,28.99166 39.0015,28.99166 31,0 52.9962,-36.99646 66.9962,-112.99646 l -7.9956,-13.00041 c -9,39 -20.0058,58.00375 -31.0058,58.00375 -3,0 -5.9925,-3.01292 -8.9925,-9.01292 -3,-5 -5.9988,-12.99302 -6.9988,-21.99302 -1,-9 -2.0142,-30.01167 -2.0142,-62.01167 v -342.9972 h 57.0069 v -57.98344 h -57.0069 V 63.985627 l -0.9968,-0.996875 z M 2497.9859,250.9974 c -35,0 -61.9905,29.98928 -81.9905,88.98917 -20,59.00011 -30.009,129.00772 -30.009,208.00793 0,77 10.0121,145.00292 29.012,203.00292 19.0001,59 46.9875,87.99229 82.9875,87.99229 36,0 64.9986,-31.98791 85.9986,-95.98792 17,-53 26.001,-118.00114 26.001,-197.00115 -2e-4,-54 -4.9974,-104.00406 -13.9975,-150.00406 -8.9999,-46.00001 -22.9952,-80.99772 -40.9952,-105.99772 -18,-25 -37.0038,-37.00771 -58.0038,-37.00771 z m 1584.0049,0.99688 c -11.0001,0 -21.9967,8.99479 -33.9967,27.99479 -12,19 -25.9922,57.01365 -41.9922,114.01365 V 268.00584 l 1.9939,-2.01416 h -98.0021 v 20.99604 c 8,2 14.0084,6.00656 17.0084,11.00677 3,5.99989 4.9987,14.00406 6.9987,25.00406 1,9 1.9938,29.99136 1.9938,61.99136 v 308.00376 c 0,49 -2.0018,79.00646 -6.0018,90.00646 -3,11 -9.9961,17.99917 -20.9961,19.99917 v 20.99614 h 130.0049 V 802.9993 c -10,-1 -17.0165,-4.01282 -21.0165,-9.01282 -4,-5 -6.9925,-12.98687 -8.9925,-23.98677 -1,-7.00021 -1.9937,-21.00635 -1.9937,-44.00635 V 692.99367 565.99981 c 0,-46 2.9955,-89.01417 7.9955,-127.01417 4,-25 8.9912,-43.98323 15.9912,-57.98344 4,-9 8.9974,-13.00042 13.9974,-13.00042 2,0 4.0018,1.98761 6.0018,3.98761 1,1 5.0037,8.01333 12.0037,22.01333 6,13 14.0102,19.99917 23.0102,19.99917 8,0 13.9991,-7.01334 19.9991,-22.01334 5,-15 7.9957,-35.99135 7.9957,-61.99135 0,-25 -2.9925,-44.00375 -8.9925,-58.00375 -6,-13 -13.0102,-19.99917 -23.0102,-19.99917 z m -324.9919,0.99687 c -35,0 -62.011,30.00959 -82.011,89.00959 -20,59 -29.9886,127.9875 -29.9886,207.98751 0,77 9.9918,145.00292 28.9918,203.00292 19,59 47.0078,88.01271 83.0078,88.01271 37,0 64.9985,-32.00833 85.9985,-96.00834 17,-53 26.001,-119.00114 26.001,-197.00104 0,-55.00021 -4.9974,-105.00417 -13.9974,-150.00417 -9,-46.00001 -23.0157,-80.99772 -41.0157,-105.99772 -18,-25 -36.9834,-36.98729 -57.9834,-36.98729 z m -959.0049,0.99688 v 1.01667 h -8.9925 c -4,14 -7.0128,22.98062 -9.0128,25.98062 -1,3 -3.9987,5.0049 -6.9987,5.0049 -3,0 -6.0067,-2.9925 -11.0067,-8.9925 -13,-15 -24.9841,-21.99302 -37.9842,-21.99302 -24,0 -42.013,16.98166 -55.013,51.98166 -13,35.00001 -19.0023,73.0073 -19.0023,116.00751 0,39 6.0085,74.99458 17.0085,106.99458 8,22.00001 25.0051,54.00834 51.0051,96.00834 17,28 28.9965,48.98823 33.9965,62.98823 5,14 7.9957,30.01125 7.9957,49.01125 0,16 -2.9957,29.99219 -7.9957,41.99219 -5,11 -11.9991,17.00844 -19.9991,17.00844 -12,0 -25.0046,-13.00146 -38.0046,-39.00146 -14,-26 -24.0028,-65.00438 -32.0028,-117.00438 h -8.9925 l 3.9876,198.9949 h 9.0129 c 4,-20 7.9974,-29.98854 13.9974,-29.98854 2,0 6.0067,2.00177 11.0067,6.00177 19,17 35.0001,25.00407 46.0001,25.00407 15,0 27.9984,-8.00719 39.9984,-24.00719 12,-16 20.9948,-37.99313 27.9948,-67.99313 7,-30 9.9894,-60.00344 9.9894,-91.00344 0,-34 -3.9833,-65.00031 -11.9833,-92.00032 -8,-27 -24.0112,-60.99593 -49.0112,-99.99594 -25,-39 -41.0001,-67.00781 -46.0001,-83.00781 -3,-10 -5.0049,-20.00584 -5.0049,-31.00584 0,-14 2.0191,-27.00458 7.0191,-38.00458 5,-11 10.985,-15.99115 17.985,-15.99115 11,0 21.9996,11.00584 32.9996,31.00584 11,21 22.0028,58.99021 32.0028,114.99021 h 9.0129 z m 959.0049,39.00146 0.9968,0.99687 c 7,0 12.9882,4.00355 16.9882,12.00355 6,12 11.0177,30.01302 14.0177,55.01302 3,25 4.9846,71.00052 4.9846,138.00052 0,114.00001 -1.9846,189.98668 -4.9846,227.98668 -2,24 -7.0004,43.00989 -13.0004,56.0099 -5.0001,10 -11.0023,14.99427 -19.0023,14.99437 -8,0 -15.0165,-6.99302 -21.0165,-21.99302 -6,-15 -9.9832,-36.00552 -11.9832,-64.00552 -2,-37.00001 -4.008,-75.99824 -4.008,-118.99824 0,-80 0.9906,-142.01177 2.9907,-187.01177 2,-45.00001 6.0035,-74.98615 12.0036,-89.98615 6,-15 14.0134,-23.01021 22.0134,-23.01021 z m -1259.013,0.99687 0.9969,1.01771 c 7.0001,0 13.0085,3.98323 17.0085,11.98323 6,12 10.9974,30.01302 13.9974,55.01302 3,25 5.0049,71.00042 5.0049,138.00043 0,115 -2.0049,190.98667 -5.0049,227.98667 -2,24 -6.0005,43.01 -13.0005,56.0099 -5,10.00021 -11.0023,14.99437 -19.0023,14.99437 -8,0 -14.996,-6.99302 -20.996,-21.99302 -6,-15 -10.0037,-36.00552 -12.0037,-64.00552 -3,-37 -3.9876,-76.99823 -3.9876,-118.99824 0,-80 0.9906,-141.99135 2.9907,-186.99136 2,-45 6.0036,-75.00656 12.0036,-90.00656 6,-15 12.993,-23.01021 21.993,-23.01021 z m 1903.0153,17.00844 c 17.9999,0 33.0001,28.00459 46.0001,84.0048 v 290.99521 c -13,55.00001 -27.0125,82.01094 -42.0125,82.01094 -7,0 -11.9913,-3.00666 -15.9913,-11.00666 -8,-15 -14.0053,-38.99803 -18.0053,-72.99803 -5,-33 -6.9987,-85.00896 -6.9987,-155.00896 0,-63 2.0017,-109.99125 6.0017,-140.99125 4,-31.00001 8.9944,-53.0024 14.9944,-65.0024 5,-8 10.0114,-12.00365 16.0116,-12.00365 z M 1123.9827,484.98574 c -6.9999,0 -13.9911,7.01771 -15.9911,14.01771 -2,7 -10.0032,7.98938 -12.0036,9.98938 -2.9999,2 -9.9973,6.01292 -13.9973,9.01292 -69.0005,44 -109.0014,68.99708 -118.0014,171.99708 h 45.0032 c 19,-81 70.9925,-136.01615 133.9925,-179.01615 z m 27.588,410.80731 -16.9271,45.63396 c -13.155,35.46135 -43.6497,71.05429 -78.9795,101.31829 -33.1166,28.3684 -70.21501,51.5235 -103.86147,62.1948 l -26.42823,39.673 v -52.6124 -11.9833 l 6.75459,-1.8106 c 32.20365,-47.8862 39.18573,-52.6449 88.80611,-87.95166 l 0.042,-0.0208 0.042,-0.0208 c 36.2664,-25.48448 52.399,-41.5974 90.2303,-67.15907 z m -10.2133,65.95865 c 0.625,0.75 6.1256,7.24458 28.6256,13.24458 l 1.9938,3.96729 c 0.6615,20.0348 -38.8473,50.29023 -29.9886,4.02834 3,-17 -1.2563,-21.99021 -0.6302,-21.24021 z m 4122.6402,11.25083 c -20,0 -36.9989,2.98938 -52.9989,9.98938 -16,7 -28.0107,16.01208 -36.0107,29.01209 -8,13 -12.0036,25.9952 -12.0036,40.9952 0,13 3.0097,24.9904 10.0097,35.9904 6,11 15.9887,19.9979 29.9887,26.9979 10,6 29.013,12.0053 55.013,18.0053 26,6 43.005,10.9974 51.005,13.9974 12,5 21.001,10.0086 26.001,17.0086 5,6 7.9957,13.9899 7.9957,22.9899 0,9 -2.9957,17.004 -7.9957,25.004 -6,8 -14.004,14.0054 -25.004,18.0054 -11,4 -24.0046,6.0018 -38.0046,6.0018 -16,0 -31.0064,-3.0129 -44.0064,-9.0129 -13,-5 -22.9916,-12.993 -28.9916,-21.993 -6,-9 -10.0037,-20.9934 -12.0037,-34.9934 l -35.6649,2.9703 c 1.3546,17.7805 6.2011,33.8376 15.6658,48.0347 10,15 22.9953,25.9965 40.9953,33.9965 17,7.0002 39.0024,10.9864 65.0024,10.9864 20,0 38.9927,-3.9862 54.9927,-10.9864 17,-7 29.0046,-18.0058 38.0046,-31.0058 9,-13 13.0004,-28.0094 13.0004,-43.0094 0,-16 -4.0036,-28.9953 -12.0036,-40.9953 -8,-12 -19.9873,-20.9917 -36.9873,-28.9917 -11,-5 -32.0086,-11.0054 -63.0086,-18.0054 -31,-7 -49.9865,-12.9992 -56.9865,-19.9992 -7,-6 -11.0066,-15.004 -11.0066,-25.004 0,-11 5.9911,-21.9887 15.9911,-29.9887 10,-9 27.0081,-13.0005 50.0081,-13.0005 22,0 38.9879,4.9973 49.9879,13.9975 11,8.9999 18.0195,22.9952 20.0195,40.9952 l 35.9905,-2.9907 c -1,-17 -4.9974,-32.0032 -13.9974,-45.0032 -8,-13 -21.0078,-23.00899 -37.0078,-30.00899 -16,-7 -34.9895,-9.98938 -55.9895,-9.98938 z m -112.671,200.96837 c -0.073,-1.0052 -0.2719,-1.9534 -0.325,-2.9703 v 2.9907 z M 4053.996,979.00399 v 33.99661 h 93.994 v 252.9907 h 0.9969 38.0045 v -252.9907 h 93.9942 v -33.99661 z m -1276.998,0.99687 -110.0057,285.99044 h 0.9968 39.9985 l 31.0058,-86.9954 h 120.9921 l 32.9996,86.9954 h 43.0095 L 2818.9902,980.00086 Z m 187.9882,0 v 285.99044 0.9969 h 103.007 c 17.0002,0 33.0002,-1.9845 46.0002,-4.9845 13,-3 24.9966,-8.0178 33.9966,-14.0178 9,-6 18.001,-14.9807 26.001,-25.9807 8,-11 14.9992,-25.0125 19.9992,-42.0125 5,-17 7.9956,-36.0037 7.9956,-58.0037 0,-25 -2.9863,-47.9931 -10.9863,-67.9931 -8,-20 -19.017,-35.991 -34.017,-48.991 -12,-9.99997 -25.9922,-17.01643 -41.9922,-21.01643 -12,-3 -29.005,-3.98761 -51.005,-3.98761 z m 259.013,0 111.0026,285.99044 h 37.9841 l 111.9996,-285.99044 h -39.0015 l -76.9857,207.98754 c -5,16 -11.0147,30.9971 -15.0147,46.9971 -4,-15 -8.9942,-29.9971 -14.9942,-46.9971 l -73.995,-207.98754 z m 296.9971,0 v 285.99044 l 0.9968,2.0142 h 212.9924 v -34.017 h -175.9848 v -98.0021 h 157.9997 v -33.9966 h -157.9997 v -87.9924 h 168.9861 v -33.99654 z m 264.9942,0 v 285.99044 h 36.0108 v -224.996 l 149.9837,224.996 h 39.0015 V 980.00086 h -35.9904 V 1204.9968 L 3824.992,980.00086 Z m 533.9966,0 v 164.99844 c 0,31 4.0067,54.0011 11.0067,72.0011 7,17 18.9904,30.9984 35.9904,39.9984 17,9 38.9994,13.9974 65.9994,13.9974 28,0 50.0165,-4.9913 67.0165,-15.9913 17,-10 27.9936,-24.0156 34.9936,-41.0156 7,-17 9.9894,-39.9901 9.9894,-68.99 V 980.00086 h -37.9842 v 164.99844 c 0,36 -6.0054,59.998 -18.0054,72.998 -11,13 -31.0006,19.0023 -59.0006,19.0023 -16.0001,0 -29.9954,-4.0098 -40.9954,-10.0098 -12,-6 -19.0072,-14.9979 -24.0072,-26.9979 -5,-12 -6.9986,-29.9927 -6.9986,-54.9926 V 980.00086 Z m 289.0015,0 v 285.99044 l 0.9969,-0.9969 h 38.0044 v -126.9938 h 44.0064 c 10,0 16.9961,0 20.9961,0.9968 6,2 11.0085,3.9957 17.0085,7.9957 5,4 11.9819,10.0022 18.9819,19.0022 7.0002,10.0001 16.0181,22.9984 27.0183,39.9984 l 37.9842,59.9976 h 46.997 l -49.9878,-78.0029 c -9,-15 -20.0058,-27.9843 -31.0058,-37.9843 -5,-4 -12.9899,-9.0177 -22.9899,-14.0177 28,-4 47.9945,-12.9979 60.9944,-26.9979 13.0002,-14 19.9992,-30.9847 19.9992,-50.9847 0,-16 -4.0036,-30.0094 -12.0036,-43.0094 -8,-13 -19.0027,-21.99791 -32.0027,-26.99791 -13,-5 -32.0038,-7.99563 -58.0038,-7.99563 z m 289.0015,0 v 285.99044 l 0.9968,2.0142 h 213.0126 v -34.017 h -176.005 v -98.0021 h 157.9997 v -33.9966 h -157.9997 v -87.9924 h 169.0064 v -33.99654 z m -3598.1651,3.54011 -35.5224,31.18893 c -79.7919,70.0613 -180.0317,148.1931 -194.458,246.5617 43.0331,18.3307 65.4696,12.5451 89.3962,18.2495 12.8871,3.0724 25.8,13.8709 31.7383,29.8869 3.8719,10.4426 6.3726,23.7238 8.4635,40.9953 6.7513,-5.1191 13.7291,-9.4501 21.3419,-12.5733 16.7206,-6.8597 35.6441,-7.3134 56.3151,-1.6886 41.3422,11.2495 93.3584,44.1986 183.5124,103.8004 l 0.021,0.021 0.021,0.021 c 4.0836,2.7225 4.6402,4.013 6.0018,5.5338 0.3583,0.4011 0.576,0.6552 0.9156,1.0375 3.0274,0.2219 5.3476,1.1948 6.897,1.9938 4.5213,2.3313 5.9201,4.2701 7.5886,6.0222 3.3376,3.5039 7.1438,7.2752 5.3101,5.9 l 27.0386,20.284 -32.959,7.4667 c -29.176,6.6058 -47.1232,12.1368 -69.2749,16.1337 4.2424,1.4305 8.4865,2.9314 12.7156,4.6996 12.6068,5.2705 25.26,13.1013 34.5663,25.9807 9.3063,12.8793 14.7578,29.9485 16.1336,51.9612 l 0.021,0.3459 0.9968,53.0395 c 0.9532,22.7418 3.1512,18.094 4.0894,28.7272 0.9396,10.6454 -2.0161,16.5265 -10.4981,52.4496 l -4.0893,17.3137 -162.4959,-61.2184 c -97.6471,-35.7869 -170.238,-86.8666 -218.0176,-154.8054 -47.7798,-67.939 -70.2312,-152.0479 -70.2312,-251.8718 v -0.9969 c 0,-84.558 39.1475,-127.6081 83.0078,-176.4527 l 0.2844,-0.3052 0.2854,-0.2844 c 10.3303,-10.3304 26.7025,-28.7431 31.0466,-33.9558 l 0.2646,-0.325 0.2645,-0.2844 c 36.1033,-39.0705 43.5313,-53.5844 59.4076,-63.15101 7.9382,-4.78322 16.6458,-5.80489 25.472,-6.12385 8.8262,-0.31875 19.6351,-0.23542 37.3128,-1.68865 z m 1496.1753,25.45153 c 5,16 11.996,35.9976 20.996,59.9976 l 29.9887,78.9998 h -98.0022 l 31.0059,-84.0047 c 7,-18 12.0116,-35.9927 16.0116,-54.9927 z m 1851.9897,3.0112 h 90.0066 c 21,0 36.0001,4.0004 46.0001,13.0004 10,8 14.9944,18.9997 14.9944,32.9997 0,10 -2.9956,18.001 -7.9956,26.001 -5,8 -12.0134,12.9882 -22.0134,16.9882 -10,3 -23.9953,5.0047 -40.9953,5.0047 H 4647.99 Z m -1644.9992,1.9937 h 59.9976 c 23,0 39.0112,2.0017 49.0112,6.0019 14,4.9999 25.9904,16.0027 35.9904,32.0027 10,16 14.9944,38.9901 14.9944,68.9901 0,21 -2.9957,40.013 -7.9957,55.013 -5,15 -11.9961,26.9905 -20.9961,35.9905 -7,7 -15.0009,10.9942 -26.0009,14.9942 -10,3 -25.0064,5.0049 -44.0064,5.0049 h -60.9945 z m -1441.1621,130.3101 c 21.7833,0.01 45.3172,0.062 71.167,0.062 h 21.4844 l -6.6325,20.4468 c -5.875,18.1144 -8.3331,28.4134 -11.2915,36.3973 -1.4793,3.992 -2.6265,8.4123 -8.7077,12.9191 -6.0814,4.5069 -15.1115,3.7492 -19.0837,2.3397 -7.9444,-2.819 -11.5044,-5.9252 -20.9757,-9.5215 -7.015,-2.6637 -16.5391,-5.4921 -29.8055,-7.548 l -23.0714,233.7036 -236.8163,-165.6698 c -6.0129,3.7572 -11.9526,8.1639 -18.3716,12.5733 -9.1486,6.2843 -20.0024,12.9896 -34.078,13.4684 -14.0755,0.4792 -28.5736,-5.9944 -43.1722,-18.8192 -12.8805,-11.3154 -26.971,-28.3054 -43.7419,-52.3681 l -44.7387,10.5998 39.9577,-39.9374 13.4074,-13.4277 5.0862,7.548 c 172.1568,-40.1169 240.5738,-42.8123 389.384,-42.7653 z m 81.5633,41.036 15.0553,3.418 c 53.9221,12.2086 64.1673,19.6406 131.0018,21.6065 l 19.8975,0.5895 -5.2898,19.1854 c -4.7491,17.2159 -14.439,35.9904 -22.9491,53.5685 -6.0286,12.4524 -11.0881,24.6918 -13.7126,32.43 0.6739,-0.1969 1.1786,-0.2844 1.9328,-0.549 16.2762,-5.7198 48.659,-23.3722 99.9959,-57.5968 l 12.9598,-8.6467 8.6873,12.9395 c 30.569,45.6067 49.9127,66.9329 61.4828,76.8636 11.57,9.9306 13.1067,7.5546 22.6644,13.3667 4.7788,2.9061 9.5157,8.6856 12.1053,14.6281 2.5895,5.9425 4.4426,12.8038 6.9376,23.2747 4.937,20.7191 12.0697,55.9831 25.7569,118.6117 l 26.123,56.8644 70.1498,-40.446 16.4387,26.5706 c -47.9526,31.8054 -75.5529,58.4992 -109.5784,83.7607 -9.3175,6.9175 -19.1715,13.6478 -29.8666,20.2433 l 4.0894,2.1566 c 63.3997,33.447 85.7195,42.928 97.2087,42.928 5.7447,0 11.2497,-1.8114 22.0337,-6.0018 10.7841,-4.1903 25.8869,-10.2414 48.4822,-16.215 l 12.4513,28.239 -163.7981,105.5093 -0.8541,0.4073 c -64.0371,31.0181 -112.2619,53.5686 -200.8058,53.5686 h -51.2899 l 65.206,-43.7826 c -65.3142,2.8782 -101.6155,10.5471 -128.5808,15.0757 -33.5698,5.6376 -57.8285,4.465 -94.6452,-18.6768 l -31.5755,-19.8567 36.2956,-8.5857 c 98.7796,-23.3671 272.8769,-1.9002 366.6586,-123.7792 -24.8401,13.4486 -54.7148,26.3443 -94.3604,38.8793 -111.2317,35.3383 -245.338,26.7334 -380.717,26.7334 h -25.0447 l 11.027,-22.5016 c 23.6906,-48.3684 37.6114,-84.2427 43.457,-150.4924 l 2.4414,-27.5064 22.3185,16.2353 c 27.3042,19.8576 41.5341,28.6073 51.3103,45.3898 4.2345,7.2694 7.045,15.2643 9.7045,24.8413 4.1843,-25.4321 3.1739,-52.8954 3.1739,-79.5899 v -26.0212 l 22.9696,12.2274 c 46.5284,24.7651 78.87,39.3943 125.2848,52.775 -9.2996,-7.0702 -17.281,-10.0789 -26.591,-13.9161 -18.4444,-7.6021 -42.3084,-18.543 -73.5881,-60.7706 l -18.4732,-24.9227 h 31.0261 c 54.9779,0 78.4692,1.8417 91.4511,-1.4038 6.7723,-1.693 12.8109,-5.1212 21.3623,-11.7391 -25.8074,0.6458 -47.8988,1.6078 -66.4063,1.9328 -28.1038,0.4937 -49.2286,0.062 -67.281,-8.3822 -5.1368,-2.4019 -9.6657,-5.6396 -13.7126,-9.4604 l -12.0443,5.4117 3.9673,-14.7908 c -5.8024,-8.4347 -9.9153,-18.7083 -12.3698,-30.3142 -4.8022,-22.7061 -5.5845,-52.2093 -5.5949,-93.6279 v -0.9968 h 0.021 c 0.062,-30.6643 2.7599,-48.211 7.0598,-63.3953 4.3515,-15.3662 9.5645,-27.1839 15.3401,-51.2491 z m 554.9723,65.7756 27.4251,31.6365 c 76.9829,88.7868 94.0094,162.4811 81.5227,224.1008 -12.4868,61.6196 -51.9508,109.2569 -80.3222,151.8148 l -13.0006,19.4905 -13.0005,-19.4905 c -2.5556,-3.8342 -3.4005,-6.7396 -4.0894,-8.6671 -0.1364,-0.3823 -0.1437,-0.4125 -0.2437,-0.6917 l -12.7768,-16.215 -2.2582,3.1128 c -8.3504,11.4525 -12.3295,18.4046 -14.9943,23.2951 -2.6654,4.8905 -4.0526,9.5531 -10.3963,14.4043 -6.344,4.8512 -11.7503,5.1939 -18.4326,6.429 -6.6823,1.2351 -16.2128,2.9342 -32.0639,6.8359 l -23.0509,5.6763 3.8859,-23.4171 c 1.9682,-11.8093 5.0565,-21.438 10.2539,-29.4393 5.1974,-8.0013 12.7109,-13.7676 20.3451,-17.1509 15.268,-6.7665 30.1596,-6.8769 48.3194,-11.0677 l 1.3632,-0.3052 -32.1248,-40.8121 -6.0222,-7.6295 4.191,-8.7483 c 60.9266,-127.8457 65.4705,-139.8038 65.4705,-261.2915 z m 430.6234,117.8792 v 9.9895 h 2757.9957 v -9.9895 z m -1706.62434,275.1261 19.34813,25.7975 26.20437,-19.1447 9.05355,13.5092 c 24.14629,35.9998 95.21639,92.5395 175.86269,137.2883 80.6464,44.7494 172.0292,78.7965 235.1685,78.7965 h 15.625 v 53.243 h -15.625 c -109.5843,0 -223.0763,-57.4934 -310.4248,-114.5427 -43.6744,-28.5245 -80.74546,-57.097 -107.17785,-78.8574 -13.21615,-10.8802 -23.77365,-20.0427 -31.16854,-26.6724 -0.79688,-0.7146 -1.14834,-1.0747 -1.87178,-1.7292 l -14.99427,10.9659 v -31.779 z m 1498.00624,115.0717 22.3795,10.7015 c 32.0417,15.3438 83.4551,23.7897 133.3008,50.1709 49.8457,26.3809 97.5661,72.7787 121.0327,160.909 l 6.6122,24.8006 -25.0651,-5.5136 c -50.3883,-11.0853 -53.0082,-14.0084 -102.6815,-34.8713 l -2.2176,-0.9156 -150.1872,-127.4008 -1.3835,-4.1301 c -1.3603,-4.0809 -0.95,-4.43 -1.0783,-5.9407 -0.1281,-1.5107 -0.2083,-3.1285 -0.2843,-4.9642 -0.1521,-3.6713 -0.2417,-8.1348 -0.3052,-12.8377 -0.1271,-9.4059 -0.1219,-19.7071 -0.1219,-25.2076 z m -289.0015,83.0689 24.8209,18.107 c 11.452,8.3504 18.425,12.3295 23.3154,14.9943 4.8906,2.6649 9.5532,4.0525 14.4044,10.3964 4.8512,6.3438 5.1736,11.7503 6.4087,18.4326 1.2351,6.6823 2.9544,16.2128 6.8562,32.0637 l 4.7607,19.3686 h -64.9413 -15.625 z m 228.3122,110.209 c 3.5987,0.1625 7.1746,0.5573 10.6608,1.058 13.9448,2.0023 27.6004,6.2592 39.4084,9.8063 11.8079,3.547 22.4884,6.0222 25.2482,6.0222 5.5127,0 7.6804,-1.0094 12.2274,-3.4791 4.5464,-2.4693 11.1751,-6.9921 20.996,-9.7859 19.6418,-5.5878 46.7277,-2.4873 99.0804,20.6095 l 2.0752,0.9156 107.0151,90.6372 -2.1973,9.318 c -12.2113,51.8977 -16.6972,50.5656 -21.6268,109.7208 l -0.9365,11.2712 -11.0269,2.6246 c -18.8036,4.4769 -68.1993,21.3885 -121.1752,22.0539 -52.9759,0.6656 -112.9935,-16.6899 -148.0306,-78.5522 l -0.325,-0.5698 -56.0709,-121.5006 h -7.6295 v -15.625 c 0,-21.0022 7.0832,-38.0435 20.4265,-46.8547 10.0075,-6.6083 21.084,-8.1561 31.8807,-7.6701 z m -146.2402,150.6551 c 19.9236,0.021 38.2899,7.9906 55.0943,18.0868 33.6089,20.1924 64.369,50.8298 79.1422,59.1634 l 0.224,0.1219 129.9845,79.0813 -37.3739,8.6465 c -61.9695,14.3401 -122.7172,19.2899 -174.5808,2.5025 -44.2816,-14.3332 -81.0067,-45.9462 -102.3764,-97.4731 l -10.1928,12.3901 v -44.6574 l 17.7613,-2.36 c 0.3333,-0.3771 0.6625,-0.7531 0.9968,-1.1191 l -15.1978,-5.432 c 16.0578,-19.5613 36.595,-28.9711 56.5187,-28.9511 z"
     id="path4639"
     inkscape:connector-curvature="0" /></svg>