<?xml version="1.0" encoding="UTF-8"?>
<!DOCTYPE svg PUBLIC "-//W3C//DTD SVG 1.1//EN" "http://www.w3.org/Graphics/SVG/1.1/DTD/svg11.dtd">
<!-- Creator: CorelDRAW X6 -->
<svg xmlns="http://www.w3.org/2000/svg" xml:space="preserve" width="8.5in" height="11in" version="1.1" style="shape-rendering:geometricPrecision; text-rendering:geometricPrecision; image-rendering:optimizeQuality; fill-rule:evenodd; clip-rule:evenodd"
viewBox="0 0 8500 11000"
 xmlns:xlink="http://www.w3.org/1999/xlink">
 <defs>
  <style type="text/css">
   <![CDATA[
    .str1 {stroke:#373435;stroke-width:10}
    .str0 {stroke:#FEFEFE;stroke-width:31.252}
    .fil2 {fill:none}
    .fil0 {fill:#373435}
    .fil1 {fill:#FEFEFE}
   ]]>
  </style>
 </defs>
 <g id="__x0023_Layer_x0020_1">
  <metadata id="CorelCorpID_0Corel-Layer"/>
  <path class="fil0 str0" d="M3737 6837c-121,28 -233,18 -268,-112 55,-67 132,31 171,52l97 59zm201 -67l0 0c5,-60 10,-61 22,-112l-98 -83c-102,-45 -92,-6 -126,-6 -29,0 -112,-50 -112,22l60 130c64,113 210,59 252,49zm-446 -246l0 0 -45 0 0 -67c48,35 29,2 45,67zm-1228 -268l0 0c55,82 287,223 424,223l0 22c-208,0 -447,-223 -450,-227l26 -19zm1474 155l0 0c-1,-3 0,-33 -1,-44 71,34 200,32 246,201 -49,-12 -50,-13 -100,-34l-145 -123zm-827 -21l0 0c93,-22 280,1 379,-134 127,67 92,45 179,22l-163 105c-64,31 -108,52 -194,52l67 -45c-204,0 -198,44 -268,0zm268 -22l0 0c-37,37 25,12 26,12 55,20 -3,-35 -26,-12zm268 -223l0 0c61,-128 67,-146 67,-268 150,173 58,270 0,357 -2,-3 -3,-8 -4,-9l-63 -80zm-45 112l0 0c65,-16 32,3 67,-45 -39,9 -60,3 -67,45zm-469 -357l0 0c0,167 15,134 201,134 -63,55 -47,45 -156,45 60,81 74,30 134,112 -78,-18 -117,-34 -179,-67 0,43 4,93 -22,134 -19,-81 -12,-72 -67,-112 -6,68 -21,107 -45,156 136,0 269,8 376,-26 136,-43 151,-87 249,-152l-85 49 -34 -74c-56,-256 -3,-58 -127,-243 -207,138 -105,13 -89,-45 -68,-2 -81,-10 -134,-22 -12,50 -22,51 -22,112zm89 45l0 0c-26,96 11,32 -67,67 18,-67 0,-49 67,-67zm89 246l0 0c104,9 39,-24 89,45 -62,-14 -50,-11 -89,-45zm159 12l0 0c-1,0 -62,26 -25,-12 24,-24 85,35 25,12zm-918 -346l0 0c9,-113 119,-196 201,-268 -73,6 -39,-13 -112,66 -5,6 -21,24 -32,35 -44,49 -79,86 -79,166 0,195 87,322 278,392l146 55c17,-72 8,-29 6,-77l-1 -53c-5,-80 -66,-61 -116,-93 68,-2 81,-10 134,-22 -4,-3 -11,-14 -13,-10 -2,4 -10,-8 -13,-10 -180,-119 -209,-129 -265,-70 -11,-137 -28,-61 -134,-112zm112 -67l0 0c207,-48 261,-45 469,-45 -25,74 3,30 -89,22l-22 223 -223 -156c-43,21 -56,71 -134,-45zm-223 -112l0 0c36,-54 38,-52 89,-90 36,-26 53,-42 90,-67 -22,62 -115,139 -179,156zm231 -116l0 0c2,20 -39,52 -30,5 6,-34 -17,-20 28,-8 0,0 2,4 2,4zm-477 -18l0 0c129,-34 54,-134 201,-134 92,0 72,69 89,112 109,-73 248,-176 280,-312 1,-3 2,-10 3,-13 10,-44 24,-103 5,-161 -31,-93 -5,-50 -65,-72 55,-75 28,-5 93,-108 75,-118 44,-87 197,-160l22 156c12,-149 46,-26 0,-223 -226,0 -226,73 -338,198 -4,5 -17,19 -21,23 -174,179 -410,449 -467,694zm901 -875l0 0c2,20 -39,52 -30,5 10,-54 30,-5 30,-5zm-1064 1516l0 0c60,-50 92,-97 185,-105 0,122 -37,189 1,288 151,395 746,450 1107,329 89,-30 130,-63 209,-82 24,90 1,0 25,64 2,5 4,11 6,16 140,365 683,186 683,-58 0,-340 -391,-309 -491,-357 135,-256 63,-530 -176,-672 -501,-298 -936,30 -825,-145 50,-79 233,-210 370,-572 38,-99 90,-307 -61,-307 -444,0 -915,631 -915,1049 0,174 -12,79 35,123l42 26c4,2 11,4 15,6l87 24c-50,75 -132,130 -210,191 -174,136 -453,330 -595,498l-24 28 533 -345z"/>
  <path class="fil0 str0" d="M2264 5274c9,-103 49,-128 118,-172 3,-2 11,-7 14,-9 3,-2 11,-3 12,-10 2,-7 8,-14 16,-14l19 26c-63,42 -115,98 -134,179l-45 0zm-268 268l0 0c129,-34 54,-134 201,-134 92,0 72,69 89,112 109,-73 248,-176 280,-312 1,-3 2,-10 3,-13 10,-44 24,-103 5,-161 -31,-93 -5,-50 -65,-72 55,-75 28,-5 93,-108 75,-118 44,-87 197,-160l22 156c12,-149 46,-26 0,-223 -226,0 -226,73 -338,198 -4,5 -17,19 -21,23 -174,179 -410,449 -467,694z"/>
  <path class="fil0 str0" d="M3246 6189c24,-24 85,35 25,12 -1,0 -62,26 -25,-12zm-134 0l0 0c39,34 28,30 89,45 -50,-69 14,-36 -89,-45zm89 -156l0 0c0,-45 -4,-9 24,-7 67,6 -3,-44 10,7 13,50 -35,26 -35,0zm-246 -22l0 0c18,-67 0,-49 67,-67 -26,96 11,32 -67,67zm-22 -112l0 0c0,167 15,134 201,134 -63,55 -47,45 -156,45 60,81 74,30 134,112 -78,-18 -117,-34 -179,-67 0,43 4,93 -22,134 -19,-81 -12,-72 -67,-112 -6,68 -21,107 -45,156 136,0 269,8 376,-26 136,-43 151,-87 249,-152l-85 49 -34 -74c-56,-256 -3,-58 -127,-243 -207,138 -105,13 -89,-45 -68,-2 -81,-10 -134,-22 -12,50 -22,51 -22,112z"/>
  <path class="fil0 str0" d="M2569 6130c1,-4 5,10 7,15 -68,-20 -35,42 -45,-67l37 52zm-238 -275l0 0c0,195 87,322 278,392l146 55c17,-72 8,-29 6,-77l-1 -53c-5,-80 -66,-61 -116,-93 68,-2 81,-10 134,-22 -4,-3 -11,-14 -13,-10 -2,4 -10,-8 -13,-10 -180,-119 -209,-129 -265,-70 -11,-137 -28,-61 -134,-112 9,-113 119,-196 201,-268 -73,6 -39,-13 -112,66 -5,6 -21,24 -32,35 -44,49 -79,86 -79,166z"/>
  <path class="fil0 str0" d="M3625 6591l60 130c64,113 210,59 252,49 5,-60 10,-61 22,-112l-98 -83c-102,-45 -92,-6 -126,-6 -29,0 -112,-50 -112,22z"/>
  <path class="fil0 str0" d="M2465 5788c78,116 91,66 134,45l223 156 22 -223c92,8 65,52 89,-22 -207,0 -262,-4 -469,45z"/>
  <path class="fil0 str0" d="M3179 6368c23,-23 81,32 26,12 -1,0 -63,25 -26,-12zm-268 22l0 0c70,44 64,0 268,0l-67 45c86,0 130,-21 194,-52l163 -105c-87,23 -52,45 -179,-22 -99,135 -286,112 -379,134z"/>
  <path class="fil0 str0" d="M3447 6145l63 80c1,1 2,6 4,9 58,-87 150,-184 0,-357 0,122 -6,140 -67,268z"/>
  <path class="fil0 str0" d="M3469 6725c35,129 147,140 268,112l-97 -59c-39,-22 -116,-119 -171,-52z"/>
  <path class="fil0 str0" d="M3982 6569c-45,-169 -175,-167 -246,-201 0,11 0,41 1,44l145 123c50,21 50,23 100,34z"/>
  <path class="fil0 str0" d="M2238 6275c3,4 242,227 450,227l0 -22c-137,0 -369,-141 -424,-223l-26 19z"/>
  <path class="fil0 str0" d="M2264 5274l45 0c19,-81 71,-136 134,-179l-19 -26c-7,0 -14,7 -16,14 -2,7 -10,8 -12,10 -3,2 -10,6 -14,9 -69,44 -109,69 -118,172z"/>
  <path class="fil0 str0" d="M2241 5676c63,-17 156,-94 179,-156 -37,25 -53,41 -90,67 -52,37 -53,36 -89,90z"/>
  <path class="fil0 str0" d="M3447 6524l45 0c-16,-65 3,-32 -45,-67l0 67z"/>
  <path class="fil0 str0" d="M3402 6256c65,-16 32,3 67,-45 -39,9 -60,3 -67,45z"/>
  <path class="fil0 str0" d="M2576 6145c-2,-5 -6,-19 -7,-15l-37 -52c9,109 -23,47 45,67z"/>
  <path class="fil0 str0" d="M2866 4671c-9,48 32,15 30,-5 0,-1 -20,-50 -30,5z"/>
  <path class="fil0 str0" d="M2442 5564c-9,48 32,15 30,-5 0,0 -2,-4 -2,-4 -45,-12 -22,-26 -28,8z"/>
  <path class="fil0 str0" d="M3201 6033c0,26 48,50 35,0 -14,-50 57,-1 -10,-7 -28,-3 -24,-39 -24,7z"/>
  <path class="fil0" d="M3737 6837c-121,28 -233,18 -268,-112 55,-67 132,31 171,52l97 59zm201 -67l0 0c5,-60 10,-61 22,-112l-98 -83c-102,-45 -92,-6 -126,-6 -29,0 -112,-50 -112,22l60 130c64,113 210,59 252,49zm-446 -246l0 0 -45 0 0 -67c48,35 29,2 45,67zm-1228 -268l0 0c55,82 287,223 424,223l0 22c-208,0 -447,-223 -450,-227l26 -19zm1474 155l0 0c-1,-3 0,-33 -1,-44 71,34 200,32 246,201 -49,-12 -50,-13 -100,-34l-145 -123zm-827 -21l0 0c93,-22 280,1 379,-134 127,67 92,45 179,22l-163 105c-64,31 -108,52 -194,52l67 -45c-204,0 -198,44 -268,0zm268 -22l0 0c-37,37 25,12 26,12 55,20 -3,-35 -26,-12zm268 -223l0 0c61,-128 67,-146 67,-268 150,173 58,270 0,357 -2,-3 -3,-8 -4,-9l-63 -80zm-45 112l0 0c65,-16 32,3 67,-45 -39,9 -60,3 -67,45zm-469 -357l0 0c0,167 15,134 201,134 -63,55 -47,45 -156,45 60,81 74,30 134,112 -78,-18 -117,-34 -179,-67 0,43 4,93 -22,134 -19,-81 -12,-72 -67,-112 -6,68 -21,107 -45,156 136,0 269,8 376,-26 136,-43 151,-87 249,-152l-85 49 -34 -74c-56,-256 -3,-58 -127,-243 -207,138 -105,13 -89,-45 -68,-2 -81,-10 -134,-22 -12,50 -22,51 -22,112zm89 45l0 0c-26,96 11,32 -67,67 18,-67 0,-49 67,-67zm89 246l0 0c104,9 39,-24 89,45 -62,-14 -50,-11 -89,-45zm159 12l0 0c-1,0 -62,26 -25,-12 24,-24 85,35 25,12zm-918 -346l0 0c9,-113 119,-196 201,-268 -73,6 -39,-13 -112,66 -5,6 -21,24 -32,35 -44,49 -79,86 -79,166 0,195 87,322 278,392l146 55c17,-72 8,-29 6,-77l-1 -53c-5,-80 -66,-61 -116,-93 68,-2 81,-10 134,-22 -4,-3 -11,-14 -13,-10 -2,4 -10,-8 -13,-10 -180,-119 -209,-129 -265,-70 -11,-137 -28,-61 -134,-112zm112 -67l0 0c207,-48 261,-45 469,-45 -25,74 3,30 -89,22l-22 223 -223 -156c-43,21 -56,71 -134,-45zm-223 -112l0 0c36,-54 38,-52 89,-90 36,-26 53,-42 90,-67 -22,62 -115,139 -179,156zm231 -116l0 0c2,20 -39,52 -30,5 6,-34 -17,-20 28,-8 0,0 2,4 2,4zm-477 -18l0 0c129,-34 54,-134 201,-134 92,0 72,69 89,112 109,-73 248,-176 280,-312 1,-3 2,-10 3,-13 10,-44 24,-103 5,-161 -31,-93 -5,-50 -65,-72 55,-75 28,-5 93,-108 75,-118 44,-87 197,-160l22 156c12,-149 46,-26 0,-223 -226,0 -226,73 -338,198 -4,5 -17,19 -21,23 -174,179 -410,449 -467,694zm901 -875l0 0c2,20 -39,52 -30,5 10,-54 30,-5 30,-5zm-1064 1516l0 0c60,-50 92,-97 185,-105 0,122 -37,189 1,288 151,395 746,450 1107,329 89,-30 130,-63 209,-82 24,90 1,0 25,64 2,5 4,11 6,16 140,365 683,186 683,-58 0,-340 -391,-309 -491,-357 135,-256 63,-530 -176,-672 -501,-298 -936,30 -825,-145 50,-79 233,-210 370,-572 38,-99 90,-307 -61,-307 -444,0 -915,631 -915,1049 0,174 -12,79 35,123l42 26c4,2 11,4 15,6l87 24c-50,75 -132,130 -210,191 -174,136 -453,330 -595,498l-24 28 533 -345z"/>
  <path class="fil1" d="M2264 5274c9,-103 49,-128 118,-172 3,-2 11,-7 14,-9 3,-2 11,-3 12,-10 2,-7 8,-14 16,-14l19 26c-63,42 -115,98 -134,179l-45 0zm-268 268l0 0c129,-34 54,-134 201,-134 92,0 72,69 89,112 109,-73 248,-176 280,-312 1,-3 2,-10 3,-13 10,-44 24,-103 5,-161 -31,-93 -5,-50 -65,-72 55,-75 28,-5 93,-108 75,-118 44,-87 197,-160l22 156c12,-149 46,-26 0,-223 -226,0 -226,73 -338,198 -4,5 -17,19 -21,23 -174,179 -410,449 -467,694z"/>
  <path class="fil1" d="M3246 6189c24,-24 85,35 25,12 -1,0 -62,26 -25,-12zm-134 0l0 0c39,34 28,30 89,45 -50,-69 14,-36 -89,-45zm89 -156l0 0c0,-45 -4,-9 24,-7 67,6 -3,-44 10,7 13,50 -35,26 -35,0zm-246 -22l0 0c18,-67 0,-49 67,-67 -26,96 11,32 -67,67zm-22 -112l0 0c0,167 15,134 201,134 -63,55 -47,45 -156,45 60,81 74,30 134,112 -78,-18 -117,-34 -179,-67 0,43 4,93 -22,134 -19,-81 -12,-72 -67,-112 -6,68 -21,107 -45,156 136,0 269,8 376,-26 136,-43 151,-87 249,-152l-85 49 -34 -74c-56,-256 -3,-58 -127,-243 -207,138 -105,13 -89,-45 -68,-2 -81,-10 -134,-22 -12,50 -22,51 -22,112z"/>
  <path class="fil1" d="M2569 6130c1,-4 5,10 7,15 -68,-20 -35,42 -45,-67l37 52zm-238 -275l0 0c0,195 87,322 278,392l146 55c17,-72 8,-29 6,-77l-1 -53c-5,-80 -66,-61 -116,-93 68,-2 81,-10 134,-22 -4,-3 -11,-14 -13,-10 -2,4 -10,-8 -13,-10 -180,-119 -209,-129 -265,-70 -11,-137 -28,-61 -134,-112 9,-113 119,-196 201,-268 -73,6 -39,-13 -112,66 -5,6 -21,24 -32,35 -44,49 -79,86 -79,166z"/>
  <path class="fil1" d="M3625 6591l60 130c64,113 210,59 252,49 5,-60 10,-61 22,-112l-98 -83c-102,-45 -92,-6 -126,-6 -29,0 -112,-50 -112,22z"/>
  <path class="fil1" d="M2465 5788c78,116 91,66 134,45l223 156 22 -223c92,8 65,52 89,-22 -207,0 -262,-4 -469,45z"/>
  <path class="fil1" d="M3179 6368c23,-23 81,32 26,12 -1,0 -63,25 -26,-12zm-268 22l0 0c70,44 64,0 268,0l-67 45c86,0 130,-21 194,-52l163 -105c-87,23 -52,45 -179,-22 -99,135 -286,112 -379,134z"/>
  <path class="fil1" d="M3447 6145l63 80c1,1 2,6 4,9 58,-87 150,-184 0,-357 0,122 -6,140 -67,268z"/>
  <path class="fil1" d="M3469 6725c35,129 147,140 268,112l-97 -59c-39,-22 -116,-119 -171,-52z"/>
  <path class="fil1" d="M3982 6569c-45,-169 -175,-167 -246,-201 0,11 0,41 1,44l145 123c50,21 50,23 100,34z"/>
  <path class="fil1" d="M2238 6275c3,4 242,227 450,227l0 -22c-137,0 -369,-141 -424,-223l-26 19z"/>
  <path class="fil0" d="M2264 5274l45 0c19,-81 71,-136 134,-179l-19 -26c-7,0 -14,7 -16,14 -2,7 -10,8 -12,10 -3,2 -10,6 -14,9 -69,44 -109,69 -118,172z"/>
  <path class="fil1" d="M2241 5676c63,-17 156,-94 179,-156 -37,25 -53,41 -90,67 -52,37 -53,36 -89,90z"/>
  <path class="fil1" d="M3447 6524l45 0c-16,-65 3,-32 -45,-67l0 67z"/>
  <path class="fil1" d="M3402 6256c65,-16 32,3 67,-45 -39,9 -60,3 -67,45z"/>
  <path class="fil0" d="M2576 6145c-2,-5 -6,-19 -7,-15l-37 -52c9,109 -23,47 45,67z"/>
  <path class="fil0" d="M2866 4671c-9,48 32,15 30,-5 0,-1 -20,-50 -30,5z"/>
  <path class="fil0" d="M2442 5564c-9,48 32,15 30,-5 0,0 -2,-4 -2,-4 -45,-12 -22,-26 -28,8z"/>
  <path class="fil0" d="M3201 6033c0,26 48,50 35,0 -14,-50 57,-1 -10,-7 -28,-3 -24,-39 -24,7z"/>
  <path class="fil0" d="M3648 5126l-13 282 -308 0 0 -21 11 0c10,0 18,-4 24,-13 4,-6 8,-15 10,-29 2,-10 3,-35 3,-75l0 -531c0,-42 -1,-67 -3,-78 -2,-10 -6,-19 -11,-27 -6,-8 -13,-12 -23,-12l-11 0 0 -21 185 0 0 21 -15 0c-10,0 -18,4 -24,13 -4,6 -8,15 -11,29 -2,10 -3,35 -3,75l0 514c0,41 1,67 3,79 2,11 6,20 12,25 4,3 15,5 31,5l29 0c18,0 34,-8 46,-22 12,-15 23,-39 32,-71 9,-32 17,-80 25,-143l11 0zm149 -289l0 0c21,0 40,12 58,37 18,25 32,60 41,106 9,46 14,96 14,150 0,79 -9,144 -26,197 -21,64 -50,96 -86,96 -36,0 -64,-29 -83,-88 -19,-58 -29,-126 -29,-203 0,-79 10,-149 30,-208 20,-59 47,-89 82,-89zm1 41l0 0c-9,0 -16,8 -22,23 -6,15 -10,45 -12,90 -2,45 -3,107 -3,187 0,42 1,82 4,119 2,28 6,49 12,64 6,15 13,22 21,22 8,0 14,-5 19,-15 7,-13 11,-32 13,-56 3,-37 5,-113 5,-228 0,-67 -2,-113 -5,-138 -3,-25 -8,-43 -14,-55 -4,-8 -10,-12 -17,-12zm300 -40l0 0 4 190 -9 0c-10,-56 -21,-94 -32,-115 -11,-20 -22,-31 -33,-31 -7,0 -13,5 -18,16 -5,11 -7,24 -7,38 0,11 2,21 5,31 5,16 21,44 46,83 25,39 41,73 49,100 8,27 12,58 12,92 0,31 -3,61 -10,91 -7,30 -16,52 -28,68 -12,16 -25,24 -40,24 -11,0 -27,-8 -46,-25 -5,-4 -9,-6 -11,-6 -6,0 -10,10 -14,30l-9 0 -4 -199 9 0c8,52 18,91 32,117 13,26 26,39 38,39 8,0 15,-6 20,-17 5,-12 8,-26 8,-42 0,-19 -3,-35 -8,-49 -5,-14 -17,-35 -34,-63 -26,-42 -43,-74 -51,-96 -11,-32 -17,-68 -17,-107 0,-43 6,-81 19,-116 13,-35 31,-52 55,-52 13,0 25,7 38,22 5,6 8,9 11,9 3,0 6,-2 7,-5 2,-3 5,-12 9,-26l9 0zm148 -190l0 0 0 204 57 0 0 58 -57 0 0 343c0,32 1,53 2,62 1,9 4,17 7,22 3,6 6,9 9,9 11,0 22,-19 31,-58l8 13c-14,76 -36,113 -67,113 -15,0 -28,-10 -39,-29 -11,-20 -17,-42 -20,-66 -2,-14 -3,-50 -3,-109l0 -300 -32 0 0 -21c22,-35 40,-72 55,-111 15,-39 28,-82 40,-131l8 0zm705 -46l0 0 0 21c-6,1 -12,5 -16,13 -4,8 -8,19 -12,34 -1,5 -6,36 -16,92l-109 665 -9 0 -86 -525 -95 525 -9 0 -115 -658c-12,-67 -20,-107 -24,-121 -5,-14 -12,-22 -23,-25l0 -21 151 0 0 21c-12,1 -20,5 -24,13 -4,8 -6,17 -6,29 0,15 4,47 13,97l68 391 55 -309 -14 -83c-8,-47 -14,-78 -18,-94 -4,-16 -9,-27 -15,-34 -6,-7 -14,-10 -24,-10l0 -21 167 0 0 21c-12,0 -20,3 -25,7 -4,3 -6,8 -8,14 -2,7 -3,14 -3,22 0,9 4,37 11,85l63 382 57 -345c6,-36 10,-60 11,-74 1,-13 2,-25 2,-36 0,-16 -2,-29 -7,-39 -5,-9 -14,-14 -27,-15l0 -21 90 0zm106 235l0 0c-35,0 -62,30 -82,89 -20,59 -30,128 -30,208 0,77 10,145 29,203 19,59 47,88 83,88 37,0 65,-32 86,-96 17,-53 26,-119 26,-197 0,-55 -5,-105 -14,-150 -9,-46 -23,-81 -41,-106 -18,-25 -37,-37 -58,-37zm1 41l0 0c7,0 13,4 17,12 6,12 11,30 14,55 3,25 5,71 5,138 0,114 -2,190 -5,228 -2,24 -7,43 -13,56 -5,10 -11,15 -19,15 -8,0 -15,-7 -21,-22 -6,-15 -10,-36 -12,-64 -2,-37 -4,-76 -4,-119 0,-80 1,-142 3,-187 2,-45 6,-75 12,-90 6,-15 14,-23 22,-23zm248 -26l0 0 0 126c16,-57 30,-95 42,-114 12,-19 23,-28 34,-28 10,0 17,7 23,20 6,14 9,33 9,58 0,26 -3,47 -8,62 -6,15 -12,22 -20,22 -9,0 -17,-7 -23,-20 -7,-14 -11,-21 -12,-22 -2,-2 -4,-4 -6,-4 -5,0 -10,4 -14,13 -7,14 -12,33 -16,58 -5,38 -8,81 -8,127l0 127 0 33c0,23 1,37 2,44 2,11 5,19 9,24 4,5 11,8 21,9l0 21 -130 0 0 -21c11,-2 18,-9 21,-20 4,-11 6,-41 6,-90l0 -308c0,-32 -1,-53 -2,-62 -2,-11 -4,-19 -7,-25 -3,-5 -9,-9 -17,-11l0 -21 98 0zm228 -250l0 0 0 691c0,40 2,65 6,76 4,11 12,17 23,19l0 21 -131 0 0 -21c11,-1 19,-8 24,-22 4,-9 5,-34 5,-73l0 -575c0,-40 -2,-65 -6,-76 -4,-11 -12,-17 -23,-19l0 -21 101 0zm285 0l0 0 0 640c0,43 1,68 2,76 1,13 4,23 8,29 4,6 11,10 20,12l0 21 -101 45 0 -88c-12,34 -23,57 -32,70 -9,12 -20,18 -32,18 -30,0 -55,-32 -72,-95 -14,-51 -21,-114 -21,-189 0,-60 4,-113 13,-160 9,-47 21,-83 36,-107 15,-24 32,-36 50,-36 11,0 22,5 30,15 9,10 18,28 28,54l0 -169c0,-42 -1,-67 -2,-76 -2,-11 -5,-20 -9,-25 -4,-5 -12,-8 -23,-8l0 -26 107 0zm-72 377l0 0c-13,-56 -28,-84 -46,-84 -6,0 -11,4 -16,12 -6,12 -11,34 -15,65 -4,31 -6,78 -6,141 0,70 2,122 7,155 4,34 10,58 18,73 4,8 9,11 16,11 15,0 29,-27 42,-82l0 -291z"/>
  <path class="fil0" d="M3967 5850l110 -286 42 0 117 286 -43 0 -33 -87 -121 0 -31 87 -40 0zm82 -118l0 0 98 0 -30 -79c-9,-24 -16,-44 -21,-60 -4,19 -9,37 -16,55l-31 84zm216 118l0 0 0 -286 99 0c22,0 39,1 51,4 16,4 30,11 42,21 15,13 26,29 34,49 8,20 11,43 11,68 0,22 -3,41 -8,58 -5,17 -12,31 -20,42 -8,11 -17,20 -26,26 -9,6 -21,11 -34,14 -13,3 -29,5 -46,5l-103 0zm38 -34l0 0 61 0c19,0 34,-2 44,-5 11,-4 19,-8 26,-15 9,-9 16,-21 21,-36 5,-15 8,-34 8,-55 0,-30 -5,-53 -15,-69 -10,-16 -22,-27 -36,-32 -10,-4 -26,-6 -49,-6l-60 0 0 219zm332 34l0 0 -111 -286 41 0 74 208c6,17 11,32 15,47 4,-16 10,-31 15,-47l77 -208 39 0 -112 286 -39 0zm186 0l0 0 0 -286 207 0 0 34 -169 0 0 88 158 0 0 34 -158 0 0 98 176 0 0 34 -213 0zm265 0l0 0 0 -286 39 0 150 225 0 -225 36 0 0 286 -39 0 -150 -225 0 225 -36 0zm362 0l0 0 0 -253 -94 0 0 -34 227 0 0 34 -94 0 0 253 -38 0zm359 -286l0 0 38 0 0 165c0,29 -3,52 -10,69 -7,17 -18,31 -35,41 -17,11 -39,16 -67,16 -27,0 -49,-5 -66,-14 -17,-9 -29,-23 -36,-40 -7,-18 -11,-41 -11,-72l0 -165 38 0 0 165c0,25 2,43 7,55 5,12 12,21 24,27 11,6 25,10 41,10 28,0 48,-6 59,-19 12,-13 18,-37 18,-73l0 -165zm102 286l0 0 0 -286 127 0c26,0 45,3 58,8 13,5 24,14 32,27 8,13 12,27 12,43 0,20 -7,37 -20,51 -13,14 -33,23 -61,27 10,5 18,10 23,14 11,10 22,23 31,38l50 78 -47 0 -38 -60c-11,-17 -20,-30 -27,-40 -7,-9 -14,-15 -19,-19 -6,-4 -11,-6 -17,-8 -4,-1 -11,-1 -21,-1l-44 0 0 127 -38 0zm38 -160l0 0 81 0c17,0 31,-2 41,-5 10,-4 17,-9 22,-17 5,-8 8,-16 8,-26 0,-14 -5,-25 -15,-33 -10,-9 -25,-13 -46,-13l-90 0 0 95zm251 160l0 0 0 -286 207 0 0 34 -169 0 0 88 158 0 0 34 -158 0 0 98 176 0 0 34 -213 0zm253 -92l0 0 36 -3c2,14 6,26 12,35 6,9 16,17 29,22 13,6 28,9 44,9 14,0 27,-2 38,-6 11,-4 19,-10 25,-18 5,-8 8,-16 8,-25 0,-9 -3,-17 -8,-23 -5,-7 -14,-12 -26,-17 -8,-3 -25,-8 -51,-14 -26,-6 -45,-12 -55,-18 -14,-7 -24,-16 -30,-27 -7,-11 -10,-23 -10,-36 0,-15 4,-28 12,-41 8,-13 20,-22 36,-29 16,-7 33,-10 53,-10 21,0 40,3 56,10 16,7 29,17 37,30 9,13 13,28 14,45l-36 3c-2,-18 -9,-32 -20,-41 -11,-9 -28,-14 -50,-14 -23,0 -40,4 -50,13 -10,8 -16,19 -16,30 0,10 4,19 11,25 7,7 26,13 57,20 31,7 52,13 63,18 17,8 29,17 37,29 8,12 12,25 12,41 0,15 -4,30 -13,43 -9,13 -21,24 -38,31 -16,7 -35,11 -55,11 -26,0 -48,-4 -65,-11 -18,-8 -31,-19 -41,-34 -10,-15 -15,-32 -16,-51z"/>
  <line class="fil2 str1" x1="3929" y1="5958" x2="6687" y2= "5958" />
 </g>
</svg>
