<?xml version="1.0" encoding="UTF-8"?>
<!DOCTYPE svg PUBLIC "-//W3C//DTD SVG 1.1//EN" "http://www.w3.org/Graphics/SVG/1.1/DTD/svg11.dtd">
<!-- Creator: CorelDRAW X6 -->
<svg xmlns="http://www.w3.org/2000/svg" xml:space="preserve" width="11in" height="8.5in" version="1.1" style="shape-rendering:geometricPrecision; text-rendering:geometricPrecision; image-rendering:optimizeQuality; fill-rule:evenodd; clip-rule:evenodd"
viewBox="0 0 11000 8500"
 xmlns:xlink="http://www.w3.org/1999/xlink">
 <defs>
  <style type="text/css">
   <![CDATA[
    .fil0 {fill:#373435}
   ]]>
  </style>
 </defs>
 <g id="__x0023_Layer_x0020_1">
  <metadata id="CorelCorpID_0Corel-Layer"/>
  <path class="fil0" d="M1524 5278l192 0 0 -1426c10,8 62,77 71,89l106 134c6,7 12,14 18,22l87 111c25,31 46,59 71,89 7,8 11,15 18,24l122 155c44,59 129,167 176,224 7,8 9,13 17,22 7,8 12,14 18,22 29,41 104,133 140,178 24,30 46,59 70,90l176 223c10,14 27,31 34,44l157 0 0 -1744 -192 0 0 1393c-9,-6 -28,-33 -35,-43l-240 -305c-25,-29 -45,-59 -69,-88l-205 -261c-79,-97 -161,-209 -241,-306l-68 -86c-32,-38 -72,-94 -102,-131 -24,-29 -45,-57 -69,-86l-67 -88 -186 0 0 1743z"/>
  <path class="fil0" d="M6446 4563c-1,-88 61,-237 125,-304 36,-37 63,-64 120,-93 159,-82 365,-35 465,90 16,20 31,39 45,63 37,63 71,171 72,244l-827 0zm402 745l0 0 96 0c13,-5 62,-7 82,-11 25,-4 50,-10 74,-16 46,-14 88,-31 127,-52 40,-22 77,-47 107,-74 22,-19 79,-69 90,-90 -9,-9 -20,-16 -30,-26 -15,-15 -80,-75 -90,-79 -54,55 -123,115 -221,150 -172,60 -361,34 -494,-90 -71,-66 -141,-199 -143,-314l1020 -1c12,-138 -19,-307 -73,-413 -61,-119 -125,-193 -233,-255 -108,-62 -263,-89 -407,-62 -136,26 -251,101 -315,171 -74,81 -135,176 -169,319 -34,142 -22,296 23,426 73,207 245,356 451,402l104 17z"/>
  <path class="fil0" d="M3949 4135c130,-15 271,32 363,120 74,71 144,176 159,326 28,270 -140,523 -419,552 -290,30 -499,-189 -524,-447 -15,-154 35,-289 104,-380 76,-99 185,-156 316,-171zm1 1173l0 0 93 0 11 -3c3,0 7,-1 9,-1 6,0 11,-1 18,-2 126,-15 225,-58 326,-130 25,-18 66,-55 86,-78 48,-56 95,-117 128,-203 176,-447 -129,-928 -619,-930 -373,-1 -658,286 -673,646 -13,319 190,595 480,674 78,21 76,14 132,23l9 2z"/>
  <path class="fil0" d="M9997 4966l0 -99c-6,-13 -9,-41 -15,-57 -16,-48 -50,-96 -85,-123 -13,-10 -25,-20 -40,-31 -144,-102 -424,-131 -542,-223 -22,-18 -49,-45 -58,-82 -10,-41 0,-86 18,-116 18,-31 38,-50 71,-69 104,-58 245,-37 350,-2 35,11 68,25 99,41l90 49c4,-9 16,-28 22,-37 12,-20 60,-97 64,-109 -13,-7 -24,-15 -38,-23 -156,-87 -354,-142 -535,-108 -123,23 -224,83 -287,191 -30,52 -46,126 -41,197 25,360 575,296 718,481 38,50 37,129 3,184 -105,168 -384,114 -538,37 -87,-43 -82,-50 -148,-90 -6,4 -93,127 -98,137 9,6 18,15 27,21 8,6 18,13 28,19 224,146 577,221 797,52 56,-43 95,-93 120,-165 9,-26 16,-70 19,-76z"/>
  <path class="fil0" d="M4817 3990c21,56 47,109 70,164 22,55 46,106 69,161 67,155 145,331 209,487l209 485 169 0 281 -648c77,-185 165,-380 245,-567 8,-19 31,-65 34,-83l-202 0c-7,2 -15,26 -17,33l-313 766c-26,64 -85,215 -109,266 -8,-11 -22,-52 -29,-67l-297 -733c-18,-44 -37,-89 -54,-133 -12,-31 -46,-108 -53,-133l-212 0z"/>
  <polygon class="fil0" points="8014,3534 7821,3534 7822,5278 8014,5278 "/>
  <polygon class="fil0" points="8476,5278 8668,5277 8668,3943 8476,3943 "/>
  <polygon class="fil0" points="8476,3727 8668,3725 8667,3534 8477,3534 "/>
  <path class="fil0" d="M8476 3727c1,0 1,0 2,1 0,0 182,6 190,-2 5,-11 2,-165 2,-191l-2 0 1 191 -192 1 1 -192 -3 0c0,10 -3,182 2,192z"/>
 </g>
</svg>
