<?xml version="1.0" encoding="UTF-8" standalone="no"?>
<!-- Creator: CorelDRAW X6 -->

<svg
   xmlns:dc="http://purl.org/dc/elements/1.1/"
   xmlns:cc="http://creativecommons.org/ns#"
   xmlns:rdf="http://www.w3.org/1999/02/22-rdf-syntax-ns#"
   xmlns:svg="http://www.w3.org/2000/svg"
   xmlns="http://www.w3.org/2000/svg"
   xmlns:sodipodi="http://sodipodi.sourceforge.net/DTD/sodipodi-0.dtd"
   xmlns:inkscape="http://www.inkscape.org/namespaces/inkscape"
   xml:space="preserve"
   width="8.4750166in"
   height="1.7760011in"
   version="1.1"
   style="clip-rule:evenodd;fill-rule:evenodd;image-rendering:optimizeQuality;shape-rendering:geometricPrecision;text-rendering:geometricPrecision"
   viewBox="0 0 8475.0166 1776.0011"
   id="svg4811"
   sodipodi:docname="Novelis.svg"
   inkscape:version="0.92.0 r15299"><metadata
     id="metadata4815"><rdf:RDF><cc:Work
         rdf:about=""><dc:format>image/svg+xml</dc:format><dc:type
           rdf:resource="http://purl.org/dc/dcmitype/StillImage" /><dc:title></dc:title></cc:Work></rdf:RDF></metadata><sodipodi:namedview
     pagecolor="#ffffff"
     bordercolor="#666666"
     borderopacity="1"
     objecttolerance="10"
     gridtolerance="10"
     guidetolerance="10"
     inkscape:pageopacity="0"
     inkscape:pageshadow="2"
     inkscape:window-width="1920"
     inkscape:window-height="1137"
     id="namedview4813"
     showgrid="false"
     fit-margin-top="0"
     fit-margin-left="0"
     fit-margin-right="0"
     fit-margin-bottom="0"
     inkscape:zoom="1.0757576"
     inkscape:cx="285.80996"
     inkscape:cy="45.625242"
     inkscape:window-x="1912"
     inkscape:window-y="-8"
     inkscape:window-maximized="1"
     inkscape:current-layer="svg4811" /><defs
     id="defs4789"><style
       type="text/css"
       id="style4787"><![CDATA[
    .fil0 {fill:#373435}
   ]]></style></defs><path
     style="fill:#000000;fill-opacity:1;stroke-width:1"
     d="m 0,0 v 1743.0014 l 1.0177084,0.9969 H 193.01396 V 318.01355 c 10,8 62.00417,76.98928 71.00417,88.98928 l 105.99782,133.9925 c 6,7 11.985,14.01333 17.985,22.01333 l 87.01573,111.00261 c 25,31 45.98396,58.98927 70.98396,88.98928 7,8 11.00532,15.00718 18.00532,24.00718 l 122.00927,154.98855 c 44,59.00002 129.00511,166.99902 176.00511,223.99902 7,8.0001 8.98813,13.0134 16.98813,22.0134 7,8 12.00531,13.993 18.00531,21.993 29,41 103.99442,132.9989 139.99442,177.9989 24,30 46.0073,59.0064 70.0073,90.0064 l 176.005,223.0022 c 10,14 26.9966,30.986 33.9965,43.986 h 157.0028 V 0.9969792 H 1282.0029 V 1394.0023 c -9,-6 -27.9936,-32.989 -34.9936,-42.989 l -239.9902,-305.0131 c -25.00001,-29 -45.01042,-58.99236 -69.01042,-87.99236 L 733.0119,697.00117 c -79,-97 -161.00751,-208.98959 -241.00751,-305.98959 l -67.99313,-85.99855 c -32,-38 -72.0101,-94.00177 -102.0101,-131.00177 -24,-29.00001 -44.99011,-56.99855 -68.99011,-85.998549 L 186.0148,0 Z m 6298.0146,0 0.9969,1743.9983 h 191.9962 V 0 Z m 656.0058,0 v 0.99687503 h -2.0141 c 0,9.24812497 -2.5518,156.80646497 1.0177,186.88958497 l -0.021,5.12698 1.0177,-0.0208 190.9994,-1.99385 -1.0177,-190.99938500002 z m -1.0177,193.01355 c 1,0 1.0146,-0.003 2.0142,0.99687 0,0 181.8735,5.97438 189.9821,-2.01416 l -190.979,1.0177 z m 192.0167,-192.0165708 0.976,185.9943808 c 3.5695,-28.6374 1.0167,-161.948547 1.0167,-185.9943808 z m 0.976,185.9943808 c -0.2906,2.32729 -0.601,4.17813 -0.976,5.0049 h 0.9969 z M 6953.0022,408.99658 V 1743.9983 l 192.0167,-0.9969 V 408.99658 Z m -4473.9991,18.00541 c -373,-1 -657.9941,285.99605 -672.9941,645.99611 -13,319 190.0009,595.0112 480.0009,674.0112 78,21 75.9987,13.9899 131.9987,22.9899 l 8.9925,2.0142 v 1.9938 h 93.0176 l 10.9863,-3.011 c 3,0 7.0129,-0.9969 9.0129,-0.9969 6,0 10.985,-0.9937 17.985,-1.9937 126,-15 225.0092,-58.0049 326.0092,-130.0049 25,-18 65.9984,-55.0029 85.9984,-78.0029 48.0001,-56 94.9907,-117.003 127.9907,-203.003 176.0001,-446.99998 -128.9981,-927.9927 -618.9981,-929.9927 z m 2860.1685,3.58073 c -36.4687,0.29688 -73.1715,3.66667 -109.1715,10.41667 -136,26 -250.9821,101.00021 -314.9821,171.00011 -74,81.00011 -135.0064,176.01042 -169.0064,319.01043 -34,142.00007 -22.0101,295.98477 22.9899,425.98477 73,207 245.0091,356.0183 451.0091,402.0183 l 104.0039,16.9881 0.9969,-1.9939 h 95.988 c 13,-5 62.0109,-7.0066 82.0109,-11.0066 25,-4 49.995,-9.9913 73.995,-15.9913 46,-14 88.0142,-31.002 127.0142,-52.0018 40,-22.0002 76.9945,-46.9951 106.9945,-73.9951 22,-19 78.9863,-69.0065 89.9862,-90.0065 -9,-9 -19.9886,-16.001 -29.9886,-26.001 -15,-15 -80.0065,-74.9998 -90.0065,-78.9998 -54,55.0001 -122.9879,115.0041 -220.9879,150.0041 -172,60 -360.9983,33.9935 -493.9983,-90.0065 -71,-66.0001 -141.0053,-199.0056 -143.0053,-314.0056 l 1019.9992,-0.9969 c 12,-138 -18.998,-307.00455 -72.998,-413.00455 -61,-119 -125.012,-192.98459 -233.0119,-254.98459 -81.0001,-46.5 -188.425,-73.31896 -297.8313,-72.42834 z m 2639.0586,2.29896 c -34.744,0.49271 -69.2934,3.75688 -103.2309,10.13188 -123,23 -223.9873,82.99937 -286.9873,190.99938 -30,52 -45.9953,125.98073 -40.9953,196.98073 25,360.00003 574.9973,296.01813 717.9973,481.01813 38,50 36.9907,129.0006 2.9907,184.0006 -105,168 -384.0046,113.9873 -538.0046,36.9873 -87,-43 -81.9899,-49.9861 -147.9899,-89.9861 -6,4 -93.002,126.9832 -98.002,136.9832 9,6 17.9978,15.0165 26.9978,21.0165 8,6 17.9948,12.9819 27.9948,18.9819 224,146 577.0174,221.0019 797.0174,52.0019 56,-43 94.9951,-92.9983 119.9952,-164.9983 9,-26 16.0022,-69.9889 19.0022,-75.9889 l -0.9969,0.9969 v -98.999 c -6,-13 -9.0147,-41.0068 -15.0147,-57.0068 -16,-48 -50.0015,-96.0063 -85.0015,-123.0063 -13,-10 -24.9985,-19.9855 -39.9985,-30.9855 -144,-102 -423.9922,-131.00208 -541.9922,-223.00209 -22,-18 -49.0036,-45.01094 -58.0036,-82.01094 -10.0001,-41 0.01,-85.98708 18.0053,-115.98709 18,-31 38.0042,-50.01041 71.0043,-69.01041 104,-58.00001 244.9959,-36.99386 349.9959,-1.99386 35,11 67.999,24.99532 98.999,40.99532 l 90.0065,49.01125 c 4,-9 15.993,-28.00771 21.993,-37.00771 12,-20 60.0056,-97.00876 64.0056,-109.00876 -13,-7 -24.0046,-14.98989 -38.0046,-22.98989 -126.75,-70.6875 -281.2262,-120.25938 -431.783,-118.12344 z m -4684.2247,21.11823 v 1.99375 c 21,56 47.0073,109.00146 70.0073,164.00146 22,55.00001 45.9901,106.01074 68.9901,161.01074 67,155 145.0047,330.99964 209.0047,486.99964 l 209.0048,485.0056 h 169.0064 l 280.9855,-648.0102 c 77,-185.00004 164.9951,-379.99629 244.9951,-566.9963 8,-19 31.0169,-65.00781 34.0169,-83.00781 h -202.0061 c -7,2 -15.0084,25.99968 -17.0084,32.99968 l -312.9882,766.01163 c -26,64 -85.0089,214.9911 -109.0089,265.9911 -8,-11 -21.9917,-51.9962 -28.9917,-66.9962 L 3613.0159,720.01148 c -18,-44 -37.0161,-89.01604 -54.0161,-133.01604 -12,-31.00001 -45.9989,-107.99553 -52.9989,-132.99553 z m 2048.4213,137.10532 c 113.6844,0.43437 224.9634,48.86875 290.5884,130.9 16,20 31.0033,38.98834 45.0033,62.98834 37,63 70.9807,171.01854 71.9807,244.01853 h -826.9856 c -1,-87.99999 61,-237.01614 125,-304.01614 36,-37 62.9951,-63.99719 119.9951,-92.99719 54.6563,-28.1875 114.8692,-41.12083 174.4181,-40.89354 z m -2867.2689,7.14104 c 115.3359,0.15 233.3427,45.76208 313.8427,122.76209 74,71 144.017,175.98875 159.017,325.98874 28,270 -140.0064,523.002 -419.0064,552.002 -290,30 -499.0072,-189.0011 -524.0072,-447.0011 -15,-154.00005 35.0039,-288.98464 104.004,-379.98464 75.9999,-99.00001 184.9993,-156.00011 315.9993,-171.00011 h 0.9968 c 16.25,-1.875 32.6771,-2.78844 49.1537,-2.76698 z"
     id="path4792"
     inkscape:connector-curvature="0" /></svg>