<svg xmlns:rdf="http://www.w3.org/1999/02/22-rdf-syntax-ns#" xmlns="http://www.w3.org/2000/svg" height="18.344mm" width="282.22mm" version="1.1" xmlns:cc="http://creativecommons.org/ns#" xmlns:dc="http://purl.org/dc/elements/1.1/" viewBox="0 0 999.98898 64.999309">
<g transform="matrix(1.2935 0 0 1 197.29 -972.43)">
<g>
<path d="m-103.64 983.69h-34.006v18.079h34.006q3.9356 0 5.35-1.1069 1.4759-1.1684 1.4759-4.0586v-7.8098q0-2.8287-1.4759-3.9356-1.4144-1.1684-5.35-1.1684zm-48.888 53.746v-64.999h55.591q7.7483 0 11.192 3.0132 3.5052 2.9517 3.5052 9.5931v15.25q0 6.5799-3.5052 9.5931-3.4437 3.0132-11.192 3.0132h-8.4862l30.009 24.536h-21.707l-26.197-24.536h-14.328v24.536h-14.882z"/>
<path d="m-61.482 1027.2h42.923v-33.268h-42.923v33.268zm-12.975-30.501q0-7.2563 2.8287-9.9006 2.8287-2.6442 11.007-2.6442h41.201q8.2402 0 11.007 2.6442 2.8287 2.6442 2.8287 9.9006v28.103q0 7.3178-2.8902 9.9621-2.8287 2.6442-10.946 2.6442h-41.201q-8.1787 0-11.007-2.6442-2.8287-2.6443-2.8287-9.9621v-28.103z"/>
<path d="m1.8611 1037.4v-53.254h47.842q6.7029 0 9.6546 2.4598 2.9517 2.3983 2.9517 7.8712v6.3954q0 3.6281-2.3368 5.9649t-6.7644 3.1362q4.4891 0.7379 6.9488 3.4437 2.5213 2.6442 2.5213 6.7029v6.8258q0 5.227-4.1201 7.8713-4.1201 2.5827-12.422 2.5827h-44.276zm41.878-44.583h-29.087v12.606h29.087q3.3822 0 4.6121-0.861 1.2299-0.8609 1.2299-2.9517v-5.0425q0-2.0908-1.2299-2.8902-1.1684-0.86092-4.6121-0.86092zm0 21.4h-29.087v13.59h29.087q3.6896 0 4.981-1.0454 1.3529-1.0454 1.3529-3.6896v-4.0586q0-2.6443-1.3529-3.6897-1.2914-1.1069-4.981-1.1069z"/>
<path d="m81.439 1027.2h42.923v-33.268h-42.923v33.268zm-12.975-30.48q0-7.2563 2.8287-9.9006 2.8287-2.6442 11.007-2.6442h41.201q8.2402 0 11.007 2.6442 2.8287 2.6442 2.8287 9.9006v28.103q0 7.3178-2.8902 9.9621-2.8287 2.6442-10.946 2.6442h-41.201q-8.1787 0-11.007-2.6442-2.8287-2.6443-2.8287-9.9621v-28.103z"/>
<path d="m158.99 1037.4q-9.4701 0-12.791-3.1977-3.3207-3.2592-3.3207-12.176v-13.467l15.251-2.8903v19.494h29.702v-52.762h15.128v49.626q0 8.9166-3.3822 12.176-3.3207 3.1977-12.729 3.1977h-27.857z"/>
<path d="m204.79 1037.4 31.608-53.254h12.483l32.1 53.254h-14.574l-6.7029-11.684h-35.236l-6.7029 11.684h-12.975zm25.213-21.4h24.413l-12.422-22.199-11.991 22.199z"/>
<path d="m331 993.96h-34.99v33.268h34.99v-11.315l13.098 2.6442v6.2724q0 7.2563-2.8902 9.9621-2.8902 2.6442-11.069 2.6442h-33.268q-8.0557 0-10.946-2.6442-2.8902-2.6443-2.8902-9.9621v-28.103q0-7.2563 2.8287-9.9006 2.8902-2.6442 11.007-2.6442h33.268q8.2402 0 11.069 2.6442 2.8902 2.6442 2.8902 9.9006v5.1655l-13.098 1.9063v-9.839z"/>
<path d="m352.5 1037.4v-53.254h13.098v21.523l31.055-21.523h18.817l-36.835 24.659 40.955 28.595h-20.539l-33.453-24.044v24.044h-13.098z"/>
<path d="m425.72 1037.4v-53.254h57.128v9.4086h-44.03v11.622h25.643v9.1626h-25.643v13.098h44.706v9.962h-57.804z"/>
<path d="m528.95 993.71v43.722h-12.975v-43.722h-25.705v-9.5316h64.446v9.5316h-25.766z"/>
<path d="m608.7 993.71h-36.651v11.253h34.683q8.1787 0 11.007 2.6442 2.8287 2.5828 2.8287 9.9006v7.3178q0 7.3178-2.8902 9.9621-2.8902 2.6442-10.946 2.6442h-34.56q-8.2402 0-11.192-2.6442-2.8902-2.6443-2.8902-9.9621v-1.4759l11.561-2.1522v6.2724h39.172v-12.176h-34.498q-8.1787 0-11.069-2.6442-2.8902-2.7058-2.8902-9.9621v-5.9649q0-7.1948 2.8902-9.8391 2.8902-2.7057 11.069-2.7057h31.608q8.0557 0 11.007 2.5828 3.0132 2.5213 3.0132 8.9782v1.2914l-11.253 2.3983v-5.719z"/>
</g>
</g>
</svg>
