<?xml version="1.0" encoding="UTF-8" standalone="no"?>
<!-- Created with Inkscape (http://www.inkscape.org/) -->

<svg
   xmlns:dc="http://purl.org/dc/elements/1.1/"
   xmlns:cc="http://creativecommons.org/ns#"
   xmlns:rdf="http://www.w3.org/1999/02/22-rdf-syntax-ns#"
   xmlns:svg="http://www.w3.org/2000/svg"
   xmlns="http://www.w3.org/2000/svg"
   xmlns:sodipodi="http://sodipodi.sourceforge.net/DTD/sodipodi-0.dtd"
   xmlns:inkscape="http://www.inkscape.org/namespaces/inkscape"
   version="1.1"
   id="svg4485"
   width="300.64609"
   height="69.179939"
   viewBox="0 0 300.64609 69.179939"
   sodipodi:docname="Wechsler.svg"
   inkscape:version="0.92.0 r15299">
  <metadata
     id="metadata4491">
    <rdf:RDF>
      <cc:Work
         rdf:about="">
        <dc:format>image/svg+xml</dc:format>
        <dc:type
           rdf:resource="http://purl.org/dc/dcmitype/StillImage" />
        <dc:title />
      </cc:Work>
    </rdf:RDF>
  </metadata>
  <defs
     id="defs4489" />
  <sodipodi:namedview
     pagecolor="#ffffff"
     bordercolor="#666666"
     borderopacity="1"
     objecttolerance="10"
     gridtolerance="10"
     guidetolerance="10"
     inkscape:pageopacity="0"
     inkscape:pageshadow="2"
     inkscape:window-width="1920"
     inkscape:window-height="1017"
     id="namedview4487"
     showgrid="false"
     inkscape:snap-global="false"
     fit-margin-top="0"
     fit-margin-left="0"
     fit-margin-right="0"
     fit-margin-bottom="0"
     inkscape:zoom="2.2823728"
     inkscape:cx="187.58141"
     inkscape:cy="51.749919"
     inkscape:window-x="923"
     inkscape:window-y="1192"
     inkscape:window-maximized="1"
     inkscape:current-layer="svg4485" />
  <path
     inkscape:connector-curvature="0"
     style="fill:#000000;stroke-width:0.07909105"
     d="m 158.30316,31.503859 c -2.57217,-0.211011 -4.83882,-1.239026 -6.47338,-2.935934 -2.01153,-2.088267 -2.90718,-4.644659 -2.7769,-7.926005 0.0511,-1.28893 0.22621,-2.320808 0.56565,-3.334435 0.92055,-2.748959 3.08309,-5.004998 5.72006,-5.967374 1.2636,-0.46116 2.34953,-0.64 3.89159,-0.640905 1.46507,-8.61e-4 2.61945,0.177349 3.97432,0.613546 l 0.61296,0.19734 v 1.702424 c 0,1.591162 -0.009,1.698559 -0.13842,1.643278 -0.49094,-0.2098 -2.25076,-0.764605 -2.80145,-0.883193 -0.8559,-0.184318 -2.41474,-0.182031 -3.18118,0.0047 -1.1511,0.280391 -2.50028,1.05696 -3.20831,1.846651 -1.00419,1.120015 -1.49706,2.39109 -1.6747,4.318952 -0.29598,3.212167 0.90374,6.015264 3.17994,7.429772 0.95685,0.594629 1.64911,0.788915 2.96002,0.830761 0.99298,0.03169 1.20465,0.01337 2.05077,-0.177613 0.77345,-0.174575 1.9073,-0.542802 2.67649,-0.869208 0.1318,-0.05593 0.13873,0.0409 0.11866,1.657605 l -0.0214,1.717004 -0.59318,0.188819 c -0.89023,0.283371 -2.02414,0.500479 -3.06389,0.586635 -0.51162,0.04239 -0.9658,0.07257 -1.0093,0.06706 -0.0435,-0.0055 -0.40727,-0.03695 -0.80838,-0.06985 z"
     id="path4561" />
  <path
     inkscape:connector-curvature="0"
     style="fill:#000000;stroke-width:0.07909105"
     d="m 211.04187,31.518597 c -0.93273,-0.07631 -2.09727,-0.304842 -3.06303,-0.601094 l -0.69379,-0.212825 v -1.732866 -1.732867 l 0.17795,0.05489 c 0.0979,0.03019 0.26693,0.09957 0.37569,0.154164 0.37177,0.186646 1.9369,0.658698 2.59897,0.783865 0.86481,0.163497 2.44347,0.163061 3.23734,-8.92e-4 1.0796,-0.222968 1.82932,-0.726805 2.12128,-1.425591 0.19119,-0.457566 0.22324,-1.136789 0.0773,-1.638703 -0.22093,-0.75997 -0.46941,-0.94648 -3.76116,-2.823216 -1.62969,-0.929138 -3.24819,-1.904829 -3.59668,-2.168199 -0.74926,-0.566271 -1.29824,-1.219081 -1.66641,-1.981589 -0.36577,-0.757556 -0.45725,-1.197918 -0.46008,-2.214548 -0.008,-2.891611 1.64603,-4.615094 4.9302,-5.137223 1.04665,-0.166401 2.94283,-0.170791 3.99332,-0.0093 0.76382,0.117466 1.87594,0.390602 2.5309,0.621603 l 0.31637,0.111577 0.0214,1.67278 c 0.0114,0.920031 0.001,1.672781 -0.023,1.672781 -0.0244,0 -0.39409,-0.121715 -0.82149,-0.270488 -1.3132,-0.457095 -2.51731,-0.692747 -3.76407,-0.736647 -1.60708,-0.05658 -2.53125,0.170061 -3.08477,0.756518 -0.31727,0.336143 -0.42175,0.657949 -0.42801,1.318346 -0.006,0.688281 0.22356,1.231606 0.68846,1.625764 0.17673,0.149831 1.50733,0.928941 2.9569,1.731353 3.51195,1.944039 3.71337,2.071662 4.50046,2.85153 0.94701,0.938327 1.35873,1.745483 1.48565,2.912517 0.25684,2.361824 -0.89279,4.450961 -3.04647,5.536035 -1.3949,0.70278 -3.58395,1.047467 -5.60314,0.882266 z"
     id="path4559" />
  <path
     inkscape:connector-curvature="0"
     style="fill:#000000;stroke-width:0.07909105"
     d="m 89.178816,31.084015 c -0.02247,-0.07613 -1.359531,-4.593875 -2.971244,-10.039444 -1.611714,-5.44557 -2.93039,-9.921745 -2.93039,-9.947057 0,-0.02531 0.896586,-0.03651 1.992416,-0.02489 l 1.992415,0.02112 1.744185,6.979784 c 0.959301,3.838882 1.763504,6.979786 1.787117,6.979786 0.02362,0 0.85999,-3.149801 1.858613,-6.999559 l 1.815678,-6.999556 h 1.918436 c 1.055144,0 1.918444,0.02194 1.918444,0.04876 0,0.04609 3.517104,13.511156 3.609254,13.817899 0.0239,0.0794 0.063,0.12478 0.0869,0.100831 0.0239,-0.02395 0.77849,-3.167533 1.67676,-6.985745 l 1.63321,-6.942205 1.80498,-0.02128 1.80498,-0.02128 -0.0539,0.219009 c -0.0753,0.305831 -5.25807,19.643834 -5.31031,19.813815 -0.0385,0.125225 -0.18043,0.138408 -1.49076,0.138408 h -1.44822 l -0.47086,-1.680685 c -0.258974,-0.924376 -1.215364,-4.358484 -2.125314,-7.631349 -0.90995,-3.272866 -1.675044,-5.951085 -1.700214,-5.951601 -0.0252,-5.53e-4 -0.931695,3.433591 -2.014499,7.631348 l -1.968734,7.632286 h -1.559045 c -1.416514,0 -1.56278,-0.01259 -1.599899,-0.138408 z"
     id="path4557" />
  <path
     inkscape:connector-curvature="0"
     style="fill:#000000;stroke-width:0.07909105"
     d="M 123.08825,21.136794 V 11.052687 h 5.81319 5.8132 v 1.58182 1.581821 h -4.11274 -4.11273 v 2.491368 2.491368 h 3.32182 3.32182 v 1.621366 1.621368 h -3.32182 -3.32182 v 2.847277 2.847278 h 4.19182 4.19183 v 1.542275 1.542275 h -5.89229 -5.89228 z"
     id="path4555" />
  <path
     inkscape:connector-curvature="0"
     style="fill:#000000;stroke-width:0.07909105"
     d="M 177.98514,21.136794 V 11.052687 h 1.74001 1.74 v 4.073189 4.073188 h 3.63819 3.63819 v -4.073188 -4.073189 h 1.74 1.74 v 10.084107 10.084109 h -1.70045 -1.70047 v -4.389552 -4.389553 h -3.67773 -3.67773 v 4.389553 4.389552 h -1.74 -1.74001 z"
     id="path4553" />
  <path
     inkscape:connector-curvature="0"
     style="fill:#000000;stroke-width:0.07909105"
     d="M 233.89475,21.136794 V 11.052687 h 1.70046 1.70046 v 8.541832 8.541834 h 4.07318 4.07319 v 1.542275 1.542275 h -5.77364 -5.77365 z"
     id="path4551" />
  <path
     inkscape:connector-curvature="0"
     style="fill:#000000;stroke-width:0.07909105"
     d="M 259.60971,21.136794 V 11.052687 h 5.81319 5.8132 v 1.58182 1.581821 h -4.0732 -4.07319 v 2.491368 2.491368 h 3.32183 3.32182 v 1.621366 1.621368 h -3.32182 -3.32183 v 2.847277 2.847278 h 4.19183 4.19183 v 1.542275 1.542275 h -5.93184 -5.93182 z"
     id="path4549" />
  <path
     inkscape:connector-curvature="0"
     style="fill:#000000;stroke-width:0.07909105"
     d="m 285.64105,11.047743 v 10.089052 10.089052 h 1.74 1.74 v -4.270916 -4.270916 l 0.37569,0.002 0.37569,0.0022 2.64954,4.238939 c 1.45726,2.331451 2.68574,4.252984 2.72988,4.270145 0.0441,0.01716 1.02951,0.0218 2.18968,0.01017 l 2.10935,-0.02116 -2.88574,-4.339349 c -1.58713,-2.386686 -2.87486,-4.349029 -2.8618,-4.360666 0.0131,-0.01157 0.32616,-0.171813 0.69591,-0.355911 1.88023,-0.936164 3.01159,-2.274553 3.35627,-3.970926 0.33986,-1.672688 -0.0937,-3.503878 -1.17925,-4.980419 -0.61187,-0.832268 -1.71989,-1.530172 -3.00748,-1.894478 -0.60843,-0.172145 -0.77476,-0.180173 -4.33023,-0.207923 z m 3.32183,3.015347 1.44341,0.0028 c 0.94379,0.0018 1.60139,0.0407 1.89973,0.111997 1.43295,0.342423 2.09128,1.30755 2.0196,2.960816 -0.0646,1.488878 -0.68541,2.242025 -2.15924,2.618966 -0.49494,0.126585 -0.87749,0.158181 -1.91117,0.158181 h -1.29233 v -2.926368 z"
     id="path4547" />
  <path
     style="fill:#000000;stroke-width:0.04168524"
     d="m 113.66657,57.282844 c -2.19199,-0.179495 -3.95345,-1.521207 -4.60382,-3.506726 -0.33833,-1.032822 -0.38595,-2.348455 -0.12556,-3.471433 0.43995,-1.897838 1.85333,-3.355052 3.69986,-3.814634 0.50229,-0.125017 0.89576,-0.16918 1.5162,-0.170202 0.81217,-0.0013 1.43019,0.09459 2.19375,0.340524 l 0.30006,0.09663 v 0.892493 c 0,0.827141 -0.007,0.89047 -0.0717,0.864956 -0.0397,-0.01513 -0.31406,-0.101924 -0.61015,-0.192852 -1.02461,-0.314593 -1.48352,-0.385789 -2.10942,-0.32729 -1.24323,0.116201 -2.18701,0.710423 -2.66603,1.6786 -0.30464,0.615688 -0.42508,1.199022 -0.42683,2.067703 0,0.827268 0.1279,1.457052 0.41897,2.035848 0.69354,1.37921 1.95097,2.007044 3.59696,1.795955 l 0.36757,-0.04714 v -2.120494 -2.120494 h 0.93792 0.93793 l -4.1e-4,2.615752 -3.3e-4,2.615746 -0.23934,0.153994 c -0.54095,0.348083 -1.20013,0.550604 -2.01096,0.617813 -0.52764,0.04371 -0.51176,0.04378 -1.10464,-0.0047 z"
     id="path5174"
     inkscape:connector-curvature="0" />
  <path
     style="fill:#000000;stroke-width:0.04168524"
     d="m 188.45898,57.293152 c -1.385,-0.112912 -2.52709,-0.62552 -3.43368,-1.541154 -0.91782,-0.926946 -1.42004,-2.14808 -1.49375,-3.631958 -0.0834,-1.678377 0.47069,-3.23206 1.52912,-4.287943 0.9234,-0.921175 2.03168,-1.405418 3.41768,-1.49338 0.87344,-0.05542 1.65925,0.03678 2.49219,0.292468 l 0.42725,0.131163 v 0.893711 c 0,0.699548 -0.0115,0.889353 -0.0524,0.873643 -0.18365,-0.07046 -0.93671,-0.299596 -1.26482,-0.384861 -1.04532,-0.2716 -1.97585,-0.194055 -2.83813,0.236503 -0.93577,0.467268 -1.50456,1.349829 -1.68386,2.612954 -0.0771,0.543201 -0.0295,1.519157 0.0982,2.007347 0.48689,1.864019 1.97216,2.84662 3.8963,2.577744 l 0.34391,-0.04808 v -2.119627 -2.119633 h 0.93792 0.93794 v 2.615753 2.615746 l -0.19792,0.131889 c -0.76597,0.510443 -1.88009,0.738445 -3.11587,0.637692 z"
     id="path5172"
     inkscape:connector-curvature="0" />
  <path
     style="fill:#000000;stroke-width:0.04168524"
     d="M 87.376471,51.819837 V 46.50497 h 3.063815 3.063882 v 0.833703 0.833704 h -2.167649 -2.167583 v 1.313085 1.313085 h 1.75077 1.750772 v 0.854544 0.854552 h -1.750772 -1.75077 v 1.500663 1.500671 h 2.209277 2.209344 v 0.812863 0.812863 h -3.105576 -3.10551 z"
     id="path5170"
     inkscape:connector-curvature="0" />
  <path
     style="fill:#000000;stroke-width:0.04168524"
     d="m 96.802066,51.819815 v -5.314867 h 0.68533 0.68527 l 2.743314,3.508205 2.7433,3.508205 0.0108,-3.508205 0.0108,-3.508205 h 0.93772 0.93766 v 5.314867 5.314866 l -0.57317,-0.0013 -0.57316,-6.73e-4 -2.83463,-3.57877 -2.834564,-3.578764 -0.0108,3.579779 -0.0108,3.579772 h -0.9585 -0.95857 z"
     id="path5168"
     inkscape:connector-curvature="0" />
  <path
     style="fill:#000000;stroke-width:0.04168524"
     d="M 120.23679,51.819837 V 46.50497 h 0.91708 0.91709 v 5.314867 5.314866 h -0.91709 -0.91708 z"
     id="path5166"
     inkscape:connector-curvature="0" />
  <path
     style="fill:#000000;stroke-width:0.04168524"
     d="M 125.28546,51.819837 V 46.50497 h 0.67754 0.67748 l 2.73025,3.498884 c 1.50168,1.924395 2.74438,3.500096 2.76153,3.501561 0.0175,0.0013 0.0316,-1.57303 0.0316,-3.498891 V 46.50497 h 0.91708 0.91709 v 5.314867 5.314866 h -0.55717 -0.55722 l -2.76294,-3.485582 c -1.51968,-1.9171 -2.80657,-3.535007 -2.85976,-3.595376 l -0.0967,-0.109772 v 3.595355 3.595353 h -0.93787 -0.93792 z"
     id="path5164"
     inkscape:connector-curvature="0" />
  <path
     style="fill:#000000;stroke-width:0.04168524"
     d="M 137.21254,51.819837 V 46.50497 h 3.06388 3.06389 v 0.833703 0.833704 h -2.16766 -2.16764 v 1.313085 1.313085 h 1.75077 1.75077 v 0.854544 0.854552 h -1.75077 -1.75077 v 1.500663 1.500671 h 2.20934 2.20928 v 0.812863 0.812863 h -3.10551 -3.10558 z"
     id="path5162"
     inkscape:connector-curvature="0" />
  <path
     style="fill:#000000;stroke-width:0.04168524"
     d="M 146.63814,51.819837 V 46.50497 h 3.06388 3.06382 v 0.833703 0.833704 h -2.16759 -2.16764 v 1.313085 1.313085 h 1.75076 1.75077 v 0.854544 0.854552 h -1.75077 -1.75076 v 1.500663 1.500671 h 2.20927 2.20934 v 0.812863 0.812863 h -3.10557 -3.10551 z"
     id="path5160"
     inkscape:connector-curvature="0" />
  <path
     style="fill:#000000;stroke-width:0.04168524"
     d="m 156.06372,46.502157 v 5.317661 5.31766 h 0.91636 0.91833 V 54.88483 52.634146 h 0.19819 l 0.19818,0.002 1.40889,2.250685 1.41085,2.250685 h 1.14594 c 0.90578,0 1.13811,-0.01175 1.11259,-0.05298 -0.0176,-0.02865 -0.70137,-1.064084 -1.52073,-2.301702 l -1.4913,-2.250686 0.40618,-0.209959 c 0.51304,-0.264357 0.76854,-0.451527 1.10082,-0.810404 0.70255,-0.758841 0.88801,-1.892466 0.49252,-3.010071 -0.16254,-0.459468 -0.35418,-0.76304 -0.71033,-1.120436 -0.35494,-0.356207 -0.78321,-0.594486 -1.35591,-0.755461 -0.31983,-0.08993 -0.4128,-0.09333 -2.28207,-0.107923 z m 1.75032,1.589411 h 0.74761 c 0.84445,0 1.08543,0.03583 1.43439,0.21977 0.29334,0.154655 0.50233,0.410479 0.59456,0.727991 0.08,0.273879 0.0877,0.842781 0.0138,1.09689 -0.14983,0.514915 -0.54907,0.845521 -1.18518,0.98308 -0.14505,0.03141 -0.53514,0.05427 -0.92814,0.05494 l -0.67697,0.002 v -1.542303 z"
     id="path5158"
     inkscape:connector-curvature="0" />
  <path
     style="fill:#000000;stroke-width:0.04168524"
     d="M 166.5894,51.819837 V 46.50497 h 0.89623 0.89624 v 5.314867 5.314866 h -0.89624 -0.89623 z"
     id="path5154"
     inkscape:connector-curvature="0" />
  <path
     style="fill:#000000;stroke-width:0.04168524"
     d="m 171.59638,51.818629 v -5.314867 l 0.67734,0.0027 0.67739,0.0027 2.73027,3.498893 c 1.50167,1.924388 2.74437,3.498892 2.76166,3.498892 0.0175,0 0.0317,-1.575708 0.0317,-3.501562 v -3.501561 h 0.91701 0.91708 v 5.316044 5.316043 l -0.57209,-0.01163 -0.5721,-0.01163 -2.83563,-3.575488 -2.8357,-3.575489 -0.0107,3.585912 -0.0108,3.585906 h -0.93766 -0.93766 v -5.314867 z"
     id="path5135"
     inkscape:connector-curvature="0" />
  <path
     style="fill:#000000;stroke-width:0.04164665"
     d="m 208.55618,57.281696 c -1.36802,-0.112337 -2.50054,-0.613064 -3.38052,-1.49471 -0.9099,-0.911624 -1.37721,-1.96377 -1.50628,-3.391289 -0.10401,-1.150186 0.10548,-2.342245 0.57564,-3.276185 0.43493,-0.864075 1.11804,-1.597927 1.94513,-2.089691 1.31845,-0.78396 3.1403,-0.927135 4.91379,-0.386185 l 0.3545,0.108113 v 0.89288 c 0,0.49109 -0.006,0.892892 -0.0136,0.892892 -0.008,0 -0.22779,-0.07643 -0.48933,-0.169695 -1.51844,-0.541873 -2.51548,-0.538969 -3.58372,0.01056 -0.79869,0.410765 -1.34392,1.12393 -1.60637,2.101234 -0.10287,0.38249 -0.1105,0.471911 -0.11116,1.285665 0,0.766973 0.0105,0.913909 0.0882,1.194238 0.22102,0.794403 0.50688,1.292767 1.05058,1.831617 0.30373,0.301081 0.42816,0.39148 0.75508,0.548607 0.55633,0.267392 0.90975,0.334979 1.61416,0.308684 0.63632,-0.02376 1.07027,-0.120258 1.83242,-0.407451 0.2405,-0.09068 0.44327,-0.164784 0.45063,-0.164784 0.006,0 0.0131,0.402118 0.0131,0.893592 v 0.893592 l -0.32277,0.101649 c -0.51562,0.162434 -1.07562,0.269729 -1.65206,0.316539 -0.29486,0.02389 -0.53803,0.04079 -0.54042,0.03762 0,-0.0026 -0.17655,-0.02006 -0.387,-0.03736 z"
     id="path5210"
     inkscape:connector-curvature="0" />
  <path
     style="fill:#000000;stroke-width:0.04164665"
     d="m 219.67892,46.336177 c -1.48414,-0.09419 -2.76676,0.241838 -3.75781,0.982421 -0.299,0.223408 -0.78213,0.713325 -1.02344,1.03711 -1.33671,1.793594 -1.40233,4.903633 -0.14063,6.763672 0.86368,1.273309 2.22268,2.022302 3.92578,2.162109 0.21045,0.0173 0.40429,0.03451 0.42969,0.03711 0.0253,0.0032 0.28665,-0.01334 0.58203,-0.03711 1.63839,-0.131967 2.89768,-0.818495 3.79102,-2.066406 0.72215,-1.008742 1.0582,-2.394948 0.9668,-3.992188 -0.0857,-1.496942 -0.58977,-2.676774 -1.52344,-3.566406 -0.83788,-0.798363 -1.91366,-1.235562 -3.25,-1.320312 z m -0.38672,1.554687 c 0.39808,0.0044 0.79707,0.037 1.02344,0.09766 0.54499,0.146065 0.98719,0.388981 1.33203,0.730469 0.67547,0.668956 0.97851,1.62469 0.97851,3.085938 0,0.721547 -0.0673,1.289377 -0.20898,1.75 -0.32769,1.065227 -1.06444,1.766 -2.12305,2.019531 -0.40438,0.09663 -1.28132,0.140857 -1.71093,0.08594 -0.80382,-0.1027 -1.36485,-0.361672 -1.84961,-0.851562 -0.66097,-0.667979 -0.94336,-1.543615 -0.94336,-2.941406 -0.002,-1.475556 0.34726,-2.451023 1.14062,-3.185547 0.33978,-0.314572 0.86816,-0.595378 1.34375,-0.714844 0.22199,-0.05576 0.6195,-0.08052 1.01758,-0.07617 z"
     id="path5208"
     inkscape:connector-curvature="0" />
  <path
     style="fill:#000000;stroke-width:0.04164665"
     d="m 240.39715,57.287608 c -0.52281,-0.04383 -0.95696,-0.127914 -1.52971,-0.296223 l -0.44852,-0.131874 v -0.909525 c 0,-0.500227 0.006,-0.909513 0.0134,-0.909513 0.008,0 0.21088,0.07445 0.45228,0.165391 0.75224,0.283472 1.18919,0.378939 1.85601,0.405498 0.93768,0.03736 1.49091,-0.08475 1.8613,-0.410764 0.3016,-0.265492 0.37674,-0.442685 0.3769,-0.888946 1.8e-4,-0.413589 -0.0502,-0.55555 -0.28532,-0.80495 -0.0753,-0.07986 -0.73954,-0.484425 -1.5675,-0.954684 -1.81458,-1.030642 -2.03629,-1.17647 -2.4413,-1.60557 -0.52246,-0.55353 -0.72835,-1.066956 -0.72747,-1.813949 0.003,-1.850045 1.24591,-2.800335 3.66644,-2.80139 0.84801,-3.83e-4 1.26359,0.06284 2.15685,0.328194 l 0.38477,0.114318 4.5e-4,0.884985 c 4.3e-4,0.486748 -0.009,0.884998 -0.022,0.884998 -0.0119,0 -0.20668,-0.06415 -0.43173,-0.142434 -0.22506,-0.07828 -0.63189,-0.194579 -0.90408,-0.258311 -0.4431,-0.103756 -0.57336,-0.116034 -1.24454,-0.116958 -0.69113,-10e-4 -0.76875,0.0066 -0.99455,0.09676 -0.51275,0.204913 -0.7179,0.52363 -0.68336,1.061702 0.0224,0.350279 0.14552,0.609745 0.37643,0.793841 0.0745,0.05941 0.8348,0.496451 1.68964,0.971318 0.88732,0.4929 1.70941,0.980241 1.91575,1.135679 0.83095,0.625923 1.21377,1.500044 1.09276,2.495176 -0.14683,1.207596 -0.88547,2.047686 -2.17714,2.476193 -0.6094,0.202167 -1.59324,0.297449 -2.38563,0.231037 z"
     id="path5204"
     inkscape:connector-curvature="0" />
  <path
     style="fill:#000000;stroke-width:0.04164665"
     d="m 251.06048,57.217319 c -1.06183,-0.07841 -1.85482,-0.323047 -2.50529,-0.772727 -0.40722,-0.281517 -0.68843,-0.600801 -0.89228,-1.013137 -0.29519,-0.597093 -0.28663,-0.44906 -0.28742,-4.966365 l -5.6e-4,-4.050141 h 0.99872 0.99873 l 0.0119,4.070958 0.0119,4.070965 0.11616,0.236621 c 0.18947,0.385816 0.54255,0.63292 1.1016,0.770959 0.36252,0.0895 1.38848,0.100062 1.71829,0.01782 0.57737,-0.144178 0.99478,-0.468016 1.17335,-0.910317 l 0.0969,-0.239949 0.0105,-4.008485 0.0119,-4.008505 h 0.95822 0.95824 l -0.0119,4.133436 -0.0119,4.13343 -0.11418,0.333185 c -0.1455,0.424744 -0.30289,0.696005 -0.57934,0.998484 -0.5416,0.592591 -1.31382,0.976519 -2.2617,1.124419 -0.40888,0.06376 -1.1685,0.104017 -1.50101,0.07947 z"
     id="path5202"
     inkscape:connector-curvature="0" />
  <path
     style="fill:#000000;stroke-width:0.04164665"
     d="m 295.35595,57.290365 c -2.19525,-0.179291 -3.90205,-1.430859 -4.59945,-3.372716 -0.37828,-1.053267 -0.45083,-2.373029 -0.19363,-3.52183 0.28583,-1.276629 0.96097,-2.326423 1.9831,-3.083588 1.36942,-1.014443 3.42268,-1.266352 5.37086,-0.658937 l 0.35438,0.11049 v 0.894952 c 0,0.835258 -0.005,0.893077 -0.0728,0.866901 -0.0402,-0.01544 -0.33526,-0.10917 -0.65593,-0.208465 -0.82501,-0.255288 -1.21347,-0.327958 -1.72834,-0.323324 -1.65382,0.01492 -2.84396,0.887572 -3.24946,2.382752 -0.20738,0.764635 -0.21931,1.885027 -0.028,2.624858 0.48078,1.858956 1.96928,2.843976 3.89171,2.575357 l 0.34359,-0.04806 v -2.117663 -2.117675 h 0.93705 0.93705 v 2.613334 2.613321 l -0.19774,0.131743 c -0.7603,0.506654 -1.87874,0.737586 -3.09218,0.638476 z"
     id="path5200"
     inkscape:connector-curvature="0" />
  <path
     style="fill:#000000;stroke-width:0.04164665"
     d="m 226.86003,51.820185 v -5.309958 l 0.67675,5.54e-4 0.67677,5.41e-4 2.72786,3.495924 c 1.50032,1.922755 2.74191,3.49667 2.75908,3.497593 0.0172,0.0011 0.0313,-1.572555 0.0313,-3.496629 v -3.498322 h 0.91623 0.91622 v 5.30996 5.309937 h -0.55852 -0.55851 l -2.8461,-3.590367 -2.8461,-3.590381 -0.0105,3.590381 -0.0105,3.590367 h -0.93681 -0.93682 z"
     id="path5198"
     inkscape:connector-curvature="0" />
  <path
     style="fill:#000000;stroke-width:0.04164665"
     d="m 257.9343,51.819846 v -5.309958 h 0.91622 0.91624 v 4.49784 4.497848 h 2.1448 2.14479 v 0.812104 0.812105 h -3.06102 -3.06103 z"
     id="path5196"
     inkscape:connector-curvature="0" />
  <path
     style="fill:#000000;stroke-width:0.04164665"
     d="m 267.7394,52.63195 v -4.497839 h -1.64504 -1.64505 v -0.812106 -0.812117 h 4.14384 4.14384 v 0.812117 0.812106 h -1.54092 -1.54093 v 4.497839 4.497834 h -0.95787 -0.95787 z"
     id="path5194"
     inkscape:connector-curvature="0" />
  <path
     style="fill:#000000;stroke-width:0.04164665"
     d="m 275.12998,51.819846 v -5.309958 h 0.89541 0.8954 v 5.309958 5.309938 h -0.8954 -0.89541 z"
     id="path5192"
     inkscape:connector-curvature="0" />
  <path
     style="fill:#000000;stroke-width:0.04164665"
     d="m 279.31375,51.81825 v -5.309958 l 0.67676,0.0026 0.67675,0.0026 2.72788,3.495791 c 1.50031,1.922689 2.7419,3.495944 2.75907,3.496142 0.0171,1.99e-4 0.0313,-1.573901 0.0313,-3.497976 v -3.498326 h 0.91623 0.91622 v 5.311133 5.311126 l -0.57164,-0.01188 -0.57165,-0.01188 -2.83297,-3.574421 -2.83297,-3.574421 -0.0105,3.584836 -0.0105,3.584836 h -0.93682 -0.93682 z"
     id="path5188"
     inkscape:connector-curvature="0" />
  <path
     style="fill:none;stroke:#000000;stroke-width:1px;stroke-linecap:butt;stroke-linejoin:miter;stroke-opacity:1"
     d="M 198.20154,39.391164 V 65.792861"
     id="path5213"
     inkscape:connector-curvature="0" />
  <path
     style="clip-rule:evenodd;fill:#282929;fill-rule:evenodd;stroke-width:0.06626559;image-rendering:optimizeQuality;shape-rendering:geometricPrecision;text-rendering:geometricPrecision"
     d="M 22.788377,0 C 9.0469031,5.366646 0.001194,18.609319 0,33.36157 1.562e-4,53.143448 16.036494,69.17979 35.818372,69.179942 55.600249,69.179778 71.636583,53.143448 71.636738,33.36157 71.628238,20.427674 63.707126,4.851724 53.373833,2.163642 46.991508,-0.070836 39.873968,1.17902 36.225772,8.533429 c -2.154962,4.61318 -1.648447,8.293397 0.303547,13.415669 1.951992,5.122272 4.095107,6.29316 6.485992,8.56278 1.516576,1.439638 4.988816,4.161752 5.702293,4.604555 -2.73804,-1.058306 -5.738627,-1.934087 -8.236133,-3.585415 -4.213553,-2.785988 -9.159024,-5.702372 -11.006743,-10.416294 -1.847719,-4.713921 -1.683093,-6.72349 -1.447505,-9.390896 0.235587,-2.667406 1.015329,-5.499927 1.015329,-5.499927 0,0 -6.871143,4.616041 -9.456406,9.122429 -2.58526,4.506389 -1.785522,8.196861 -0.988779,12.223521 0.796743,4.026661 6.000422,12.520007 9.750123,15.678109 3.749701,3.158102 5.777956,4.709898 5.777956,4.709898 0,0 -4.328475,-0.254437 -8.105377,-1.203 C 22.243167,45.806296 16.784798,42.946463 13.113664,39.020792 9.4425271,35.095136 6.2749746,29.197269 6.8780221,21.88211 7.4510251,14.931378 13.785548,8.099859 17.095497,4.942997 20.405447,1.786128 21.740184,0.977533 22.788377,0 Z"
     id="path5292"
     inkscape:connector-curvature="0"
     sodipodi:nodetypes="cccccczccczzczzzczcszc" />
</svg>
