<?xml version="1.0" encoding="UTF-8"?>
<!DOCTYPE svg PUBLIC "-//W3C//DTD SVG 1.1//EN" "http://www.w3.org/Graphics/SVG/1.1/DTD/svg11.dtd">
<!-- Creator: CorelDRAW X6 -->
<svg xmlns="http://www.w3.org/2000/svg" xml:space="preserve" width="11in" height="8.5in" version="1.1" style="shape-rendering:geometricPrecision; text-rendering:geometricPrecision; image-rendering:optimizeQuality; fill-rule:evenodd; clip-rule:evenodd"
viewBox="0 0 11000 8500"
 xmlns:xlink="http://www.w3.org/1999/xlink">
 <defs>
  <style type="text/css">
   <![CDATA[
    .fil2 {fill:#373435}
    .fil0 {fill:#282929}
    .fil3 {fill:#29292A}
    .fil4 {fill:#C3C5C5}
    .fil1 {fill:#FEFEFE}
   ]]>
  </style>
 </defs>
 <g id="__x0023_Layer_x0020_1">
  <metadata id="CorelCorpID_0Corel-Layer"/>
  <g id="_166052920">
   <g>
    <path class="fil0" d="M6959 5958c13,18 54,105 73,135 11,18 5,14 59,14l0 -213 -46 0 2 145c-1,-12 -30,-64 -37,-76 -46,-81 -25,-69 -96,-68l0 211 46 1 -1 -149z"/>
    <path class="fil0" d="M5724 5956c15,18 29,56 41,77l32 58c12,20 7,15 59,15l0 -213 -46 1 2 141c-13,-25 -22,-46 -36,-72 -13,-24 -28,-46 -39,-70l-58 -1c0,57 -4,161 3,213l40 0c4,-28 2,-81 2,-111l-1 -39z"/>
    <path class="fil0" d="M5556 6014c-14,93 -112,64 -99,-30 12,-88 114,-66 99,30zm-151 0l0 0c9,136 219,128 203,-30 -13,-134 -213,-128 -203,30z"/>
    <path class="fil0" d="M7342 5901c-234,-76 -249,279 7,195l0 -112 -80 2 0 36 33 1 0 44c-59,7 -100,-24 -87,-86 12,-55 63,-52 117,-42l10 -38z"/>
    <path class="fil0" d="M6148 5894c0,95 -25,218 88,216 109,-2 86,-121 86,-215l-49 0c0,36 0,73 0,109 0,35 -3,69 -40,67 -51,-2 -36,-111 -36,-176l-48 0z"/>
    <path class="fil0" d="M6055 5938c7,-12 11,-29 9,-38 -85,-36 -170,32 -118,92 19,21 77,29 79,53 4,41 -67,20 -86,12l-10 41c30,8 54,17 90,9 26,-6 48,-22 54,-48 19,-86 -87,-65 -91,-112 16,-28 46,-14 73,-8z"/>
    <path class="fil0" d="M5354 5899c-86,-28 -165,14 -167,101 -2,95 77,123 166,102l-9 -38c-62,10 -108,1 -106,-68 3,-88 96,-60 108,-60l8 -37z"/>
    <polygon class="fil0" points="6556,5934 6612,5934 6614,6107 6661,6107 6661,5934 6718,5934 6719,5898 6719,5894 6555,5894 "/>
    <polygon class="fil0" points="6403,6107 6536,6105 6538,6066 6451,6065 6451,5894 6403,5894 "/>
    <path class="fil0" d="M5556 6014c14,-96 -87,-118 -99,-30 -13,94 86,123 99,30z"/>
    <polygon class="fil0" points="6785,6107 6833,6107 6833,5954 6833,5924 6833,5894 6827,5894 6789,5894 6785,5894 6785,6014 "/>
    <path class="fil0" d="M5065 5727c-20,1 -15,3 -14,27l0 490c0,64 -7,59 14,60l0 -577z"/>
    <path class="fil0" d="M4517 6107c7,-26 1,-117 2,-150 23,30 60,129 84,150l47 0c7,-25 2,-175 2,-213l-46 1 2 141 -74 -142 -58 0c0,37 -5,190 3,213l39 0z"/>
    <path class="fil0" d="M3487 5956c24,30 58,128 84,150l47 0c7,-27 2,-174 2,-213l-46 1 2 141c-13,-25 -21,-46 -36,-71 -13,-23 -26,-47 -39,-71l-58 0 0 213 44 0 -1 -150z"/>
    <path class="fil0" d="M2845 5953c1,14 72,145 84,154l47 0 0 -213 -46 0 2 140c-15,-20 -26,-51 -38,-72 -12,-21 -29,-47 -37,-68l-58 0 0 213 46 -2 -1 -153z"/>
    <path class="fil0" d="M3227 5902c-36,-17 -91,-12 -123,5 -72,36 -77,157 2,192 45,20 86,8 130,0l0 -113 -80 0 0 38 33 1 0 42c-58,13 -99,-26 -87,-84 12,-55 63,-56 118,-42l7 -39z"/>
    <path class="fil0" d="M4903 5901c-91,-22 -181,4 -180,103 0,114 108,114 187,94l0 -113 -80 0 0 39 32 0 0 44c-59,6 -103,-24 -86,-89 17,-68 105,-40 118,-39l9 -38z"/>
    <path class="fil0" d="M4166 5987l-1 -55c67,-18 86,62 1,55zm-47 -90l0 0 0 209 44 0 0 -83c16,-2 16,-3 28,4 30,8 20,54 39,81l46 0c1,-12 -10,-42 -13,-55 -7,-27 -9,-31 -27,-44 12,-14 29,-20 33,-43 17,-88 -107,-72 -150,-69z"/>
    <path class="fil0" d="M3752 5934l81 -2 0 -38 -132 0c0,39 -5,187 2,213l133 0 1 -40 -87 0 0 -49 78 0 1 -40 -78 0 3 -43z"/>
    <polygon class="fil0" points="3910,6105 4045,6107 4045,6066 3959,6066 3958,6018 4035,6017 4036,5978 3958,5977 3958,5935 4039,5933 4041,5894 3910,5894 "/>
    <polygon class="fil0" points="2593,5898 2593,6107 2728,6107 2728,6066 2641,6066 2640,6018 2718,6017 2719,5977 2640,5976 2640,5935 2721,5933 2724,5894 "/>
    <polygon class="fil0" points="3314,6107 3348,6107 3362,6106 3362,5895 3348,5894 3314,5894 "/>
    <polygon class="fil0" points="4345,6107 4393,6105 4393,5895 4379,5894 4345,5894 4345,6101 "/>
    <path class="fil0" d="M4166 5987c85,7 67,-73 -1,-55l1 55z"/>
    <path class="fil0" d="M4191 6026c-11,-7 -11,-6 -28,-4l0 83 -44 0 0 -209c-1,1 -1,2 -2,3 -7,20 -3,198 0,208 15,4 35,5 49,-1l0 -82 24 2z"/>
    <path class="fil0" d="M2617 5544l101 0c18,-103 50,-202 63,-308 10,49 17,105 27,155 10,50 22,103 30,153 122,0 102,13 117,-46 23,-90 87,-319 97,-377 -106,0 -94,-7 -101,15 -13,46 -48,279 -57,299 -8,-101 -38,-215 -55,-314l-101 0c-12,20 -42,188 -50,234l-17 83 -55 -315 -103 -2c8,58 72,304 94,401 3,15 1,17 11,22z"/>
    <path class="fil0" d="M4818 5281c-3,2 5,1 -9,3 -2,0 -9,0 -11,0 -30,0 -122,2 -139,-2l0 -163 -95 1 0 423 96 0 0 -176 156 0 1 175 96 1c0,-59 -4,-394 2,-422l-98 -1 0 161z"/>
    <path class="fil0" d="M7092 5306l0 -113c47,-17 113,-1 113,53 0,57 -56,67 -113,60zm-95 -181l0 0 0 418 95 0 0 -165c58,-6 80,4 93,52 7,24 20,102 37,113l94 0c-11,-36 -21,-73 -31,-112 -19,-70 -28,-59 -55,-88 27,-18 59,-31 69,-82 10,-48 -9,-90 -37,-112 -62,-49 -180,-34 -265,-25z"/>
    <path class="fil0" d="M6410 5543c53,4 207,1 270,1l0 -79 -173 0 1 -100 154 0 0 -78 -154 0 0 -88 163 0 0 -77 -262 -1 0 423z"/>
    <path class="fil0" d="M3352 5543l270 1c0,-14 -3,-70 2,-79l-175 0 0 -100 155 0 0 -78 -154 0 -1 -88 164 0 0 -77 -260 -1 -1 423z"/>
    <path class="fil0" d="M5250 5446l-19 78c112,51 290,33 291,-105 0,-111 -105,-113 -167,-154 -36,-23 -23,-63 20,-72 47,-9 74,8 109,17l22 -76c-66,-29 -154,-30 -212,5 -61,36 -111,160 50,224 29,12 71,23 79,50 12,43 -30,59 -67,58 -47,0 -68,-14 -105,-25z"/>
    <path class="fil0" d="M4248 5532c0,-25 -12,-51 -10,-76 -57,12 -102,26 -156,-4 -83,-45 -84,-195 1,-243 53,-30 99,-15 152,-2l20 -74c-22,-18 -88,-22 -120,-20 -251,13 -274,315 -123,406 52,32 177,48 235,13z"/>
    <path class="fil0" d="M5839 5546l264 -2c0,-26 -3,-55 2,-79l-169 -1 -2 -13 0 -329 -96 0 0 425z"/>
    <path class="fil0" d="M7092 5306c57,7 113,-3 113,-60 0,-54 -66,-69 -113,-53l0 113z"/>
    <path class="fil0" d="M4818 5281l-155 0 0 -152c-1,-6 -3,-9 -4,-10l0 163c17,4 109,3 139,2 3,0 9,0 11,0 13,-2 5,-2 9,-3z"/>
   </g>
   <g>
    <path class="fil0" d="M1740 5803c3,12 6,8 11,15 10,14 10,7 12,13 3,10 10,12 18,33 1,3 5,6 10,16 6,11 16,47 18,60 2,17 4,29 4,47 0,11 0,23 -6,32 -5,9 6,14 -26,63l-10 16 21 -18c8,-8 12,-10 21,-20 7,-7 13,-14 19,-21 6,-7 13,-14 19,-22l33 -48c12,-22 15,-26 28,-53 39,-79 57,-170 51,-271 -4,-67 -10,-78 -28,-135 -6,-19 -26,-67 -36,-86 -3,-5 -19,-35 -22,-39 -3,-3 -3,-1 -5,-5 -6,-11 -12,-23 -21,-30 -2,-2 -5,-8 -8,-13 -2,-3 -7,-9 -9,-11 -8,-6 -3,1 -10,-10 -4,-7 -13,-17 -20,-21 -2,-2 -4,-2 -7,-3 -4,-2 -3,-2 -5,-5 -3,-4 -5,-7 -10,-10 -2,-1 -4,-2 -7,-4 -7,-3 -5,-6 -17,-14 -4,-3 -8,-5 -13,-8 -4,-3 -7,-6 -12,-8 -3,-1 -4,-2 -8,-2 -5,-1 -3,-2 -6,-5 -7,-6 -45,-20 -58,-23 -22,-6 -46,-10 -71,-10 -49,1 -92,20 -119,44 -59,51 -94,132 -59,238 10,30 29,68 50,91l11 10c1,1 2,5 3,7 4,6 9,12 14,16 9,7 7,4 10,10 6,11 18,16 21,20 6,8 12,15 21,20 4,2 4,1 6,4 2,3 2,4 5,6 6,6 11,8 18,12 3,2 5,6 16,14 2,1 11,8 13,8 10,4 5,4 13,7 13,4 -6,0 9,8 12,6 16,8 24,17 3,3 3,1 8,2 5,2 3,2 6,4 2,3 5,3 11,9 3,3 5,2 13,8 3,2 3,2 7,4 7,3 -3,4 16,15 4,3 10,5 12,9 4,6 3,4 10,10 6,5 0,6 12,9z"/>
    <path class="fil0" d="M1485 5969c0,-6 -1,-5 -5,-7l-7 -5c-2,-2 0,-2 -3,-3 -3,-1 -7,-2 -10,-4l-2 -2c-4,-5 -16,-12 -23,-14 -6,-1 -8,-2 -13,-5 -15,-10 -24,-9 -30,-13 -4,-3 -1,-3 -8,-4 -9,-2 -19,-6 -28,-9 -8,-3 -14,-2 -21,-3 -5,-1 -7,-6 -19,-5 -4,0 -13,-5 -17,-6 -13,-4 -26,-8 -39,-10 -11,-2 -14,-1 -19,-5 -3,-3 -13,-5 -18,-7 -6,-2 -11,-5 -17,-7l-19 -6c-4,-3 -9,-7 -15,-9 -8,-3 -16,-9 -24,-13 -4,-2 -6,-2 -8,-3 -1,-1 -4,-5 -6,-6 -4,-4 -10,-6 -15,-10 -2,-2 -4,-3 -6,-5 -11,-11 -8,0 -20,-17 -3,-4 -10,-7 -14,-10 -6,-5 -12,-14 -17,-19 -3,-2 -6,-3 -7,-5 -2,-4 -1,-4 -4,-8 -4,-4 -8,-7 -12,-12 -3,-5 -10,-10 -11,-14 -1,-3 -3,-6 -4,-8 -5,-10 -13,-18 -15,-22 -3,-6 -6,-11 -8,-16 -7,-14 -25,-58 -27,-70 -3,-14 -6,-25 -8,-41 -1,-12 -2,-34 -1,-47 1,-14 3,-30 5,-43 5,-27 4,-17 10,-38 9,-27 18,-40 22,-52 1,-4 1,-5 4,-8 7,-6 11,-13 15,-21 8,-13 33,-44 43,-54 4,-4 8,-8 12,-12 22,-22 27,-27 51,-46 9,-7 18,-15 27,-22 5,-3 9,-7 14,-11 10,-6 19,-14 29,-20 5,-3 9,-6 14,-9 -15,1 -65,28 -78,36l-18 11c-14,10 -29,19 -43,29 -12,10 -24,18 -36,28 -11,10 -22,21 -32,32l-14 15c-7,8 -14,15 -19,24 -2,3 -3,7 -5,9 -4,3 -7,7 -10,11 -11,16 -21,32 -31,49l-10 19c-2,4 -4,11 -7,15 -9,13 -19,40 -23,55 -15,55 -19,61 -27,116 -2,18 -9,73 -3,92 2,7 1,12 1,20 0,8 10,76 15,85 7,16 3,13 6,27 2,10 5,16 10,23 1,2 3,16 8,25 2,3 6,7 7,11 1,5 1,7 4,13 2,4 3,7 6,10 1,1 3,3 4,4 1,1 1,4 2,6 5,16 15,29 24,42 6,9 10,18 17,25 6,6 3,1 7,9 3,6 7,10 11,14 2,2 2,3 4,5 1,1 2,3 3,4 9,13 19,18 21,21 3,8 1,4 11,14l13 12c2,2 2,2 4,3 4,3 5,4 10,7 4,2 5,6 8,9 3,3 6,5 10,7 5,2 3,5 8,8 13,8 17,13 30,20 3,2 6,5 9,8 7,6 15,7 22,11l9 7c4,2 7,4 11,6 12,5 12,5 22,11 20,10 51,20 72,27 9,3 17,4 26,7 4,1 8,3 12,4 25,6 77,13 103,13 11,0 21,-1 31,-1l20 0c4,0 5,1 9,-2 2,-1 1,-1 2,-2 2,-4 5,-5 9,-6 26,-10 36,-17 55,-38 7,-7 8,-9 13,-18 2,-4 3,-7 5,-10 5,-10 10,-21 14,-33 3,-12 2,-16 2,-27 4,-2 3,-1 3,-8l-1 -29c0,-3 0,-7 -1,-9 -1,-2 -2,-3 -3,-7 -1,-2 -1,-6 -2,-8 -1,-3 -2,-4 -3,-7 -1,-3 -2,-6 -3,-8 -5,-14 -10,-16 -11,-19 -3,-8 -1,-8 -7,-13 -3,-3 -8,-7 -9,-12l-5 0c-2,-8 -8,-14 -16,-16z"/>
    <path class="fil0" d="M1399 5901c-2,7 2,-5 -1,2 -1,2 -1,0 0,2 1,2 22,7 29,12 7,5 7,5 16,7 12,3 21,15 29,18 12,4 7,3 14,9 3,2 6,3 7,5 2,4 -1,2 5,5 7,4 7,7 11,13 6,-2 4,-1 5,3 1,3 3,5 5,7 8,7 6,3 10,14 2,6 5,5 9,15 1,3 3,5 4,9l10 26c2,4 2,39 2,46 0,8 -3,1 -2,9 2,22 -12,45 -21,63 -1,3 -3,5 -4,8 -2,5 -1,4 -5,7l-5 6c-2,2 -4,5 -6,7 -9,11 -20,21 -32,29l-6 5c0,0 0,0 0,0 0,0 0,0 0,0 40,-3 83,-16 121,-28 44,-15 59,-20 102,-47 16,-10 30,-19 44,-30 8,-7 8,-4 16,-6 6,-1 -1,-2 9,-20 4,-6 7,-11 11,-17 7,-11 14,-20 19,-34 4,-11 2,-16 4,-23 1,-2 3,-5 4,-9 6,-21 2,-63 -3,-84 -5,-20 -10,-42 -22,-58 -3,-4 -6,-12 -9,-17 -3,-4 -9,-11 -11,-16 -3,-8 0,-3 -6,-7 -3,-2 -4,-4 -6,-8 -2,-3 -4,-4 -7,-7 -2,-3 -4,-6 -5,-8 -4,-1 -4,0 -6,-3 -2,-3 -1,-3 -4,-6 -3,-3 -7,-5 -10,-9 -3,-5 -12,-9 -17,-13 -12,-9 -5,-3 -9,-10 -1,-3 -17,-9 -19,-11 -1,-1 -2,-3 -4,-5l-8 -6c-2,-2 -1,-2 -3,-3 -3,-2 -6,-1 -9,-1 -8,-11 -22,-17 -35,-22 -4,-2 -2,-1 -1,-4 -4,-2 -4,-3 -7,-5 -7,-4 0,5 -27,-8 -32,-16 -68,-28 -100,-46 -12,-7 -49,-28 -61,-36 -9,-7 -18,-15 -27,-22 -7,-5 -7,-3 -13,-11 -4,-5 -8,-8 -13,-12 -4,-2 -4,-2 -6,-6 -3,-6 -5,-9 -11,-13 -7,-5 -2,-2 -10,-14 -5,-8 -10,-14 -14,-24 -3,-9 -7,-17 -12,-24 -6,-9 -6,-15 -9,-28 -2,-8 -2,-14 -2,-22 -1,-15 -2,-30 -3,-45 -1,-17 2,-27 4,-43 5,-29 6,-33 14,-59 2,-6 5,-14 6,-19 -9,3 -29,20 -37,28 -11,11 -23,21 -33,32 -10,11 -21,22 -31,34 -10,12 -20,24 -28,38 -6,10 -13,20 -17,32 -2,5 -2,9 -3,13 -1,3 -4,3 -6,10 -4,12 -10,26 -10,39 -1,10 1,6 -2,14 -2,4 -2,9 -1,14 1,6 -3,11 -2,28 0,21 5,37 10,56 4,16 19,56 27,71 4,8 9,12 13,21 4,9 8,9 10,14 1,2 1,4 2,6 5,9 10,10 14,18 3,6 10,14 14,18 6,6 9,12 16,17l33 32c7,8 16,17 27,22 3,2 2,1 4,4 6,8 15,12 23,18 7,6 12,6 15,10 4,5 6,4 10,6l24 17c3,2 8,5 11,6z"/>
    <path class="fil0" d="M1548 6120c0,-3 1,-6 0,-9 -1,-7 -1,-5 2,-6 0,5 0,12 -2,15zm-33 -129l0 0c-4,-4 -6,-5 -6,-9 0,-3 -1,-1 1,-3 2,0 0,-1 2,3 8,11 10,6 15,20 2,7 5,5 8,12 1,3 2,4 3,7l8 22c2,8 5,7 5,16 0,6 1,36 0,39l-1 -38c-1,-3 -2,-3 -4,-7 -3,-7 -1,-6 -5,-15 -3,-4 -1,-7 -6,-15 -4,-8 0,-4 -7,-13 -1,-2 -2,-4 -3,-7 -3,-8 -4,-7 -9,-12zm-289 -817l0 0 -4 0 -21 7c-38,13 -78,38 -111,61 -13,9 -32,22 -43,32l-43 40c-3,3 -4,4 -7,7 -3,4 -10,10 -13,14 -2,3 -4,5 -6,7 -9,10 -8,13 -18,23 -16,18 -43,63 -52,86 -3,8 -2,3 -5,8 -6,10 -12,25 -17,38 -8,22 -25,85 -29,109l-6 48c0,4 -1,22 -2,25l0 33c1,2 2,10 3,13 1,4 0,10 0,15 0,12 10,74 14,86 1,4 4,8 5,11 2,8 0,20 11,39 1,2 2,3 3,4 1,3 0,4 1,8 0,3 3,10 5,12 2,5 3,7 6,10 5,8 3,17 13,28 6,6 3,10 14,28 2,4 4,7 6,10l13 20c2,3 4,8 6,11 2,3 5,6 8,9 10,9 2,6 13,19 8,10 18,24 28,30 3,2 3,1 4,5 2,8 22,23 28,29 2,2 3,3 5,4 2,1 3,2 5,3 3,2 2,2 4,5 3,5 8,8 14,11 5,3 1,0 4,4l19 14c12,10 12,5 19,13 10,10 23,13 26,15 5,3 9,9 26,16 10,3 5,3 11,6 23,12 70,28 97,35 25,7 24,8 53,13 10,1 20,3 30,4 5,0 28,2 30,3l68 0c9,-8 28,-10 42,-11 25,-3 67,-13 90,-20 14,-4 28,-10 41,-14 14,-4 26,-10 39,-16 21,-10 67,-38 84,-53 7,-6 8,-7 21,-7 2,-3 2,-1 3,-7 0,-4 0,-5 2,-8l30 -27c6,-6 15,-13 20,-19 2,-2 2,-3 4,-5 10,-11 14,-16 23,-26l17 -22c13,-19 19,-26 31,-46 40,-66 65,-141 75,-218 0,-3 3,-35 3,-35l0 -53c0,0 -4,-46 -4,-51 -6,-47 -9,-47 -21,-88 -8,-26 -17,-51 -29,-74 -1,-2 -2,-3 -2,-5 -2,-5 -5,-14 -8,-19 -7,-11 -12,-24 -20,-35 -2,-3 -5,-5 -7,-7 -10,-16 -6,-10 -16,-25 -1,-2 -2,-2 -3,-4 -8,-7 -2,-2 -9,-12 -8,-13 -16,-15 -20,-22 -5,-9 -11,-16 -19,-23 -5,-4 -9,-3 -12,-9 -5,-7 -10,-11 -19,-15 -3,-2 -5,-4 -8,-6 -5,-4 -10,-8 -16,-11 -7,-4 -11,-8 -17,-11 -4,-2 -5,-2 -10,-3 -4,-1 -4,-4 -8,-6 -3,-2 -6,-3 -9,-4 -49,-23 -105,-34 -159,-23 -30,6 -61,22 -83,41l-21 20c-28,31 -47,72 -51,114 -6,58 9,109 35,157 9,17 23,39 38,51 2,2 7,11 11,17 1,1 2,3 3,4 3,3 13,10 14,13 2,4 3,5 6,8 9,9 12,9 15,12 2,2 6,9 13,15 4,3 9,6 13,8 2,1 10,12 22,19 7,4 5,3 11,9 5,5 10,7 16,12 6,4 4,2 9,5 3,2 3,3 8,5 0,4 -3,2 1,4 11,6 22,8 32,19 7,7 1,2 10,5 3,1 2,2 4,3 2,1 3,2 4,3 3,2 5,4 8,7 3,3 5,2 9,5 2,1 3,2 5,3 4,3 6,2 8,7 2,5 7,8 11,10 4,3 10,5 13,9 7,10 11,9 14,15 2,3 0,3 3,3 2,1 3,0 5,2 6,9 4,6 10,12 3,3 3,5 6,8 2,2 3,2 5,3 2,2 1,2 2,5 1,3 4,6 6,9 2,3 4,5 6,8 4,7 6,13 10,19 15,21 26,77 26,104 -1,-5 -3,-20 -3,-26 -1,-10 -3,-16 -5,-24 -4,-15 -8,-31 -15,-44 -2,-4 -5,-6 -6,-9 -7,-15 -5,-13 -16,-28 -3,-4 -1,-7 -5,-10 -4,-3 -5,-3 -8,-7 -3,-4 -4,-5 -7,-8 -4,-4 -5,-9 -5,-9 -6,-2 -6,0 -9,-5 -3,-6 -9,-8 -13,-14 -5,-7 -18,-10 -23,-17 -4,-4 1,-5 -6,-8 -4,-2 -5,-3 -8,-5 -3,-2 -8,-3 -9,-5 -2,-2 -4,-4 -7,-6 -2,-2 -3,-2 -4,-3 -3,-2 -1,-2 -3,-4 -3,-2 -7,-2 -9,-2 -3,-1 -5,-5 -7,-6 -5,-4 -10,-7 -16,-10 -3,-1 -7,-3 -9,-4 1,-3 1,-1 1,-3 -2,-1 -3,-1 -4,-2 -3,-1 -2,-1 -4,-2 -10,-8 -9,-1 -18,-5 -11,-4 -26,-14 -42,-20 -12,-4 -24,-10 -35,-15 -11,-5 -23,-10 -33,-16 -5,-3 -11,-6 -16,-9 -16,-9 -30,-19 -46,-28 -5,-3 -9,-7 -14,-11l-14 -11c-1,-1 -2,-2 -3,-3 -10,-7 -13,-14 -22,-20 -10,-6 -3,-10 -18,-19 -4,-3 -2,-4 -5,-8 -3,-5 -6,-10 -10,-15 -2,-3 -3,-4 -5,-8 -4,-9 -7,-18 -11,-26 -2,-3 -4,-5 -5,-7 -2,-3 -6,-26 -7,-30 -1,-6 -1,-16 -1,-22 -4,-64 -3,-50 7,-110 2,-13 16,-48 17,-56 -13,2 -29,18 -40,26 -10,8 -25,24 -34,33 -5,5 -16,16 -20,22 -1,2 -2,3 -4,5l-15 18c-16,19 -38,49 -44,72 -1,2 -1,6 -1,7 -1,3 -4,2 -8,16 -5,15 -8,25 -9,41 0,2 -3,7 -4,12 -1,5 2,10 1,14 -1,6 -2,7 -2,14 -2,19 7,65 15,84 5,13 13,38 18,48 7,14 6,10 13,21 3,5 5,12 9,16 6,6 5,7 10,15 2,4 4,5 8,9 3,3 4,7 7,10 4,7 11,11 15,18 4,6 12,11 16,17 4,6 15,16 20,21 11,9 13,12 21,20 6,5 14,8 19,14 3,4 22,18 28,22 5,3 5,2 10,6 5,5 7,3 11,6l20 13c2,1 3,2 5,3 2,2 2,2 5,3 -1,4 -2,2 2,5 3,3 2,3 6,4 13,4 17,5 28,12 6,4 11,3 22,9 8,5 15,12 18,12 5,2 7,2 10,5 4,6 12,4 12,13 10,1 14,10 18,17l-4 1c-3,-4 -3,-6 -6,-9 -6,-6 -7,-2 -10,-9 0,0 0,0 0,-1l-1 -1c0,0 -3,-2 -4,-2 -9,-7 -6,-7 -10,-9 -1,0 -3,-1 -5,-2 -12,-5 -10,-7 -23,-14 -9,-5 -9,-4 -17,-7 -9,-3 -3,-5 -25,-12 -3,-1 -7,-2 -10,-3 -4,-2 -3,-4 -7,-5 -3,-1 -7,-1 -10,-2 -6,-2 -12,-4 -18,-6 -8,-2 -12,-4 -21,-4 -1,0 -2,0 -3,0 -2,0 -1,0 -2,-1 -13,-6 -13,-1 -24,-6 -14,-6 -33,-10 -48,-13 -12,-2 -15,-1 -20,-5l-35 -14c-3,-1 -6,-3 -9,-3 -4,-1 -7,-1 -10,-3 -7,-4 -3,-4 -15,-10l-24 -13c-3,-2 -6,-1 -8,-3 -2,-2 -3,-4 -6,-6 -2,-2 -5,-3 -8,-5 -9,-6 -16,-14 -21,-16 -7,-3 -12,-13 -19,-17 -4,-2 -4,-2 -7,-5 -2,-2 -4,-4 -6,-6 -4,-4 -8,-9 -12,-13 -4,-3 -3,-2 -6,-7 -2,-4 -3,-5 -6,-7 -6,-4 -11,-14 -17,-20 -7,-6 -10,-20 -19,-30 -4,-5 -10,-17 -13,-23 -3,-6 -5,-11 -7,-18 -7,-18 -15,-35 -19,-54 -8,-34 -9,-54 -7,-89 1,-11 5,-44 8,-54 1,-3 2,-6 4,-9 2,-6 4,-12 6,-18 4,-12 9,-22 15,-34 5,-9 2,-10 8,-16 4,-4 7,-9 10,-14 9,-13 10,-17 20,-29 15,-19 15,-20 34,-39l37 -36c3,-3 4,-3 7,-5l55 -44c3,-2 5,-3 7,-5l14 -10c7,-4 26,-15 30,-19l0 -3zm514 629l0 0c3,12 6,8 11,15 10,14 10,7 12,13 3,10 10,12 18,33 1,3 5,6 10,16 6,11 16,47 18,60 2,17 4,29 4,47 0,11 0,23 -6,32 -5,9 6,14 -26,63l-10 16 21 -18c8,-8 12,-10 21,-20 7,-7 13,-14 19,-21 6,-7 13,-14 19,-22l33 -48c12,-22 15,-26 28,-53 39,-79 57,-170 51,-271 -4,-67 -10,-78 -28,-135 -6,-19 -26,-67 -36,-86 -3,-5 -19,-35 -22,-39 -3,-3 -3,-1 -5,-5 -6,-11 -12,-23 -21,-30 -2,-2 -5,-8 -8,-13 -2,-3 -7,-9 -9,-11 -8,-6 -3,1 -10,-10 -4,-7 -13,-17 -20,-21 -2,-2 -4,-2 -7,-3 -4,-2 -3,-2 -5,-5 -3,-4 -5,-7 -10,-10 -2,-1 -4,-2 -7,-4 -7,-3 -5,-6 -17,-14 -4,-3 -8,-5 -13,-8 -4,-3 -7,-6 -12,-8 -3,-1 -4,-2 -8,-2 -5,-1 -3,-2 -6,-5 -7,-6 -45,-20 -58,-23 -22,-6 -46,-10 -71,-10 -49,1 -92,20 -119,44 -59,51 -94,132 -59,238 10,30 29,68 50,91l11 10c1,1 2,5 3,7 4,6 9,12 14,16 9,7 7,4 10,10 6,11 18,16 21,20 6,8 12,15 21,20 4,2 4,1 6,4 2,3 2,4 5,6 6,6 11,8 18,12 3,2 5,6 16,14 2,1 11,8 13,8 10,4 5,4 13,7 13,4 -6,0 9,8 12,6 16,8 24,17 3,3 3,1 8,2 5,2 3,2 6,4 2,3 5,3 11,9 3,3 5,2 13,8 3,2 3,2 7,4 7,3 -3,4 16,15 4,3 10,5 12,9 4,6 3,4 10,10 6,5 0,6 12,9zm-341 98l0 0c-2,7 2,-5 -1,2 -1,2 -1,0 0,2 1,2 22,7 29,12 7,5 7,5 16,7 12,3 21,15 29,18 12,4 7,3 14,9 3,2 6,3 7,5 2,4 -1,2 5,5 7,4 7,7 11,13 6,-2 4,-1 5,3 1,3 3,5 5,7 8,7 6,3 10,14 2,6 5,5 9,15 1,3 3,5 4,9l10 26c2,4 2,39 2,46 0,8 -3,1 -2,9 2,22 -12,45 -21,63 -1,3 -3,5 -4,8 -2,5 -1,4 -5,7l-5 6c-2,2 -4,5 -6,7 -9,11 -20,21 -32,29l-6 5c0,0 0,0 0,0 0,0 0,0 0,0 40,-3 83,-16 121,-28 44,-15 59,-20 102,-47 16,-10 30,-19 44,-30 8,-7 8,-4 16,-6 6,-1 -1,-2 9,-20 4,-6 7,-11 11,-17 7,-11 14,-20 19,-34 4,-11 2,-16 4,-23 1,-2 3,-5 4,-9 6,-21 2,-63 -3,-84 -5,-20 -10,-42 -22,-58 -3,-4 -6,-12 -9,-17 -3,-4 -9,-11 -11,-16 -3,-8 0,-3 -6,-7 -3,-2 -4,-4 -6,-8 -2,-3 -4,-4 -7,-7 -2,-3 -4,-6 -5,-8 -4,-1 -4,0 -6,-3 -2,-3 -1,-3 -4,-6 -3,-3 -7,-5 -10,-9 -3,-5 -12,-9 -17,-13 -12,-9 -5,-3 -9,-10 -1,-3 -17,-9 -19,-11 -1,-1 -2,-3 -4,-5l-8 -6c-2,-2 -1,-2 -3,-3 -3,-2 -6,-1 -9,-1 -8,-11 -22,-17 -35,-22 -4,-2 -2,-1 -1,-4 -4,-2 -4,-3 -7,-5 -7,-4 0,5 -27,-8 -32,-16 -68,-28 -100,-46 -12,-7 -49,-28 -61,-36 -9,-7 -18,-15 -27,-22 -7,-5 -7,-3 -13,-11 -4,-5 -8,-8 -13,-12 -4,-2 -4,-2 -6,-6 -3,-6 -5,-9 -11,-13 -7,-5 -2,-2 -10,-14 -5,-8 -10,-14 -14,-24 -3,-9 -7,-17 -12,-24 -6,-9 -6,-15 -9,-28 -2,-8 -2,-14 -2,-22 -1,-15 -2,-30 -3,-45 -1,-17 2,-27 4,-43 5,-29 6,-33 14,-59 2,-6 5,-14 6,-19 -9,3 -29,20 -37,28 -11,11 -23,21 -33,32 -10,11 -21,22 -31,34 -10,12 -20,24 -28,38 -6,10 -13,20 -17,32 -2,5 -2,9 -3,13 -1,3 -4,3 -6,10 -4,12 -10,26 -10,39 -1,10 1,6 -2,14 -2,4 -2,9 -1,14 1,6 -3,11 -2,28 0,21 5,37 10,56 4,16 19,56 27,71 4,8 9,12 13,21 4,9 8,9 10,14 1,2 1,4 2,6 5,9 10,10 14,18 3,6 10,14 14,18 6,6 9,12 16,17l33 32c7,8 16,17 27,22 3,2 2,1 4,4 6,8 15,12 23,18 7,6 12,6 15,10 4,5 6,4 10,6l24 17c3,2 8,5 11,6zm86 68l0 0c0,-6 -1,-5 -5,-7l-7 -5c-2,-2 0,-2 -3,-3 -3,-1 -7,-2 -10,-4l-2 -2c-4,-5 -16,-12 -23,-14 -6,-1 -8,-2 -13,-5 -15,-10 -24,-9 -30,-13 -4,-3 -1,-3 -8,-4 -9,-2 -19,-6 -28,-9 -8,-3 -14,-2 -21,-3 -5,-1 -7,-6 -19,-5 -4,0 -13,-5 -17,-6 -13,-4 -26,-8 -39,-10 -11,-2 -14,-1 -19,-5 -3,-3 -13,-5 -18,-7 -6,-2 -11,-5 -17,-7l-19 -6c-4,-3 -9,-7 -15,-9 -8,-3 -16,-9 -24,-13 -4,-2 -6,-2 -8,-3 -1,-1 -4,-5 -6,-6 -4,-4 -10,-6 -15,-10 -2,-2 -4,-3 -6,-5 -11,-11 -8,0 -20,-17 -3,-4 -10,-7 -14,-10 -6,-5 -12,-14 -17,-19 -3,-2 -6,-3 -7,-5 -2,-4 -1,-4 -4,-8 -4,-4 -8,-7 -12,-12 -3,-5 -10,-10 -11,-14 -1,-3 -3,-6 -4,-8 -5,-10 -13,-18 -15,-22 -3,-6 -6,-11 -8,-16 -7,-14 -25,-58 -27,-70 -3,-14 -6,-25 -8,-41 -1,-12 -2,-34 -1,-47 1,-14 3,-30 5,-43 5,-27 4,-17 10,-38 9,-27 18,-40 22,-52 1,-4 1,-5 4,-8 7,-6 11,-13 15,-21 8,-13 33,-44 43,-54 4,-4 8,-8 12,-12 22,-22 27,-27 51,-46 9,-7 18,-15 27,-22 5,-3 9,-7 14,-11 10,-6 19,-14 29,-20 5,-3 9,-6 14,-9 -15,1 -65,28 -78,36l-18 11c-14,10 -29,19 -43,29 -12,10 -24,18 -36,28 -11,10 -22,21 -32,32l-14 15c-7,8 -14,15 -19,24 -2,3 -3,7 -5,9 -4,3 -7,7 -10,11 -11,16 -21,32 -31,49l-10 19c-2,4 -4,11 -7,15 -9,13 -19,40 -23,55 -15,55 -19,61 -27,116 -2,18 -9,73 -3,92 2,7 1,12 1,20 0,8 10,76 15,85 7,16 3,13 6,27 2,10 5,16 10,23 1,2 3,16 8,25 2,3 6,7 7,11 1,5 1,7 4,13 2,4 3,7 6,10 1,1 3,3 4,4 1,1 1,4 2,6 5,16 15,29 24,42 6,9 10,18 17,25 6,6 3,1 7,9 3,6 7,10 11,14 2,2 2,3 4,5 1,1 2,3 3,4 9,13 19,18 21,21 3,8 1,4 11,14l13 12c2,2 2,2 4,3 4,3 5,4 10,7 4,2 5,6 8,9 3,3 6,5 10,7 5,2 3,5 8,8 13,8 17,13 30,20 3,2 6,5 9,8 7,6 15,7 22,11l9 7c4,2 7,4 11,6 12,5 12,5 22,11 20,10 51,20 72,27 9,3 17,4 26,7 4,1 8,3 12,4 25,6 77,13 103,13 11,0 21,-1 31,-1l20 0c4,0 5,1 9,-2 2,-1 1,-1 2,-2 2,-4 5,-5 9,-6 26,-10 36,-17 55,-38 7,-7 8,-9 13,-18 2,-4 3,-7 5,-10 5,-10 10,-21 14,-33 3,-12 2,-16 2,-27 4,-2 3,-1 3,-8l-1 -29c0,-3 0,-7 -1,-9 -1,-2 -2,-3 -3,-7 -1,-2 -1,-6 -2,-8 -1,-3 -2,-4 -3,-7 -1,-3 -2,-6 -3,-8 -5,-14 -10,-16 -11,-19 -3,-8 -1,-8 -7,-13 -3,-3 -8,-7 -9,-12l-5 0c-2,-8 -8,-14 -16,-16z"/>
    <path class="fil0" d="M1509 5978c-2,2 -1,0 -1,3 0,5 3,6 6,9 5,5 6,4 9,12 1,3 2,5 3,7 7,9 3,5 7,13 4,8 3,10 6,15 5,9 3,8 5,15 1,4 3,4 4,7l1 38c2,-2 0,-33 0,-39 0,-8 -3,-8 -5,-16l-8 -22c-1,-3 -2,-4 -3,-7 -3,-7 -5,-5 -8,-12 -4,-14 -7,-9 -15,-20 -2,-3 0,-2 -2,-3z"/>
    <path class="fil0" d="M1548 6120c2,-3 2,-10 2,-15 -3,1 -3,-2 -2,6 0,3 0,6 0,9z"/>
   </g>
  </g>
  <g id="_372177616">
   <g>
    <path class="fil1" d="M6959 5958c13,18 54,105 73,135 11,18 5,14 59,14l0 -213 -46 0 2 145c-1,-12 -30,-64 -37,-76 -46,-81 -25,-69 -96,-68l0 211 46 1 -1 -149z"/>
    <path class="fil1" d="M5724 5956c15,18 29,56 41,77l32 58c12,20 7,15 59,15l0 -213 -46 1 2 141c-13,-25 -22,-46 -36,-72 -13,-24 -28,-46 -39,-70l-58 -1c0,57 -4,161 3,213l40 0c4,-28 2,-81 2,-111l-1 -39z"/>
    <path class="fil1" d="M5556 6014c-14,93 -112,64 -99,-30 12,-88 114,-66 99,30zm-151 0l0 0c9,136 219,128 203,-30 -13,-134 -213,-128 -203,30z"/>
    <path class="fil1" d="M7342 5901c-234,-76 -249,279 7,195l0 -112 -80 2 0 36 33 1 0 44c-59,7 -100,-24 -87,-86 12,-55 63,-52 117,-42l10 -38z"/>
    <path class="fil1" d="M6148 5894c0,95 -25,218 88,216 109,-2 86,-121 86,-215l-49 0c0,36 0,73 0,109 0,35 -3,69 -40,67 -51,-2 -36,-111 -36,-176l-48 0z"/>
    <path class="fil1" d="M6055 5938c7,-12 11,-29 9,-38 -85,-36 -170,32 -118,92 19,21 77,29 79,53 4,41 -67,20 -86,12l-10 41c30,8 54,17 90,9 26,-6 48,-22 54,-48 19,-86 -87,-65 -91,-112 16,-28 46,-14 73,-8z"/>
    <path class="fil1" d="M5354 5899c-86,-28 -165,14 -167,101 -2,95 77,123 166,102l-9 -38c-62,10 -108,1 -106,-68 3,-88 96,-60 108,-60l8 -37z"/>
    <polygon class="fil1" points="6556,5934 6612,5934 6614,6107 6661,6107 6661,5934 6718,5934 6719,5898 6719,5894 6555,5894 "/>
    <polygon class="fil1" points="6403,6107 6536,6105 6538,6066 6451,6065 6451,5894 6403,5894 "/>
    <path class="fil2" d="M5556 6014c14,-96 -87,-118 -99,-30 -13,94 86,123 99,30z"/>
    <polygon class="fil1" points="6785,6107 6833,6107 6833,5954 6833,5924 6833,5894 6827,5894 6789,5894 6785,5894 6785,6014 "/>
    <path class="fil1" d="M5065 5727c-20,1 -15,3 -14,27l0 490c0,64 -7,59 14,60l0 -577z"/>
    <path class="fil1" d="M4517 6107c7,-26 1,-117 2,-150 23,30 60,129 84,150l47 0c7,-25 2,-175 2,-213l-46 1 2 141 -74 -142 -58 0c0,37 -5,190 3,213l39 0z"/>
    <path class="fil1" d="M3487 5956c24,30 58,128 84,150l47 0c7,-27 2,-174 2,-213l-46 1 2 141c-13,-25 -21,-46 -36,-71 -13,-23 -26,-47 -39,-71l-58 0 0 213 44 0 -1 -150z"/>
    <path class="fil1" d="M2845 5953c1,14 72,145 84,154l47 0 0 -213 -46 0 2 140c-15,-20 -26,-51 -38,-72 -12,-21 -29,-47 -37,-68l-58 0 0 213 46 -2 -1 -153z"/>
    <path class="fil1" d="M3227 5902c-36,-17 -91,-12 -123,5 -72,36 -77,157 2,192 45,20 86,8 130,0l0 -113 -80 0 0 38 33 1 0 42c-58,13 -99,-26 -87,-84 12,-55 63,-56 118,-42l7 -39z"/>
    <path class="fil1" d="M4903 5901c-91,-22 -181,4 -180,103 0,114 108,114 187,94l0 -113 -80 0 0 39 32 0 0 44c-59,6 -103,-24 -86,-89 17,-68 105,-40 118,-39l9 -38z"/>
    <path class="fil1" d="M4166 5987l-1 -55c67,-18 86,62 1,55zm-47 -90l0 0 0 209 44 0 0 -83c16,-2 16,-3 28,4 30,8 20,54 39,81l46 0c1,-12 -10,-42 -13,-55 -7,-27 -9,-31 -27,-44 12,-14 29,-20 33,-43 17,-88 -107,-72 -150,-69z"/>
    <path class="fil1" d="M3752 5934l81 -2 0 -38 -132 0c0,39 -5,187 2,213l133 0 1 -40 -87 0 0 -49 78 0 1 -40 -78 0 3 -43z"/>
    <polygon class="fil1" points="3910,6105 4045,6107 4045,6066 3959,6066 3958,6018 4035,6017 4036,5978 3958,5977 3958,5935 4039,5933 4041,5894 3910,5894 "/>
    <polygon class="fil1" points="2593,5898 2593,6107 2728,6107 2728,6066 2641,6066 2640,6018 2718,6017 2719,5977 2640,5976 2640,5935 2721,5933 2724,5894 "/>
    <polygon class="fil1" points="3314,6107 3348,6107 3362,6106 3362,5895 3348,5894 3314,5894 "/>
    <polygon class="fil1" points="4345,6107 4393,6105 4393,5895 4379,5894 4345,5894 4345,6101 "/>
    <path class="fil2" d="M4166 5987c85,7 67,-73 -1,-55l1 55z"/>
    <path class="fil1" d="M4191 6026c-11,-7 -11,-6 -28,-4l0 83 -44 0 0 -209c-1,1 -1,2 -2,3 -7,20 -3,198 0,208 15,4 35,5 49,-1l0 -82 24 2z"/>
    <path class="fil1" d="M2617 5544l101 0c18,-103 50,-202 63,-308 10,49 17,105 27,155 10,50 22,103 30,153 122,0 102,13 117,-46 23,-90 87,-319 97,-377 -106,0 -94,-7 -101,15 -13,46 -48,279 -57,299 -8,-101 -38,-215 -55,-314l-101 0c-12,20 -42,188 -50,234l-17 83 -55 -315 -103 -2c8,58 72,304 94,401 3,15 1,17 11,22z"/>
    <path class="fil1" d="M4818 5281c-3,2 5,1 -9,3 -2,0 -9,0 -11,0 -30,0 -122,2 -139,-2l0 -163 -95 1 0 423 96 0 0 -176 156 0 1 175 96 1c0,-59 -4,-394 2,-422l-98 -1 0 161z"/>
    <path class="fil1" d="M7092 5306l0 -113c47,-17 113,-1 113,53 0,57 -56,67 -113,60zm-95 -181l0 0 0 418 95 0 0 -165c58,-6 80,4 93,52 7,24 20,102 37,113l94 0c-11,-36 -21,-73 -31,-112 -19,-70 -28,-59 -55,-88 27,-18 59,-31 69,-82 10,-48 -9,-90 -37,-112 -62,-49 -180,-34 -265,-25z"/>
    <path class="fil1" d="M6410 5543c53,4 207,1 270,1l0 -79 -173 0 1 -100 154 0 0 -78 -154 0 0 -88 163 0 0 -77 -262 -1 0 423z"/>
    <path class="fil1" d="M3352 5543l270 1c0,-14 -3,-70 2,-79l-175 0 0 -100 155 0 0 -78 -154 0 -1 -88 164 0 0 -77 -260 -1 -1 423z"/>
    <path class="fil1" d="M5250 5446l-19 78c112,51 290,33 291,-105 0,-111 -105,-113 -167,-154 -36,-23 -23,-63 20,-72 47,-9 74,8 109,17l22 -76c-66,-29 -154,-30 -212,5 -61,36 -111,160 50,224 29,12 71,23 79,50 12,43 -30,59 -67,58 -47,0 -68,-14 -105,-25z"/>
    <path class="fil1" d="M4248 5532c0,-25 -12,-51 -10,-76 -57,12 -102,26 -156,-4 -83,-45 -84,-195 1,-243 53,-30 99,-15 152,-2l20 -74c-22,-18 -88,-22 -120,-20 -251,13 -274,315 -123,406 52,32 177,48 235,13z"/>
    <path class="fil1" d="M5839 5546l264 -2c0,-26 -3,-55 2,-79l-169 -1 -2 -13 0 -329 -96 0 0 425z"/>
    <path class="fil2" d="M7092 5306c57,7 113,-3 113,-60 0,-54 -66,-69 -113,-53l0 113z"/>
    <path class="fil1" d="M4818 5281l-155 0 0 -152c-1,-6 -3,-9 -4,-10l0 163c17,4 109,3 139,2 3,0 9,0 11,0 13,-2 5,-2 9,-3z"/>
   </g>
   <g>
    <path class="fil1" d="M1740 5803c3,12 6,8 11,15 10,14 10,7 12,13 3,10 10,12 18,33 1,3 5,6 10,16 6,11 16,47 18,60 2,17 4,29 4,47 0,11 0,23 -6,32 -5,9 6,14 -26,63l-10 16 21 -18c8,-8 12,-10 21,-20 7,-7 13,-14 19,-21 6,-7 13,-14 19,-22l33 -48c12,-22 15,-26 28,-53 39,-79 57,-170 51,-271 -4,-67 -10,-78 -28,-135 -6,-19 -26,-67 -36,-86 -3,-5 -19,-35 -22,-39 -3,-3 -3,-1 -5,-5 -6,-11 -12,-23 -21,-30 -2,-2 -5,-8 -8,-13 -2,-3 -7,-9 -9,-11 -8,-6 -3,1 -10,-10 -4,-7 -13,-17 -20,-21 -2,-2 -4,-2 -7,-3 -4,-2 -3,-2 -5,-5 -3,-4 -5,-7 -10,-10 -2,-1 -4,-2 -7,-4 -7,-3 -5,-6 -17,-14 -4,-3 -8,-5 -13,-8 -4,-3 -7,-6 -12,-8 -3,-1 -4,-2 -8,-2 -5,-1 -3,-2 -6,-5 -7,-6 -45,-20 -58,-23 -22,-6 -46,-10 -71,-10 -49,1 -92,20 -119,44 -59,51 -94,132 -59,238 10,30 29,68 50,91l11 10c1,1 2,5 3,7 4,6 9,12 14,16 9,7 7,4 10,10 6,11 18,16 21,20 6,8 12,15 21,20 4,2 4,1 6,4 2,3 2,4 5,6 6,6 11,8 18,12 3,2 5,6 16,14 2,1 11,8 13,8 10,4 5,4 13,7 13,4 -6,0 9,8 12,6 16,8 24,17 3,3 3,1 8,2 5,2 3,2 6,4 2,3 5,3 11,9 3,3 5,2 13,8 3,2 3,2 7,4 7,3 -3,4 16,15 4,3 10,5 12,9 4,6 3,4 10,10 6,5 0,6 12,9z"/>
    <path class="fil1" d="M1485 5969c0,-6 -1,-5 -5,-7l-7 -5c-2,-2 0,-2 -3,-3 -3,-1 -7,-2 -10,-4l-2 -2c-4,-5 -16,-12 -23,-14 -6,-1 -8,-2 -13,-5 -15,-10 -24,-9 -30,-13 -4,-3 -1,-3 -8,-4 -9,-2 -19,-6 -28,-9 -8,-3 -14,-2 -21,-3 -5,-1 -7,-6 -19,-5 -4,0 -13,-5 -17,-6 -13,-4 -26,-8 -39,-10 -11,-2 -14,-1 -19,-5 -3,-3 -13,-5 -18,-7 -6,-2 -11,-5 -17,-7l-19 -6c-4,-3 -9,-7 -15,-9 -8,-3 -16,-9 -24,-13 -4,-2 -6,-2 -8,-3 -1,-1 -4,-5 -6,-6 -4,-4 -10,-6 -15,-10 -2,-2 -4,-3 -6,-5 -11,-11 -8,0 -20,-17 -3,-4 -10,-7 -14,-10 -6,-5 -12,-14 -17,-19 -3,-2 -6,-3 -7,-5 -2,-4 -1,-4 -4,-8 -4,-4 -8,-7 -12,-12 -3,-5 -10,-10 -11,-14 -1,-3 -3,-6 -4,-8 -5,-10 -13,-18 -15,-22 -3,-6 -6,-11 -8,-16 -7,-14 -25,-58 -27,-70 -3,-14 -6,-25 -8,-41 -1,-12 -2,-34 -1,-47 1,-14 3,-30 5,-43 5,-27 4,-17 10,-38 9,-27 18,-40 22,-52 1,-4 1,-5 4,-8 7,-6 11,-13 15,-21 8,-13 33,-44 43,-54 4,-4 8,-8 12,-12 22,-22 27,-27 51,-46 9,-7 18,-15 27,-22 5,-3 9,-7 14,-11 10,-6 19,-14 29,-20 5,-3 9,-6 14,-9 -15,1 -65,28 -78,36l-18 11c-14,10 -29,19 -43,29 -12,10 -24,18 -36,28 -11,10 -22,21 -32,32l-14 15c-7,8 -14,15 -19,24 -2,3 -3,7 -5,9 -4,3 -7,7 -10,11 -11,16 -21,32 -31,49l-10 19c-2,4 -4,11 -7,15 -9,13 -19,40 -23,55 -15,55 -19,61 -27,116 -2,18 -9,73 -3,92 2,7 1,12 1,20 0,8 10,76 15,85 7,16 3,13 6,27 2,10 5,16 10,23 1,2 3,16 8,25 2,3 6,7 7,11 1,5 1,7 4,13 2,4 3,7 6,10 1,1 3,3 4,4 1,1 1,4 2,6 5,16 15,29 24,42 6,9 10,18 17,25 6,6 3,1 7,9 3,6 7,10 11,14 2,2 2,3 4,5 1,1 2,3 3,4 9,13 19,18 21,21 3,8 1,4 11,14l13 12c2,2 2,2 4,3 4,3 5,4 10,7 4,2 5,6 8,9 3,3 6,5 10,7 5,2 3,5 8,8 13,8 17,13 30,20 3,2 6,5 9,8 7,6 15,7 22,11l9 7c4,2 7,4 11,6 12,5 12,5 22,11 20,10 51,20 72,27 9,3 17,4 26,7 4,1 8,3 12,4 25,6 77,13 103,13 11,0 21,-1 31,-1l20 0c4,0 5,1 9,-2 2,-1 1,-1 2,-2 2,-4 5,-5 9,-6 26,-10 36,-17 55,-38 7,-7 8,-9 13,-18 2,-4 3,-7 5,-10 5,-10 10,-21 14,-33 3,-12 2,-16 2,-27 4,-2 3,-1 3,-8l-1 -29c0,-3 0,-7 -1,-9 -1,-2 -2,-3 -3,-7 -1,-2 -1,-6 -2,-8 -1,-3 -2,-4 -3,-7 -1,-3 -2,-6 -3,-8 -5,-14 -10,-16 -11,-19 -3,-8 -1,-8 -7,-13 -3,-3 -8,-7 -9,-12l-5 0c-2,-8 -8,-14 -16,-16z"/>
    <path class="fil1" d="M1399 5901c-2,7 2,-5 -1,2 -1,2 -1,0 0,2 1,2 22,7 29,12 7,5 7,5 16,7 12,3 21,15 29,18 12,4 7,3 14,9 3,2 6,3 7,5 2,4 -1,2 5,5 7,4 7,7 11,13 6,-2 4,-1 5,3 1,3 3,5 5,7 8,7 6,3 10,14 2,6 5,5 9,15 1,3 3,5 4,9l10 26c2,4 2,39 2,46 0,8 -3,1 -2,9 2,22 -12,45 -21,63 -1,3 -3,5 -4,8 -2,5 -1,4 -5,7l-5 6c-2,2 -4,5 -6,7 -9,11 -20,21 -32,29l-6 5c0,0 0,0 0,0 0,0 0,0 0,0 40,-3 83,-16 121,-28 44,-15 59,-20 102,-47 16,-10 30,-19 44,-30 8,-7 8,-4 16,-6 6,-1 -1,-2 9,-20 4,-6 7,-11 11,-17 7,-11 14,-20 19,-34 4,-11 2,-16 4,-23 1,-2 3,-5 4,-9 6,-21 2,-63 -3,-84 -5,-20 -10,-42 -22,-58 -3,-4 -6,-12 -9,-17 -3,-4 -9,-11 -11,-16 -3,-8 0,-3 -6,-7 -3,-2 -4,-4 -6,-8 -2,-3 -4,-4 -7,-7 -2,-3 -4,-6 -5,-8 -4,-1 -4,0 -6,-3 -2,-3 -1,-3 -4,-6 -3,-3 -7,-5 -10,-9 -3,-5 -12,-9 -17,-13 -12,-9 -5,-3 -9,-10 -1,-3 -17,-9 -19,-11 -1,-1 -2,-3 -4,-5l-8 -6c-2,-2 -1,-2 -3,-3 -3,-2 -6,-1 -9,-1 -8,-11 -22,-17 -35,-22 -4,-2 -2,-1 -1,-4 -4,-2 -4,-3 -7,-5 -7,-4 0,5 -27,-8 -32,-16 -68,-28 -100,-46 -12,-7 -49,-28 -61,-36 -9,-7 -18,-15 -27,-22 -7,-5 -7,-3 -13,-11 -4,-5 -8,-8 -13,-12 -4,-2 -4,-2 -6,-6 -3,-6 -5,-9 -11,-13 -7,-5 -2,-2 -10,-14 -5,-8 -10,-14 -14,-24 -3,-9 -7,-17 -12,-24 -6,-9 -6,-15 -9,-28 -2,-8 -2,-14 -2,-22 -1,-15 -2,-30 -3,-45 -1,-17 2,-27 4,-43 5,-29 6,-33 14,-59 2,-6 5,-14 6,-19 -9,3 -29,20 -37,28 -11,11 -23,21 -33,32 -10,11 -21,22 -31,34 -10,12 -20,24 -28,38 -6,10 -13,20 -17,32 -2,5 -2,9 -3,13 -1,3 -4,3 -6,10 -4,12 -10,26 -10,39 -1,10 1,6 -2,14 -2,4 -2,9 -1,14 1,6 -3,11 -2,28 0,21 5,37 10,56 4,16 19,56 27,71 4,8 9,12 13,21 4,9 8,9 10,14 1,2 1,4 2,6 5,9 10,10 14,18 3,6 10,14 14,18 6,6 9,12 16,17l33 32c7,8 16,17 27,22 3,2 2,1 4,4 6,8 15,12 23,18 7,6 12,6 15,10 4,5 6,4 10,6l24 17c3,2 8,5 11,6z"/>
    <path class="fil3" d="M1548 6120c0,-3 1,-6 0,-9 -1,-7 -1,-5 2,-6 0,5 0,12 -2,15zm-33 -129l0 0c-4,-4 -6,-5 -6,-9 0,-3 -1,-1 1,-3 2,0 0,-1 2,3 8,11 10,6 15,20 2,7 5,5 8,12 1,3 2,4 3,7l8 22c2,8 5,7 5,16 0,6 1,36 0,39l-1 -38c-1,-3 -2,-3 -4,-7 -3,-7 -1,-6 -5,-15 -3,-4 -1,-7 -6,-15 -4,-8 0,-4 -7,-13 -1,-2 -2,-4 -3,-7 -3,-8 -4,-7 -9,-12zm-289 -817l0 0 -4 0 -21 7c-38,13 -78,38 -111,61 -13,9 -32,22 -43,32l-43 40c-3,3 -4,4 -7,7 -3,4 -10,10 -13,14 -2,3 -4,5 -6,7 -9,10 -8,13 -18,23 -16,18 -43,63 -52,86 -3,8 -2,3 -5,8 -6,10 -12,25 -17,38 -8,22 -25,85 -29,109l-6 48c0,4 -1,22 -2,25l0 33c1,2 2,10 3,13 1,4 0,10 0,15 0,12 10,74 14,86 1,4 4,8 5,11 2,8 0,20 11,39 1,2 2,3 3,4 1,3 0,4 1,8 0,3 3,10 5,12 2,5 3,7 6,10 5,8 3,17 13,28 6,6 3,10 14,28 2,4 4,7 6,10l13 20c2,3 4,8 6,11 2,3 5,6 8,9 10,9 2,6 13,19 8,10 18,24 28,30 3,2 3,1 4,5 2,8 22,23 28,29 2,2 3,3 5,4 2,1 3,2 5,3 3,2 2,2 4,5 3,5 8,8 14,11 5,3 1,0 4,4l19 14c12,10 12,5 19,13 10,10 23,13 26,15 5,3 9,9 26,16 10,3 5,3 11,6 23,12 70,28 97,35 25,7 24,8 53,13 10,1 20,3 30,4 5,0 28,2 30,3l68 0c9,-8 28,-10 42,-11 25,-3 67,-13 90,-20 14,-4 28,-10 41,-14 14,-4 26,-10 39,-16 21,-10 67,-38 84,-53 7,-6 8,-7 21,-7 2,-3 2,-1 3,-7 0,-4 0,-5 2,-8l30 -27c6,-6 15,-13 20,-19 2,-2 2,-3 4,-5 10,-11 14,-16 23,-26l17 -22c13,-19 19,-26 31,-46 40,-66 65,-141 75,-218 0,-3 3,-35 3,-35l0 -53c0,0 -4,-46 -4,-51 -6,-47 -9,-47 -21,-88 -8,-26 -17,-51 -29,-74 -1,-2 -2,-3 -2,-5 -2,-5 -5,-14 -8,-19 -7,-11 -12,-24 -20,-35 -2,-3 -5,-5 -7,-7 -10,-16 -6,-10 -16,-25 -1,-2 -2,-2 -3,-4 -8,-7 -2,-2 -9,-12 -8,-13 -16,-15 -20,-22 -5,-9 -11,-16 -19,-23 -5,-4 -9,-3 -12,-9 -5,-7 -10,-11 -19,-15 -3,-2 -5,-4 -8,-6 -5,-4 -10,-8 -16,-11 -7,-4 -11,-8 -17,-11 -4,-2 -5,-2 -10,-3 -4,-1 -4,-4 -8,-6 -3,-2 -6,-3 -9,-4 -49,-23 -105,-34 -159,-23 -30,6 -61,22 -83,41l-21 20c-28,31 -47,72 -51,114 -6,58 9,109 35,157 9,17 23,39 38,51 2,2 7,11 11,17 1,1 2,3 3,4 3,3 13,10 14,13 2,4 3,5 6,8 9,9 12,9 15,12 2,2 6,9 13,15 4,3 9,6 13,8 2,1 10,12 22,19 7,4 5,3 11,9 5,5 10,7 16,12 6,4 4,2 9,5 3,2 3,3 8,5 0,4 -3,2 1,4 11,6 22,8 32,19 7,7 1,2 10,5 3,1 2,2 4,3 2,1 3,2 4,3 3,2 5,4 8,7 3,3 5,2 9,5 2,1 3,2 5,3 4,3 6,2 8,7 2,5 7,8 11,10 4,3 10,5 13,9 7,10 11,9 14,15 2,3 0,3 3,3 2,1 3,0 5,2 6,9 4,6 10,12 3,3 3,5 6,8 2,2 3,2 5,3 2,2 1,2 2,5 1,3 4,6 6,9 2,3 4,5 6,8 4,7 6,13 10,19 15,21 26,77 26,104 -1,-5 -3,-20 -3,-26 -1,-10 -3,-16 -5,-24 -4,-15 -8,-31 -15,-44 -2,-4 -5,-6 -6,-9 -7,-15 -5,-13 -16,-28 -3,-4 -1,-7 -5,-10 -4,-3 -5,-3 -8,-7 -3,-4 -4,-5 -7,-8 -4,-4 -5,-9 -5,-9 -6,-2 -6,0 -9,-5 -3,-6 -9,-8 -13,-14 -5,-7 -18,-10 -23,-17 -4,-4 1,-5 -6,-8 -4,-2 -5,-3 -8,-5 -3,-2 -8,-3 -9,-5 -2,-2 -4,-4 -7,-6 -2,-2 -3,-2 -4,-3 -3,-2 -1,-2 -3,-4 -3,-2 -7,-2 -9,-2 -3,-1 -5,-5 -7,-6 -5,-4 -10,-7 -16,-10 -3,-1 -7,-3 -9,-4 1,-3 1,-1 1,-3 -2,-1 -3,-1 -4,-2 -3,-1 -2,-1 -4,-2 -10,-8 -9,-1 -18,-5 -11,-4 -26,-14 -42,-20 -12,-4 -24,-10 -35,-15 -11,-5 -23,-10 -33,-16 -5,-3 -11,-6 -16,-9 -16,-9 -30,-19 -46,-28 -5,-3 -9,-7 -14,-11l-14 -11c-1,-1 -2,-2 -3,-3 -10,-7 -13,-14 -22,-20 -10,-6 -3,-10 -18,-19 -4,-3 -2,-4 -5,-8 -3,-5 -6,-10 -10,-15 -2,-3 -3,-4 -5,-8 -4,-9 -7,-18 -11,-26 -2,-3 -4,-5 -5,-7 -2,-3 -6,-26 -7,-30 -1,-6 -1,-16 -1,-22 -4,-64 -3,-50 7,-110 2,-13 16,-48 17,-56 -13,2 -29,18 -40,26 -10,8 -25,24 -34,33 -5,5 -16,16 -20,22 -1,2 -2,3 -4,5l-15 18c-16,19 -38,49 -44,72 -1,2 -1,6 -1,7 -1,3 -4,2 -8,16 -5,15 -8,25 -9,41 0,2 -3,7 -4,12 -1,5 2,10 1,14 -1,6 -2,7 -2,14 -2,19 7,65 15,84 5,13 13,38 18,48 7,14 6,10 13,21 3,5 5,12 9,16 6,6 5,7 10,15 2,4 4,5 8,9 3,3 4,7 7,10 4,7 11,11 15,18 4,6 12,11 16,17 4,6 15,16 20,21 11,9 13,12 21,20 6,5 14,8 19,14 3,4 22,18 28,22 5,3 5,2 10,6 5,5 7,3 11,6l20 13c2,1 3,2 5,3 2,2 2,2 5,3 -1,4 -2,2 2,5 3,3 2,3 6,4 13,4 17,5 28,12 6,4 11,3 22,9 8,5 15,12 18,12 5,2 7,2 10,5 4,6 12,4 12,13 10,1 14,10 18,17l-4 1c-3,-4 -3,-6 -6,-9 -6,-6 -7,-2 -10,-9 0,0 0,0 0,-1l-1 -1c0,0 -3,-2 -4,-2 -9,-7 -6,-7 -10,-9 -1,0 -3,-1 -5,-2 -12,-5 -10,-7 -23,-14 -9,-5 -9,-4 -17,-7 -9,-3 -3,-5 -25,-12 -3,-1 -7,-2 -10,-3 -4,-2 -3,-4 -7,-5 -3,-1 -7,-1 -10,-2 -6,-2 -12,-4 -18,-6 -8,-2 -12,-4 -21,-4 -1,0 -2,0 -3,0 -2,0 -1,0 -2,-1 -13,-6 -13,-1 -24,-6 -14,-6 -33,-10 -48,-13 -12,-2 -15,-1 -20,-5l-35 -14c-3,-1 -6,-3 -9,-3 -4,-1 -7,-1 -10,-3 -7,-4 -3,-4 -15,-10l-24 -13c-3,-2 -6,-1 -8,-3 -2,-2 -3,-4 -6,-6 -2,-2 -5,-3 -8,-5 -9,-6 -16,-14 -21,-16 -7,-3 -12,-13 -19,-17 -4,-2 -4,-2 -7,-5 -2,-2 -4,-4 -6,-6 -4,-4 -8,-9 -12,-13 -4,-3 -3,-2 -6,-7 -2,-4 -3,-5 -6,-7 -6,-4 -11,-14 -17,-20 -7,-6 -10,-20 -19,-30 -4,-5 -10,-17 -13,-23 -3,-6 -5,-11 -7,-18 -7,-18 -15,-35 -19,-54 -8,-34 -9,-54 -7,-89 1,-11 5,-44 8,-54 1,-3 2,-6 4,-9 2,-6 4,-12 6,-18 4,-12 9,-22 15,-34 5,-9 2,-10 8,-16 4,-4 7,-9 10,-14 9,-13 10,-17 20,-29 15,-19 15,-20 34,-39l37 -36c3,-3 4,-3 7,-5l55 -44c3,-2 5,-3 7,-5l14 -10c7,-4 26,-15 30,-19l0 -3zm514 629l0 0c3,12 6,8 11,15 10,14 10,7 12,13 3,10 10,12 18,33 1,3 5,6 10,16 6,11 16,47 18,60 2,17 4,29 4,47 0,11 0,23 -6,32 -5,9 6,14 -26,63l-10 16 21 -18c8,-8 12,-10 21,-20 7,-7 13,-14 19,-21 6,-7 13,-14 19,-22l33 -48c12,-22 15,-26 28,-53 39,-79 57,-170 51,-271 -4,-67 -10,-78 -28,-135 -6,-19 -26,-67 -36,-86 -3,-5 -19,-35 -22,-39 -3,-3 -3,-1 -5,-5 -6,-11 -12,-23 -21,-30 -2,-2 -5,-8 -8,-13 -2,-3 -7,-9 -9,-11 -8,-6 -3,1 -10,-10 -4,-7 -13,-17 -20,-21 -2,-2 -4,-2 -7,-3 -4,-2 -3,-2 -5,-5 -3,-4 -5,-7 -10,-10 -2,-1 -4,-2 -7,-4 -7,-3 -5,-6 -17,-14 -4,-3 -8,-5 -13,-8 -4,-3 -7,-6 -12,-8 -3,-1 -4,-2 -8,-2 -5,-1 -3,-2 -6,-5 -7,-6 -45,-20 -58,-23 -22,-6 -46,-10 -71,-10 -49,1 -92,20 -119,44 -59,51 -94,132 -59,238 10,30 29,68 50,91l11 10c1,1 2,5 3,7 4,6 9,12 14,16 9,7 7,4 10,10 6,11 18,16 21,20 6,8 12,15 21,20 4,2 4,1 6,4 2,3 2,4 5,6 6,6 11,8 18,12 3,2 5,6 16,14 2,1 11,8 13,8 10,4 5,4 13,7 13,4 -6,0 9,8 12,6 16,8 24,17 3,3 3,1 8,2 5,2 3,2 6,4 2,3 5,3 11,9 3,3 5,2 13,8 3,2 3,2 7,4 7,3 -3,4 16,15 4,3 10,5 12,9 4,6 3,4 10,10 6,5 0,6 12,9zm-341 98l0 0c-2,7 2,-5 -1,2 -1,2 -1,0 0,2 1,2 22,7 29,12 7,5 7,5 16,7 12,3 21,15 29,18 12,4 7,3 14,9 3,2 6,3 7,5 2,4 -1,2 5,5 7,4 7,7 11,13 6,-2 4,-1 5,3 1,3 3,5 5,7 8,7 6,3 10,14 2,6 5,5 9,15 1,3 3,5 4,9l10 26c2,4 2,39 2,46 0,8 -3,1 -2,9 2,22 -12,45 -21,63 -1,3 -3,5 -4,8 -2,5 -1,4 -5,7l-5 6c-2,2 -4,5 -6,7 -9,11 -20,21 -32,29l-6 5c0,0 0,0 0,0 0,0 0,0 0,0 40,-3 83,-16 121,-28 44,-15 59,-20 102,-47 16,-10 30,-19 44,-30 8,-7 8,-4 16,-6 6,-1 -1,-2 9,-20 4,-6 7,-11 11,-17 7,-11 14,-20 19,-34 4,-11 2,-16 4,-23 1,-2 3,-5 4,-9 6,-21 2,-63 -3,-84 -5,-20 -10,-42 -22,-58 -3,-4 -6,-12 -9,-17 -3,-4 -9,-11 -11,-16 -3,-8 0,-3 -6,-7 -3,-2 -4,-4 -6,-8 -2,-3 -4,-4 -7,-7 -2,-3 -4,-6 -5,-8 -4,-1 -4,0 -6,-3 -2,-3 -1,-3 -4,-6 -3,-3 -7,-5 -10,-9 -3,-5 -12,-9 -17,-13 -12,-9 -5,-3 -9,-10 -1,-3 -17,-9 -19,-11 -1,-1 -2,-3 -4,-5l-8 -6c-2,-2 -1,-2 -3,-3 -3,-2 -6,-1 -9,-1 -8,-11 -22,-17 -35,-22 -4,-2 -2,-1 -1,-4 -4,-2 -4,-3 -7,-5 -7,-4 0,5 -27,-8 -32,-16 -68,-28 -100,-46 -12,-7 -49,-28 -61,-36 -9,-7 -18,-15 -27,-22 -7,-5 -7,-3 -13,-11 -4,-5 -8,-8 -13,-12 -4,-2 -4,-2 -6,-6 -3,-6 -5,-9 -11,-13 -7,-5 -2,-2 -10,-14 -5,-8 -10,-14 -14,-24 -3,-9 -7,-17 -12,-24 -6,-9 -6,-15 -9,-28 -2,-8 -2,-14 -2,-22 -1,-15 -2,-30 -3,-45 -1,-17 2,-27 4,-43 5,-29 6,-33 14,-59 2,-6 5,-14 6,-19 -9,3 -29,20 -37,28 -11,11 -23,21 -33,32 -10,11 -21,22 -31,34 -10,12 -20,24 -28,38 -6,10 -13,20 -17,32 -2,5 -2,9 -3,13 -1,3 -4,3 -6,10 -4,12 -10,26 -10,39 -1,10 1,6 -2,14 -2,4 -2,9 -1,14 1,6 -3,11 -2,28 0,21 5,37 10,56 4,16 19,56 27,71 4,8 9,12 13,21 4,9 8,9 10,14 1,2 1,4 2,6 5,9 10,10 14,18 3,6 10,14 14,18 6,6 9,12 16,17l33 32c7,8 16,17 27,22 3,2 2,1 4,4 6,8 15,12 23,18 7,6 12,6 15,10 4,5 6,4 10,6l24 17c3,2 8,5 11,6zm86 68l0 0c0,-6 -1,-5 -5,-7l-7 -5c-2,-2 0,-2 -3,-3 -3,-1 -7,-2 -10,-4l-2 -2c-4,-5 -16,-12 -23,-14 -6,-1 -8,-2 -13,-5 -15,-10 -24,-9 -30,-13 -4,-3 -1,-3 -8,-4 -9,-2 -19,-6 -28,-9 -8,-3 -14,-2 -21,-3 -5,-1 -7,-6 -19,-5 -4,0 -13,-5 -17,-6 -13,-4 -26,-8 -39,-10 -11,-2 -14,-1 -19,-5 -3,-3 -13,-5 -18,-7 -6,-2 -11,-5 -17,-7l-19 -6c-4,-3 -9,-7 -15,-9 -8,-3 -16,-9 -24,-13 -4,-2 -6,-2 -8,-3 -1,-1 -4,-5 -6,-6 -4,-4 -10,-6 -15,-10 -2,-2 -4,-3 -6,-5 -11,-11 -8,0 -20,-17 -3,-4 -10,-7 -14,-10 -6,-5 -12,-14 -17,-19 -3,-2 -6,-3 -7,-5 -2,-4 -1,-4 -4,-8 -4,-4 -8,-7 -12,-12 -3,-5 -10,-10 -11,-14 -1,-3 -3,-6 -4,-8 -5,-10 -13,-18 -15,-22 -3,-6 -6,-11 -8,-16 -7,-14 -25,-58 -27,-70 -3,-14 -6,-25 -8,-41 -1,-12 -2,-34 -1,-47 1,-14 3,-30 5,-43 5,-27 4,-17 10,-38 9,-27 18,-40 22,-52 1,-4 1,-5 4,-8 7,-6 11,-13 15,-21 8,-13 33,-44 43,-54 4,-4 8,-8 12,-12 22,-22 27,-27 51,-46 9,-7 18,-15 27,-22 5,-3 9,-7 14,-11 10,-6 19,-14 29,-20 5,-3 9,-6 14,-9 -15,1 -65,28 -78,36l-18 11c-14,10 -29,19 -43,29 -12,10 -24,18 -36,28 -11,10 -22,21 -32,32l-14 15c-7,8 -14,15 -19,24 -2,3 -3,7 -5,9 -4,3 -7,7 -10,11 -11,16 -21,32 -31,49l-10 19c-2,4 -4,11 -7,15 -9,13 -19,40 -23,55 -15,55 -19,61 -27,116 -2,18 -9,73 -3,92 2,7 1,12 1,20 0,8 10,76 15,85 7,16 3,13 6,27 2,10 5,16 10,23 1,2 3,16 8,25 2,3 6,7 7,11 1,5 1,7 4,13 2,4 3,7 6,10 1,1 3,3 4,4 1,1 1,4 2,6 5,16 15,29 24,42 6,9 10,18 17,25 6,6 3,1 7,9 3,6 7,10 11,14 2,2 2,3 4,5 1,1 2,3 3,4 9,13 19,18 21,21 3,8 1,4 11,14l13 12c2,2 2,2 4,3 4,3 5,4 10,7 4,2 5,6 8,9 3,3 6,5 10,7 5,2 3,5 8,8 13,8 17,13 30,20 3,2 6,5 9,8 7,6 15,7 22,11l9 7c4,2 7,4 11,6 12,5 12,5 22,11 20,10 51,20 72,27 9,3 17,4 26,7 4,1 8,3 12,4 25,6 77,13 103,13 11,0 21,-1 31,-1l20 0c4,0 5,1 9,-2 2,-1 1,-1 2,-2 2,-4 5,-5 9,-6 26,-10 36,-17 55,-38 7,-7 8,-9 13,-18 2,-4 3,-7 5,-10 5,-10 10,-21 14,-33 3,-12 2,-16 2,-27 4,-2 3,-1 3,-8l-1 -29c0,-3 0,-7 -1,-9 -1,-2 -2,-3 -3,-7 -1,-2 -1,-6 -2,-8 -1,-3 -2,-4 -3,-7 -1,-3 -2,-6 -3,-8 -5,-14 -10,-16 -11,-19 -3,-8 -1,-8 -7,-13 -3,-3 -8,-7 -9,-12l-5 0c-2,-8 -8,-14 -16,-16z"/>
    <path class="fil1" d="M1509 5978c-2,2 -1,0 -1,3 0,5 3,6 6,9 5,5 6,4 9,12 1,3 2,5 3,7 7,9 3,5 7,13 4,8 3,10 6,15 5,9 3,8 5,15 1,4 3,4 4,7l1 38c2,-2 0,-33 0,-39 0,-8 -3,-8 -5,-16l-8 -22c-1,-3 -2,-4 -3,-7 -3,-7 -5,-5 -8,-12 -4,-14 -7,-9 -15,-20 -2,-3 0,-2 -2,-3z"/>
    <path class="fil4" d="M1548 6120c2,-3 2,-10 2,-15 -3,1 -3,-2 -2,6 0,3 0,6 0,9z"/>
   </g>
  </g>
  <path class="fil0" d="M6959 5958c13,18 54,105 73,135 11,18 5,14 59,14l0 -213 -46 0 2 145c-1,-12 -30,-64 -37,-76 -46,-81 -25,-69 -96,-68l0 211 46 1 -1 -149z"/>
  <path class="fil0" d="M5724 5956c15,18 29,56 41,77l32 58c12,20 7,15 59,15l0 -213 -46 1 2 141c-13,-25 -22,-46 -36,-72 -13,-24 -28,-46 -39,-70l-58 -1c0,57 -4,161 3,213l40 0c4,-28 2,-81 2,-111l-1 -39z"/>
  <path class="fil0" d="M5556 6014c-14,93 -112,64 -99,-30 12,-88 114,-66 99,30zm-151 0l0 0c9,136 219,128 203,-30 -13,-134 -213,-128 -203,30z"/>
  <path class="fil0" d="M7342 5901c-234,-76 -249,279 7,195l0 -112 -80 2 0 36 33 1 0 44c-59,7 -100,-24 -87,-86 12,-55 63,-52 117,-42l10 -38z"/>
  <path class="fil0" d="M6148 5894c0,95 -25,218 88,216 109,-2 86,-121 86,-215l-49 0c0,36 0,73 0,109 0,35 -3,69 -40,67 -51,-2 -36,-111 -36,-176l-48 0z"/>
  <path class="fil0" d="M6055 5938c7,-12 11,-29 9,-38 -85,-36 -170,32 -118,92 19,21 77,29 79,53 4,41 -67,20 -86,12l-10 41c30,8 54,17 90,9 26,-6 48,-22 54,-48 19,-86 -87,-65 -91,-112 16,-28 46,-14 73,-8z"/>
  <path class="fil0" d="M5354 5899c-86,-28 -165,14 -167,101 -2,95 77,123 166,102l-9 -38c-62,10 -108,1 -106,-68 3,-88 96,-60 108,-60l8 -37z"/>
  <polygon class="fil0" points="6556,5934 6612,5934 6614,6107 6661,6107 6661,5934 6718,5934 6719,5898 6719,5894 6555,5894 "/>
  <polygon class="fil0" points="6403,6107 6536,6105 6538,6066 6451,6065 6451,5894 6403,5894 "/>
  <path class="fil1" d="M5556 6014c14,-96 -87,-118 -99,-30 -13,94 86,123 99,30z"/>
  <polygon class="fil0" points="6785,6107 6833,6107 6833,5954 6833,5924 6833,5894 6827,5894 6789,5894 6785,5894 6785,6014 "/>
  <path class="fil0" d="M5065 5727c-20,1 -15,3 -14,27l0 490c0,64 -7,59 14,60l0 -577z"/>
  <path class="fil0" d="M4517 6107c7,-26 1,-117 2,-150 23,30 60,129 84,150l47 0c7,-25 2,-175 2,-213l-46 1 2 141 -74 -142 -58 0c0,37 -5,190 3,213l39 0z"/>
  <path class="fil0" d="M3487 5956c24,30 58,128 84,150l47 0c7,-27 2,-174 2,-213l-46 1 2 141c-13,-25 -21,-46 -36,-71 -13,-23 -26,-47 -39,-71l-58 0 0 213 44 0 -1 -150z"/>
  <path class="fil0" d="M2845 5953c1,14 72,145 84,154l47 0 0 -213 -46 0 2 140c-15,-20 -26,-51 -38,-72 -12,-21 -29,-47 -37,-68l-58 0 0 213 46 -2 -1 -153z"/>
  <path class="fil0" d="M3227 5902c-36,-17 -91,-12 -123,5 -72,36 -77,157 2,192 45,20 86,8 130,0l0 -113 -80 0 0 38 33 1 0 42c-58,13 -99,-26 -87,-84 12,-55 63,-56 118,-42l7 -39z"/>
  <path class="fil0" d="M4903 5901c-91,-22 -181,4 -180,103 0,114 108,114 187,94l0 -113 -80 0 0 39 32 0 0 44c-59,6 -103,-24 -86,-89 17,-68 105,-40 118,-39l9 -38z"/>
  <path class="fil0" d="M4166 5987l-1 -55c67,-18 86,62 1,55zm-47 -90l0 0 0 209 44 0 0 -83c16,-2 16,-3 28,4 30,8 20,54 39,81l46 0c1,-12 -10,-42 -13,-55 -7,-27 -9,-31 -27,-44 12,-14 29,-20 33,-43 17,-88 -107,-72 -150,-69z"/>
  <path class="fil0" d="M3752 5934l81 -2 0 -38 -132 0c0,39 -5,187 2,213l133 0 1 -40 -87 0 0 -49 78 0 1 -40 -78 0 3 -43z"/>
  <polygon class="fil0" points="3910,6105 4045,6107 4045,6066 3959,6066 3958,6018 4035,6017 4036,5978 3958,5977 3958,5935 4039,5933 4041,5894 3910,5894 "/>
  <polygon class="fil0" points="2593,5898 2593,6107 2728,6107 2728,6066 2641,6066 2640,6018 2718,6017 2719,5977 2640,5976 2640,5935 2721,5933 2724,5894 "/>
  <polygon class="fil0" points="3314,6107 3348,6107 3362,6106 3362,5895 3348,5894 3314,5894 "/>
  <polygon class="fil0" points="4345,6107 4393,6105 4393,5895 4379,5894 4345,5894 4345,6101 "/>
  <path class="fil1" d="M4166 5987c85,7 67,-73 -1,-55l1 55z"/>
  <path class="fil0" d="M4191 6026c-11,-7 -11,-6 -28,-4l0 83 -44 0 0 -209c-1,1 -1,2 -2,3 -7,20 -3,198 0,208 15,4 35,5 49,-1l0 -82 24 2z"/>
  <path class="fil0" d="M2617 5544l101 0c18,-103 50,-202 63,-308 10,49 17,105 27,155 10,50 22,103 30,153 122,0 102,13 117,-46 23,-90 87,-319 97,-377 -106,0 -94,-7 -101,15 -13,46 -48,279 -57,299 -8,-101 -38,-215 -55,-314l-101 0c-12,20 -42,188 -50,234l-17 83 -55 -315 -103 -2c8,58 72,304 94,401 3,15 1,17 11,22z"/>
  <path class="fil0" d="M4818 5281c-3,2 5,1 -9,3 -2,0 -9,0 -11,0 -30,0 -122,2 -139,-2l0 -163 -95 1 0 423 96 0 0 -176 156 0 1 175 96 1c0,-59 -4,-394 2,-422l-98 -1 0 161z"/>
  <path class="fil0" d="M7092 5306l0 -113c47,-17 113,-1 113,53 0,57 -56,67 -113,60zm-95 -181l0 0 0 418 95 0 0 -165c58,-6 80,4 93,52 7,24 20,102 37,113l94 0c-11,-36 -21,-73 -31,-112 -19,-70 -28,-59 -55,-88 27,-18 59,-31 69,-82 10,-48 -9,-90 -37,-112 -62,-49 -180,-34 -265,-25z"/>
  <path class="fil0" d="M6410 5543c53,4 207,1 270,1l0 -79 -173 0 1 -100 154 0 0 -78 -154 0 0 -88 163 0 0 -77 -262 -1 0 423z"/>
  <path class="fil0" d="M3352 5543l270 1c0,-14 -3,-70 2,-79l-175 0 0 -100 155 0 0 -78 -154 0 -1 -88 164 0 0 -77 -260 -1 -1 423z"/>
  <path class="fil0" d="M5250 5446l-19 78c112,51 290,33 291,-105 0,-111 -105,-113 -167,-154 -36,-23 -23,-63 20,-72 47,-9 74,8 109,17l22 -76c-66,-29 -154,-30 -212,5 -61,36 -111,160 50,224 29,12 71,23 79,50 12,43 -30,59 -67,58 -47,0 -68,-14 -105,-25z"/>
  <path class="fil0" d="M4248 5532c0,-25 -12,-51 -10,-76 -57,12 -102,26 -156,-4 -83,-45 -84,-195 1,-243 53,-30 99,-15 152,-2l20 -74c-22,-18 -88,-22 -120,-20 -251,13 -274,315 -123,406 52,32 177,48 235,13z"/>
  <path class="fil0" d="M5839 5546l264 -2c0,-26 -3,-55 2,-79l-169 -1 -2 -13 0 -329 -96 0 0 425z"/>
  <path class="fil1" d="M7092 5306c57,7 113,-3 113,-60 0,-54 -66,-69 -113,-53l0 113z"/>
  <path class="fil0" d="M4818 5281l-155 0 0 -152c-1,-6 -3,-9 -4,-10l0 163c17,4 109,3 139,2 3,0 9,0 11,0 13,-2 5,-2 9,-3z"/>
  <path class="fil0" d="M1740 5803c3,12 6,8 11,15 10,14 10,7 12,13 3,10 10,12 18,33 1,3 5,6 10,16 6,11 16,47 18,60 2,17 4,29 4,47 0,11 0,23 -6,32 -5,9 6,14 -26,63l-10 16 21 -18c8,-8 12,-10 21,-20 7,-7 13,-14 19,-21 6,-7 13,-14 19,-22l33 -48c12,-22 15,-26 28,-53 39,-79 57,-170 51,-271 -4,-67 -10,-78 -28,-135 -6,-19 -26,-67 -36,-86 -3,-5 -19,-35 -22,-39 -3,-3 -3,-1 -5,-5 -6,-11 -12,-23 -21,-30 -2,-2 -5,-8 -8,-13 -2,-3 -7,-9 -9,-11 -8,-6 -3,1 -10,-10 -4,-7 -13,-17 -20,-21 -2,-2 -4,-2 -7,-3 -4,-2 -3,-2 -5,-5 -3,-4 -5,-7 -10,-10 -2,-1 -4,-2 -7,-4 -7,-3 -5,-6 -17,-14 -4,-3 -8,-5 -13,-8 -4,-3 -7,-6 -12,-8 -3,-1 -4,-2 -8,-2 -5,-1 -3,-2 -6,-5 -7,-6 -45,-20 -58,-23 -22,-6 -46,-10 -71,-10 -49,1 -92,20 -119,44 -59,51 -94,132 -59,238 10,30 29,68 50,91l11 10c1,1 2,5 3,7 4,6 9,12 14,16 9,7 7,4 10,10 6,11 18,16 21,20 6,8 12,15 21,20 4,2 4,1 6,4 2,3 2,4 5,6 6,6 11,8 18,12 3,2 5,6 16,14 2,1 11,8 13,8 10,4 5,4 13,7 13,4 -6,0 9,8 12,6 16,8 24,17 3,3 3,1 8,2 5,2 3,2 6,4 2,3 5,3 11,9 3,3 5,2 13,8 3,2 3,2 7,4 7,3 -3,4 16,15 4,3 10,5 12,9 4,6 3,4 10,10 6,5 0,6 12,9z"/>
  <path class="fil0" d="M1485 5969c0,-6 -1,-5 -5,-7l-7 -5c-2,-2 0,-2 -3,-3 -3,-1 -7,-2 -10,-4l-2 -2c-4,-5 -16,-12 -23,-14 -6,-1 -8,-2 -13,-5 -15,-10 -24,-9 -30,-13 -4,-3 -1,-3 -8,-4 -9,-2 -19,-6 -28,-9 -8,-3 -14,-2 -21,-3 -5,-1 -7,-6 -19,-5 -4,0 -13,-5 -17,-6 -13,-4 -26,-8 -39,-10 -11,-2 -14,-1 -19,-5 -3,-3 -13,-5 -18,-7 -6,-2 -11,-5 -17,-7l-19 -6c-4,-3 -9,-7 -15,-9 -8,-3 -16,-9 -24,-13 -4,-2 -6,-2 -8,-3 -1,-1 -4,-5 -6,-6 -4,-4 -10,-6 -15,-10 -2,-2 -4,-3 -6,-5 -11,-11 -8,0 -20,-17 -3,-4 -10,-7 -14,-10 -6,-5 -12,-14 -17,-19 -3,-2 -6,-3 -7,-5 -2,-4 -1,-4 -4,-8 -4,-4 -8,-7 -12,-12 -3,-5 -10,-10 -11,-14 -1,-3 -3,-6 -4,-8 -5,-10 -13,-18 -15,-22 -3,-6 -6,-11 -8,-16 -7,-14 -25,-58 -27,-70 -3,-14 -6,-25 -8,-41 -1,-12 -2,-34 -1,-47 1,-14 3,-30 5,-43 5,-27 4,-17 10,-38 9,-27 18,-40 22,-52 1,-4 1,-5 4,-8 7,-6 11,-13 15,-21 8,-13 33,-44 43,-54 4,-4 8,-8 12,-12 22,-22 27,-27 51,-46 9,-7 18,-15 27,-22 5,-3 9,-7 14,-11 10,-6 19,-14 29,-20 5,-3 9,-6 14,-9 -15,1 -65,28 -78,36l-18 11c-14,10 -29,19 -43,29 -12,10 -24,18 -36,28 -11,10 -22,21 -32,32l-14 15c-7,8 -14,15 -19,24 -2,3 -3,7 -5,9 -4,3 -7,7 -10,11 -11,16 -21,32 -31,49l-10 19c-2,4 -4,11 -7,15 -9,13 -19,40 -23,55 -15,55 -19,61 -27,116 -2,18 -9,73 -3,92 2,7 1,12 1,20 0,8 10,76 15,85 7,16 3,13 6,27 2,10 5,16 10,23 1,2 3,16 8,25 2,3 6,7 7,11 1,5 1,7 4,13 2,4 3,7 6,10 1,1 3,3 4,4 1,1 1,4 2,6 5,16 15,29 24,42 6,9 10,18 17,25 6,6 3,1 7,9 3,6 7,10 11,14 2,2 2,3 4,5 1,1 2,3 3,4 9,13 19,18 21,21 3,8 1,4 11,14l13 12c2,2 2,2 4,3 4,3 5,4 10,7 4,2 5,6 8,9 3,3 6,5 10,7 5,2 3,5 8,8 13,8 17,13 30,20 3,2 6,5 9,8 7,6 15,7 22,11l9 7c4,2 7,4 11,6 12,5 12,5 22,11 20,10 51,20 72,27 9,3 17,4 26,7 4,1 8,3 12,4 25,6 77,13 103,13 11,0 21,-1 31,-1l20 0c4,0 5,1 9,-2 2,-1 1,-1 2,-2 2,-4 5,-5 9,-6 26,-10 36,-17 55,-38 7,-7 8,-9 13,-18 2,-4 3,-7 5,-10 5,-10 10,-21 14,-33 3,-12 2,-16 2,-27 4,-2 3,-1 3,-8l-1 -29c0,-3 0,-7 -1,-9 -1,-2 -2,-3 -3,-7 -1,-2 -1,-6 -2,-8 -1,-3 -2,-4 -3,-7 -1,-3 -2,-6 -3,-8 -5,-14 -10,-16 -11,-19 -3,-8 -1,-8 -7,-13 -3,-3 -8,-7 -9,-12l-5 0c-2,-8 -8,-14 -16,-16z"/>
  <path class="fil0" d="M1399 5901c-2,7 2,-5 -1,2 -1,2 -1,0 0,2 1,2 22,7 29,12 7,5 7,5 16,7 12,3 21,15 29,18 12,4 7,3 14,9 3,2 6,3 7,5 2,4 -1,2 5,5 7,4 7,7 11,13 6,-2 4,-1 5,3 1,3 3,5 5,7 8,7 6,3 10,14 2,6 5,5 9,15 1,3 3,5 4,9l10 26c2,4 2,39 2,46 0,8 -3,1 -2,9 2,22 -12,45 -21,63 -1,3 -3,5 -4,8 -2,5 -1,4 -5,7l-5 6c-2,2 -4,5 -6,7 -9,11 -20,21 -32,29l-6 5c0,0 0,0 0,0 0,0 0,0 0,0 40,-3 83,-16 121,-28 44,-15 59,-20 102,-47 16,-10 30,-19 44,-30 8,-7 8,-4 16,-6 6,-1 -1,-2 9,-20 4,-6 7,-11 11,-17 7,-11 14,-20 19,-34 4,-11 2,-16 4,-23 1,-2 3,-5 4,-9 6,-21 2,-63 -3,-84 -5,-20 -10,-42 -22,-58 -3,-4 -6,-12 -9,-17 -3,-4 -9,-11 -11,-16 -3,-8 0,-3 -6,-7 -3,-2 -4,-4 -6,-8 -2,-3 -4,-4 -7,-7 -2,-3 -4,-6 -5,-8 -4,-1 -4,0 -6,-3 -2,-3 -1,-3 -4,-6 -3,-3 -7,-5 -10,-9 -3,-5 -12,-9 -17,-13 -12,-9 -5,-3 -9,-10 -1,-3 -17,-9 -19,-11 -1,-1 -2,-3 -4,-5l-8 -6c-2,-2 -1,-2 -3,-3 -3,-2 -6,-1 -9,-1 -8,-11 -22,-17 -35,-22 -4,-2 -2,-1 -1,-4 -4,-2 -4,-3 -7,-5 -7,-4 0,5 -27,-8 -32,-16 -68,-28 -100,-46 -12,-7 -49,-28 -61,-36 -9,-7 -18,-15 -27,-22 -7,-5 -7,-3 -13,-11 -4,-5 -8,-8 -13,-12 -4,-2 -4,-2 -6,-6 -3,-6 -5,-9 -11,-13 -7,-5 -2,-2 -10,-14 -5,-8 -10,-14 -14,-24 -3,-9 -7,-17 -12,-24 -6,-9 -6,-15 -9,-28 -2,-8 -2,-14 -2,-22 -1,-15 -2,-30 -3,-45 -1,-17 2,-27 4,-43 5,-29 6,-33 14,-59 2,-6 5,-14 6,-19 -9,3 -29,20 -37,28 -11,11 -23,21 -33,32 -10,11 -21,22 -31,34 -10,12 -20,24 -28,38 -6,10 -13,20 -17,32 -2,5 -2,9 -3,13 -1,3 -4,3 -6,10 -4,12 -10,26 -10,39 -1,10 1,6 -2,14 -2,4 -2,9 -1,14 1,6 -3,11 -2,28 0,21 5,37 10,56 4,16 19,56 27,71 4,8 9,12 13,21 4,9 8,9 10,14 1,2 1,4 2,6 5,9 10,10 14,18 3,6 10,14 14,18 6,6 9,12 16,17l33 32c7,8 16,17 27,22 3,2 2,1 4,4 6,8 15,12 23,18 7,6 12,6 15,10 4,5 6,4 10,6l24 17c3,2 8,5 11,6z"/>
  <path class="fil0" d="M1548 6120c0,-3 1,-6 0,-9 -1,-7 -1,-5 2,-6 0,5 0,12 -2,15zm-33 -129l0 0c-4,-4 -6,-5 -6,-9 0,-3 -1,-1 1,-3 2,0 0,-1 2,3 8,11 10,6 15,20 2,7 5,5 8,12 1,3 2,4 3,7l8 22c2,8 5,7 5,16 0,6 1,36 0,39l-1 -38c-1,-3 -2,-3 -4,-7 -3,-7 -1,-6 -5,-15 -3,-4 -1,-7 -6,-15 -4,-8 0,-4 -7,-13 -1,-2 -2,-4 -3,-7 -3,-8 -4,-7 -9,-12zm-289 -817l0 0 -4 0 -21 7c-38,13 -78,38 -111,61 -13,9 -32,22 -43,32l-43 40c-3,3 -4,4 -7,7 -3,4 -10,10 -13,14 -2,3 -4,5 -6,7 -9,10 -8,13 -18,23 -16,18 -43,63 -52,86 -3,8 -2,3 -5,8 -6,10 -12,25 -17,38 -8,22 -25,85 -29,109l-6 48c0,4 -1,22 -2,25l0 33c1,2 2,10 3,13 1,4 0,10 0,15 0,12 10,74 14,86 1,4 4,8 5,11 2,8 0,20 11,39 1,2 2,3 3,4 1,3 0,4 1,8 0,3 3,10 5,12 2,5 3,7 6,10 5,8 3,17 13,28 6,6 3,10 14,28 2,4 4,7 6,10l13 20c2,3 4,8 6,11 2,3 5,6 8,9 10,9 2,6 13,19 8,10 18,24 28,30 3,2 3,1 4,5 2,8 22,23 28,29 2,2 3,3 5,4 2,1 3,2 5,3 3,2 2,2 4,5 3,5 8,8 14,11 5,3 1,0 4,4l19 14c12,10 12,5 19,13 10,10 23,13 26,15 5,3 9,9 26,16 10,3 5,3 11,6 23,12 70,28 97,35 25,7 24,8 53,13 10,1 20,3 30,4 5,0 28,2 30,3l68 0c9,-8 28,-10 42,-11 25,-3 67,-13 90,-20 14,-4 28,-10 41,-14 14,-4 26,-10 39,-16 21,-10 67,-38 84,-53 7,-6 8,-7 21,-7 2,-3 2,-1 3,-7 0,-4 0,-5 2,-8l30 -27c6,-6 15,-13 20,-19 2,-2 2,-3 4,-5 10,-11 14,-16 23,-26l17 -22c13,-19 19,-26 31,-46 40,-66 65,-141 75,-218 0,-3 3,-35 3,-35l0 -53c0,0 -4,-46 -4,-51 -6,-47 -9,-47 -21,-88 -8,-26 -17,-51 -29,-74 -1,-2 -2,-3 -2,-5 -2,-5 -5,-14 -8,-19 -7,-11 -12,-24 -20,-35 -2,-3 -5,-5 -7,-7 -10,-16 -6,-10 -16,-25 -1,-2 -2,-2 -3,-4 -8,-7 -2,-2 -9,-12 -8,-13 -16,-15 -20,-22 -5,-9 -11,-16 -19,-23 -5,-4 -9,-3 -12,-9 -5,-7 -10,-11 -19,-15 -3,-2 -5,-4 -8,-6 -5,-4 -10,-8 -16,-11 -7,-4 -11,-8 -17,-11 -4,-2 -5,-2 -10,-3 -4,-1 -4,-4 -8,-6 -3,-2 -6,-3 -9,-4 -49,-23 -105,-34 -159,-23 -30,6 -61,22 -83,41l-21 20c-28,31 -47,72 -51,114 -6,58 9,109 35,157 9,17 23,39 38,51 2,2 7,11 11,17 1,1 2,3 3,4 3,3 13,10 14,13 2,4 3,5 6,8 9,9 12,9 15,12 2,2 6,9 13,15 4,3 9,6 13,8 2,1 10,12 22,19 7,4 5,3 11,9 5,5 10,7 16,12 6,4 4,2 9,5 3,2 3,3 8,5 0,4 -3,2 1,4 11,6 22,8 32,19 7,7 1,2 10,5 3,1 2,2 4,3 2,1 3,2 4,3 3,2 5,4 8,7 3,3 5,2 9,5 2,1 3,2 5,3 4,3 6,2 8,7 2,5 7,8 11,10 4,3 10,5 13,9 7,10 11,9 14,15 2,3 0,3 3,3 2,1 3,0 5,2 6,9 4,6 10,12 3,3 3,5 6,8 2,2 3,2 5,3 2,2 1,2 2,5 1,3 4,6 6,9 2,3 4,5 6,8 4,7 6,13 10,19 15,21 26,77 26,104 -1,-5 -3,-20 -3,-26 -1,-10 -3,-16 -5,-24 -4,-15 -8,-31 -15,-44 -2,-4 -5,-6 -6,-9 -7,-15 -5,-13 -16,-28 -3,-4 -1,-7 -5,-10 -4,-3 -5,-3 -8,-7 -3,-4 -4,-5 -7,-8 -4,-4 -5,-9 -5,-9 -6,-2 -6,0 -9,-5 -3,-6 -9,-8 -13,-14 -5,-7 -18,-10 -23,-17 -4,-4 1,-5 -6,-8 -4,-2 -5,-3 -8,-5 -3,-2 -8,-3 -9,-5 -2,-2 -4,-4 -7,-6 -2,-2 -3,-2 -4,-3 -3,-2 -1,-2 -3,-4 -3,-2 -7,-2 -9,-2 -3,-1 -5,-5 -7,-6 -5,-4 -10,-7 -16,-10 -3,-1 -7,-3 -9,-4 1,-3 1,-1 1,-3 -2,-1 -3,-1 -4,-2 -3,-1 -2,-1 -4,-2 -10,-8 -9,-1 -18,-5 -11,-4 -26,-14 -42,-20 -12,-4 -24,-10 -35,-15 -11,-5 -23,-10 -33,-16 -5,-3 -11,-6 -16,-9 -16,-9 -30,-19 -46,-28 -5,-3 -9,-7 -14,-11l-14 -11c-1,-1 -2,-2 -3,-3 -10,-7 -13,-14 -22,-20 -10,-6 -3,-10 -18,-19 -4,-3 -2,-4 -5,-8 -3,-5 -6,-10 -10,-15 -2,-3 -3,-4 -5,-8 -4,-9 -7,-18 -11,-26 -2,-3 -4,-5 -5,-7 -2,-3 -6,-26 -7,-30 -1,-6 -1,-16 -1,-22 -4,-64 -3,-50 7,-110 2,-13 16,-48 17,-56 -13,2 -29,18 -40,26 -10,8 -25,24 -34,33 -5,5 -16,16 -20,22 -1,2 -2,3 -4,5l-15 18c-16,19 -38,49 -44,72 -1,2 -1,6 -1,7 -1,3 -4,2 -8,16 -5,15 -8,25 -9,41 0,2 -3,7 -4,12 -1,5 2,10 1,14 -1,6 -2,7 -2,14 -2,19 7,65 15,84 5,13 13,38 18,48 7,14 6,10 13,21 3,5 5,12 9,16 6,6 5,7 10,15 2,4 4,5 8,9 3,3 4,7 7,10 4,7 11,11 15,18 4,6 12,11 16,17 4,6 15,16 20,21 11,9 13,12 21,20 6,5 14,8 19,14 3,4 22,18 28,22 5,3 5,2 10,6 5,5 7,3 11,6l20 13c2,1 3,2 5,3 2,2 2,2 5,3 -1,4 -2,2 2,5 3,3 2,3 6,4 13,4 17,5 28,12 6,4 11,3 22,9 8,5 15,12 18,12 5,2 7,2 10,5 4,6 12,4 12,13 10,1 14,10 18,17l-4 1c-3,-4 -3,-6 -6,-9 -6,-6 -7,-2 -10,-9 0,0 0,0 0,-1l-1 -1c0,0 -3,-2 -4,-2 -9,-7 -6,-7 -10,-9 -1,0 -3,-1 -5,-2 -12,-5 -10,-7 -23,-14 -9,-5 -9,-4 -17,-7 -9,-3 -3,-5 -25,-12 -3,-1 -7,-2 -10,-3 -4,-2 -3,-4 -7,-5 -3,-1 -7,-1 -10,-2 -6,-2 -12,-4 -18,-6 -8,-2 -12,-4 -21,-4 -1,0 -2,0 -3,0 -2,0 -1,0 -2,-1 -13,-6 -13,-1 -24,-6 -14,-6 -33,-10 -48,-13 -12,-2 -15,-1 -20,-5l-35 -14c-3,-1 -6,-3 -9,-3 -4,-1 -7,-1 -10,-3 -7,-4 -3,-4 -15,-10l-24 -13c-3,-2 -6,-1 -8,-3 -2,-2 -3,-4 -6,-6 -2,-2 -5,-3 -8,-5 -9,-6 -16,-14 -21,-16 -7,-3 -12,-13 -19,-17 -4,-2 -4,-2 -7,-5 -2,-2 -4,-4 -6,-6 -4,-4 -8,-9 -12,-13 -4,-3 -3,-2 -6,-7 -2,-4 -3,-5 -6,-7 -6,-4 -11,-14 -17,-20 -7,-6 -10,-20 -19,-30 -4,-5 -10,-17 -13,-23 -3,-6 -5,-11 -7,-18 -7,-18 -15,-35 -19,-54 -8,-34 -9,-54 -7,-89 1,-11 5,-44 8,-54 1,-3 2,-6 4,-9 2,-6 4,-12 6,-18 4,-12 9,-22 15,-34 5,-9 2,-10 8,-16 4,-4 7,-9 10,-14 9,-13 10,-17 20,-29 15,-19 15,-20 34,-39l37 -36c3,-3 4,-3 7,-5l55 -44c3,-2 5,-3 7,-5l14 -10c7,-4 26,-15 30,-19l0 -3zm514 629l0 0c3,12 6,8 11,15 10,14 10,7 12,13 3,10 10,12 18,33 1,3 5,6 10,16 6,11 16,47 18,60 2,17 4,29 4,47 0,11 0,23 -6,32 -5,9 6,14 -26,63l-10 16 21 -18c8,-8 12,-10 21,-20 7,-7 13,-14 19,-21 6,-7 13,-14 19,-22l33 -48c12,-22 15,-26 28,-53 39,-79 57,-170 51,-271 -4,-67 -10,-78 -28,-135 -6,-19 -26,-67 -36,-86 -3,-5 -19,-35 -22,-39 -3,-3 -3,-1 -5,-5 -6,-11 -12,-23 -21,-30 -2,-2 -5,-8 -8,-13 -2,-3 -7,-9 -9,-11 -8,-6 -3,1 -10,-10 -4,-7 -13,-17 -20,-21 -2,-2 -4,-2 -7,-3 -4,-2 -3,-2 -5,-5 -3,-4 -5,-7 -10,-10 -2,-1 -4,-2 -7,-4 -7,-3 -5,-6 -17,-14 -4,-3 -8,-5 -13,-8 -4,-3 -7,-6 -12,-8 -3,-1 -4,-2 -8,-2 -5,-1 -3,-2 -6,-5 -7,-6 -45,-20 -58,-23 -22,-6 -46,-10 -71,-10 -49,1 -92,20 -119,44 -59,51 -94,132 -59,238 10,30 29,68 50,91l11 10c1,1 2,5 3,7 4,6 9,12 14,16 9,7 7,4 10,10 6,11 18,16 21,20 6,8 12,15 21,20 4,2 4,1 6,4 2,3 2,4 5,6 6,6 11,8 18,12 3,2 5,6 16,14 2,1 11,8 13,8 10,4 5,4 13,7 13,4 -6,0 9,8 12,6 16,8 24,17 3,3 3,1 8,2 5,2 3,2 6,4 2,3 5,3 11,9 3,3 5,2 13,8 3,2 3,2 7,4 7,3 -3,4 16,15 4,3 10,5 12,9 4,6 3,4 10,10 6,5 0,6 12,9zm-341 98l0 0c-2,7 2,-5 -1,2 -1,2 -1,0 0,2 1,2 22,7 29,12 7,5 7,5 16,7 12,3 21,15 29,18 12,4 7,3 14,9 3,2 6,3 7,5 2,4 -1,2 5,5 7,4 7,7 11,13 6,-2 4,-1 5,3 1,3 3,5 5,7 8,7 6,3 10,14 2,6 5,5 9,15 1,3 3,5 4,9l10 26c2,4 2,39 2,46 0,8 -3,1 -2,9 2,22 -12,45 -21,63 -1,3 -3,5 -4,8 -2,5 -1,4 -5,7l-5 6c-2,2 -4,5 -6,7 -9,11 -20,21 -32,29l-6 5c0,0 0,0 0,0 0,0 0,0 0,0 40,-3 83,-16 121,-28 44,-15 59,-20 102,-47 16,-10 30,-19 44,-30 8,-7 8,-4 16,-6 6,-1 -1,-2 9,-20 4,-6 7,-11 11,-17 7,-11 14,-20 19,-34 4,-11 2,-16 4,-23 1,-2 3,-5 4,-9 6,-21 2,-63 -3,-84 -5,-20 -10,-42 -22,-58 -3,-4 -6,-12 -9,-17 -3,-4 -9,-11 -11,-16 -3,-8 0,-3 -6,-7 -3,-2 -4,-4 -6,-8 -2,-3 -4,-4 -7,-7 -2,-3 -4,-6 -5,-8 -4,-1 -4,0 -6,-3 -2,-3 -1,-3 -4,-6 -3,-3 -7,-5 -10,-9 -3,-5 -12,-9 -17,-13 -12,-9 -5,-3 -9,-10 -1,-3 -17,-9 -19,-11 -1,-1 -2,-3 -4,-5l-8 -6c-2,-2 -1,-2 -3,-3 -3,-2 -6,-1 -9,-1 -8,-11 -22,-17 -35,-22 -4,-2 -2,-1 -1,-4 -4,-2 -4,-3 -7,-5 -7,-4 0,5 -27,-8 -32,-16 -68,-28 -100,-46 -12,-7 -49,-28 -61,-36 -9,-7 -18,-15 -27,-22 -7,-5 -7,-3 -13,-11 -4,-5 -8,-8 -13,-12 -4,-2 -4,-2 -6,-6 -3,-6 -5,-9 -11,-13 -7,-5 -2,-2 -10,-14 -5,-8 -10,-14 -14,-24 -3,-9 -7,-17 -12,-24 -6,-9 -6,-15 -9,-28 -2,-8 -2,-14 -2,-22 -1,-15 -2,-30 -3,-45 -1,-17 2,-27 4,-43 5,-29 6,-33 14,-59 2,-6 5,-14 6,-19 -9,3 -29,20 -37,28 -11,11 -23,21 -33,32 -10,11 -21,22 -31,34 -10,12 -20,24 -28,38 -6,10 -13,20 -17,32 -2,5 -2,9 -3,13 -1,3 -4,3 -6,10 -4,12 -10,26 -10,39 -1,10 1,6 -2,14 -2,4 -2,9 -1,14 1,6 -3,11 -2,28 0,21 5,37 10,56 4,16 19,56 27,71 4,8 9,12 13,21 4,9 8,9 10,14 1,2 1,4 2,6 5,9 10,10 14,18 3,6 10,14 14,18 6,6 9,12 16,17l33 32c7,8 16,17 27,22 3,2 2,1 4,4 6,8 15,12 23,18 7,6 12,6 15,10 4,5 6,4 10,6l24 17c3,2 8,5 11,6zm86 68l0 0c0,-6 -1,-5 -5,-7l-7 -5c-2,-2 0,-2 -3,-3 -3,-1 -7,-2 -10,-4l-2 -2c-4,-5 -16,-12 -23,-14 -6,-1 -8,-2 -13,-5 -15,-10 -24,-9 -30,-13 -4,-3 -1,-3 -8,-4 -9,-2 -19,-6 -28,-9 -8,-3 -14,-2 -21,-3 -5,-1 -7,-6 -19,-5 -4,0 -13,-5 -17,-6 -13,-4 -26,-8 -39,-10 -11,-2 -14,-1 -19,-5 -3,-3 -13,-5 -18,-7 -6,-2 -11,-5 -17,-7l-19 -6c-4,-3 -9,-7 -15,-9 -8,-3 -16,-9 -24,-13 -4,-2 -6,-2 -8,-3 -1,-1 -4,-5 -6,-6 -4,-4 -10,-6 -15,-10 -2,-2 -4,-3 -6,-5 -11,-11 -8,0 -20,-17 -3,-4 -10,-7 -14,-10 -6,-5 -12,-14 -17,-19 -3,-2 -6,-3 -7,-5 -2,-4 -1,-4 -4,-8 -4,-4 -8,-7 -12,-12 -3,-5 -10,-10 -11,-14 -1,-3 -3,-6 -4,-8 -5,-10 -13,-18 -15,-22 -3,-6 -6,-11 -8,-16 -7,-14 -25,-58 -27,-70 -3,-14 -6,-25 -8,-41 -1,-12 -2,-34 -1,-47 1,-14 3,-30 5,-43 5,-27 4,-17 10,-38 9,-27 18,-40 22,-52 1,-4 1,-5 4,-8 7,-6 11,-13 15,-21 8,-13 33,-44 43,-54 4,-4 8,-8 12,-12 22,-22 27,-27 51,-46 9,-7 18,-15 27,-22 5,-3 9,-7 14,-11 10,-6 19,-14 29,-20 5,-3 9,-6 14,-9 -15,1 -65,28 -78,36l-18 11c-14,10 -29,19 -43,29 -12,10 -24,18 -36,28 -11,10 -22,21 -32,32l-14 15c-7,8 -14,15 -19,24 -2,3 -3,7 -5,9 -4,3 -7,7 -10,11 -11,16 -21,32 -31,49l-10 19c-2,4 -4,11 -7,15 -9,13 -19,40 -23,55 -15,55 -19,61 -27,116 -2,18 -9,73 -3,92 2,7 1,12 1,20 0,8 10,76 15,85 7,16 3,13 6,27 2,10 5,16 10,23 1,2 3,16 8,25 2,3 6,7 7,11 1,5 1,7 4,13 2,4 3,7 6,10 1,1 3,3 4,4 1,1 1,4 2,6 5,16 15,29 24,42 6,9 10,18 17,25 6,6 3,1 7,9 3,6 7,10 11,14 2,2 2,3 4,5 1,1 2,3 3,4 9,13 19,18 21,21 3,8 1,4 11,14l13 12c2,2 2,2 4,3 4,3 5,4 10,7 4,2 5,6 8,9 3,3 6,5 10,7 5,2 3,5 8,8 13,8 17,13 30,20 3,2 6,5 9,8 7,6 15,7 22,11l9 7c4,2 7,4 11,6 12,5 12,5 22,11 20,10 51,20 72,27 9,3 17,4 26,7 4,1 8,3 12,4 25,6 77,13 103,13 11,0 21,-1 31,-1l20 0c4,0 5,1 9,-2 2,-1 1,-1 2,-2 2,-4 5,-5 9,-6 26,-10 36,-17 55,-38 7,-7 8,-9 13,-18 2,-4 3,-7 5,-10 5,-10 10,-21 14,-33 3,-12 2,-16 2,-27 4,-2 3,-1 3,-8l-1 -29c0,-3 0,-7 -1,-9 -1,-2 -2,-3 -3,-7 -1,-2 -1,-6 -2,-8 -1,-3 -2,-4 -3,-7 -1,-3 -2,-6 -3,-8 -5,-14 -10,-16 -11,-19 -3,-8 -1,-8 -7,-13 -3,-3 -8,-7 -9,-12l-5 0c-2,-8 -8,-14 -16,-16z"/>
  <path class="fil0" d="M1509 5978c-2,2 -1,0 -1,3 0,5 3,6 6,9 5,5 6,4 9,12 1,3 2,5 3,7 7,9 3,5 7,13 4,8 3,10 6,15 5,9 3,8 5,15 1,4 3,4 4,7l1 38c2,-2 0,-33 0,-39 0,-8 -3,-8 -5,-16l-8 -22c-1,-3 -2,-4 -3,-7 -3,-7 -5,-5 -8,-12 -4,-14 -7,-9 -15,-20 -2,-3 0,-2 -2,-3z"/>
  <path class="fil0" d="M1548 6120c2,-3 2,-10 2,-15 -3,1 -3,-2 -2,6 0,3 0,6 0,9z"/>
 </g>
</svg>
